<svg class="svg svg-logo" height="112" viewbox="0 0 112 112" width="112"><path d="M0 0h112v112H0V0z" fill="#278B4D"></path><path d="M60.725 103.089H50.84v-7.921h7.221c1.822-.07 3.367-1.543 3.367-3.296 0-1.823-1.545-3.295-3.437-3.295H50.84v-6.591h6.309c1.192 0 2.244-1.053 2.244-2.314 0-1.4-.91-2.384-2.244-2.384H50.84v-7.222h10.375c3.788-.14 6.941 2.805 7.082 6.521.141 3.576-2.312 6.52-5.679 7.15 4.207 1.121 7.292 4.979 7.292 9.537 0 5.398-4.417 9.886-9.185 9.815zM5.899 70.066h11.076l9.466 33.023H15.363L5.899 70.066zm22.084 33.023l-4.627-16.614 4.627-16.409h9.255l-9.255 33.023zM38.92 70.066h10.166v33.023H38.92V70.066zm32.742 0h9.956v33.023l-9.956-.069V70.066zM92.975 90.47h-9.953v-8.204h9.953v-12.2h10.095v33.023H92.975V90.47z" fill="#FFF"></path></svg>