<svg width="80" height="64" viewBox="0 0 80 64" fill="none" xmlns="http://www.w3.org/2000/svg">
<path d="M52.5963 0C46.1204 0 40.3554 8.60809 36.5647 22.0336C32.7739 8.60809 27.0089 0 20.5331 0C9.16091 0 0 28.6673 0 63.9684H9.16091C9.16091 31.1945 14.2942 4.58045 20.612 4.58045C26.9299 4.58045 32.0632 29.1412 32.0632 59.388H41.2241C41.2241 29.1412 46.3574 4.58045 52.6752 4.58045C58.9931 4.58045 64.1264 31.1945 64.1264 63.9684H73.1293C73.1293 28.5884 63.9684 0 52.5963 0Z" fill="#FFBC0D"/>
<path d="M77.7097 59.388C76.4461 59.388 75.4194 60.3357 75.4194 61.6783C75.4194 63.0208 76.4461 63.9685 77.7097 63.9685C78.9732 63.9685 79.9999 63.0208 79.9999 61.6783C79.9999 60.3357 78.9732 59.388 77.7097 59.388ZM77.7097 63.5736C76.683 63.5736 75.8143 62.7049 75.8143 61.5993C75.8143 60.4937 76.604 59.6249 77.7097 59.6249C78.7363 59.6249 79.605 60.4937 79.605 61.5993C79.605 62.7839 78.8153 63.5736 77.7097 63.5736Z" fill="#FFBC0D"/>
<path d="M78.8156 61.0467C78.8156 60.5729 78.4998 60.257 77.868 60.257H76.8413V62.9421H77.2362V61.8364H77.71L78.4208 63.021H78.8946L78.1049 61.8364C78.4998 61.7575 78.8156 61.5995 78.8156 61.0467ZM77.71 61.5205H77.3152V60.6518H77.868C78.1839 60.6518 78.4208 60.7308 78.4208 61.0467C78.4208 61.5205 78.0259 61.5205 77.71 61.5205Z" fill="#FFBC0D"/>
</svg>
