<?xml version="1.0" encoding="utf-8"?>
<!-- Generator: Adobe Illustrator 16.2.0, SVG Export Plug-In . SVG Version: 6.00 Build 0)  -->
<!DOCTYPE svg PUBLIC "-//W3C//DTD SVG 1.1//EN" "http://www.w3.org/Graphics/SVG/1.1/DTD/svg11.dtd">
<svg version="1.1" id="Ebene_1" xmlns="http://www.w3.org/2000/svg" xmlns:xlink="http://www.w3.org/1999/xlink" x="0px" y="0px"
	 width="286.75px" height="81px" viewBox="0 0 286.75 81" enable-background="new 0 0 286.75 81" xml:space="preserve">
<g id="Ebene_1_1_">
	<g>
		<path d="M91.195,23.358c-1.713-2.76-4.129-5.029-7.017-6.583c-2.936-1.585-6.203-2.406-9.55-2.406H50.062
			c-0.051,0-0.104-0.023-0.138-0.06c-0.037-0.031-0.055-0.079-0.055-0.124V1.08H49.66c-2.487,0-4.873,0.963-6.631,2.69
			c-1.764,1.725-2.752,4.06-2.752,6.502v3.913c0,0.045-0.019,0.093-0.051,0.124c-0.039,0.036-0.09,0.06-0.14,0.06H12.547
			c-4.029,0-7.851,2.102-9.869,5.522c-1.007,1.707-1.512,3.62-1.512,5.528c0,1.91,0.505,3.819,1.512,5.53
			c2.019,3.42,5.742,5.525,9.771,5.525l12.968-0.003c0.759,0,1.461,0.401,1.826,1.051c0.177,0.302,0.263,0.646,0.263,0.991
			c0,0.373-0.101,0.744-0.305,1.075c-0.386,0.597-1.059,0.967-1.784,0.967H1.359l0.051,0.252c1.105,5.109,5.71,8.759,11.039,8.759
			h12.968c4.029,0,7.753-2.104,9.768-5.523c1.008-1.712,1.516-3.62,1.516-5.529c0-1.908-0.508-3.817-1.516-5.525
			c-2.014-3.42-5.738-5.525-9.768-5.525H12.449c-0.763,0-1.459-0.401-1.825-1.047c-0.182-0.313-0.268-0.651-0.268-0.996
			c0-0.369,0.104-0.744,0.31-1.07c0.382-0.606,1.055-0.971,1.779-0.971c0.023,0,0.056,0,0.09,0.004h27.549
			c0.05,0,0.102,0.019,0.132,0.055c0.044,0.035,0.059,0.079,0.059,0.131v17.78c0,3.395,1.91,6.516,4.962,8.111
			c1.381,0.721,2.906,1.082,4.421,1.082c1.822,0,3.643-0.52,5.214-1.546c0.11-0.074,0.185-0.197,0.185-0.336v-8.026l-0.336,0.256
			c-0.543,0.419-1.202,0.641-1.87,0.641c-0.439,0-0.881-0.095-1.294-0.288c-1.033-0.487-1.691-1.51-1.691-2.628V23.567
			c0-0.052,0.015-0.096,0.055-0.127c0.035-0.04,0.087-0.059,0.138-0.059H58c-1.676,2.716-2.559,5.816-2.559,8.992
			c0.007,3.177,0.898,6.281,2.579,8.997c1.713,2.756,4.132,5.024,7.021,6.575c2.937,1.586,6.233,2.404,9.588,2.404
			c3.347,0,6.621-0.826,9.557-2.41c2.89-1.557,5.306-3.828,7.013-6.586c1.68-2.719,2.571-5.796,2.571-8.975
			C93.769,29.201,92.875,26.073,91.195,23.358 M79.279,40.032c-1.437,0.778-3.019,1.18-4.651,1.18c-1.63,0-3.244-0.401-4.682-1.18
			c-1.397-0.757-2.574-1.865-3.408-3.224c-0.815-1.318-1.243-2.838-1.247-4.393c0.004-1.554,0.432-3.072,1.247-4.396
			c0.833-1.353,2.01-2.461,3.408-3.218c1.438-0.78,3.051-1.18,4.682-1.18c1.632,0,3.214,0.399,4.651,1.18
			c1.395,0.757,2.572,1.865,3.408,3.224c0.814,1.318,1.244,2.837,1.248,4.391c-0.003,1.555-0.433,3.074-1.248,4.396
			C81.851,38.167,80.674,39.275,79.279,40.032z"/>
		<rect x="111.256" y="14.4" fill="#FFD700" width="173.374" height="35.219"/>
	</g>
</g>
<g id="ungarisch">
	<g>
		<path d="M113.863,76.012v-9.881h-3.266V65.01h7.868v1.121h-3.282v9.881H113.863z"/>
		<path d="M120.002,72.663c0,1.304,0.247,2.491,1.814,2.491c1.716,0,2.244-1.484,2.244-2.938v-4.421h1.188v6.285
			c0,0.644,0.017,1.287,0.083,1.931h-1.105l-0.033-1.419c-0.577,1.056-1.452,1.601-2.656,1.601c-2.095,0-2.738-1.402-2.738-3.315
			v-5.081h1.205v4.866H120.002z"/>
		<path d="M133.184,76.012l-0.099-1.369c-0.528,1.057-1.435,1.551-2.573,1.551c-2.441,0-3.348-2.211-3.348-4.321
			c0-2.177,0.923-4.238,3.381-4.238c1.039,0,2.062,0.576,2.474,1.552v-5.064h1.204v9.287c0,0.906,0.033,1.748,0.083,2.605h-1.122
			V76.012z M130.742,75.17c1.749,0,2.31-1.847,2.31-3.281c0-1.436-0.61-3.232-2.326-3.232c-1.864,0-2.276,1.716-2.276,3.232
			c0,0.742,0.115,1.566,0.461,2.209C129.258,74.709,129.818,75.17,130.742,75.17z"/>
		<path d="M141.269,76.012l-0.049-1.318c-0.479,1.056-1.518,1.5-2.557,1.5c-1.468,0-2.688-0.774-2.688-2.44
			c0-2.11,1.847-2.737,4.255-2.737h0.924v-0.396c0-1.254-0.479-2.029-1.848-2.029c-0.841,0-1.616,0.23-2.326,0.692l-0.099-1.072
			c0.709-0.346,1.699-0.576,2.474-0.576c2.062,0,2.985,1.007,2.985,3.067v3.563c0,0.609,0.017,1.172,0.099,1.748H141.269
			L141.269,76.012z M140.543,71.889c-1.534,0-3.332,0.164-3.332,1.814c0,1.104,0.775,1.518,1.583,1.518
			c1.749,0,2.359-1.32,2.359-2.838v-0.494H140.543z"/>
		<path d="M148.611,75.945c-0.412,0.182-0.891,0.248-1.336,0.248c-1.684,0-1.896-1.221-1.896-2.723v-4.734h-1.551v-0.939h1.551
			v-1.848l1.188-0.412v2.26h1.863v0.939h-1.863v5.049c0,0.726,0.197,1.369,1.056,1.369c0.33,0,0.61-0.084,0.924-0.215
			L148.611,75.945z"/>
		<path d="M149.668,71.871c0-2.357,1.402-4.238,3.844-4.238c2.573,0,3.844,1.814,3.844,4.238c0,2.375-1.304,4.322-3.844,4.322
			c-0.644,0-1.203-0.115-1.683-0.33C150.395,75.17,149.668,73.67,149.668,71.871z M153.512,75.188c1.799,0,2.557-1.731,2.557-3.315
			c0-1.647-0.709-3.231-2.557-3.231c-1.813,0-2.557,1.648-2.557,3.231c0,0.792,0.182,1.617,0.594,2.26
			C151.961,74.742,152.604,75.188,153.512,75.188z"/>
		<path d="M158.893,74.691c0.658,0.348,1.271,0.512,2.012,0.512c0.925,0,1.566-0.445,1.566-1.369c0-1.996-3.547-1.418-3.547-3.926
			c0-1.648,1.369-2.275,2.656-2.275c0.676,0,1.287,0.131,1.863,0.346l-0.164,1.039c-0.512-0.246-1.105-0.412-1.684-0.412
			c-0.644,0-1.468,0.248-1.468,1.237c0,1.649,3.579,1.138,3.579,3.894c0,1.582-1.336,2.457-2.788,2.457
			c-0.791,0-1.519-0.1-2.177-0.379L158.893,74.691z"/>
		<path d="M170.324,76.012l-0.049-1.318c-0.479,1.056-1.519,1.5-2.558,1.5c-1.469,0-2.688-0.774-2.688-2.44
			c0-2.11,1.848-2.737,4.256-2.737h0.924v-0.396c0-1.254-0.479-2.029-1.848-2.029c-0.842,0-1.616,0.23-2.326,0.692l-0.098-1.072
			c0.709-0.346,1.697-0.576,2.474-0.576c2.062,0,2.985,1.007,2.985,3.067v3.563c0,0.609,0.017,1.172,0.1,1.748H170.324
			L170.324,76.012z M169.6,71.889c-1.535,0-3.332,0.164-3.332,1.814c0,1.104,0.774,1.518,1.582,1.518c1.75,0,2.359-1.32,2.359-2.838
			v-0.494H169.6z"/>
		<path d="M173.807,76.012v-6.285c0-0.643-0.016-1.285-0.082-1.93h1.105l0.049,1.419c0.578-1.056,1.469-1.583,2.656-1.583
			c2.111,0,2.754,1.385,2.754,3.282v5.097h-1.188v-4.865c0-1.304-0.265-2.49-1.849-2.49c-1.715,0-2.242,1.484-2.242,2.937v4.421
			h-1.204V76.012z"/>
		<path d="M187.896,72.053c0,1.584,0.842,3.168,2.903,3.168c0.791,0,1.648-0.23,2.261-0.627l0.049,1.072
			c-0.709,0.346-1.533,0.527-2.31,0.527c-2.838,0-4.157-1.864-4.157-4.322c0-2.094,1.205-4.238,3.662-4.238
			c2.557,0,3.282,2.045,3.282,4.223v0.197H187.896z M192.416,71.162c-0.082-1.121-0.494-2.573-2.094-2.573
			c-1.567,0-2.375,1.402-2.426,2.573H192.416z M189.398,66.361l1.188-2.242h1.402l-1.584,2.242H189.398z"/>
		<path d="M195.273,79.574v-9.022c0-0.974-0.033-1.831-0.084-2.755h1.139l0.066,1.436c0.444-0.973,1.518-1.6,2.605-1.6
			c2.507,0,3.331,2.063,3.331,4.238c0,2.111-0.906,4.322-3.349,4.322c-1.071,0-2.094-0.545-2.508-1.519v4.898L195.273,79.574
			L195.273,79.574z M198.754,75.17c1.83,0,2.275-1.797,2.275-3.299c0-1.518-0.412-3.217-2.275-3.217
			c-1.716,0-2.326,1.766-2.326,3.217c0,0.727,0.148,1.535,0.494,2.193C197.302,74.709,197.879,75.17,198.754,75.17z"/>
		<path d="M204.051,66.361l1.188-2.242h1.402l-1.584,2.242H204.051z M204.232,76.012v-8.215h1.203v8.215H204.232z"/>
		<path d="M211.689,75.945c-0.414,0.182-0.892,0.248-1.336,0.248c-1.685,0-1.897-1.221-1.897-2.723v-4.734h-1.552v-0.939h1.552
			v-1.848l1.188-0.412v2.26h1.863v0.939h-1.863v5.049c0,0.726,0.197,1.369,1.056,1.369c0.329,0,0.61-0.084,0.924-0.215
			L211.689,75.945z"/>
		<path d="M213.967,72.053c0,1.584,0.842,3.168,2.902,3.168c0.792,0,1.65-0.23,2.26-0.627l0.051,1.072
			c-0.709,0.346-1.535,0.527-2.311,0.527c-2.836,0-4.156-1.864-4.156-4.322c0-2.094,1.204-4.238,3.662-4.238
			c2.557,0,3.282,2.045,3.282,4.223v0.197H213.967z M218.486,71.162c-0.082-1.121-0.495-2.573-2.096-2.573
			c-1.566,0-2.375,1.402-2.425,2.573H218.486z"/>
		<path d="M221.342,76.012v-6.285c0-0.643-0.016-1.285-0.082-1.93h1.105l0.049,1.419c0.578-1.056,1.469-1.583,2.656-1.583
			c2.111,0,2.754,1.385,2.754,3.282v5.097h-1.188v-4.865c0-1.304-0.264-2.49-1.848-2.49c-1.716,0-2.242,1.484-2.242,2.937v4.421
			h-1.204V76.012z"/>
		<path d="M230.234,65.967v-1.436h1.205v1.436H230.234z M230.234,76.012v-8.215h1.205v8.215H230.234z"/>
		<path d="M234.162,76.012v-1.469h1.418v1.469H234.162z"/>
	</g>
</g>
</svg>
