<?xml version="1.0" encoding="utf-8"?>
<!-- Generator: Adobe Illustrator 16.2.0, SVG Export Plug-In . SVG Version: 6.00 Build 0)  -->
<!DOCTYPE svg PUBLIC "-//W3C//DTD SVG 1.1//EN" "http://www.w3.org/Graphics/SVG/1.1/DTD/svg11.dtd">
<svg version="1.1" id="Ebene_1" xmlns="http://www.w3.org/2000/svg" xmlns:xlink="http://www.w3.org/1999/xlink" x="0px" y="0px"
	 width="286.75px" height="81px" viewBox="0 0 286.75 81" enable-background="new 0 0 286.75 81" xml:space="preserve">
<g id="Ebene_1_1_">
	<g>
		<path d="M91.195,23.358c-1.713-2.76-4.129-5.029-7.017-6.583c-2.936-1.585-6.203-2.406-9.55-2.406H50.062
			c-0.051,0-0.104-0.023-0.138-0.06c-0.037-0.031-0.055-0.079-0.055-0.124V1.08H49.66c-2.487,0-4.873,0.963-6.631,2.69
			c-1.764,1.725-2.752,4.06-2.752,6.502v3.913c0,0.045-0.019,0.093-0.051,0.124c-0.039,0.036-0.09,0.06-0.14,0.06H12.547
			c-4.029,0-7.851,2.102-9.869,5.522c-1.007,1.707-1.512,3.62-1.512,5.528c0,1.91,0.505,3.819,1.512,5.53
			c2.019,3.42,5.742,5.525,9.771,5.525l12.968-0.003c0.759,0,1.461,0.401,1.826,1.051c0.177,0.302,0.263,0.646,0.263,0.991
			c0,0.373-0.101,0.744-0.305,1.075c-0.386,0.597-1.059,0.967-1.784,0.967H1.359l0.051,0.252c1.105,5.109,5.71,8.759,11.039,8.759
			h12.968c4.029,0,7.753-2.104,9.768-5.523c1.008-1.712,1.516-3.62,1.516-5.529c0-1.908-0.508-3.817-1.516-5.525
			c-2.014-3.42-5.738-5.525-9.768-5.525H12.449c-0.763,0-1.459-0.401-1.825-1.047c-0.182-0.313-0.268-0.651-0.268-0.996
			c0-0.369,0.104-0.744,0.31-1.07c0.382-0.606,1.055-0.971,1.779-0.971c0.023,0,0.056,0,0.09,0.004h27.549
			c0.05,0,0.102,0.019,0.132,0.055c0.044,0.035,0.059,0.079,0.059,0.131v17.78c0,3.395,1.91,6.516,4.962,8.111
			c1.381,0.721,2.906,1.082,4.421,1.082c1.822,0,3.643-0.52,5.214-1.546c0.11-0.074,0.185-0.197,0.185-0.336v-8.026l-0.336,0.256
			c-0.543,0.419-1.202,0.641-1.87,0.641c-0.439,0-0.881-0.095-1.294-0.288c-1.033-0.487-1.691-1.51-1.691-2.628V23.567
			c0-0.052,0.015-0.096,0.055-0.127c0.035-0.04,0.087-0.059,0.138-0.059H58c-1.676,2.716-2.559,5.816-2.559,8.992
			c0.007,3.177,0.898,6.281,2.579,8.997c1.713,2.756,4.132,5.024,7.021,6.575c2.937,1.586,6.233,2.404,9.588,2.404
			c3.347,0,6.621-0.826,9.557-2.41c2.89-1.557,5.306-3.828,7.013-6.586c1.68-2.719,2.571-5.796,2.571-8.975
			C93.769,29.201,92.875,26.073,91.195,23.358 M79.279,40.032c-1.437,0.778-3.019,1.18-4.651,1.18c-1.63,0-3.244-0.401-4.682-1.18
			c-1.397-0.757-2.574-1.865-3.408-3.224c-0.815-1.318-1.243-2.838-1.247-4.393c0.004-1.554,0.432-3.072,1.247-4.396
			c0.833-1.353,2.01-2.461,3.408-3.218c1.438-0.78,3.051-1.18,4.682-1.18c1.632,0,3.214,0.399,4.651,1.18
			c1.395,0.757,2.572,1.865,3.408,3.224c0.814,1.318,1.244,2.837,1.248,4.391c-0.003,1.555-0.433,3.074-1.248,4.396
			C81.851,38.167,80.674,39.275,79.279,40.032z"/>
		<rect x="111.256" y="14.4" fill="#FFD700" width="173.374" height="35.219"/>
	</g>
</g>
<g id="finnisch">
	<g>
		<path d="M111.268,76.012V65.01h1.303v4.768h5.361V65.01h1.32v11.002h-1.32v-5.096h-5.361v5.096H111.268z"/>
		<path d="M123.015,72.664c0,1.303,0.248,2.49,1.814,2.49c1.716,0,2.244-1.484,2.244-2.937v-4.421h1.188v6.284
			c0,0.644,0.017,1.287,0.083,1.93h-1.105l-0.033-1.418c-0.577,1.056-1.452,1.601-2.656,1.601c-2.095,0-2.738-1.402-2.738-3.314
			v-5.081h1.204L123.015,72.664L123.015,72.664z"/>
		<path d="M130.177,71.872c0-2.358,1.402-4.239,3.843-4.239c2.573,0,3.843,1.814,3.843,4.239c0,2.375-1.303,4.321-3.843,4.321
			c-0.644,0-1.204-0.115-1.683-0.33C130.902,75.171,130.177,73.67,130.177,71.872z M134.02,75.188c1.798,0,2.557-1.731,2.557-3.314
			c0-1.648-0.709-3.232-2.557-3.232c-1.814,0-2.557,1.649-2.557,3.232c0,0.792,0.181,1.616,0.594,2.26
			C132.469,74.742,133.113,75.188,134.02,75.188z"/>
		<path d="M139.763,76.012V64.119h1.204v11.893H139.763z"/>
		<path d="M144.085,72.055c0,1.582,0.841,3.166,2.903,3.166c0.791,0,1.648-0.229,2.26-0.627l0.049,1.072
			c-0.709,0.346-1.533,0.527-2.309,0.527c-2.838,0-4.156-1.863-4.156-4.321c0-2.095,1.203-4.239,3.661-4.239
			c2.558,0,3.282,2.045,3.282,4.223v0.199H144.085z M148.604,71.162c-0.082-1.121-0.494-2.572-2.095-2.572
			c-1.565,0-2.375,1.402-2.425,2.572H148.604z"/>
		<path d="M151.461,76.012V64.119h1.204v11.893H151.461z"/>
		<path d="M155.074,76.012V64.119h1.203v11.893H155.074z"/>
		<path d="M158.67,65.967v-1.436h1.205v1.436H158.67z M158.67,76.012v-8.214h1.205v8.214H158.67z"/>
		<path d="M161.904,74.691c0.66,0.348,1.27,0.513,2.012,0.513c0.924,0,1.566-0.445,1.566-1.369c0-1.996-3.545-1.419-3.545-3.926
			c0-1.649,1.369-2.276,2.654-2.276c0.678,0,1.286,0.133,1.864,0.348l-0.165,1.039c-0.512-0.248-1.105-0.414-1.684-0.414
			c-0.643,0-1.469,0.248-1.469,1.238c0,1.648,3.58,1.139,3.58,3.893c0,1.584-1.336,2.457-2.787,2.457
			c-0.793,0-1.518-0.098-2.178-0.379L161.904,74.691z"/>
		<path d="M172.546,75.945c-0.413,0.182-0.892,0.248-1.336,0.248c-1.683,0-1.897-1.221-1.897-2.721v-4.734h-1.551v-0.94h1.551V65.95
			l1.188-0.412v2.26h1.864v0.94H170.5v5.047c0,0.727,0.198,1.369,1.057,1.369c0.33,0,0.609-0.082,0.924-0.215L172.546,75.945z"/>
		<path d="M178.748,76.012l-0.049-1.318c-0.479,1.056-1.518,1.5-2.557,1.5c-1.47,0-2.688-0.774-2.688-2.44
			c0-2.11,1.847-2.737,4.255-2.737h0.924V70.62c0-1.254-0.479-2.029-1.848-2.029c-0.84,0-1.615,0.229-2.325,0.692l-0.099-1.072
			c0.709-0.347,1.699-0.577,2.475-0.577c2.061,0,2.984,1.007,2.984,3.068v3.563c0,0.609,0.018,1.172,0.1,1.748h-1.172V76.012z
			 M178.023,71.889c-1.535,0-3.332,0.166-3.332,1.814c0,1.105,0.774,1.518,1.582,1.518c1.75,0,2.358-1.32,2.358-2.838v-0.494
			H178.023z"/>
		<path d="M186.703,76.012v-6.283c0-0.645-0.016-1.287-0.082-1.931h1.105l0.065,1.55c0.313-0.84,1.17-1.715,2.177-1.715
			c0.247,0,0.445,0,0.692,0.066l-0.065,1.203c-0.215-0.065-0.445-0.098-0.66-0.098c-1.666,0-2.027,1.846-2.027,3.133v4.074H186.703
			L186.703,76.012z"/>
		<path d="M196.568,76.012l-0.049-1.318c-0.479,1.056-1.519,1.5-2.558,1.5c-1.469,0-2.688-0.774-2.688-2.44
			c0-2.11,1.848-2.737,4.256-2.737h0.924V70.62c0-1.254-0.479-2.029-1.848-2.029c-0.842,0-1.617,0.229-2.326,0.692l-0.098-1.072
			c0.709-0.347,1.697-0.577,2.473-0.577c2.063,0,2.986,1.007,2.986,3.068v3.563c0,0.609,0.016,1.172,0.1,1.748h-1.172V76.012z
			 M195.843,71.889c-1.534,0-3.331,0.166-3.331,1.814c0,1.105,0.774,1.518,1.582,1.518c1.749,0,2.359-1.32,2.359-2.838v-0.494
			H195.843z"/>
		<path d="M200.051,76.012V64.119h1.205v7.076l3.48-3.397h1.5l-3.777,3.629l4.223,4.585H205.1l-3.844-4.287v4.287H200.051z"/>
		<path d="M208.68,72.055c0,1.582,0.842,3.166,2.904,3.166c0.791,0,1.648-0.229,2.26-0.627l0.049,1.072
			c-0.709,0.346-1.533,0.527-2.309,0.527c-2.838,0-4.157-1.863-4.157-4.321c0-2.095,1.204-4.239,3.661-4.239
			c2.559,0,3.283,2.045,3.283,4.223v0.199H208.68z M213.199,71.162c-0.082-1.121-0.494-2.572-2.094-2.572
			c-1.567,0-2.375,1.402-2.426,2.572H213.199z"/>
		<path d="M216.057,76.012v-6.283c0-0.645-0.018-1.287-0.082-1.931h1.104l0.051,1.419c0.576-1.057,1.467-1.584,2.655-1.584
			c2.11,0,2.755,1.387,2.755,3.283v5.096h-1.188v-4.865c0-1.303-0.266-2.489-1.849-2.489c-1.716,0-2.244,1.483-2.244,2.936v4.421
			h-1.202V76.012z"/>
		<path d="M228.809,75.945c-0.412,0.182-0.891,0.248-1.336,0.248c-1.682,0-1.896-1.221-1.896-2.721v-4.734h-1.552v-0.94h1.552V65.95
			l1.188-0.412v2.26h1.862v0.94h-1.862v5.047c0,0.727,0.196,1.369,1.055,1.369c0.33,0,0.611-0.082,0.925-0.215L228.809,75.945z"/>
		<path d="M235.012,76.012l-0.049-1.318c-0.479,1.056-1.518,1.5-2.557,1.5c-1.469,0-2.688-0.774-2.688-2.44
			c0-2.11,1.847-2.737,4.255-2.737h0.924V70.62c0-1.254-0.479-2.029-1.848-2.029c-0.84,0-1.615,0.229-2.324,0.692l-0.1-1.072
			c0.709-0.347,1.699-0.577,2.475-0.577c2.062,0,2.984,1.007,2.984,3.068v3.563c0,0.609,0.018,1.172,0.1,1.748h-1.172V76.012z
			 M234.287,71.889c-1.535,0-3.332,0.166-3.332,1.814c0,1.105,0.775,1.518,1.583,1.518c1.749,0,2.358-1.32,2.358-2.838v-0.494
			H234.287z"/>
		<path d="M238.495,76.012v-6.283c0-0.645-0.017-1.287-0.083-1.931h1.105l0.049,1.419c0.545-1.057,1.369-1.584,2.459-1.584
			c1.369,0,2.16,0.857,2.391,1.715c0.396-1.021,1.436-1.715,2.491-1.715c1.666,0,2.558,1.204,2.558,2.787v5.592h-1.205v-5.377
			c0-1.105-0.396-1.979-1.633-1.979c-1.501,0-2.045,1.484-2.045,2.919v4.437h-1.205v-5.377c0-1.105-0.379-1.979-1.615-1.979
			c-1.518,0-2.063,1.484-2.063,2.919v4.437H238.495L238.495,76.012z"/>
		<path d="M251.859,65.967v-1.436h1.205v1.436H251.859z M251.859,76.012v-8.214h1.205v8.214H251.859z"/>
		<path d="M255.094,74.691c0.66,0.348,1.27,0.513,2.012,0.513c0.924,0,1.567-0.445,1.567-1.369c0-1.996-3.546-1.419-3.546-3.926
			c0-1.649,1.369-2.276,2.655-2.276c0.677,0,1.286,0.133,1.864,0.348l-0.166,1.039c-0.512-0.248-1.104-0.414-1.683-0.414
			c-0.644,0-1.469,0.248-1.469,1.238c0,1.648,3.58,1.139,3.58,3.893c0,1.584-1.337,2.457-2.787,2.457
			c-0.793,0-1.519-0.098-2.179-0.379L255.094,74.691z"/>
		<path d="M265.734,75.945c-0.412,0.182-0.892,0.248-1.336,0.248c-1.685,0-1.896-1.221-1.896-2.721v-4.734h-1.551v-0.94h1.551V65.95
			l1.188-0.412v2.26h1.863v0.94h-1.863v5.047c0,0.727,0.197,1.369,1.056,1.369c0.33,0,0.61-0.082,0.924-0.215L265.734,75.945z"/>
		<path d="M271.938,76.012l-0.049-1.318c-0.479,1.056-1.518,1.5-2.557,1.5c-1.469,0-2.689-0.774-2.689-2.44
			c0-2.11,1.849-2.737,4.256-2.737h0.925V70.62c0-1.254-0.479-2.029-1.849-2.029c-0.84,0-1.615,0.229-2.324,0.692l-0.1-1.072
			c0.709-0.347,1.699-0.577,2.475-0.577c2.062,0,2.984,1.007,2.984,3.068v3.563c0,0.609,0.018,1.172,0.1,1.748h-1.172V76.012z
			 M271.213,71.889c-1.535,0-3.332,0.166-3.332,1.814c0,1.105,0.775,1.518,1.584,1.518c1.748,0,2.357-1.32,2.357-2.838v-0.494
			H271.213z"/>
		<path d="M275.752,76.012v-1.468h1.418v1.468H275.752z"/>
	</g>
</g>
</svg>
