<?xml version="1.0" encoding="utf-8"?>
<!-- Generator: Adobe Illustrator 16.2.0, SVG Export Plug-In . SVG Version: 6.00 Build 0)  -->
<!DOCTYPE svg PUBLIC "-//W3C//DTD SVG 1.1//EN" "http://www.w3.org/Graphics/SVG/1.1/DTD/svg11.dtd">
<svg version="1.1" xmlns="http://www.w3.org/2000/svg" xmlns:xlink="http://www.w3.org/1999/xlink" x="0px" y="0px"
	 width="286.75px" height="81px" viewBox="0 0 286.75 81" enable-background="new 0 0 286.75 81" xml:space="preserve">
<font horiz-adv-x="1000">
<!-- Copyright &#xA9; 2008 Linotype GmbH, www.linotype.com. All rights reserved. This font software may not be reproduced, modified, disclosed or transferred without the express written approval of Linotype GmbH. Frutiger is a trademark of Linotype Corp. registered in the U.S. Patent and Trademark Office and may be registered in certain other jurisdictions in the name of Linotype Corp. or its licensee Linotype GmbH. This typeface is original artwork of Adrian Frutiger and Linotype Design Studio. The design may be protected in certain jurisdictions. -->
<!-- Copyright: Copyright 2018 Adobe System Incorporated. All rights reserved. -->
<font-face font-family="FrutigerNextLTW1G-Regular" units-per-em="1000" underline-position="-100" underline-thickness="50"/>
<missing-glyph horiz-adv-x="512" d="M269,117l0,64l-59,0l0,-64M263,241l0,11C263,356 380,371 380,485C380,565 325,609 246,609C207,609 177,602 144,589l4,-47C180,555 213,563 246,563C297,563 328,530 328,486C328,381 216,373 216,250l0,-9M512,0l0,718l-512,0l0,-718M50,667l412,0l0,-617l-412,0z"/>
<glyph unicode="B" horiz-adv-x="549" d="M236,0C364,0 495,37 495,190C495,278 432,336 348,349C427,368 476,419 476,502C476,628 371,667 262,667l-177,0l0,-667M163,605l91,0C325,605 395,581 395,497C395,403 319,376 238,376l-75,0M163,317l60,0C312,317 413,299 413,187C413,84 318,62 234,62l-71,0z"/>
<glyph unicode="C" horiz-adv-x="589" d="M547,86C500,63 448,57 397,57C229,57 134,169 134,333C134,490 233,609 398,609C445,609 502,600 545,580l6,71C507,670 442,677 394,677C191,677 51,532 51,333C51,125 183,-11 394,-11C443,-11 509,-4 553,19z"/>
<glyph unicode="O" horiz-adv-x="701" d="M217,16C255,-2 300,-11 351,-11C552,-11 651,148 651,333C651,522 556,677 351,677C150,677 51,517 51,333C51,189 105,70 217,16M185,144C150,197 134,266 134,333C134,466 198,611 351,611C507,611 567,468 567,333C567,198 507,55 351,55C275,55 221,91 185,144z"/>
<glyph unicode="T" horiz-adv-x="496" d="M288,0l0,599l199,0l0,68l-477,0l0,-68l198,0l0,-599z"/>
<glyph unicode="Y" horiz-adv-x="576" d="M327,0l0,278l248,389l-85,0l-200,-325l-200,325l-88,0l246,-389l0,-278z"/>
<glyph unicode="a" horiz-adv-x="493" d="M348,250l0,-30C348,128 311,48 205,48C156,48 109,73 109,140C109,240 218,250 311,250M426,0C421,35 420,69 420,106l0,216C420,447 364,508 239,508C192,508 132,494 89,473l6,-65C138,436 185,450 236,450C319,450 348,403 348,327l0,-24l-56,0C146,303 34,265 34,137C34,36 108,-11 197,-11C260,-11 323,16 352,80l3,-80z"/>
<glyph unicode="b" horiz-adv-x="543" d="M140,0l2,83C174,19 229,-11 298,-11C446,-11 501,123 501,251C501,383 451,508 299,508C236,508 171,473 146,414l0,307l-73,0l0,-721M173,118C152,158 143,207 143,251C143,339 180,446 284,446C397,446 422,343 422,251C422,160 395,51 284,51C231,51 196,79 173,118z"/>
<glyph unicode="c" horiz-adv-x="443" d="M405,73C370,58 334,50 295,50C180,50 121,146 121,251C121,363 180,447 300,447C336,447 372,437 404,422l6,65C371,500 329,508 288,508C136,508 43,399 43,251C43,106 128,-11 281,-11C325,-11 367,-7 410,8z"/>
<glyph unicode="&#xE7;" horiz-adv-x="443" d="M171,-161C204,-176 228,-180 259,-180C320,-180 360,-151 360,-106C360,-70 333,-49 294,-49C281,-49 277,-50 262,-53l31,42C334,-10 373,-3 410,8l-5,65C370,58 334,50 295,50C180,50 121,146 121,251C121,363 180,447 300,447C336,447 372,437 404,422l6,65C371,500 329,508 288,508C136,508 43,399 43,251C43,113 118,1 257,-10l-42,-59l15,-18C244,-82 257,-80 269,-80C288,-80 308,-86 308,-109C308,-132 285,-143 258,-143C234,-143 209,-137 184,-126z"/>
<glyph unicode="d" horiz-adv-x="543" d="M476,0C473,52 471,103 471,158l0,563l-73,0l0,-307C373,473 311,508 248,508C99,508 43,383 43,251C43,123 98,-11 246,-11C315,-11 370,19 402,83l6,-83M149,116C128,155 121,205 121,250C121,342 146,446 259,446C363,446 400,337 400,250C400,163 366,51 260,51C204,51 170,79 149,116z"/>
<glyph unicode="&#x131;" horiz-adv-x="218" d="M146,0l0,498l-73,0l0,-498z"/>
<glyph unicode="e" horiz-adv-x="491" d="M117,294C120,365 169,450 264,450C361,450 386,362 391,294M462,240l0,12C462,384 418,508 263,508C114,508 41,378 41,251C41,102 121,-11 293,-11C340,-11 390,0 433,21l-3,65C393,62 341,48 293,48C168,48 117,144 117,240z"/>
<glyph unicode="&#xEB;" horiz-adv-x="491" d="M117,294C120,365 169,450 264,450C361,450 386,362 391,294M462,240l0,12C462,384 418,508 263,508C114,508 41,378 41,251C41,102 121,-11 293,-11C340,-11 390,0 433,21l-3,65C393,62 341,48 293,48C168,48 117,144 117,240M364,609l0,87l-66,0l0,-87M209,609l0,87l-66,0l0,-87z"/>
<glyph unicode="f" horiz-adv-x="316" d="M191,0l0,440l111,0l0,58l-112,0l0,67C190,621 201,670 262,670C278,670 295,668 310,661l6,60C299,730 271,731 252,731C130,731 118,633 118,562l0,-64l-97,0l0,-58l97,0l0,-440z"/>
<glyph unicode="g" horiz-adv-x="543" d="M83,-201C134,-217 186,-227 238,-227C401,-227 471,-130 471,25l0,473l-69,0l0,-84C370,478 317,508 246,508C99,508 43,383 43,251C43,128 96,0 244,0C307,0 367,32 398,88l0,-64C398,-84 353,-166 233,-166C182,-166 133,-153 89,-130M148,124C128,160 121,207 121,250C121,342 148,446 260,446C363,446 400,337 400,250C400,166 366,62 259,62C203,62 169,88 148,124z"/>
<glyph unicode="h" horiz-adv-x="539" d="M146,0l0,269C146,357 179,446 282,446C378,446 394,375 394,296l0,-296l72,0l0,309C466,424 422,508 300,508C229,508 178,477 146,414l0,307l-73,0l0,-721z"/>
<glyph unicode="i" horiz-adv-x="218" d="M146,609l0,87l-73,0l0,-87M146,0l0,498l-73,0l0,-498z"/>
<glyph unicode="j" horiz-adv-x="224" d="M151,609l0,87l-72,0l0,-87M-26,-221C-6,-226 15,-227 36,-227C128,-227 151,-162 151,-82l0,580l-72,0l0,-569C79,-119 74,-164 14,-164C2,-164 -9,-162 -20,-158z"/>
<glyph unicode="l" horiz-adv-x="218" d="M146,0l0,721l-73,0l0,-721z"/>
<glyph unicode="m" horiz-adv-x="810" d="M146,0l0,269C146,356 179,446 271,446C346,446 369,393 369,326l0,-326l73,0l0,269C442,356 475,446 566,446C641,446 665,393 665,326l0,-326l73,0l0,339C738,435 684,508 583,508C519,508 456,466 432,404C418,456 370,508 287,508C221,508 171,476 138,412l-3,86l-67,0C72,459 73,420 73,381l0,-381z"/>
<glyph unicode="n" horiz-adv-x="539" d="M146,0l0,268C146,356 178,446 282,446C378,446 394,374 394,295l0,-295l72,0l0,309C466,424 427,508 299,508C227,508 173,476 138,412l-3,86l-67,0C72,459 73,420 73,381l0,-381z"/>
<glyph unicode="o" horiz-adv-x="551" d="M174,9C203,-4 237,-11 276,-11C430,-11 509,107 509,251C509,398 432,508 276,508C128,508 43,394 43,251C43,142 87,51 174,9M157,114C132,153 121,203 121,251C121,347 166,447 276,447C388,447 431,351 431,251C431,155 385,50 276,50C221,50 182,77 157,114z"/>
<glyph unicode="p" horiz-adv-x="543" d="M146,-216l0,297C171,22 233,-11 298,-11C446,-11 501,123 501,251C501,383 451,508 299,508C233,508 168,470 141,411l-4,87l-69,0C71,442 73,390 73,331l0,-547M173,118C152,158 143,207 143,251C143,339 180,446 284,446C397,446 422,343 422,251C422,160 395,51 284,51C231,51 196,79 173,118z"/>
<glyph unicode="." horiz-adv-x="271" d="M179,0l0,89l-86,0l0,-89z"/>
<glyph unicode="r" horiz-adv-x="328" d="M146,0l0,247C146,325 168,437 269,437C282,437 296,435 309,431l4,73C298,508 286,508 271,508C210,508 158,455 139,404l-4,94l-67,0C72,459 73,420 73,381l0,-381z"/>
<glyph unicode="s" horiz-adv-x="389" d="M42,12C82,-5 126,-11 174,-11C262,-11 343,42 343,138C343,305 126,274 126,374C126,434 176,449 215,449C250,449 286,439 317,424l10,63C292,500 255,508 214,508C136,508 53,470 53,370C53,218 268,253 268,132C268,76 229,49 173,49C128,49 91,59 51,80z"/>
<glyph unicode="&#x15F;" horiz-adv-x="389" d="M85,-161C118,-176 142,-180 173,-180C234,-180 274,-151 274,-106C274,-70 247,-49 208,-49C195,-49 191,-50 176,-53l31,45C281,3 343,54 343,138C343,305 126,274 126,374C126,434 176,449 215,449C250,449 286,439 317,424l10,63C292,500 255,508 214,508C136,508 53,470 53,370C53,218 268,253 268,132C268,76 229,49 173,49C128,49 91,59 51,80l-9,-68C81,-4 123,-10 170,-11l-41,-58l15,-18C158,-82 171,-80 183,-80C202,-80 222,-86 222,-109C222,-132 199,-143 172,-143C148,-143 123,-137 98,-126z"/>
<glyph unicode=" " horiz-adv-x="271"/>
<glyph unicode="t" horiz-adv-x="328" d="M303,65C284,57 267,52 247,52C195,52 183,91 183,135l0,306l113,0l0,57l-113,0l0,137l-72,-25l0,-112l-94,0l0,-57l94,0l0,-287C111,63 124,-11 226,-11C253,-11 282,-7 307,4z"/>
<glyph unicode="u" horiz-adv-x="535" d="M144,498l-73,0l0,-308C71,74 110,-11 237,-11C310,-11 363,22 398,86l2,-86l67,0C463,39 462,78 462,117l0,381l-72,0l0,-268C390,142 358,52 254,52C159,52 144,124 144,203z"/>
<glyph unicode="v" horiz-adv-x="443" d="M264,0l169,498l-76,0l-134,-434l-133,434l-79,0l167,-498z"/>
<glyph unicode="w" horiz-adv-x="771" d="M259,0l129,429l127,-429l89,0l155,498l-70,0l-126,-430l-129,430l-87,0l-129,-430l-127,430l-78,0l158,-498z"/>
<glyph unicode="y" horiz-adv-x="444" d="M31,-219C54,-224 67,-227 91,-227C167,-227 207,-164 234,-87l200,585l-76,0l-133,-429l-134,429l-79,0l173,-515l-10,-33C164,-85 137,-165 82,-165C66,-165 52,-161 37,-156z"/>
</font>
</svg>
