<?xml version="1.0" encoding="utf-8"?>
<!-- Generator: Adobe Illustrator 27.3.1, SVG Export Plug-In . SVG Version: 6.00 Build 0)  -->
<svg version="1.1" id="Capa_1" xmlns="http://www.w3.org/2000/svg" xmlns:xlink="http://www.w3.org/1999/xlink" x="0px" y="0px"
	 viewBox="0 0 286.75 81" style="enable-background:new 0 0 286.75 81;" xml:space="preserve">
<style type="text/css">
	.st0{clip-path:url(#SVGID_00000042700286602153556620000005800170436902313902_);}
	.st1{clip-path:url(#SVGID_00000042700286602153556620000005800170436902313902_);fill:#FFD500;}
</style>
<g>
	<defs>
		<rect id="SVGID_1_" width="286.75" height="81"/>
	</defs>
	<clipPath id="SVGID_00000025416920845093380420000018212604716976735108_">
		<use xlink:href="#SVGID_1_"  style="overflow:visible;"/>
	</clipPath>
	<path style="clip-path:url(#SVGID_00000025416920845093380420000018212604716976735108_);" d="M91.19,23.36
		c-1.71-2.76-4.13-5.03-7.02-6.58c-2.94-1.58-6.2-2.41-9.55-2.41H50.06c-0.05,0-0.1-0.02-0.14-0.06c-0.04-0.03-0.06-0.08-0.06-0.12
		V1.08h-0.21c-2.49,0-4.87,0.96-6.63,2.69c-1.76,1.72-2.75,4.06-2.75,6.5v3.91c0,0.04-0.02,0.09-0.05,0.12
		c-0.04,0.04-0.09,0.06-0.14,0.06H12.55c-4.03,0-7.85,2.1-9.87,5.52c-1.01,1.71-1.51,3.62-1.51,5.53c0,1.91,0.5,3.82,1.51,5.53
		c2.02,3.42,5.74,5.53,9.77,5.53l12.97,0c0.76,0,1.46,0.4,1.83,1.05c0.18,0.3,0.26,0.65,0.26,0.99c0,0.37-0.1,0.74-0.31,1.08
		c-0.39,0.6-1.06,0.97-1.78,0.97H1.36l0.05,0.25c1.11,5.11,5.71,8.76,11.04,8.76h12.97c4.03,0,7.75-2.1,9.77-5.52
		c1.01-1.71,1.52-3.62,1.52-5.53c0-1.91-0.51-3.82-1.52-5.53c-2.01-3.42-5.74-5.53-9.77-5.53H12.45c-0.76,0-1.46-0.4-1.82-1.05
		c-0.18-0.31-0.27-0.65-0.27-1c0-0.37,0.1-0.74,0.31-1.07c0.38-0.61,1.06-0.97,1.78-0.97c0.02,0,0.06,0,0.09,0h27.55
		c0.05,0,0.1,0.02,0.13,0.05c0.04,0.03,0.06,0.08,0.06,0.13v17.78c0,3.39,1.91,6.51,4.96,8.11c1.38,0.72,2.91,1.08,4.42,1.08
		c1.82,0,3.64-0.52,5.22-1.55c0.11-0.07,0.18-0.2,0.18-0.34v-8.03l-0.34,0.26c-0.54,0.42-1.2,0.64-1.87,0.64
		c-0.44,0-0.88-0.09-1.29-0.29c-1.03-0.49-1.69-1.51-1.69-2.63V23.57c0-0.05,0.01-0.1,0.06-0.13c0.03-0.04,0.09-0.06,0.14-0.06H58
		c-1.68,2.72-2.56,5.82-2.56,8.99c0.01,3.18,0.9,6.28,2.58,9c1.71,2.76,4.13,5.03,7.02,6.58c2.94,1.58,6.23,2.4,9.59,2.4
		c3.35,0,6.62-0.83,9.56-2.41c2.89-1.56,5.31-3.83,7.01-6.59c1.68-2.72,2.57-5.8,2.57-8.97C93.77,29.2,92.87,26.07,91.19,23.36
		 M79.28,40.03c-1.44,0.78-3.02,1.18-4.65,1.18c-1.63,0-3.24-0.4-4.68-1.18c-1.4-0.76-2.57-1.86-3.41-3.22
		c-0.81-1.32-1.24-2.84-1.25-4.39c0-1.55,0.43-3.07,1.25-4.4c0.83-1.35,2.01-2.46,3.41-3.22c1.44-0.78,3.05-1.18,4.68-1.18
		c1.63,0,3.21,0.4,4.65,1.18c1.39,0.76,2.57,1.86,3.41,3.22c0.81,1.32,1.24,2.84,1.25,4.39c0,1.55-0.43,3.07-1.25,4.4
		C81.85,38.17,80.67,39.28,79.28,40.03"/>
	
		<rect x="111.26" y="14.4" style="clip-path:url(#SVGID_00000025416920845093380420000018212604716976735108_);fill:#FFD500;" width="173.37" height="35.22"/>
	<path style="clip-path:url(#SVGID_00000025416920845093380420000018212604716976735108_);" d="M119.55,75.7
		c-0.73,0.38-1.81,0.5-2.62,0.5c-3.48,0-5.66-2.24-5.66-5.67c0-3.28,2.31-5.68,5.66-5.68c0.79,0,1.86,0.12,2.59,0.43l-0.1,1.17
		c-0.71-0.33-1.65-0.48-2.43-0.48c-2.72,0-4.35,1.96-4.35,4.55c0,2.7,1.57,4.55,4.34,4.55c0.84,0,1.7-0.1,2.47-0.48L119.55,75.7z"/>
	<path style="clip-path:url(#SVGID_00000025416920845093380420000018212604716976735108_);" d="M120.86,71.87
		c0-2.36,1.4-4.24,3.84-4.24c2.57,0,3.84,1.82,3.84,4.24c0,2.38-1.3,4.32-3.84,4.32c-0.64,0-1.2-0.11-1.68-0.33
		C121.59,75.17,120.86,73.67,120.86,71.87 M124.7,75.19c1.8,0,2.56-1.73,2.56-3.32c0-1.65-0.71-3.23-2.56-3.23
		c-1.81,0-2.56,1.65-2.56,3.23c0,0.79,0.18,1.62,0.59,2.26C123.15,74.74,123.8,75.19,124.7,75.19"/>
	<path style="clip-path:url(#SVGID_00000025416920845093380420000018212604716976735108_);" d="M130.45,76.01v-6.29
		c0-0.64-0.02-1.29-0.08-1.93h1.1l0.05,1.42c0.58-1.06,1.47-1.58,2.66-1.58c2.11,0,2.75,1.39,2.75,3.28v5.1h-1.19v-4.87
		c0-1.3-0.26-2.49-1.85-2.49c-1.71,0-2.24,1.48-2.24,2.94v4.42H130.45z"/>
	<path style="clip-path:url(#SVGID_00000025416920845093380420000018212604716976735108_);" d="M138.98,74.69
		c0.66,0.35,1.27,0.51,2.01,0.51c0.92,0,1.57-0.45,1.57-1.37c0-2-3.55-1.42-3.55-3.93c0-1.65,1.37-2.28,2.65-2.28
		c0.68,0,1.29,0.13,1.87,0.35l-0.17,1.04c-0.51-0.25-1.11-0.41-1.68-0.41c-0.64,0-1.47,0.25-1.47,1.24c0,1.65,3.58,1.14,3.58,3.89
		c0,1.58-1.34,2.46-2.79,2.46c-0.79,0-1.52-0.1-2.18-0.38L138.98,74.69z"/>
	<path style="clip-path:url(#SVGID_00000025416920845093380420000018212604716976735108_);" d="M149.62,75.95
		c-0.41,0.18-0.89,0.25-1.34,0.25c-1.68,0-1.9-1.22-1.9-2.72v-4.73h-1.55V67.8h1.55v-1.85l1.19-0.41v2.26h1.86v0.94h-1.86v5.05
		c0,0.72,0.2,1.37,1.06,1.37c0.33,0,0.61-0.08,0.92-0.21L149.62,75.95z"/>
	<path style="clip-path:url(#SVGID_00000025416920845093380420000018212604716976735108_);" d="M151.17,76.01v-6.29
		c0-0.64-0.02-1.29-0.08-1.93h1.1l0.07,1.55c0.31-0.84,1.17-1.72,2.18-1.72c0.25,0,0.45,0,0.69,0.07l-0.07,1.2
		c-0.21-0.07-0.45-0.1-0.66-0.1c-1.67,0-2.03,1.85-2.03,3.13v4.07H151.17z"/>
	<path style="clip-path:url(#SVGID_00000025416920845093380420000018212604716976735108_);" d="M157.75,72.66
		c0,1.3,0.25,2.49,1.81,2.49c1.72,0,2.24-1.48,2.24-2.94V67.8H163v6.28c0,0.64,0.02,1.29,0.08,1.93h-1.1l-0.03-1.42
		c-0.58,1.05-1.45,1.6-2.65,1.6c-2.1,0-2.74-1.4-2.74-3.32V67.8h1.2V72.66z"/>
	<path style="clip-path:url(#SVGID_00000025416920845093380420000018212604716976735108_);" d="M165.41,64.53h1.2v1.44h-1.2V64.53z
		 M165.41,67.8h1.2v8.22h-1.2V67.8z"/>
	<path style="clip-path:url(#SVGID_00000025416920845093380420000018212604716976735108_);" d="M169,76.01v-6.29
		c0-0.64-0.02-1.29-0.08-1.93h1.1l0.07,1.55c0.31-0.84,1.17-1.72,2.18-1.72c0.25,0,0.44,0,0.69,0.07l-0.07,1.2
		c-0.21-0.07-0.45-0.1-0.66-0.1c-1.67,0-2.03,1.85-2.03,3.13v4.07H169z"/>
	<path style="clip-path:url(#SVGID_00000025416920845093380420000018212604716976735108_);" d="M184.45,75.88
		c-0.71,0.25-1.4,0.31-2.13,0.31c-2.52,0-3.93-1.93-3.93-4.32c0-2.44,1.53-4.24,4.04-4.24c0.68,0,1.37,0.13,2.01,0.35l-0.1,1.07
		c-0.53-0.25-1.12-0.41-1.71-0.41c-1.98,0-2.95,1.39-2.95,3.23c0,1.73,0.97,3.32,2.87,3.32c0.64,0,1.24-0.13,1.81-0.38L184.45,75.88
		z"/>
	<path style="clip-path:url(#SVGID_00000025416920845093380420000018212604716976735108_);" d="M185.7,71.87
		c0-2.36,1.4-4.24,3.84-4.24c2.57,0,3.84,1.82,3.84,4.24c0,2.38-1.3,4.32-3.84,4.32c-0.64,0-1.2-0.11-1.68-0.33
		C186.43,75.17,185.7,73.67,185.7,71.87 M189.55,75.19c1.8,0,2.56-1.73,2.56-3.32c0-1.65-0.71-3.23-2.56-3.23
		c-1.81,0-2.56,1.65-2.56,3.23c0,0.79,0.18,1.62,0.59,2.26C187.99,74.74,188.64,75.19,189.55,75.19"/>
	<path style="clip-path:url(#SVGID_00000025416920845093380420000018212604716976735108_);" d="M195.29,76.01v-6.29
		c0-0.64-0.02-1.29-0.08-1.93h1.1l0.05,1.42c0.58-1.06,1.47-1.58,2.66-1.58c2.11,0,2.75,1.39,2.75,3.28v5.1h-1.19v-4.87
		c0-1.3-0.26-2.49-1.85-2.49c-1.72,0-2.24,1.48-2.24,2.94v4.42H195.29z"/>
	<path style="clip-path:url(#SVGID_00000025416920845093380420000018212604716976735108_);" d="M214.21,75.88
		c-0.71,0.25-1.4,0.31-2.13,0.31c-2.52,0-3.93-1.93-3.93-4.32c0-2.44,1.53-4.24,4.04-4.24c0.68,0,1.37,0.13,2.01,0.35l-0.1,1.07
		c-0.53-0.25-1.12-0.41-1.71-0.41c-1.98,0-2.95,1.39-2.95,3.23c0,1.73,0.97,3.32,2.87,3.32c0.64,0,1.24-0.13,1.81-0.38L214.21,75.88
		z"/>
	<path style="clip-path:url(#SVGID_00000025416920845093380420000018212604716976735108_);" d="M215.47,71.87
		c0-2.36,1.4-4.24,3.84-4.24c2.57,0,3.84,1.82,3.84,4.24c0,2.38-1.3,4.32-3.84,4.32c-0.64,0-1.2-0.11-1.68-0.33
		C216.19,75.17,215.47,73.67,215.47,71.87 M219.31,75.19c1.8,0,2.56-1.73,2.56-3.32c0-1.65-0.71-3.23-2.56-3.23
		c-1.81,0-2.56,1.65-2.56,3.23c0,0.79,0.18,1.62,0.59,2.26C217.76,74.74,218.4,75.19,219.31,75.19"/>
	<path style="clip-path:url(#SVGID_00000025416920845093380420000018212604716976735108_);" d="M225.05,76.01v-6.29
		c0-0.64-0.02-1.29-0.08-1.93h1.1l0.05,1.42c0.58-1.06,1.47-1.58,2.66-1.58c2.11,0,2.75,1.39,2.75,3.28v5.1h-1.19v-4.87
		c0-1.3-0.26-2.49-1.85-2.49c-1.72,0-2.24,1.48-2.24,2.94v4.42H225.05z"/>
	<path style="clip-path:url(#SVGID_00000025416920845093380420000018212604716976735108_);" d="M239.51,75.88
		c-0.71,0.25-1.4,0.31-2.13,0.31c-2.52,0-3.93-1.93-3.93-4.32c0-2.44,1.53-4.24,4.04-4.24c0.68,0,1.37,0.13,2.01,0.35l-0.1,1.07
		c-0.53-0.25-1.12-0.41-1.71-0.41c-1.98,0-2.95,1.39-2.95,3.23c0,1.73,0.97,3.32,2.87,3.32c0.64,0,1.24-0.13,1.81-0.38L239.51,75.88
		z"/>
	<path style="clip-path:url(#SVGID_00000025416920845093380420000018212604716976735108_);" d="M241.26,64.53h1.2v1.44h-1.2V64.53z
		 M241.26,67.8h1.2v8.22h-1.2V67.8z"/>
	<path style="clip-path:url(#SVGID_00000025416920845093380420000018212604716976735108_);" d="M245.58,72.05
		c0,1.58,0.84,3.17,2.9,3.17c0.79,0,1.65-0.23,2.26-0.63l0.05,1.07c-0.71,0.35-1.53,0.53-2.31,0.53c-2.84,0-4.16-1.86-4.16-4.32
		c0-2.09,1.2-4.24,3.66-4.24c2.56,0,3.28,2.04,3.28,4.22v0.2H245.58z M250.1,71.16c-0.08-1.12-0.5-2.57-2.1-2.57
		c-1.57,0-2.38,1.4-2.43,2.57H250.1z"/>
	<path style="clip-path:url(#SVGID_00000025416920845093380420000018212604716976735108_);" d="M252.96,76.01v-6.29
		c0-0.64-0.02-1.29-0.08-1.93h1.1l0.05,1.42c0.58-1.06,1.47-1.58,2.66-1.58c2.11,0,2.75,1.39,2.75,3.28v5.1h-1.19v-4.87
		c0-1.3-0.26-2.49-1.85-2.49c-1.71,0-2.24,1.48-2.24,2.94v4.42H252.96z"/>
	<path style="clip-path:url(#SVGID_00000025416920845093380420000018212604716976735108_);" d="M267.41,75.88
		c-0.71,0.25-1.4,0.31-2.13,0.31c-2.52,0-3.93-1.93-3.93-4.32c0-2.44,1.53-4.24,4.04-4.24c0.68,0,1.37,0.13,2.01,0.35l-0.1,1.07
		c-0.53-0.25-1.12-0.41-1.71-0.41c-1.98,0-2.95,1.39-2.95,3.23c0,1.73,0.97,3.32,2.87,3.32c0.64,0,1.24-0.13,1.81-0.38L267.41,75.88
		z"/>
	<path style="clip-path:url(#SVGID_00000025416920845093380420000018212604716976735108_);" d="M269.16,64.53h1.2v1.44h-1.2V64.53z
		 M269.16,67.8h1.2v8.22h-1.2V67.8z"/>
	<path style="clip-path:url(#SVGID_00000025416920845093380420000018212604716976735108_);" d="M277.41,76.01l-0.05-1.32
		c-0.48,1.05-1.52,1.5-2.56,1.5c-1.47,0-2.69-0.78-2.69-2.44c0-2.11,1.85-2.74,4.26-2.74h0.92v-0.4c0-1.25-0.48-2.03-1.85-2.03
		c-0.84,0-1.62,0.23-2.33,0.69l-0.1-1.07c0.71-0.35,1.7-0.58,2.48-0.58c2.06,0,2.98,1.01,2.98,3.07v3.56c0,0.61,0.02,1.17,0.1,1.75
		H277.41z M276.68,71.89c-1.53,0-3.33,0.16-3.33,1.81c0,1.11,0.77,1.52,1.58,1.52c1.75,0,2.36-1.32,2.36-2.84v-0.49H276.68z"/>
	
		<rect x="281.22" y="74.54" style="clip-path:url(#SVGID_00000025416920845093380420000018212604716976735108_);" width="1.42" height="1.47"/>
</g>
</svg>
