<?xml version="1.0" encoding="utf-8"?>
<!-- Generator: Adobe Illustrator 16.2.0, SVG Export Plug-In . SVG Version: 6.00 Build 0)  -->
<!DOCTYPE svg PUBLIC "-//W3C//DTD SVG 1.1//EN" "http://www.w3.org/Graphics/SVG/1.1/DTD/svg11.dtd">
<svg version="1.1" id="Ebene_1" xmlns="http://www.w3.org/2000/svg" xmlns:xlink="http://www.w3.org/1999/xlink" x="0px" y="0px"
	 width="286.75px" height="81px" viewBox="0 0 286.75 81" enable-background="new 0 0 286.75 81" xml:space="preserve">
<g id="Ebene_1_1_">
	<g>
		<path d="M91.195,23.358c-1.713-2.76-4.129-5.029-7.017-6.583c-2.936-1.585-6.203-2.406-9.55-2.406H50.062
			c-0.051,0-0.104-0.023-0.138-0.06c-0.037-0.031-0.055-0.079-0.055-0.124V1.08H49.66c-2.487,0-4.873,0.963-6.631,2.69
			c-1.764,1.725-2.752,4.06-2.752,6.502v3.913c0,0.045-0.019,0.093-0.051,0.124c-0.039,0.036-0.09,0.06-0.14,0.06H12.547
			c-4.029,0-7.851,2.102-9.869,5.522c-1.007,1.707-1.512,3.62-1.512,5.528c0,1.91,0.505,3.819,1.512,5.53
			c2.019,3.42,5.742,5.525,9.771,5.525l12.968-0.003c0.759,0,1.461,0.401,1.826,1.051c0.177,0.302,0.263,0.646,0.263,0.991
			c0,0.373-0.101,0.744-0.305,1.075c-0.386,0.597-1.059,0.967-1.784,0.967H1.359l0.051,0.252c1.105,5.109,5.71,8.759,11.039,8.759
			h12.968c4.029,0,7.753-2.104,9.768-5.523c1.008-1.712,1.516-3.62,1.516-5.529c0-1.908-0.508-3.817-1.516-5.525
			c-2.014-3.42-5.738-5.525-9.768-5.525H12.449c-0.763,0-1.459-0.401-1.825-1.047c-0.182-0.313-0.268-0.651-0.268-0.996
			c0-0.369,0.104-0.744,0.31-1.07c0.382-0.606,1.055-0.971,1.779-0.971c0.023,0,0.056,0,0.09,0.004h27.549
			c0.05,0,0.102,0.019,0.132,0.055c0.044,0.035,0.059,0.079,0.059,0.131v17.78c0,3.395,1.91,6.516,4.962,8.111
			c1.381,0.721,2.906,1.082,4.421,1.082c1.822,0,3.643-0.52,5.214-1.546c0.11-0.074,0.185-0.197,0.185-0.336v-8.026l-0.336,0.256
			c-0.543,0.419-1.202,0.641-1.87,0.641c-0.439,0-0.881-0.095-1.294-0.288c-1.033-0.487-1.691-1.51-1.691-2.628V23.567
			c0-0.052,0.015-0.096,0.055-0.127c0.035-0.04,0.087-0.059,0.138-0.059H58c-1.676,2.716-2.559,5.816-2.559,8.992
			c0.007,3.177,0.898,6.281,2.579,8.997c1.713,2.756,4.132,5.024,7.021,6.575c2.937,1.586,6.233,2.404,9.588,2.404
			c3.347,0,6.621-0.826,9.557-2.41c2.89-1.557,5.306-3.828,7.013-6.586c1.68-2.719,2.571-5.796,2.571-8.975
			C93.769,29.201,92.875,26.073,91.195,23.358 M79.279,40.032c-1.437,0.778-3.019,1.18-4.651,1.18c-1.63,0-3.244-0.401-4.682-1.18
			c-1.397-0.757-2.574-1.865-3.408-3.224c-0.815-1.318-1.243-2.838-1.247-4.393c0.004-1.554,0.432-3.072,1.247-4.396
			c0.833-1.353,2.01-2.461,3.408-3.218c1.438-0.78,3.051-1.18,4.682-1.18c1.632,0,3.214,0.399,4.651,1.18
			c1.395,0.757,2.572,1.865,3.408,3.224c0.814,1.318,1.244,2.837,1.248,4.391c-0.003,1.555-0.433,3.074-1.248,4.396
			C81.851,38.167,80.674,39.275,79.279,40.032z"/>
		<rect x="111.256" y="14.4" fill="#FFD700" width="173.374" height="35.219"/>
	</g>
</g>
<g id="italienisch">
	<g display="inline">
		<path d="M119.461,75.713c-0.726,0.38-1.814,0.496-2.623,0.496c-3.48,0-5.658-2.244-5.658-5.675c0-3.282,2.309-5.675,5.658-5.675
			c0.792,0,1.864,0.115,2.589,0.43l-0.099,1.171c-0.709-0.33-1.649-0.479-2.425-0.479c-2.722,0-4.354,1.963-4.354,4.554
			c0,2.705,1.567,4.552,4.338,4.552c0.841,0,1.699-0.098,2.474-0.479L119.461,75.713z"/>
		<path d="M120.767,71.887c0-2.359,1.402-4.238,3.843-4.238c2.573,0,3.843,1.813,3.843,4.238c0,2.375-1.303,4.322-3.843,4.322
			c-0.644,0-1.204-0.116-1.683-0.33C121.493,75.186,120.767,73.686,120.767,71.887z M124.61,75.202c1.798,0,2.557-1.731,2.557-3.315
			c0-1.648-0.709-3.232-2.557-3.232c-1.814,0-2.557,1.648-2.557,3.232c0,0.791,0.181,1.616,0.594,2.26
			C123.06,74.757,123.703,75.202,124.61,75.202z"/>
		<path d="M129.99,74.707c0.66,0.348,1.27,0.512,2.012,0.512c0.924,0,1.567-0.445,1.567-1.369c0-1.996-3.546-1.418-3.546-3.926
			c0-1.648,1.369-2.275,2.656-2.275c0.676,0,1.287,0.131,1.864,0.347l-0.165,1.039c-0.512-0.248-1.105-0.412-1.683-0.412
			c-0.643,0-1.468,0.247-1.468,1.235c0,1.65,3.58,1.14,3.58,3.894c0,1.584-1.336,2.459-2.788,2.459c-0.792,0-1.518-0.101-2.177-0.38
			L129.99,74.707z"/>
		<path d="M140.631,75.961c-0.413,0.182-0.891,0.248-1.336,0.248c-1.683,0-1.897-1.221-1.897-2.723v-4.734h-1.551v-0.939h1.551
			v-1.848l1.188-0.412v2.26h1.864v0.939h-1.864v5.049c0,0.725,0.198,1.368,1.056,1.368c0.33,0,0.61-0.083,0.924-0.214
			L140.631,75.961z"/>
		<path d="M142.183,76.027v-6.285c0-0.643-0.017-1.287-0.083-1.93h1.104l0.066,1.551c0.313-0.842,1.171-1.717,2.178-1.717
			c0.247,0,0.444,0,0.692,0.065l-0.065,1.205c-0.216-0.065-0.445-0.101-0.66-0.101c-1.666,0-2.029,1.849-2.029,3.136v4.073h-1.203
			V76.027z"/>
		<path d="M148.766,72.678c0,1.305,0.248,2.491,1.814,2.491c1.716,0,2.244-1.483,2.244-2.937v-4.42h1.188v6.285
			c0,0.643,0.016,1.285,0.082,1.93h-1.104l-0.033-1.42c-0.576,1.057-1.451,1.602-2.655,1.602c-2.095,0-2.738-1.402-2.738-3.316
			v-5.08h1.205v4.865H148.766z"/>
		<path d="M156.422,65.98v-1.435h1.204v1.435H156.422z M156.422,76.027v-8.215h1.204v8.215H156.422L156.422,76.027z"/>
		<path d="M160.02,76.027v-6.285c0-0.643-0.018-1.287-0.084-1.93h1.105l0.066,1.551c0.313-0.842,1.17-1.717,2.178-1.717
			c0.246,0,0.445,0,0.691,0.065l-0.065,1.205c-0.214-0.065-0.445-0.101-0.659-0.101c-1.666,0-2.029,1.849-2.029,3.136v4.073h-1.203
			V76.027z"/>
		<path d="M165.958,72.068c0,1.582,0.841,3.166,2.903,3.166c0.791,0,1.648-0.23,2.26-0.627l0.049,1.072
			c-0.709,0.348-1.533,0.528-2.309,0.528c-2.838,0-4.156-1.865-4.156-4.322c0-2.095,1.203-4.239,3.661-4.239
			c2.558,0,3.282,2.047,3.282,4.224v0.198H165.958z M170.479,71.178c-0.082-1.121-0.496-2.574-2.096-2.574
			c-1.566,0-2.375,1.402-2.425,2.574H170.479z"/>
		<path d="M183.363,75.895c-0.709,0.248-1.4,0.314-2.127,0.314c-2.523,0-3.926-1.932-3.926-4.322c0-2.441,1.533-4.238,4.041-4.238
			c0.676,0,1.369,0.131,2.012,0.347l-0.098,1.071c-0.527-0.248-1.121-0.412-1.717-0.412c-1.979,0-2.951,1.386-2.951,3.232
			c0,1.732,0.973,3.315,2.868,3.315c0.646,0,1.238-0.132,1.813-0.38L183.363,75.895z"/>
		<path d="M184.621,71.887c0-2.359,1.4-4.238,3.843-4.238c2.573,0,3.843,1.813,3.843,4.238c0,2.375-1.303,4.322-3.843,4.322
			c-0.644,0-1.204-0.116-1.683-0.33C185.346,75.186,184.621,73.686,184.621,71.887z M188.464,75.202
			c1.798,0,2.558-1.731,2.558-3.315c0-1.648-0.711-3.232-2.558-3.232c-1.813,0-2.557,1.648-2.557,3.232
			c0,0.791,0.181,1.616,0.594,2.26C186.913,74.757,187.557,75.202,188.464,75.202z"/>
		<path d="M194.207,76.027v-6.285c0-0.643-0.018-1.287-0.083-1.93h1.104l0.051,1.418c0.576-1.056,1.467-1.584,2.654-1.584
			c2.111,0,2.756,1.387,2.756,3.283v5.098h-1.188v-4.866c0-1.304-0.265-2.491-1.849-2.491c-1.715,0-2.243,1.484-2.243,2.938v4.42
			H194.207L194.207,76.027z"/>
		<path d="M213.13,75.895c-0.709,0.248-1.401,0.314-2.128,0.314c-2.523,0-3.926-1.932-3.926-4.322c0-2.441,1.533-4.238,4.041-4.238
			c0.677,0,1.369,0.131,2.013,0.347l-0.099,1.071c-0.527-0.248-1.121-0.412-1.717-0.412c-1.979,0-2.951,1.386-2.951,3.232
			c0,1.732,0.973,3.315,2.869,3.315c0.645,0,1.238-0.132,1.813-0.38L213.13,75.895z"/>
		<path d="M214.387,71.887c0-2.359,1.401-4.238,3.844-4.238c2.572,0,3.843,1.813,3.843,4.238c0,2.375-1.304,4.322-3.843,4.322
			c-0.645,0-1.205-0.116-1.684-0.33C215.111,75.186,214.387,73.686,214.387,71.887z M218.229,75.202
			c1.799,0,2.558-1.731,2.558-3.315c0-1.648-0.71-3.232-2.558-3.232c-1.813,0-2.557,1.648-2.557,3.232
			c0,0.791,0.182,1.616,0.594,2.26C216.68,74.757,217.322,75.202,218.229,75.202z"/>
		<path d="M223.609,74.707c0.66,0.348,1.27,0.512,2.012,0.512c0.924,0,1.566-0.445,1.566-1.369c0-1.996-3.545-1.418-3.545-3.926
			c0-1.648,1.368-2.275,2.654-2.275c0.678,0,1.286,0.131,1.864,0.347l-0.165,1.039c-0.512-0.248-1.105-0.412-1.684-0.412
			c-0.643,0-1.469,0.247-1.469,1.235c0,1.65,3.58,1.14,3.58,3.894c0,1.584-1.336,2.459-2.787,2.459c-0.793,0-1.518-0.101-2.178-0.38
			L223.609,74.707z"/>
		<path d="M235.949,75.895c-0.709,0.248-1.402,0.314-2.127,0.314c-2.524,0-3.926-1.932-3.926-4.322c0-2.441,1.533-4.238,4.041-4.238
			c0.676,0,1.369,0.131,2.012,0.347l-0.1,1.071c-0.527-0.248-1.121-0.412-1.716-0.412c-1.979,0-2.952,1.386-2.952,3.232
			c0,1.732,0.975,3.315,2.87,3.315c0.644,0,1.236-0.132,1.814-0.38L235.949,75.895z"/>
		<path d="M237.7,65.98v-1.435h1.204v1.435H237.7z M237.7,76.027v-8.215h1.204v8.215H237.7L237.7,76.027z"/>
		<path d="M242.021,72.068c0,1.582,0.842,3.166,2.903,3.166c0.791,0,1.649-0.23,2.261-0.627l0.049,1.072
			c-0.709,0.348-1.533,0.528-2.31,0.528c-2.837,0-4.155-1.865-4.155-4.322c0-2.095,1.203-4.239,3.66-4.239
			c2.559,0,3.282,2.047,3.282,4.224v0.198H242.021z M246.542,71.178c-0.082-1.121-0.495-2.574-2.095-2.574
			c-1.566,0-2.375,1.402-2.426,2.574H246.542z"/>
		<path d="M249.398,76.027v-6.285c0-0.643-0.018-1.287-0.082-1.93h1.104l0.051,1.418c0.576-1.056,1.467-1.584,2.655-1.584
			c2.11,0,2.754,1.387,2.754,3.283v5.098h-1.188v-4.866c0-1.304-0.264-2.491-1.848-2.491c-1.715,0-2.242,1.484-2.242,2.938v4.42
			H249.398L249.398,76.027z"/>
		<path d="M257.582,76.027v-0.975l4.635-6.283h-4.453v-0.957h5.807v0.973l-4.635,6.285h4.668v0.957H257.582z"/>
		<path d="M269.938,76.027l-0.049-1.32c-0.479,1.057-1.518,1.502-2.557,1.502c-1.469,0-2.689-0.775-2.689-2.441
			c0-2.11,1.849-2.738,4.256-2.738h0.925v-0.396c0-1.254-0.479-2.028-1.849-2.028c-0.84,0-1.615,0.23-2.324,0.692l-0.1-1.071
			c0.709-0.347,1.699-0.578,2.475-0.578c2.062,0,2.984,1.008,2.984,3.067v3.563c0,0.609,0.018,1.171,0.1,1.748H269.938
			L269.938,76.027z M269.213,71.902c-1.535,0-3.332,0.166-3.332,1.814c0,1.104,0.775,1.518,1.584,1.518
			c1.748,0,2.357-1.318,2.357-2.836v-0.496H269.213z"/>
		<path d="M273.752,76.027v-1.469h1.418v1.469H273.752z"/>
	</g>
</g>
</svg>
