<svg width="170" height="29" viewBox="0 0 170 29" fill="none" xmlns="http://www.w3.org/2000/svg">
<path d="M31.4903 1.38196C28.7975 0.518233 25.4341 0 21.7963 0C18.1585 0 14.795 0.508071 12.1023 1.38196C4.9283 3.6886 0 8.47462 0 14.0126C0 21.7963 9.75499 28.1167 21.7963 28.1167C33.8376 28.1167 43.5926 21.8064 43.5926 14.0126C43.5926 8.47462 38.6642 3.6886 31.4903 1.38196ZM21.7963 22.0503C19.9977 22.0503 18.5344 18.5141 18.443 14.0837C19.5201 14.1854 20.6481 14.2362 21.7963 14.2362C22.9445 14.2362 24.0623 14.1854 25.1495 14.0837C25.0581 18.5243 23.5948 22.0503 21.7963 22.0503ZM18.6767 10.6085C19.1644 7.48899 20.3838 5.28395 21.7963 5.28395C23.2087 5.28395 24.4281 7.48899 24.9158 10.6085C23.92 10.7 22.8734 10.7508 21.7963 10.7508C20.7191 10.7508 19.6725 10.7 18.6767 10.6085ZM26.8262 10.3748C26.0946 5.48716 24.1233 1.98148 21.7963 1.98148C19.4693 1.98148 17.4878 5.48716 16.7663 10.3748C12.336 9.68384 9.24691 8.10881 9.24691 6.27977C9.24691 3.81054 14.8662 1.80873 21.8064 1.80873C28.7467 1.80873 34.3558 3.81054 34.3558 6.27977C34.3558 8.10881 31.2566 9.68384 26.8363 10.3748M3.18053 13.4944C3.18053 11.1064 4.09504 8.87093 5.70057 6.94027C5.68023 7.07234 5.67008 7.20446 5.67008 7.34673C5.67008 10.3545 10.1817 12.905 16.4717 13.8398C16.4717 14.0634 16.4717 14.2971 16.4717 14.5207C16.4717 20.1095 18.0162 24.8345 20.1603 26.4604C10.6492 25.8811 3.18053 20.2924 3.18053 13.4842M23.4424 26.4604C25.5865 24.8345 27.131 20.0993 27.131 14.5207C27.131 14.287 27.131 14.0634 27.131 13.8398C33.4209 12.905 37.9326 10.3443 37.9326 7.34673C37.9326 7.21461 37.9225 7.07234 37.9022 6.94027C39.5076 8.86078 40.4222 11.1064 40.4222 13.4944C40.4222 20.3025 32.9637 25.8913 23.4424 26.4705" fill="url(#paint0_linear_2633_1387)"/>
<path d="M66.8439 4.02209H49.5898V7.83263H55.9609V24.1011H60.4829L60.4724 7.83263H66.8439V4.02209Z" fill="url(#paint1_linear_2633_1387)"/>
<path d="M78.5085 3.41611C72.6253 3.41611 67.8594 8.18183 67.8594 14.0653C67.8594 19.9488 72.6253 24.7145 78.5085 24.7145C84.3921 24.7145 89.158 19.9488 89.158 14.0653C89.158 8.18183 84.3921 3.41611 78.5085 3.41611ZM83.7213 17.2865C83.0304 19.0444 81.4553 20.3654 79.5552 20.7007C79.2198 20.7617 78.8643 20.7922 78.5085 20.7922C78.153 20.7922 77.7971 20.7617 77.4621 20.7007C75.5516 20.3654 73.9869 19.0444 73.2957 17.2865C72.8997 16.2906 72.6862 15.2034 72.6862 14.0653C72.6862 12.9272 72.8997 11.8399 73.2957 10.8441C73.9869 9.08618 75.5616 7.76519 77.4621 7.42986C77.7971 7.36892 78.153 7.33843 78.5085 7.33843C78.8643 7.33843 79.2198 7.36892 79.5552 7.42986C81.4657 7.76519 83.0304 9.08618 83.7213 10.8441C84.1177 11.8399 84.3311 12.9272 84.3311 14.0653C84.3311 15.2034 84.1177 16.2906 83.7213 17.2865Z" fill="url(#paint2_linear_2633_1387)"/>
<path d="M89.2207 4.02209H94.545L99.5143 12.6593L104.493 4.02209H109.808L101.78 16.6731V24.1011H97.2584V16.6731L89.2207 4.02209Z" fill="url(#paint3_linear_2633_1387)"/>
<path d="M109.891 14.0653C109.891 8.19198 114.656 3.41611 120.54 3.41611C126.423 3.41611 131.179 8.18183 131.179 14.0653C131.179 19.9488 126.413 24.7145 120.54 24.7145C114.667 24.7145 109.891 19.9488 109.891 14.0653ZM120.54 20.7922C120.895 20.7922 121.251 20.7617 121.586 20.7007C123.497 20.3654 125.062 19.0444 125.753 17.2865C126.149 16.2906 126.362 15.2034 126.362 14.0653C126.362 12.9272 126.149 11.8399 125.753 10.8441C125.062 9.08618 123.487 7.76519 121.586 7.42986C121.251 7.36892 120.895 7.33843 120.54 7.33843C120.184 7.33843 119.828 7.36892 119.493 7.42986C117.583 7.76519 116.008 9.08618 115.327 10.8441C114.931 11.8399 114.717 12.9272 114.717 14.0653C114.717 15.2034 114.931 16.2906 115.327 17.2865C116.018 19.0444 117.593 20.3654 119.493 20.7007C119.828 20.7617 120.184 20.7922 120.54 20.7922Z" fill="url(#paint4_linear_2633_1387)"/>
<path d="M163.324 19.6721H154.768L153.121 24.0923H148.102L156.241 4.00314H161.86L170 24.0923H164.98L163.324 19.6721ZM162.013 16.1562L159.056 8.22012L156.089 16.1562H162.013Z" fill="url(#paint5_linear_2633_1387)"/>
<path d="M149.422 4.02209H132.168V7.83263H138.539V24.1011H143.061L143.051 7.83263H149.422V4.02209Z" fill="url(#paint6_linear_2633_1387)"/>
<defs>
<linearGradient id="paint0_linear_2633_1387" x1="21.7963" y1="0" x2="21.7963" y2="28.1167" gradientUnits="userSpaceOnUse">
<stop/>
<stop offset="1"/>
</linearGradient>
<linearGradient id="paint1_linear_2633_1387" x1="58.2169" y1="4.02209" x2="58.2169" y2="24.1011" gradientUnits="userSpaceOnUse">
<stop/>
<stop offset="1"/>
</linearGradient>
<linearGradient id="paint2_linear_2633_1387" x1="78.5087" y1="3.41611" x2="78.5087" y2="24.7145" gradientUnits="userSpaceOnUse">
<stop/>
<stop offset="1"/>
</linearGradient>
<linearGradient id="paint3_linear_2633_1387" x1="99.5141" y1="4.02209" x2="99.5141" y2="24.1011" gradientUnits="userSpaceOnUse">
<stop/>
<stop offset="1"/>
</linearGradient>
<linearGradient id="paint4_linear_2633_1387" x1="120.535" y1="3.41611" x2="120.535" y2="24.7145" gradientUnits="userSpaceOnUse">
<stop/>
<stop offset="1"/>
</linearGradient>
<linearGradient id="paint5_linear_2633_1387" x1="159.051" y1="4.00314" x2="159.051" y2="24.0923" gradientUnits="userSpaceOnUse">
<stop/>
<stop offset="1"/>
</linearGradient>
<linearGradient id="paint6_linear_2633_1387" x1="140.795" y1="4.02209" x2="140.795" y2="24.1011" gradientUnits="userSpaceOnUse">
<stop/>
<stop offset="1"/>
</linearGradient>
</defs>
</svg>
