<svg width="81.199" height="91.806" xmlns="http://www.w3.org/2000/svg"><path d="M56.776 39.243c2.62 2.93 2.9 11.64 9.47 8.18 3.95-2.08 3.9-10.88-1.37-14.05-4.27-2.52-6.6.88-8.14 5.05-.13.33-.14.66.04.82m-10.21-1.39c-2.75 2.28-4.64 8.52-9.69 6.4-4.08-2.08-4.48-10.17 2.56-13.91 4.9-2.25 7.39 2.21 7.43 6.95 0 .17-.16.42-.3.56m6.78 15.93c2.71-.28 2.1-2.8.04-3.43-1.84-.55-4.62-.9-6.59-.87-3.49.08-3.4 2.75-1.59 3.2 1.37.46 2.26.64 3.44 2.17 1.09 2.1.61-.63 4.7-1.07m12.8-45.04c3.41-5.67 9.34-4.57 12.31-1.75 3.27 3.07 3.8 6.62 2.54 9.12-1.71 3.35-6.07 7.42-8.91 3.48-1.25-1.74-3.92-3.82-5.37-4.41-2.23-.94-2.65-2.96-.57-6.44"/><path d="M53.576 59.693c-1.49 3.93-9.2 2.58-9.44-1.22 0-.15.21-.12.29-.1 3.43.8 6.7 1.18 8.91 1.17.09.01.27-.04.24.15m26.14-25.93c-.31-1.01-.81-.95-.78-.12.28 10.34-5.9 21.42-19.12 21.5-3.38.01-2.37 5.42-8.53 2.7-4.45-3-6.99 2.9-10.16-3.45-.69-1.83-1.73-2.56-3.08-2.9-13.05-3.23-17.22-21.2-5.71-35.7 2.28 1.36 3.11 1.57 5.54-.66 1.27-1.17 3.39-2.46 4.55-2.89 2.77-1.06 4.27-2.24 1.87-7.51-3.07-6.85-9.35-4.91-12.23-2.55-3.24 2.68-5.52 6.99-1.34 12.07-11.69 7.89-13.7 17.58-13.43 26 .28 8.96-2.01 8.19.84 17.31.25.8-.31.78-.74.52-12.19-7.8-18.77-31.6.22-44.72.43-.38.25-.88-1.31.03-16.44 8.69-17.95 25.53-15.22 36.88 1.33 5.49-.69 6.51 1.44 13.73 4.89 15.05 9.06 16.23 14.96 16.67 10.73 0 3.45-5.91 3.84-13.35 0-.43.53-.65.83.25 5.9 13.24 10.07 25.29 25.59 24.16 8.98-1.17 4-5.63 3.45-8.16-6.61-21.92 9.42-27.09 4.89-5.72-3 12.24 6.48 11.02 13.14 6.62 6.87-4.5 15.47-34.3 10.49-50.71"/><path d="M16.276 82.823c-1.9 0-3.45 1.55-3.45 3.44 0 1.9 1.55 3.45 3.45 3.45s3.43-1.55 3.43-3.45c0-1.89-1.53-3.44-3.43-3.44m2.87 3.44c0 1.59-1.3 2.87-2.87 2.87-1.59 0-2.87-1.28-2.87-2.87 0-1.57 1.28-2.86 2.87-2.86 1.58 0 2.87 1.28 2.87 2.86"/><path d="M17.256 86.803c-.07.42-.42.71-.9.71-.66 0-1.08-.59-1.08-1.25 0-.7.38-1.22 1.08-1.22.46 0 .81.27.9.68h.48c-.08-.76-.68-1.19-1.39-1.19-1.03 0-1.61.75-1.61 1.73 0 .99.64 1.74 1.63 1.74.7 0 1.26-.45 1.4-1.19h-.51z"/></svg>