<?xml version="1.0" encoding="UTF-8" standalone="no"?>
<!DOCTYPE svg PUBLIC "-//W3C//DTD SVG 1.1//EN" "http://www.w3.org/Graphics/SVG/1.1/DTD/svg11.dtd">
<svg width="100%" height="100%" viewBox="0 0 2271 863" version="1.1" xmlns="http://www.w3.org/2000/svg" xmlns:xlink="http://www.w3.org/1999/xlink" xml:space="preserve" xmlns:serif="http://www.serif.com/" style="fill-rule:evenodd;clip-rule:evenodd;stroke-linejoin:round;stroke-miterlimit:2;">
    <g transform="matrix(4.16667,0,0,4.16667,0,0)">
        <path d="M197.947,75.987L197.943,75.983L161.243,75.983L161.239,75.987C153.757,75.987 147.693,81.705 147.693,88.762L147.693,110.34C147.693,117.397 153.757,123.115 161.239,123.115L217.225,123.115L217.225,111.847L164.539,111.847C162.697,111.847 161.204,110.354 161.204,108.512L161.204,105.183L202.693,105.183C207.554,105.183 211.5,101.24 211.5,96.376L211.5,88.762C211.5,81.705 205.429,75.987 197.947,75.987ZM197.986,93.916L161.204,93.916L161.204,90.583C161.204,88.755 162.682,87.266 164.511,87.251L194.679,87.251C196.507,87.266 197.986,88.755 197.986,90.583L197.986,93.916Z" style="fill:rgb(241,89,36);fill-rule:nonzero;"/>
        <path d="M400.503,75.987L400.499,75.983L363.803,75.983L363.796,75.987C356.314,75.987 350.249,81.705 350.249,88.762L350.246,88.773L350.246,110.329L350.249,110.34C350.249,117.397 356.314,123.115 363.796,123.115L419.785,123.115L419.785,111.847L367.096,111.847C365.257,111.847 363.76,110.354 363.76,108.512L363.76,105.183L405.249,105.183C410.11,105.183 414.053,101.24 414.053,96.376L414.053,88.762C414.053,81.705 407.989,75.987 400.503,75.987ZM400.542,93.916L363.76,93.916L363.76,90.583C363.76,88.755 365.239,87.266 367.067,87.251L397.235,87.251C399.064,87.266 400.542,88.755 400.542,90.583L400.542,93.916Z" style="fill:rgb(241,89,36);fill-rule:nonzero;"/>
        <path d="M277.271,96.377L277.271,84.788C277.271,79.927 273.324,75.981 268.46,75.981L217.224,75.981L217.224,87.252L260.428,87.252C262.267,87.256 263.753,88.745 263.753,90.584C263.753,92.423 262.263,93.913 260.428,93.913L217.224,93.913L217.224,123.116L230.738,123.116L230.738,105.184L251.228,105.184L262.913,123.116L279.485,123.116L266.253,105.184L268.46,105.184C273.324,105.184 277.271,101.241 277.271,96.377Z" style="fill:rgb(82,116,136);fill-rule:nonzero;"/>
        <path d="M344.52,114.307L344.52,102.718C344.52,97.868 340.599,93.936 335.749,93.915L302.059,93.915C300.216,93.915 298.727,92.426 298.727,90.583C298.727,88.747 300.213,87.258 302.049,87.254L344.52,87.254L344.52,75.983L294.02,75.983C289.159,75.983 285.213,79.926 285.213,84.79L285.213,96.376C285.213,101.239 289.159,105.182 294.02,105.182L327.702,105.182C329.527,105.2 331.002,106.682 331.002,108.514C331.002,110.354 329.516,111.843 327.677,111.843L285.213,111.843L285.213,123.114L335.713,123.114C340.577,123.114 344.52,119.172 344.52,114.307Z" style="fill:rgb(82,116,136);fill-rule:nonzero;"/>
        <path d="M128.84,75.046C123.901,75.046 119.608,77.775 117.365,81.807L101.004,110.728L84.643,82C82.404,77.971 78.108,75.046 73.168,75.046C65.922,75.046 60.047,80.921 60.047,88.171L60.047,123.049L73.558,123.049L73.558,94.05C73.558,92.946 74.45,92.057 75.55,92.057C76.311,92.057 76.972,92.482 77.308,93.107L94.247,123.049L107.762,123.049C107.762,123.049 124.737,93.021 124.808,92.918C125.172,92.4 125.779,92.057 126.458,92.057C127.562,92.057 128.453,92.946 128.453,94.05L128.453,123.049L141.965,123.049L141.965,88.171C141.965,80.921 136.087,75.046 128.84,75.046Z" style="fill:rgb(82,116,136);fill-rule:nonzero;"/>
        <path d="M471.73,55.88L471.73,108.365C471.73,109.469 470.84,110.355 469.74,110.355C469.198,110.355 468.701,110.14 468.337,109.787C468.248,109.673 442.98,79.023 442.919,78.948C440.505,76.112 436.912,74.309 432.901,74.309C425.655,74.309 419.78,80.187 419.78,87.434L419.78,159.776L433.298,150.998L433.298,90.741C433.298,89.637 434.183,88.748 435.287,88.748C435.851,88.748 436.362,88.987 436.73,89.366C436.815,89.452 462.051,120.083 462.051,120.083C464.462,122.962 468.076,124.798 472.126,124.798C479.369,124.798 485.244,118.923 485.244,111.673L485.244,47.102L471.73,55.88Z" style="fill:rgb(82,116,136);fill-rule:nonzero;"/>
    </g>
</svg>
