<svg width="637" height="243" viewBox="0 0 637 243" fill="none" xmlns="http://www.w3.org/2000/svg"><path d="M3.5 217.7c1.9-1.9 4.6-2.8 7.3-2.8 5.4 0 7.6 2.6 7.6 7.7v7.8c0 1.1.1 2.2.3 3.2h-2.9c-.2-.8-.2-1.9-.2-2.7h-.1c-1.2 1.9-3.2 3.2-6 3.2-3.7 0-6.8-1.9-6.8-5.4 0-6 7-6.4 11.5-6.4h1.2v-.5c0-2.7-1.7-4-4.5-4-1.9 0-4 .7-5.4 2l-2-2.1zm8.8 7.1c-3.9 0-6.4 1.1-6.4 3.5 0 2.3 1.7 3.2 4 3.2 3.5 0 5.3-2.5 5.4-5.5v-1.2h-3z" fill="#000"/><path d="M35.9 228.8c1.2 1.5 2.5 2.5 4.7 2.5 1.9 0 4-.8 4-2.8 0-1.9-1.9-2.5-3.9-2.9-3.5-.8-6.4-1.5-6.4-5.3 0-3.5 3.4-5.4 6.8-5.4 2.6 0 5 1 6.2 3.3l-2.5 1.7c-.8-1.3-2.1-2.2-3.9-2.2-1.7 0-3.6.8-3.6 2.5 0 1.5 2.2 2.2 4.6 2.7 3.2.6 6 1.8 6 5.5 0 4.1-3.7 5.7-7.3 5.7-3.1 0-5.3-.8-7.1-3.4l2.4-1.9z" fill="#000"/><path d="M68.4 229.3c0 1.7.2 3.1.2 4.3h-2.9c0-1-.1-2-.1-3h-.1c-.8 1.8-3.1 3.5-6.1 3.5-4.8 0-6.9-3-6.9-7.4v-11.3h3v11c0 3 1.3 5 4.2 5 3.9 0 5.7-2.8 5.7-7v-8.9h3v13.8z" fill="#000"/><path d="M74.4 204.1h3V218h.1c1.7-1.9 3.9-3.1 6.5-3.1 5.7 0 9.6 4.1 9.6 9.6s-4 9.6-9.1 9.6c-3.3 0-5.9-1.6-7-3.7h-.1v3.2h-3v-29.5zm9.5 27.1c3.9 0 6.5-3 6.5-6.8s-2.5-6.8-6.5-6.8c-3.9 0-6.5 3-6.5 6.8 0 3.9 2.6 6.8 6.5 6.8z" fill="#000"/><path d="M99.1 228.8c1.2 1.5 2.5 2.5 4.7 2.5 1.9 0 4-.8 4-2.8 0-1.9-1.9-2.5-3.9-2.9-3.5-.8-6.4-1.5-6.4-5.3 0-3.5 3.4-5.4 6.8-5.4 2.6 0 5 1 6.2 3.3l-2.5 1.7c-.8-1.3-2.1-2.2-3.9-2.2-1.7 0-3.6.8-3.6 2.5 0 1.5 2.2 2.2 4.6 2.7 3.2.6 6 1.8 6 5.5 0 4.1-3.7 5.7-7.3 5.7-3.1 0-5.3-.8-7.1-3.4l2.4-1.9z" fill="#000"/><path d="M117.5 206c1.2 0 2.2 1 2.2 2.2 0 1.3-.9 2.2-2.2 2.2-1.3 0-2.2-.9-2.2-2.2 0-1.2 1-2.2 2.2-2.2zm-1.5 9.3h3v18.2h-3v-18.2z" fill="#000"/><path d="M140.6 230.3c-1.2 2.1-3.8 3.7-7.1 3.7-5.1 0-9.1-4.1-9.1-9.6s3.9-9.6 9.6-9.6c2.7 0 4.9 1.2 6.5 3.1h.1V204h3v29.5h-3v-3.2zm-6.4-12.6c-3.9 0-6.5 3-6.5 6.8s2.5 6.8 6.5 6.8 6.5-3 6.5-6.8c-.1-3.9-2.6-6.8-6.5-6.8z" fill="#000"/><path d="M151.4 206c1.2 0 2.2 1 2.2 2.2 0 1.3-.9 2.2-2.2 2.2-1.3 0-2.2-.9-2.2-2.2 0-1.2 1-2.2 2.2-2.2zm-1.5 9.3h3v18.2h-3v-18.2z" fill="#000"/><path d="M159.1 217.7c1.9-1.9 4.6-2.8 7.3-2.8 5.4 0 7.6 2.6 7.6 7.7v7.8c0 1.1.1 2.2.3 3.2h-2.9c-.2-.8-.2-1.9-.2-2.7h-.1c-1.2 1.9-3.2 3.2-6 3.2-3.7 0-6.8-1.9-6.8-5.4 0-6 7-6.4 11.5-6.4h1.2v-.5c0-2.7-1.7-4-4.5-4-1.9 0-4 .7-5.4 2l-2-2.1zm8.8 7.1c-3.9 0-6.4 1.1-6.4 3.5 0 2.3 1.7 3.2 4 3.2 3.5 0 5.3-2.5 5.4-5.5v-1.2h-3z" fill="#000"/><path d="M180 219.7c0-1.7-.2-3.1-.2-4.3h2.9c0 1 .1 2 .1 3h.1c.8-1.8 3.1-3.5 6.1-3.5.4 0 .8 0 1.2.2l-.2 3.1c-.5-.2-1.1-.2-1.6-.2-3.7 0-5.3 2.6-5.3 6.8v8.9h-3v-14h-.1z" fill="#000"/><path d="M200.8 237.8c-1.2 3.1-2.4 5.2-6.1 5.2-.9 0-1.9-.1-2.7-.5l.4-2.7c.6.2 1.3.3 2.1.3 2 0 2.7-1.2 3.4-3l1.2-3.4-7.6-18.4h3.5l5.7 14.3h.1l5.4-14.3h3.3l-8.7 22.5z" fill="#000"/><path d="M233.2 214.9c5.6 0 9.7 3.9 9.7 9.6 0 5.7-4.1 9.6-9.7 9.6s-9.7-3.9-9.7-9.6c0-5.7 4.1-9.6 9.7-9.6zm0 16.3c3.9 0 6.5-3 6.5-6.8s-2.5-6.8-6.5-6.8-6.5 3-6.5 6.8c0 3.9 2.6 6.8 6.5 6.8z" fill="#000"/><path d="M249.6 217.9h-4v-2.6h4v-4.1c0-4.4 1.6-7.6 6.5-7.6.8 0 1.8.2 2.3.5l-.4 2.7c-.7-.2-1.4-.4-2.1-.4-3.2 0-3.3 2.3-3.3 5.5v3.4h4.4v2.6h-4.4v15.7h-3v-15.7z" fill="#000"/><path d="M291.8 211.7c-1.6-2.2-4.2-3.4-6.9-3.4-6.2 0-10.5 5.4-10.5 11.5 0 6.4 4.3 11.5 10.5 11.5 3.4 0 6-1.4 8-3.9l2.5 2.1c-2.5 3.3-6 4.8-10.4 4.8-7.9 0-14-6.1-14-14.5 0-8.1 5.8-14.5 14-14.5 3.7 0 7.4 1.3 9.7 4.3l-2.9 2.1z" fill="#000"/><path d="M299.5 217.7c1.9-1.9 4.6-2.8 7.3-2.8 5.4 0 7.6 2.6 7.6 7.7v7.8c0 1.1.1 2.2.3 3.2h-2.9c-.2-.8-.2-1.9-.2-2.7h-.1c-1.2 1.9-3.2 3.2-6 3.2-3.7 0-6.8-1.9-6.8-5.4 0-6 7-6.4 11.5-6.4h1.2v-.5c0-2.7-1.7-4-4.5-4-1.9 0-4 .7-5.4 2l-2-2.1zm8.9 7.1c-3.9 0-6.4 1.1-6.4 3.5 0 2.3 1.7 3.2 4 3.2 3.5 0 5.3-2.5 5.4-5.5v-1.2h-3z" fill="#000"/><path d="M320.2 204.1h3V218h.1c1.7-1.9 3.9-3.1 6.5-3.1 5.7 0 9.6 4.1 9.6 9.6s-4 9.6-9.1 9.6c-3.3 0-5.9-1.6-7-3.7h-.1v3.2h-3v-29.5zm9.6 27.1c3.9 0 6.5-3 6.5-6.8s-2.5-6.8-6.5-6.8c-3.9 0-6.5 3-6.5 6.8 0 3.9 2.5 6.8 6.5 6.8z" fill="#000"/><path d="M344.9 204.1h3v29.5h-3v-29.5z" fill="#000"/><path d="M370.6 230.3c-2.1 2.8-4.7 3.8-8.1 3.8-5.7 0-9.2-4.3-9.2-9.6 0-5.7 4-9.6 9.4-9.6 5.1 0 8.7 3.5 8.7 9.6v1h-14.7c.2 3.2 2.7 5.8 6 5.8 2.6 0 4.4-.9 5.8-2.8l2.1 1.8zm-2.6-7.5c-.1-3.1-2.1-5.1-5.5-5.1s-5.6 2.1-6 5.1H368z" fill="#000"/><path d="M377 206h3.3v24.6h12.6v3H377V206z" fill="#000"/><path d="M396.1 217.7c1.9-1.9 4.6-2.8 7.3-2.8 5.4 0 7.6 2.6 7.6 7.7v7.8c0 1.1.1 2.2.3 3.2h-2.9c-.2-.8-.2-1.9-.2-2.7h-.2c-1.2 1.9-3.2 3.2-6 3.2-3.7 0-6.8-1.9-6.8-5.4 0-6 7-6.4 11.5-6.4h1.2v-.5c0-2.7-1.7-4-4.5-4-1.9 0-4 .7-5.4 2l-1.9-2.1zm8.8 7.1c-3.9 0-6.4 1.1-6.4 3.5 0 2.3 1.7 3.2 4 3.2 3.5 0 5.3-2.5 5.4-5.5v-1.2h-3z" fill="#000"/><path d="M416.7 204.1h3V218h.1c1.7-1.9 3.9-3.1 6.5-3.1 5.7 0 9.6 4.1 9.6 9.6s-4 9.6-9.1 9.6c-3.3 0-5.9-1.6-7-3.7h-.1v3.2h-3v-29.5zm9.5 27.1c3.9 0 6.5-3 6.5-6.8s-2.5-6.8-6.5-6.8c-3.9 0-6.5 3-6.5 6.8.1 3.9 2.6 6.8 6.5 6.8z" fill="#000"/><path d="M441.4 228.8c1.2 1.5 2.5 2.5 4.7 2.5 1.9 0 4-.8 4-2.8 0-1.9-1.9-2.5-3.9-2.9-3.5-.8-6.4-1.5-6.4-5.3 0-3.5 3.4-5.4 6.8-5.4 2.6 0 5 1 6.2 3.3l-2.5 1.7c-.8-1.3-2.1-2.2-3.9-2.2-1.7 0-3.6.8-3.6 2.5 0 1.5 2.2 2.2 4.6 2.7 3.2.6 6 1.8 6 5.5 0 4.1-3.7 5.7-7.3 5.7-3.1 0-5.3-.8-7.1-3.4l2.4-1.9z" fill="#000"/><path d="M464.6 204.7c3.5 0 6.4 2.9 6.4 6.4 0 3.5-2.9 6.4-6.4 6.4-3.5 0-6.4-2.9-6.4-6.4 0-3.5 2.8-6.4 6.4-6.4zm0 11.7c2.9 0 5.3-2.4 5.3-5.3s-2.4-5.3-5.3-5.3-5.3 2.4-5.3 5.3 2.4 5.3 5.3 5.3zm-2.5-9h2.8c1.8 0 2.6.8 2.6 2.2 0 1.3-.8 1.9-1.8 2l1.9 3.1h-1.4l-1.8-3h-1v3h-1.3v-7.3zm1.4 3.2h1c.8 0 1.7-.1 1.7-1 0-1-.9-1-1.7-1h-1v2z" fill="#000"/><path d="M627.3 153.3c4.9 0 8.9 4 8.9 8.9s-4 8.9-8.9 8.9-8.9-4-8.9-8.9 4-8.9 8.9-8.9zm0 16.3c4.1 0 7.3-3.3 7.3-7.3 0-4.1-3.3-7.3-7.3-7.3-4.1 0-7.3 3.3-7.3 7.3s3.2 7.3 7.3 7.3zm-3.4-12.5h3.9c2.4 0 3.6 1.1 3.6 3.1 0 1.8-1.1 2.6-2.4 2.8l2.7 4.3h-2l-2.5-4.2h-1.4v4.2h-1.9v-10.2zm1.8 4.4h1.4c1.2 0 2.4-.1 2.4-1.4 0-1.3-1.3-1.4-2.4-1.4h-1.4v2.8z" fill="#000"/><path d="M6.8 118.9c1.9 8.7 3.5 16.9 9.4 25.6 8.9 13.1 23.7 20.7 37.6 20.7 13.9 0 34.5-9.2 34.5-32.9 0-8-2.8-18.3-13.6-26.3-6.6-4.7-10.8-6.1-30.7-12.7C31.3 89.1 5 80.2 5 48.5 5 22 24.7 1.3 53.8 1.3c15.3 0 24.6 5.4 33.3 10.3l9.6-7.3 5.4 48.1-5.4 1.2c-3-11.5-12.2-44.4-42.2-44.4C34.3 9.2 24 23 24 37.1c0 7.7 2.6 15.5 8.2 21.4C39 65.8 47 68.4 64.1 73.8c16.4 5.2 44.4 13.8 44.4 49.1 0 30.5-25.1 50-55.2 50-20.4 0-31-7.3-37.8-11.7l-12.9 8.5c-.2-24.2-.5-29.8-1.9-50.2l6.1-.6z" fill="#000"/><path d="M289.2 133.7c-16.2 26.1-39 39.9-69.9 39.9-46.5 0-83.8-33.3-83.8-85.2 0-54.5 39.9-88.2 84-88.2 27.5 0 43.9 12 53.5 19.2l12-10.1.7 49.1-4.9.5c-2.6-8.2-4.9-15.5-11.3-24.6C257.3 16 240.2 8.2 223.3 8.2c-28.9 0-59.4 23-59.4 71.1 0 41.1 23 82.4 65 82.4 31 0 45.5-20.9 53.5-32.2l6.8 4.2z" fill="#000"/><path d="M299.5 48.5c7.3-19.7 8.9-24.6 14.8-44.8h136.4c6.1 20.9 7.7 25.6 14.8 44.8l-5.2 2.3c-8.9-12-23.7-31.7-30.5-35.7-6.3-3.5-11.3-3.5-35.4-3.3V128c0 8.2.2 20.7 1.4 24.9 2.1 6.8 7.3 7.7 24.9 9.2v7.5c-12.7-.2-25.1-.7-37.8-.7-12.9 0-25.8.5-38.7.7v-7.5c23.5-.5 24.6-4.9 25.6-9.9 1.2-5.4 1.4-16.7 1.4-24.2V11.9h-19.7c-8.5.2-14.1.5-21.4 7.3-3.5 3-4.2 4.2-25.3 31.7l-5.3-2.4z" fill="#000"/><path d="M476.9 3.9h121.8c7.7 18.5 9.9 23.5 18.3 40.8l-4.5 3.3c-19-21.1-19-21.1-23.2-24.9-10.1-9.4-17.8-11.3-45.1-11.7H520v67.4h23.2c22.1.2 26.1-3.5 31.5-27.7h6.1c-.5 11-.7 22.3-.7 33.6 0 10.8.2 21.6.7 32.2h-6.1c-5.4-26.8-10.6-28.2-36.6-28.2H520v39.9c.2 32.2.2 33.1 32.4 33.6h12.4c19.5-.2 23.5-.2 52.1-39.9l5.2 2.8c-6.6 19.9-8 24.9-13.4 44.6H476.9v-7.5c17.8-1.4 18.8-5.9 19-16.7.5-11.3.7-22.5.7-46V55.4c0-7.3 0-31.2-1.9-35.7-2.1-6.1-6.6-6.8-17.8-8.2V3.9z" fill="#000"/></svg>
