<svg aria-label="Logo Mazda" data-force-mobile-menu="false" height="39" role="img" viewbox="0 0 283.6 251.4" width="44" xmlns="http://www.w3.org/2000/svg"><path d="m27 236 13.1-27.4H49l4.5 42.7h-9.3l-3.1-32.4h-.2l-14.5 29.9h-3.2L8.7 219.1h-.2l-2.6 32.3H0l4.5-42.7h8.8l13.4 27.4h.2l.1-.1zm137.2-27.4v2.1l-24 35.1v.4c18.5 0 22.5 0 26.8-.5h.4l-3.1 5.6h-36.7v-2.4l23.8-35v-.4h-21.7l1.1-4.9h33.5-.1zm39.2 0h-17v42.7h16.1c14.6 0 24.2-7.7 24.2-21.3s-8.5-21.4-23.3-21.4zm-1.7 37.7h-6.3v-32.9h6.6c10.4 0 15 5.9 15 16.5s-5 16.4-15.3 16.4zM94.8 231.9l-5.4-14.7h-.3l-5.8 14.7h11.6-.1zm-13.4 4.8-5.8 14.5h-6.2l17.9-42.1 7.5-.9 17.1 42.9h-10.1l-5.5-14.5H81.4v.1zm185-4.8-5.4-14.7h-.3l-5.8 14.7h11.5zm-13.4 4.8-5.8 14.5H241l17.9-42.1 7.5-.9 17.1 42.9h-10.1l-5.5-14.5H253v.1zm-3.9-159.1c-4.6-38.6-35-64.5-72.2-73.4-11.9-2.8-24.1-4-36.2-4s-24.4 1.1-36.2 4C67.2 13.1 36.9 39 32.3 77.6c-.4 3.7-.6 6.8-.6 11.5s.2 7.8.6 11.5c4.6 38.6 35 64.5 72.2 73.4 11.9 2.8 24 4 36.2 4s24.4-1.1 36.2-4c37.3-8.9 67.6-34.8 72.2-73.4.4-3.7.6-6.8.6-11.5s-.1-7.8-.6-11.5zM62.5 44.5c0-.1.2-.3.2-.4 9.4-14.1 27.5-25.8 47.5-30.8 10-2.5 20.2-3.5 30.5-3.5s20.5 1 30.5 3.5c20 5.1 38 16.8 47.5 30.8 0 .1.2.3.2.4v.3c-.1 0-.2.1-.3.2-2.9 1.5-8.4 4.1-12.2 6.1-23.5 11.6-40 20-43.6 23.2-4.4 3.9-11.1 13.8-21.9 30C130 88.1 123.5 78.2 119 74.2 115.4 71 98.9 62.6 75.4 51c-3.9-1.9-9.3-4.6-12.2-6.1-.1 0-.2-.1-.3-.2-.1 0-.2-.2 0-.3l-.4.1zm169.4 54.8c-3.9 34.5-29.4 57.6-60.8 65.6-10 2.5-20.2 3.5-30.5 3.5s-20.5-1-30.5-3.5c-31.3-8-56.9-31.1-60.8-65.6-.4-3.3-.5-6.1-.5-10.3s.1-6.5.5-9.4c.5-4.3 1.7-9.8 2.9-12.7 0 0 0-.2.1-.3 0-.1.2-.2.3-.1 0 0 .2 0 .3.1 2.6 1.1 6.7 2.8 13.1 5.6 29.6 12.9 47.1 21.4 51.4 24.9 3.6 3 12.4 15.3 21.6 28.1h3c9.2-12.8 17.9-25.1 21.6-28.1 4.3-3.5 21.8-12 51.4-24.9 6.4-2.8 10.6-4.5 13.1-5.6 0 0 .2 0 .3-.1.1 0 .2 0 .3.1 0 0 0 .2.1.3 1.2 2.9 2.4 8.4 2.9 12.7.4 2.9.5 5.3.5 9.4s-.1 6.9-.5 10.3h.2z" fill="currentColor"></path></svg>