<svg height="98" viewBox="0 0 98 98" width="98" xmlns="http://www.w3.org/2000/svg"><g fill="#fff"><path d="m71.5622713 55.7026946c-.190032-.0908467-7.3016625-3.5786637-8.5653752-4.0316351-.5159368-.1845323-1.0686132-.3646484-1.6564455-.3646484-.960295 0-1.7669808.4766295-2.3953532 1.4128546-.7104029 1.051676-2.8609316 3.5553211-3.5254101 4.3032287-.0867813.0987326-.2052346.216707-.2761798.216707-.0636608 0-1.1642627-.4513942-1.4974521-.5955502-7.6288342-3.3004458-13.4194256-11.2372246-14.2134426-12.5756354-.1133857-.1924182-.1181365-.279795-.1190867-.279795.0278714-.1018871.2844145-.3580241.4168035-.4901933.3873485-.3816821.8070025-.8848085 1.2130375-1.371532.192249-.2305864.3848148-.4614883.5738966-.6791417.5890992-.6826115.8513433-1.2125503 1.1553945-1.826396l.1593102-.3189095c.7423916-1.4690028.1083182-2.7086809-.0965996-3.108974-.1681783-.3349969-3.1710005-7.5528887-3.4902542-8.3112058-.7677293-1.8298658-1.7821834-2.6818685-3.191904-2.6818685-.1308053 0 0 0-.548559.0230271-.6679624.0280741-4.3054914.505019-5.9137955 1.5147415-1.7055371 1.0709179-4.5908561 4.4846066-4.5908561 10.4880554 0 5.403167 3.4427462 10.5047737 4.9208783 12.4450434.0367396.0488931.1042009.1482567.2020674.2908354 5.6607362 8.2336077 12.7175741 14.3354737 19.8713283 17.1816863 6.887076 2.7399094 10.1483416 3.0566109 12.0024204 3.0566109h.0003167c.7791312 0 1.4027528-.0608799 1.9528954-.1148201l.3490254-.0331211c2.3792005-.2100829 7.607614-2.9083543 8.7968975-6.1999678.9368577-2.5925991 1.1838993-5.4252478.5605944-6.4532658-.4269386-.6990145-1.1626791-1.0507298-2.0941525-1.4961306z"/><path d="m49.8698728 0c-26.5414745 0-48.13458173 21.4308182-48.13458173 47.7727727 0 8.5199546 2.28009263 16.8598182 6.59941406 24.1589091l-8.26732441 24.3870455c-.15400012.4546818-.03945458.9574091.29686386 1.2997727.24277291.2478636.57209134.3815.90840978.3815.12886373 0 .25868201-.0194091.38531847-.0598182l25.42911007-8.0805454c6.9586416 3.7179545 14.8234657 5.6805 22.7831081 5.6805 26.5389291.0003181 48.129809-21.4282728 48.129809-47.7673637 0-26.3419545-21.5908799-47.7727727-48.1301272-47.7727727zm.0002249 88.9302273c-8.1513892 0-16.0465217-2.3537513-22.8331704-6.807075-.2282071-.1499447-.4931212-.2268217-.7597667-.2268217-.1409413 0-.2822288.0214702-.4197071.0651031l-13.8638373 4.4069204 4.4754898-13.203793c.1447504-.4273252.0723752-.8986295-.1942703-1.2629294-5.1680757-7.0616-7.89998059-15.4048292-7.89998059-24.1286341 0-22.6970602 18.61462999-41.16277033 41.49489629-41.16277033 22.8774959 0 41.4900482 18.46571013 41.4900482 41.16277033 0 22.6942899-18.6118597 41.1572297-41.4897019 41.1572297z"/></g></svg>