<svg xmlns="http://www.w3.org/2000/svg" xmlns:xlink="http://www.w3.org/1999/xlink" width="113.93" height="100.119" viewBox="0 0 113.93 100.119"><defs><style>.a{fill:url(#a);}.b{fill:#fff;}</style><linearGradient id="a" x1="0.5" y1="1" x2="0.5" gradientUnits="objectBoundingBox"><stop offset="0.1" stop-color="#000091"/><stop offset="1" stop-color="#0000d2"/></linearGradient></defs><g transform="translate(-22.146)"><g transform="translate(22.147)"><path class="a" d="M136.077,100.119,79.112,87.2,22.147,100.119V0h113.93Z" transform="translate(-22.147)"/></g><g transform="translate(31.856 29.313)"><path class="b" d="M54.419,51.7a1.508,1.508,0,0,1-1.591,1.583h-1v1.635h-.676V50.19h1.465C53.848,50.19,54.419,50.81,54.419,51.7Zm-.675.042a.857.857,0,0,0-.952-.88h-.965v1.746h1.007A.817.817,0,0,0,53.744,51.747Zm5.7,2.5v.676H56.853V50.19h.677v4.056Zm5.636-.339H62.954L62.5,54.922h-.732l2.253-4.844,2.253,4.844h-.733Zm-.309-.675-.754-1.663-.753,1.663Zm3.82,1.69V50.19h2.7v.676H69.268v1.352h1.69v.676h-1.69v2.029ZM78.4,52.556a2.422,2.422,0,1,1-2.422-2.423A2.421,2.421,0,0,1,78.4,52.556Zm-.675,0A1.747,1.747,0,1,0,75.983,54.3,1.737,1.737,0,0,0,77.73,52.556Zm3.841-.872v3.239h-.677V50.078l3.268,3.351V50.19h.677v4.844Zm9.87.872a2.268,2.268,0,0,1-2.416,2.367H87.609V50.19h1.416A2.249,2.249,0,0,1,91.441,52.556Zm-.677,0a1.59,1.59,0,0,0-1.563-1.69h-.914v3.38H89.2A1.591,1.591,0,0,0,90.764,52.556Zm6.489.979c0,.824-.684,1.444-1.789,1.444a2.394,2.394,0,0,1-1.816-.768l.337-.6a2.042,2.042,0,0,0,1.494.7c.711,0,1.1-.289,1.1-.739,0-.381-.428-.613-1.077-.726-1.317-.226-1.69-.7-1.69-1.331,0-.767.6-1.374,1.7-1.374a2.286,2.286,0,0,1,1.529.565l-.324.613a1.681,1.681,0,0,0-1.22-.5c-.648,0-1.014.246-1.014.669,0,.366.324.536,1.07.683C96.682,52.38,97.253,52.739,97.253,53.534Z" transform="translate(-26.947 -20.838)"/><path class="b" d="M39.417,30.561H34.365V43.044h2.972V39.032h2.675a4.1,4.1,0,0,0,4.16-4.311C44.173,32.307,42.669,30.561,39.417,30.561Zm-.019,5.8H37.337V33.235H39.4c.985,0,1.8.447,1.8,1.56A1.624,1.624,0,0,1,39.4,36.357Z" transform="translate(-29.789 -24.141)"/><path class="b" d="M47.125,30.561H44.154V43.044h7.728V40.369H47.125Z" transform="translate(-28.132 -24.141)"/><path class="b" d="M73.3,30.561l-2.972,7.43-2.973-7.43H64.383L62.9,43.044h2.972l.892-7.133,2.675,7.133h1.783l2.676-7.133.891,7.133h2.972L76.272,30.561Z" transform="translate(-24.96 -24.141)"/><path class="b" d="M77.561,43.044h8.026V40.369H80.533V38.139h4.161V35.464H80.533V33.235h5.053V30.561H77.561Z" transform="translate(-22.478 -24.141)"/><path class="b" d="M92.515,33.021a3.809,3.809,0,0,1,3.01,1.449l1.151-2.638a6.519,6.519,0,0,0-4.16-1.486,6.545,6.545,0,1,0,0,13.078,6.542,6.542,0,0,0,4.16-1.5L95.524,39.3a3.862,3.862,0,1,1-3.01-6.279Z" transform="translate(-21.104 -24.177)"/><path class="b" d="M102.616,30.347a6.541,6.541,0,1,0,6.688,6.538A6.616,6.616,0,0,0,102.616,30.347Zm0,10.4a3.867,3.867,0,1,1,3.716-3.864A3.8,3.8,0,0,1,102.616,40.75Z" transform="translate(-19.369 -24.177)"/><path class="b" d="M57.381,30.264c-3.1,0-5.2,1.932-5.2,4.755v8.075h2.972V39.528H59.61v3.566h2.972V35.149C62.582,32.158,60.614,30.264,57.381,30.264Zm-2.23,6.589V34.871a2.252,2.252,0,0,1,4.458,0v1.982Z" transform="translate(-26.774 -24.191)"/><path class="b" d="M109.006,31.692v-.007a1.33,1.33,0,1,1,2.66-.009v.009a1.33,1.33,0,1,1-2.66.007Zm2.508-.007v-.009a1.177,1.177,0,1,0-2.355.009v.007a1.177,1.177,0,1,0,2.355-.007Zm-1.728-.719h.65c.32,0,.558.145.558.458a.424.424,0,0,1-.306.428l.352.5h-.4l-.3-.436h-.214v.436h-.337Zm.627.672c.153,0,.236-.076.236-.191s-.091-.192-.236-.192h-.29v.382Z" transform="translate(-17.156 -24.177)"/><path class="b" d="M30.451,25.07l2.911,4.666h1.9L33.354,26.68h88.7L119.1,31.418a8.371,8.371,0,0,1,1.168,1.17l4.691-7.518Z" transform="translate(-30.451 -25.07)"/><path class="b" d="M106.656,46.6h-60.9l-4.718-7.56a6.009,6.009,0,0,1-1.711.3l5.535,8.872h62.689l2.917-4.677a8.4,8.4,0,0,1-1.59-.493Z" transform="translate(-28.949 -22.706)"/></g></g></svg>