<?xml version="1.0" encoding="utf-8"?>
<!-- Generator: Adobe Illustrator 28.0.0, SVG Export Plug-In . SVG Version: 6.00 Build 0)  -->
<svg version="1.1" id="Calque_1" xmlns="http://www.w3.org/2000/svg" xmlns:xlink="http://www.w3.org/1999/xlink" x="0px" y="0px"
	 viewBox="0 0 176 27" style="enable-background:new 0 0 176 27;" xml:space="preserve">
<style type="text/css">
	.st0{fill:#3643BA;}
</style>
<path class="st0" d="M54,22.4h12.4v-4h-7.7V15h6.8v-3.7h-6.8V7.9h7.7v-4H54V22.4z M81.8,14.4c-1.8,2.9-3.5,4.1-5.8,4.1
	c-2.9,0-4.6-2.1-4.6-5.6c0-3.4,1.6-5.1,4-5.1c1.6,0,2.9,0.7,3.3,3.1h4.7c-0.5-4.5-3.4-7.3-8-7.3c-5.3,0-8.8,3.8-8.8,9.6
	c0,5.8,3.5,9.6,9.3,9.6c3.8,0,6.3-1.6,8-3.7h6.4v3.3h4.7V3.9h-6.7L81.8,14.4z M90.4,15.3h-4.2l4.2-6.8V15.3z M43.9,3.9H37v18.4h6.9
	c5.5,0,9-3.6,9-9.2C52.9,7.6,49.4,3.9,43.9,3.9z M43.8,18.4h-2.1V7.9h2.1c2.7,0,4.3,1.9,4.3,5.2C48.1,16.4,46.6,18.4,43.8,18.4z
	 M149.3,3.6c-5.6,0-9.3,3.8-9.3,9.6c0,5.8,3.7,9.6,9.3,9.6c5.6,0,9.3-3.8,9.3-9.6C158.6,7.4,154.9,3.6,149.3,3.6z M149.3,18.5
	c-2.7,0-4.5-1.8-4.5-5.3c0-3.5,1.7-5.3,4.5-5.3c2.7,0,4.5,1.8,4.5,5.3C153.8,16.7,152.1,18.5,149.3,18.5z M96.2,7.9h4.6v14.4h4.7
	V7.9h4.6v-4h-14V7.9z M170.7,3.9v10.1l-6.1-10.1h-4.9v18.4h4.6V11.8l6.3,10.6h4.6V3.9H170.7z M133.4,3.9h-4.7v18.4h11.9v-4h-7.1V3.9
	z M122.5,11h-6.4v-7h-4.7v18.4h4.7v-7.4h6.4v7.4h4.7V3.9h-4.7V11z"/>
<path class="st0" d="M23.7,0c-10.3,0-23,10.6-23,19.5c0,4.6,3.5,6.8,8.1,6.8c3.4,0,7.5-1.2,11.4-3.6V5.1c-1.1,1.8-6,9.1-10,13
	c-2,2-3.6,2.8-5,2.8c-1.6,0-2.3-1.1-2.3-2.6c0-7.1,12-16.4,19.9-16.4c3.3,0,5.4,1.5,5.4,4.3c0,2.6-1.8,5.8-4.7,8.8v5.4
	c5.2-4.1,8.3-9.4,8.3-13.6C31.7,2.3,28.3,0,23.7,0z"/>
</svg>
