<?xml version="1.0" encoding="UTF-8"?>
<svg xmlns="http://www.w3.org/2000/svg" width="529.07" height="80" xmlns:xlink="http://www.w3.org/1999/xlink" viewBox="0 0 529.07 80">
    <defs>
        <linearGradient id="Unbenannter_Verlauf_70" data-name="Unbenannter Verlauf 70" x1="27.68" y1="71.11" x2="40.32" y2="-.57" gradientUnits="userSpaceOnUse">
            <stop offset=".3" stop-color="#004b38"/>
            <stop offset=".36" stop-color="#005c37"/>
            <stop offset=".51" stop-color="#038336"/>
            <stop offset=".63" stop-color="#049c35"/>
            <stop offset=".7" stop-color="#05a535"/>
        </linearGradient>
        <linearGradient id="Unbenannter_Verlauf_70-2" data-name="Unbenannter Verlauf 70" x1="18.45" y1="58.96" x2="31.09" y2="-12.72" gradientTransform="translate(70.77 67.84) rotate(-180)" xlink:href="#Unbenannter_Verlauf_70"/>
    </defs>
    <g id="Register_Trademark" data-name="Register Trademark">
        <path d="M529.07,15.76c0,1.25-.24,2.42-.71,3.51s-1.11,2.04-1.93,2.85-1.77,1.45-2.86,1.93c-1.09,.47-2.26,.71-3.5,.71s-2.41-.24-3.5-.71c-1.09-.47-2.05-1.12-2.86-1.93-.82-.81-1.46-1.76-1.93-2.85-.47-1.09-.71-2.26-.71-3.51s.23-2.4,.71-3.5c.47-1.1,1.11-2.05,1.93-2.86s1.77-1.45,2.86-1.93c1.09-.47,2.26-.71,3.5-.71s2.41,.24,3.5,.71c1.09,.47,2.05,1.12,2.86,1.93s1.46,1.77,1.93,2.86c.47,1.1,.71,2.27,.71,3.5Zm-1.84-.03c0-1.03-.18-2-.55-2.9-.37-.9-.88-1.7-1.52-2.38-.65-.68-1.41-1.23-2.28-1.62-.87-.4-1.81-.6-2.8-.6s-1.92,.2-2.8,.6c-.87,.4-1.63,.94-2.28,1.62-.65,.68-1.16,1.48-1.52,2.38-.37,.9-.55,1.87-.55,2.9s.18,2,.55,2.9c.37,.9,.88,1.7,1.52,2.38,.65,.68,1.41,1.23,2.28,1.62,.87,.4,1.81,.6,2.8,.6s1.92-.2,2.8-.6c.87-.4,1.63-.94,2.28-1.62,.65-.68,1.15-1.48,1.52-2.38,.37-.9,.55-1.87,.55-2.9Zm-5.42,4.77l-1.61-3.09c-.15-.3-.34-.57-.55-.79s-.48-.38-.78-.48v4.36h-1.74V11.05c.35-.19,.76-.33,1.24-.42,.47-.09,.95-.14,1.44-.14,1.16,0,2.05,.25,2.68,.74s.95,1.22,.95,2.18c0,.69-.22,1.27-.67,1.74-.45,.46-1.05,.77-1.8,.93v.05c.18,.17,.36,.36,.52,.56,.16,.2,.31,.41,.44,.63l1.87,3.19h-1.97Zm-.1-7.05c0-1.27-.63-1.9-1.89-1.9-.34,0-.65,.05-.96,.15v3.68c.2,.05,.45,.08,.76,.08,.66,0,1.17-.19,1.54-.57,.37-.38,.55-.86,.55-1.43Z"/>
    </g>
    <g id="Wortmarke">
        <g>
            <path d="M473.15,62.13h-11.57v-28.51c0-2.8-.8-4.78-2.41-5.96-1.6-1.18-3.4-1.76-5.39-1.76s-3.76,.61-5.31,1.84c-1.55,1.23-2.32,3.19-2.32,5.87v28.51h-11.91V17.19h5.03c1.45,0,2.51,.5,3.19,1.51,3.8-1.79,8.13-2.51,13-2.18,4.86,.33,8.91,1.73,12.16,4.19,1.68-1.45,3.66-2.49,5.96-3.11,2.29-.61,4.66-.97,7.13-1.09,4.92,0,9.44,1.28,13.58,3.85,4.14,2.57,6.2,7.77,6.2,15.6v26.16h-5.87c-1.68,0-3.05-.53-4.11-1.6-1.06-1.06-1.59-2.43-1.59-4.11v-22.81c0-2.68-.81-4.64-2.43-5.87-1.62-1.23-3.44-1.84-5.45-1.84-2.13,0-3.97,.61-5.53,1.84-1.57,1.23-2.35,3.19-2.35,5.87v28.51Z"/>
            <path d="M125.5,61.28c-2.35,1.57-6.65,2.35-12.91,2.35-10.06,.11-15.09-4.59-15.09-14.09-.11-8.16,4.3-12.74,13.25-13.75,8.94-1.01,13.42-2.79,13.42-5.37s-2.15-4.05-6.46-4.11c-4.3-.06-6.9,1.04-7.8,3.27h-11.24c.45-3.47,2.01-6.32,4.7-8.56,3.02-2.57,7.32-3.85,12.91-3.85,6.26,0,10.95,1.06,14.09,3.18,3.24,2.24,4.86,5.37,4.86,9.39V62.79h-6.37c-1.34,0-2.46-.5-3.35-1.51m-1.18-20.96c-1.79,1.01-4.92,1.9-9.39,2.68-4.47,.78-6.76,2.85-6.87,6.21,0,3.35,2.07,5.14,6.2,5.36,3.36,0,5.87-.89,7.55-2.68,1.68-1.79,2.51-4.25,2.51-7.38v-4.19Z"/>
            <path d="M171.76,73.55v-16.52c-1.45,2.31-3.27,3.98-5.45,5.03-2.18,1.04-4.61,1.57-7.29,1.57-5.37,0-9.67-2.1-12.91-6.29-3.24-4.19-4.87-9.92-4.87-17.18s1.4-12.35,4.19-15.93c2.79-3.58,6.85-5.79,12.16-6.62,5.31-.84,10.03-.25,14.17,1.76,.9-1,2.32-1.51,4.28-1.51h7.13v61.38h-5.7c-1.57,0-2.91-.56-4.02-1.67-1.12-1.12-1.68-2.45-1.68-4.01m-19.12-32.81c0,4.05,.84,7.25,2.51,9.62,1.68,2.36,3.97,3.54,6.88,3.54,3.13,0,5.53-1.12,7.21-3.37,1.68-2.25,2.51-5.51,2.51-9.79s-.81-7.76-2.43-10.12c-1.62-2.37-3.94-3.54-6.96-3.54s-5.53,1.18-7.21,3.54c-1.68,2.37-2.51,5.74-2.51,10.12"/>
            <path d="M229.26,17.84V62.79h-7.55c-1.45,0-2.79-.39-4.02-1.17-5.14,2.12-11.04,2.63-17.52,.84-6.54-1.81-9.81-7.6-9.81-18.11V17.84h11.91v28.85c0,2.68,.77,4.64,2.32,5.87,1.55,1.23,3.32,1.84,5.31,1.84s3.79-.61,5.39-1.84c1.6-1.23,2.4-3.19,2.4-5.87V23.55c0-1.57,.53-2.91,1.6-4.02,1.06-1.12,2.43-1.68,4.11-1.68h5.87Z"/>
            <path d="M263.96,61.28c-2.35,1.57-6.65,2.35-12.91,2.35-10.06,.11-15.09-4.59-15.09-14.09-.11-8.16,4.3-12.74,13.25-13.75,8.94-1.01,13.42-2.79,13.42-5.37s-2.15-4.05-6.46-4.11c-4.3-.06-6.9,1.04-7.8,3.27h-11.24c.45-3.47,2.01-6.32,4.7-8.56,3.02-2.57,7.32-3.85,12.91-3.85,6.26,0,10.95,1.06,14.09,3.18,3.24,2.24,4.86,5.37,4.86,9.39V62.79h-6.37c-1.34,0-2.46-.5-3.35-1.51m-1.18-20.96c-1.79,1.01-4.92,1.9-9.39,2.68-4.47,.78-6.76,2.85-6.87,6.21,0,3.35,2.07,5.14,6.2,5.36,3.36,0,5.87-.89,7.55-2.68,1.67-1.79,2.51-4.25,2.51-7.38v-4.19Z"/>
            <path d="M300.5,62.79c-3.69,.22-7.69,.17-11.99-.17-4.31-.33-6.46-3.08-6.46-8.22V5.1h6.04c1.45,0,2.74,.56,3.86,1.68,1.12,1.12,1.68,2.46,1.68,4.02v7.55h6.87v2.35c0,1.68-.56,3.05-1.68,4.11-1.12,1.07-2.46,1.6-4.02,1.6h-1.17v24.82c0,1.9,1.12,2.85,3.35,2.85h3.52v8.72Z"/>
            <path d="M335.69,30.76c-1.68-2.35-3.97-3.52-6.87-3.52-3.13,0-5.53,1.12-7.21,3.36-1.68,2.24-2.51,5.31-2.51,9.22v22.98h-11.4V5.1h5.7c1.56,0,2.9,.56,4.02,1.68,1.11,1.12,1.68,2.46,1.68,4.02v13.25c2.01-3.36,4.86-5.48,8.55-6.38,3.69-.89,7.21-.67,10.56,.67,3.13,1.34,5.76,3.47,7.88,6.37,2.12,2.91,3.19,6.93,3.19,12.07v25.99h-11.24v-23.14c0-1.68-.14-3.21-.42-4.61-.28-1.4-.92-2.82-1.93-4.27"/>
            <path d="M387.32,49.03h8.22c-1.23,4.7-3.58,8.3-7.04,10.82-3.47,2.51-7.83,3.78-13.08,3.78-6.37,0-11.35-2.04-14.93-6.12-3.58-4.08-5.36-9.86-5.36-17.36s1.76-12.77,5.28-16.85c3.52-4.08,8.47-6.12,14.84-6.12,6.71,0,11.88,2.04,15.51,6.12,3.63,4.08,5.45,9.81,5.45,17.19v1.84c0,.56-.06,.95-.17,1.18h-29.01c.11,3.46,.92,6.06,2.43,7.79,1.51,1.74,3.71,2.6,6.62,2.6,3.36,0,5.7-.81,7.04-2.43,1.34-1.62,2.74-2.43,4.19-2.43m-20.29-13.08h17.1c-.22-3.02-1.03-5.29-2.43-6.79-1.4-1.51-3.44-2.27-6.12-2.27-2.46,0-4.47,.78-6.04,2.35-1.57,1.56-2.41,3.8-2.51,6.71"/>
            <path d="M402.06,62.79v-21.29c0-16.66,8.44-24.54,25.32-23.65v11.91c-8.95,0-13.42,3.57-13.42,10.73v22.3h-11.91Z"/>
        </g>
    </g>
    <g id="Bildmarke_linearer_Verlauf" data-name="Bildmarke linearer Verlauf">
        <g>
            <path d="M11.7,56.38c3.29-3.29,8.62-3.29,11.91,0-9.03-9.03-9.03-23.73,0-32.77,9.03-9.03,23.73-9.03,32.77,0,0,0,0,0,0,0,3.29,3.29,8.62,3.29,11.91,0s3.29-8.62,0-11.91h0C52.69-3.9,27.31-3.9,11.7,11.7c-15.6,15.6-15.6,40.99,0,56.6-3.29-3.29-3.29-8.62,0-11.91Z" fill="url(#Unbenannter_Verlauf_70)"/>
            <path d="M68.3,23.62c-3.29,3.29-8.62,3.29-11.91,0,9.03,9.03,9.03,23.73,0,32.77-9.03,9.03-23.73,9.03-32.77,0,0,0,0,0,0,0-3.29-3.29-8.62-3.29-11.91,0s-3.29,8.62,0,11.91h0c15.6,15.6,40.99,15.6,56.6,0,15.6-15.6,15.6-40.99,0-56.6,3.29,3.29,3.29,8.62,0,11.91Z" fill="url(#Unbenannter_Verlauf_70-2)"/>
        </g>
    </g>
</svg>