<svg xmlns="http://www.w3.org/2000/svg" viewBox="0 0 47.5 47.5"><defs><style>.cls-1{fill:#fff;}</style></defs><g id="Layer_2" data-name="Layer 2"><g id="Layer_2-2" data-name="Layer 2"><path class="cls-1" d="M0,0V47.5H47.5V0ZM46.65.5l-6.3,6.29A23.66,23.66,0,0,0,28.6.5ZM23.75,47A23.25,23.25,0,1,1,47,23.75,23.28,23.28,0,0,1,23.75,47ZM7.15,6.79.85.5h18A23.66,23.66,0,0,0,7.15,6.79ZM.5.85l6.29,6.3A23.66,23.66,0,0,0,.5,18.9Zm6.29,39.5L.5,46.65v-18A23.66,23.66,0,0,0,6.79,40.35ZM.85,47l6.3-6.29A23.66,23.66,0,0,0,18.9,47Zm39.5-6.29L46.65,47h-18A23.66,23.66,0,0,0,40.35,40.71ZM47,46.65l-6.29-6.3A23.66,23.66,0,0,0,47,28.6ZM40.71,7.15,47,.85v18A23.66,23.66,0,0,0,40.71,7.15Z"/><path class="cls-1" d="M19.6,16.57a4.44,4.44,0,0,1-4.72,4.7H11.72V12h3.16A4.37,4.37,0,0,1,19.6,16.57Zm-1.38,0a3.19,3.19,0,0,0-3.47-3.4H13.07v6.89h1.67A3.23,3.23,0,0,0,18.22,16.59Z"/><path class="cls-1" d="M26.56,21.27l-2.35-3.65-2.35,3.65H20.39l3.09-4.7-3-4.56H22l2.24,3.51L26.57,12H28l-3,4.54,3.13,4.72Z"/><path class="cls-1" d="M35.75,14.9a3,3,0,0,1-3.14,3h-1.5v3.37H29.76V12h2.85C34.65,12,35.75,13.21,35.75,14.9Zm-1.38,0c0-1.3-.86-1.76-2-1.76H31.11v3.64h1.27A1.82,1.82,0,0,0,34.37,14.9Z"/><path class="cls-1" d="M22.35,24.78l-2.7,9.32H18.26l-2.21-7.4-2.22,7.4H12.44L9.75,24.78h1.44l2.06,7.47,2.2-7.47h1.34L19,32.2l2-7.42Z"/><path class="cls-1" d="M23.49,25.36a.83.83,0,0,1,.84-.84.84.84,0,0,1,0,1.68A.83.83,0,0,1,23.49,25.36Zm.2,2.12h1.24V34.1H23.69Z"/><path class="cls-1" d="M32.71,34.1l-4.09-4.73V34.1H27.27V24.78h1.35v4.57l3.85-4.57h1.61l-3.85,4.5,4.21,4.82Z"/><path class="cls-1" d="M35.42,25.36a.82.82,0,0,1,.84-.84.84.84,0,0,1,0,1.68A.83.83,0,0,1,35.42,25.36Zm.19,2.12h1.25V34.1H35.61Z"/></g></g></svg>