<svg width="256" height="64" fill="none" xmlns="http://www.w3.org/2000/svg"><path fill-rule="evenodd" clip-rule="evenodd" d="M91.144 0c-2.726 0-4.57 1.968-4.57 4.89v17.622c-2.319-2.176-5.766-3.99-10.03-3.99-12.318 0-18.768 11.433-18.768 22.716 0 11.28 6.45 22.708 18.769 22.708 4.47 0 7.873-1.303 10.21-3.824.402 2.297 2.017 3.824 4.389 3.824 2.726 0 4.564-1.965 4.564-4.896V4.89c0-2.922-1.838-4.89-4.564-4.89ZM66.898 41.238c0-6.633 2.673-14.361 10.199-14.361 7.528 0 10.182 7.728 10.182 14.361 0 6.63-2.654 14.346-10.182 14.346-7.526 0-10.198-7.715-10.198-14.346Zm134.074-14.361c2.399 0 3.67.617 4.887 1.229 1.007.492 2.026.992 3.419.992 2.356 0 3.925-2.125 3.925-4.1 0-3.868-4.91-6.476-12.231-6.476-13.665 0-19.782 11.41-19.782 22.716 0 11.303 6.117 22.708 19.782 22.708 7.87 0 12.002-3.338 12.002-6.634 0-2.451-1.525-4.096-3.777-4.096-1.161 0-2.042.474-2.98.976-1.258.656-2.645 1.392-5.245 1.392-8.417 0-10.66-9.018-10.66-14.346 0-5.337 2.243-14.361 10.66-14.361ZM37.866 8.967C37.17 7.113 35.9 3.75 31.953 3.75c-3.918 0-5.154 3.194-5.891 5.117-.029.058-6.531 17.85-11.642 31.808H4.64C1.22 40.675 0 42.88 0 44.768c0 1.965 1.227 4.07 4.64 4.07h6.82c-1.81 4.903-3.028 8.234-3.028 8.234-.301.749-.646 1.971-.646 2.973C7.786 62.013 9.219 64 11.97 64c2.886 0 3.823-1.93 4.504-3.325l.154-.313 3.648-10.122s.217-.618.496-1.402h11.27c3.426 0 4.647-2.105 4.647-4.07 0-1.888-1.22-4.093-4.646-4.093h-8.341c2.177-6.051 6.082-16.899 8.253-22.905 2.309 6.416 9.797 27.27 9.813 27.276 0 .016 1.831 5.175 1.831 5.175 0 .019 3.614 10.048 3.614 10.048.47 1.225 1.402 3.731 4.69 3.731 2.76 0 4.194-1.987 4.194-3.955 0-1.002-.348-2.215-.678-3.027.022.054-17.554-48.052-17.554-48.052Zm126.89 17.91c2.399 0 3.676.617 4.887 1.229 1.004.492 2.026.992 3.419.992 2.353 0 3.925-2.125 3.925-4.1 0-3.868-4.913-6.476-12.231-6.476-13.662 0-19.769 11.41-19.769 22.716 0 11.303 6.107 22.708 19.769 22.708 7.895 0 12.017-3.338 12.017-6.634 0-2.451-1.518-4.096-3.792-4.096-1.148 0-2.049.474-2.968.976-1.248.656-2.651 1.392-5.257 1.392-8.404 0-10.644-9.018-10.644-14.346 0-5.337 2.24-14.361 10.644-14.361Zm71.949-8.355c-12.674 0-19.311 11.433-19.311 22.716 0 11.28 6.637 22.708 19.311 22.708 12.667 0 19.295-11.428 19.295-22.708 0-11.283-6.628-22.716-19.295-22.716Zm0 37.062c-7.516 0-10.18-7.715-10.18-14.346 0-6.633 2.664-14.361 10.18-14.361 7.541 0 10.207 7.728 10.207 14.361 0 6.63-2.666 14.346-10.207 14.346Zm-96.48-15.37c0-10.665-7.077-21.692-18.941-21.692-12.921 0-19.694 11.433-19.694 22.716 0 10.477 5.273 22.708 20.086 22.708 8.093 0 17.68-5.316 17.68-9.802 0-2.762-1.87-4.253-3.62-4.253-1.277 0-2.35.848-3.58 1.824-2.048 1.642-4.865 3.869-10.395 3.869-6.237 0-10.478-4.18-10.961-10.486h24.465c3.385 0 4.96-1.556 4.96-4.884Zm-29.428-2.672c.37-3.657 2.133-10.979 10.465-10.665 6.653 0 9.36 6.006 9.749 10.665h-20.214Z" fill="#fff"/></svg>
