<svg id="Layer_1" data-name="Layer 1" xmlns="http://www.w3.org/2000/svg" viewBox="0 0 96 96"><defs><style>.cls-1{letter-spacing:0}.cls-4{fill:#eebf1c}</style></defs><path class="cls-4" d="M89.15 45.3c-.64.25-1.34.57-1.99.95-.64.38-1.28.84-1.75 1.38 0 0 .01-.29.03-.72.03-.43 0-1.02 0-1.6 0-.29 0-.58-.02-.86-.02-.27-.03-.53-.05-.74-.03-.44-.04-.73-.04-.73 1.24.21 2.23-.12 2.96-.81.37-.34.67-.77.93-1.25.13-.24.24-.49.34-.75.09-.26.17-.52.24-.79.14-.54.25-1.09.3-1.61.05-.52.06-1.01.07-1.44v-.58c-.01-.17-.03-.32-.04-.44-.02-.25-.04-.39-.04-.39s-.99.45-2.12 1.22c-.56.38-1.19.85-1.74 1.37-.56.52-1.04 1.1-1.38 1.73 0 0-.04-.29-.14-.71-.1-.43-.2-1-.35-1.56-.15-.56-.3-1.12-.41-1.54-.13-.42-.22-.69-.22-.69 1.29-.08 2.17-.64 2.74-1.51.59-.87.78-2.01.83-3.16 0-1.08-.14-2.16-.35-2.95-.19-.79-.38-1.31-.38-1.31s-.22.16-.55.46c-.33.29-.78.71-1.26 1.22-.95 1.01-1.96 2.34-2.35 3.72 0 0-.12-.27-.29-.67-.08-.2-.19-.43-.31-.68-.12-.24-.25-.5-.38-.77-.25-.53-.55-1.02-.75-1.41l-.35-.63c1.21-.36 1.95-1.08 2.31-2.02.18-.47.27-.99.3-1.53.03-.54-.05-1.09-.15-1.64-.05-.28-.11-.55-.19-.81-.07-.26-.16-.52-.25-.76-.18-.49-.37-.95-.55-1.33-.38-.75-.7-1.23-.7-1.23s-.69.84-1.38 2.03c-.35.6-.68 1.27-.96 1.98-.28.71-.47 1.45-.5 2.16 0 0-.17-.23-.44-.58-.13-.17-.28-.38-.45-.59-.16-.22-.36-.44-.54-.66-.08-.09-.15-.18-.23-.27 1.4-5.05-6.84-6.8-6.84-6.8s.71 8.74 6.19 7.59c.03.04.07.08.1.12.18.22.37.43.53.64l.44.58.43.56c-.69-.17-1.44-.15-2.16-.02-.72.13-1.44.38-2.06.65-1.24.53-2.12 1.14-2.12 1.14s.31.25.83.59c.25.17.55.37.89.57.17.1.36.19.54.29.18.1.37.2.58.29.4.19.84.34 1.28.47.44.13.9.21 1.38.21.95 0 1.94-.25 2.85-1.12 0 0 .14.25.34.62.2.38.5.86.73 1.37.12.25.25.51.37.75s.23.46.31.66c.17.39.28.65.28.65-1.24-.66-2.92-.58-4.24-.33-.66.12-1.24.28-1.65.41-.41.13-.66.22-.66.22s.23.31.63.73c.42.42.95 1 1.65 1.52.68.56 1.55 1.07 2.46 1.32.93.24 1.98.22 3.09-.44 0 0 .09.27.21.67.11.41.25.96.4 1.5.14.55.24 1.1.34 1.52.09.41.13.69.13.69-.53-.46-1.23-.76-1.93-.96-.71-.2-1.44-.29-2.12-.31-1.35-.05-2.42.1-2.42.1s.04.09.13.25c.04.08.1.17.16.28.06.11.12.23.2.36.15.26.34.57.57.89.22.32.46.67.75 1.01.14.17.29.34.46.5.15.17.31.33.49.48.34.31.73.58 1.15.79.85.42 1.84.62 3.05.23l.05.71c.01.21.03.46.04.72.02.27 0 .55.02.83 0 .57.03 1.13 0 1.56-.01.42-.03.7-.03.7-.43-.56-1-1.02-1.66-1.36-.66-.35-1.36-.6-2.01-.78-1.29-.36-2.37-.44-2.37-.44s.08.39.27.98c.05.15.11.31.16.47.05.17.11.35.18.53.14.37.32.76.52 1.16.19.39.42.79.7 1.17.14.19.29.37.45.55.15.17.32.33.5.48.72.6 1.67 1.01 2.92.9l-.1.7c-.07.42-.18.97-.29 1.53-.03.14-.05.28-.08.42-.03.13-.07.27-.1.39-.06.26-.12.5-.17.71-.05.21-.09.38-.12.5s-.05.19-.05.19c-.3-.65-.78-1.22-1.33-1.7-.28-.24-.57-.46-.87-.66-.3-.2-.61-.38-.91-.54-1.19-.64-2.22-.95-2.22-.95v.28c0 .18.04.43.05.74.04.61.17 1.43.36 2.29.23.86.54 1.75 1.12 2.51.59.75 1.4 1.36 2.66 1.53 0 0-.11.26-.27.66-.16.39-.36.92-.62 1.43-.12.26-.24.51-.35.75-.06.12-.11.24-.16.35-.06.11-.11.21-.16.3-.2.37-.33.62-.33.62-.26-1.38-1.37-2.65-2.38-3.53-1.01-.88-1.94-1.42-1.94-1.42s-.1.37-.18.95c-.02.15-.04.31-.05.48-.02.17-.05.35-.06.54-.04.38-.05.79-.04 1.22-.01.88.13 1.88.5 2.75.39.88 1.07 1.68 2.27 2.14 0 0-.04.06-.11.16s-.16.25-.29.43l-.92 1.25c-.35.45-.71.88-.98 1.21-.13.17-.25.3-.33.39-.08.09-.13.14-.13.14 0-.17 0-.35-.01-.53-.02-.18-.05-.36-.09-.54-.08-.36-.2-.71-.35-1.05-.29-.68-.68-1.31-1.07-1.85-.8-1.09-1.59-1.83-1.59-1.83l-.11.25c-.07.16-.16.4-.28.68-.12.28-.23.62-.34 1.01-.13.37-.24.78-.33 1.21-.08.44-.16.89-.18 1.35-.02.46 0 .94.1 1.4.19.91.67 1.82 1.72 2.52 0 0-.21.19-.52.48-.3.3-.74.65-1.18 1.02-.22.18-.43.37-.64.53l-.58.44-.56.43c.17-.69.15-1.44.03-2.16-.12-.72-.38-1.44-.65-2.06-.53-1.24-1.14-2.12-1.14-2.12s-.26.31-.59.83c-.17.25-.37.55-.57.89-.1.17-.2.36-.29.54a8.852 8.852 0 0 0-.76 1.86c-.13.44-.21.9-.22 1.38 0 .95.25 1.94 1.13 2.85 0 0-.25.14-.62.34s-.86.49-1.37.73c-.25.13-.51.25-.75.37-.16.08-.32.16-.47.22l.44.9c.11-.05.34-.16.46-.22.25-.12.5-.25.77-.38.53-.25 1.03-.55 1.41-.75.38-.21.64-.35.64-.35.36 1.2 1.08 1.95 2.01 2.3.46.18.98.27 1.53.3.54.03 1.09-.05 1.64-.15a9.601 9.601 0 0 0 1.57-.44c.49-.18.94-.37 1.33-.55.75-.38 1.23-.7 1.23-.7s-.84-.69-2.03-1.38c-.6-.35-1.27-.69-1.98-.97s-1.45-.47-2.16-.5c0 0 .23-.17.58-.44.17-.13.38-.28.59-.45.22-.16.43-.36.66-.54.44-.38.89-.74 1.21-1.04.32-.29.53-.49.53-.49.62 1.1 1.48 1.66 2.49 1.81.5.07 1.01.04 1.55-.06.53-.1 1.07-.27 1.57-.5.51-.23 1-.5 1.44-.77.43-.29.83-.58 1.16-.84a9.38 9.38 0 0 0 1.06-.95s-.97-.49-2.28-.89c-.66-.21-1.41-.4-2.16-.51-.38-.05-.75-.09-1.13-.09-.18 0-.37 0-.55.02-.18.01-.37.03-.54.06 0 0 .05-.06.13-.15.09-.09.2-.23.34-.4.27-.34.64-.79 1-1.24.34-.47.69-.94.95-1.29.13-.18.23-.33.3-.44l.11-.17c.87.96 1.86 1.3 2.89 1.21 1.05-.08 2.06-.64 2.99-1.32.42-.34.82-.7 1.18-1.07.18-.18.35-.36.5-.54.15-.18.29-.35.41-.51.5-.64.79-1.11.79-1.11s-1.06-.26-2.43-.37c-1.38-.11-3.05-.08-4.38.48 0 0 .14-.26.34-.64.05-.1.1-.2.16-.31.05-.12.11-.23.17-.36.12-.25.24-.51.36-.77.26-.52.46-1.06.63-1.47.17-.41.28-.67.28-.67 1.03.72 2.06.85 3.01.55.95-.3 1.86-1 2.57-1.86.75-.84 1.27-1.83 1.65-2.59.19-.38.31-.71.4-.94.09-.23.13-.37.13-.37s-1.08-.02-2.44.19c-.34.05-.7.12-1.05.2-.37.08-.74.17-1.11.29-.73.23-1.42.54-1.99.96 0 0 .02-.07.05-.19.03-.12.07-.3.13-.51.05-.21.11-.46.18-.72.03-.13.06-.27.1-.41.03-.14.06-.28.08-.43.11-.57.23-1.14.29-1.57l.1-.72c1.17.47 2.19.37 3.07-.14.22-.12.43-.27.63-.44.2-.17.38-.36.55-.56.34-.41.65-.88.92-1.37.26-.49.46-1.01.64-1.5.08-.25.16-.49.23-.72.07-.23.11-.46.16-.66.18-.82.24-1.39.24-1.39s-1.06.22-2.35.72ZM31.59 78.59c-.51-.24-1-.53-1.37-.73-.37-.21-.62-.34-.62-.34.87-.92 1.14-1.9 1.13-2.85 0-.47-.09-.94-.22-1.38-.13-.44-.29-.88-.47-1.28-.09-.2-.19-.39-.29-.58-.1-.19-.2-.37-.29-.54-.2-.34-.39-.64-.57-.89-.33-.52-.59-.83-.59-.83s-.6.89-1.14 2.12c-.26.62-.52 1.34-.64 2.06-.13.72-.15 1.46.02 2.16l-.56-.43-.58-.44c-.21-.16-.42-.35-.64-.53-.43-.37-.87-.72-1.18-1.02-.31-.29-.52-.48-.52-.48 1.05-.7 1.53-1.61 1.72-2.52.1-.47.13-.94.1-1.4-.02-.46-.1-.91-.18-1.35-.09-.44-.2-.85-.33-1.21-.11-.38-.23-.72-.34-1.01-.12-.28-.21-.52-.28-.68l-.11-.25s-.79.73-1.59 1.83c-.39.54-.78 1.17-1.07 1.85-.14.34-.26.69-.35 1.05-.04.18-.07.36-.09.54-.02.18-.02.35-.01.53 0 0-.05-.05-.13-.14-.08-.09-.2-.22-.33-.39-.26-.33-.63-.77-.98-1.21-.33-.46-.67-.91-.92-1.25-.12-.17-.22-.32-.29-.43-.07-.1-.11-.16-.11-.16 1.2-.46 1.88-1.26 2.27-2.14.37-.87.51-1.87.5-2.75.01-.43 0-.85-.04-1.22-.02-.19-.04-.36-.06-.54-.01-.17-.03-.33-.06-.48-.08-.58-.18-.95-.18-.95s-.93.54-1.94 1.42c-1.01.88-2.12 2.14-2.38 3.53 0 0-.13-.25-.33-.62-.05-.09-.1-.2-.16-.3-.05-.11-.11-.23-.16-.35-.11-.24-.23-.5-.35-.75-.25-.51-.45-1.04-.62-1.43l-.27-.66c1.26-.17 2.07-.78 2.65-1.53.58-.75.89-1.64 1.12-2.51.2-.85.32-1.68.36-2.29.01-.3.05-.56.05-.74v-.28s-1.03.32-2.22.95c-.3.16-.61.34-.91.54-.3.2-.59.42-.87.66-.55.48-1.04 1.06-1.33 1.7 0 0-.02-.07-.05-.19-.03-.12-.07-.29-.12-.5-.05-.21-.11-.45-.17-.71-.03-.13-.06-.26-.1-.39-.03-.14-.05-.28-.08-.42-.1-.56-.22-1.11-.29-1.53l-.1-.7c1.26.11 2.2-.3 2.92-.9a5.986 5.986 0 0 0 .95-1.03c.28-.37.51-.77.69-1.17.2-.4.38-.79.52-1.16.07-.18.13-.36.19-.53.06-.17.11-.33.16-.47.19-.59.27-.98.27-.98s-1.07.08-2.37.44c-.65.18-1.35.43-2.01.78-.66.35-1.23.8-1.66 1.36 0 0-.01-.28-.03-.7-.03-.42 0-.99 0-1.56 0-.28 0-.56.01-.83.02-.26.03-.51.04-.72.03-.42.04-.71.04-.71 1.21.38 2.2.19 3.05-.23.43-.21.81-.49 1.16-.79.17-.15.33-.31.49-.48.16-.16.31-.33.46-.5.29-.34.53-.69.75-1.01.23-.33.42-.63.57-.89.08-.13.14-.26.2-.36.06-.11.11-.2.16-.28.08-.16.13-.25.13-.25s-1.06-.16-2.42-.1c-.68.03-1.41.12-2.12.31-.7.2-1.41.5-1.94.96 0 0 .04-.28.13-.69.09-.41.2-.97.34-1.52.15-.55.29-1.09.4-1.5.13-.41.21-.67.21-.67 1.11.66 2.16.69 3.09.44.91-.25 1.78-.76 2.46-1.32.7-.52 1.23-1.1 1.65-1.52.41-.43.63-.73.63-.73s-.25-.1-.66-.22c-.41-.13-.99-.29-1.65-.41-1.31-.24-3-.33-4.24.33 0 0 .11-.26.28-.65.08-.2.19-.42.31-.66.12-.24.24-.49.37-.75.24-.51.54-1 .73-1.37.21-.37.34-.62.34-.62.92.87 1.9 1.13 2.85 1.12.48 0 .94-.09 1.38-.21.44-.13.88-.29 1.28-.47.2-.09.39-.19.58-.29.19-.1.37-.19.54-.29a10 10 0 0 0 .89-.57c.52-.33.83-.59.83-.59s-.89-.6-2.12-1.14c-.62-.26-1.34-.52-2.06-.65s-1.46-.14-2.16.02l.43-.56.44-.58c.16-.21.35-.42.53-.64.03-.04.07-.08.1-.12 5.48 1.15 6.19-7.59 6.19-7.59s-8.24 1.75-6.83 6.8c-.08.09-.15.18-.23.27-.18.23-.38.44-.54.66-.17.21-.32.42-.45.59-.27.35-.44.58-.44.58-.02-.71-.22-1.45-.5-2.16-.28-.72-.61-1.39-.96-1.98-.69-1.19-1.38-2.03-1.38-2.03s-.31.48-.7 1.23c-.18.38-.37.84-.55 1.33-.09.25-.18.5-.25.76-.07.27-.13.54-.19.81-.1.55-.17 1.1-.14 1.64.03.54.12 1.06.3 1.53.36.93 1.1 1.66 2.3 2.02l-.35.63c-.21.38-.51.88-.75 1.41-.13.26-.26.52-.38.77-.12.24-.23.47-.31.68-.17.4-.29.67-.29.67-.4-1.39-1.4-2.71-2.35-3.72-.47-.5-.92-.93-1.26-1.22-.33-.29-.55-.46-.55-.46s-.18.52-.37 1.31c-.21.78-.35 1.87-.35 2.95.05 1.15.24 2.29.83 3.16.57.87 1.45 1.43 2.74 1.51l-.22.69c-.11.42-.26.98-.41 1.54-.14.56-.25 1.14-.35 1.56-.1.42-.14.71-.14.71-.35-.63-.82-1.21-1.39-1.73-.55-.52-1.18-.99-1.74-1.37-1.13-.77-2.12-1.22-2.12-1.22s-.02.14-.04.39c0 .12-.02.27-.04.44v.58c0 .42.02.92.07 1.44.05.52.16 1.07.3 1.61.07.27.15.54.24.79.1.26.22.51.35.75.25.48.56.9.92 1.25.73.68 1.72 1.01 2.96.81l-.05.73c-.01.22-.03.47-.05.74-.02.27 0 .56-.02.86 0 .58-.03 1.16 0 1.6.02.44.03.72.03.72-.46-.54-1.1-.99-1.75-1.38-.65-.38-1.35-.7-1.99-.95-1.29-.5-2.35-.72-2.35-.72s.06.57.24 1.39c.04.21.09.43.16.66.07.23.15.47.23.72.17.49.37 1.01.63 1.5.27.49.58.96.92 1.37.17.2.35.39.55.56.2.17.41.32.63.44.88.5 1.9.61 3.07.14l.1.72c.07.43.19 1 .3 1.57.03.14.05.28.08.43.03.14.07.28.1.41.07.27.13.51.18.72.05.21.1.39.13.51s.05.19.05.19c-.57-.42-1.26-.73-1.99-.96-.37-.11-.74-.21-1.11-.29-.36-.08-.71-.14-1.06-.2-1.35-.21-2.44-.19-2.44-.19s.04.14.13.37c.09.23.2.57.4.94.38.76.91 1.74 1.65 2.59.71.86 1.62 1.56 2.57 1.86.95.3 1.99.17 3.01-.55 0 0 .11.27.28.67.17.4.37.95.63 1.47.12.26.25.53.36.77.06.12.11.24.17.36.06.11.11.21.16.31.21.39.34.64.34.64-1.33-.55-3-.59-4.38-.48-1.38.11-2.43.37-2.43.37s.29.47.79 1.11c.12.16.26.33.41.51.15.18.33.36.5.54.36.36.75.73 1.18 1.07.93.68 1.94 1.24 2.99 1.32 1.03.09 2.02-.25 2.89-1.21l.11.17c.07.1.17.26.29.44.26.35.6.82.95 1.29.36.46.73.9 1 1.24.14.17.25.31.34.4.09.09.13.15.13.15-.18-.03-.36-.05-.54-.06-.18-.01-.36-.02-.55-.02-.37 0-.75.04-1.12.09-.75.11-1.5.3-2.16.51-1.31.4-2.28.89-2.28.89l.28.28c.18.18.45.41.78.67.33.26.73.56 1.16.84.45.27.94.54 1.45.77.5.23 1.04.4 1.57.5.53.1 1.05.13 1.55.06 1-.16 1.87-.71 2.49-1.81 0 0 .21.2.54.49.31.31.77.67 1.21 1.04.23.18.44.38.66.54.22.17.42.32.59.45.35.26.58.44.58.44-.71.02-1.45.22-2.16.5-.72.28-1.39.62-1.98.97-1.19.69-2.03 1.38-2.03 1.38s.48.31 1.23.7c.38.18.84.37 1.33.55.25.09.5.18.76.25.27.07.54.13.81.19.55.1 1.1.17 1.64.15.54-.02 1.06-.12 1.53-.3.93-.36 1.66-1.1 2.02-2.3l.63.35c.38.21.88.51 1.41.75l.76.38c.12.06.35.17.46.22l.44-.9-.47-.22c-.24-.12-.49-.24-.74-.37Z"/><text transform="translate(38.33 42.64)" style="fill:#231f20;font-weight:300;font-family:HouschkaHead-DemiBold,'Houschka Head';font-size:7px"><tspan x="0" y="0">2025</tspan></text><text transform="translate(23.91 50.3)" style="font-family:Nunito-Light,Nunito;font-size:4.5px;fill:#231f20;font-weight:300"><tspan x="0" y="0">AmCham </tspan><tspan x="19.89" y="0" style="letter-spacing:-.02em">C</tspan><tspan x="22.83" y="0" style="letter-spacing:0">a</tspan><tspan class="cls-1" x="25.18" y="0">r</tspan><tspan x="26.69" y="0">es </tspan><tspan x="32.35" y="0" style="letter-spacing:-.03em">A</tspan><tspan x="35.48" y="0" style="letter-spacing:0">w</tspan><tspan x="39.19" y="0">a</tspan><tspan class="cls-1" x="41.54" y="0">r</tspan><tspan x="43.06" y="0">d</tspan></text></svg>
