<?xml version="1.0" encoding="utf-8"?>
<!-- Generator: Adobe Illustrator 24.2.1, SVG Export Plug-In . SVG Version: 6.00 Build 0)  -->
<svg version="1.1" id="Ebene_1" xmlns="http://www.w3.org/2000/svg" xmlns:xlink="http://www.w3.org/1999/xlink" x="0px" y="0px"
	 viewBox="0 0 95 95" style="enable-background:new 0 0 95 95;" xml:space="preserve">
<style type="text/css">
	.st0{fill:#00ABE4;}
	.st1{fill:#FFFFFF;}
</style>
<g>
	<rect class="st0" width="95" height="95"/>
	<g>
		<g>
			<g>
				<path class="st1" d="M18.2,45.6C18,43.5,16.4,43,14.4,43c-1.9,0-3.4,0.8-3.4,2.1c0,1.6,1.5,1.9,4.4,2.4c2.2,0.4,4.4,0.9,4.4,3.2
					c0,3-2.7,3.8-5,3.8c-3.1,0-5.3-1-5.5-4.3h1.3c0.2,2.5,1.9,3.1,4.2,3.1c1.8,0,3.7-0.5,3.7-2.4c0-1.8-2.2-2.1-4.4-2.4
					c-2.9-0.5-4.4-1.3-4.4-3.2c0-2.6,2.4-3.5,4.8-3.5c2.5,0,4.9,0.9,5,3.7H18.2z"/>
				<path class="st1" d="M37.3,42.1H39l0,12.1h-1.2l0-10.4h0l-5.3,10.4h-1.1L26,43.7h0l0,10.4h-1.3l0-12.1h1.8l5.4,10.5L37.3,42.1z"
					/>
				<path class="st1" d="M52.8,50.5h-6.4l-1.6,3.7h-1.4l5.5-12.1h1.5l5.5,12.1h-1.5L52.8,50.5z M49.6,43.4l-2.7,6h5.3L49.6,43.4z"/>
				<path class="st1" d="M60.4,42.1H67c2,0,3.9,0.7,3.9,3.3c0,1.3-0.8,2.6-2.4,2.9v0c1.7,0.3,2.1,1.4,2.1,3.3
					c0.1,0.8,0.1,2.2,0.4,2.5h-1.4c-0.3-0.3-0.3-1.1-0.3-2.5c-0.1-2.1-0.8-2.8-2.9-2.8h-4.8l0,5.3h-1.3L60.4,42.1z M61.7,47.7H67
					c1.4,0,2.6-0.5,2.6-2.3c0-1.8-1.3-2.1-2.5-2.1h-5.4V47.7z"/>
				<path class="st1" d="M79.7,43.3H75v-1.1h10.7v1.1H81l0,10.9h-1.2L79.7,43.3z"/>
			</g>
		</g>
	</g>
	<g>
		<path class="st1" d="M16.6,84.4c-4.5,0-6.5-1.9-6.5-6V64.8c0-4.1,2-6,6.5-6c4.5,0,6.6,1.9,6.6,6v13.6
			C23.1,82.5,21.1,84.4,16.6,84.4z M16.6,80.9c1.7,0,2.4-0.8,2.4-2.5V64.8c0-1.8-0.7-2.5-2.4-2.5c-1.6,0-2.4,0.8-2.4,2.5v13.6
			C14.2,80.2,14.9,80.9,16.6,80.9z"/>
		<path class="st1" d="M26.2,59.2h9.7v3.4h-5.5v6.9h5.4v3.4h-5.4V84h-4.1V59.2z"/>
		<path class="st1" d="M38.6,59.2h9.7v3.4h-5.5v6.9h5.4v3.4h-5.4V84h-4.1V59.2z"/>
		<path class="st1" d="M51,59.2h4.1V84H51V59.2z"/>
		<path class="st1" d="M71.3,78.4c0,4.1-2,6-6.6,6c-4.5,0-6.5-1.9-6.5-6V64.8c0-4.1,2-6,6.5-6c4.5,0,6.6,1.9,6.6,6v3.9h-4.2v-3.9
			c0-1.8-0.7-2.5-2.4-2.5c-1.6,0-2.4,0.8-2.4,2.5v13.6c0,1.8,0.7,2.5,2.4,2.5c1.7,0,2.4-0.8,2.4-2.5v-4h4.2V78.4z"/>
		<path class="st1" d="M74.4,59.2h10v3.4h-5.9v6.9h5.9v3.4h-5.9v7.7h5.9V84h-10V59.2z"/>
	</g>
</g>
</svg>
