<svg fill="#0a1e64" height="49" viewbox="0 0 153 49" width="153" xmlns="http://www.w3.org/2000/svg" xmlns:xlink="http://www.w3.org/1999/xlink"><clippath id="a"><path d="m0 .138329h153v48h-153z"></path></clippath><g clip-path="url(#a)"><path d="m12.4542 5.23757h-12.4542v11.37893h11.9713c1.0243 0 1.856.8252 1.856 1.8441s-.8317 1.848-1.856 1.848h-11.9713v11.2535h10.3022s2.0833.1051 3.7303-3.1697v3.1689h11.684v-13.1674c0-7.279-5.9359-13.15633-13.2615-13.15633zm-.5492 19.78203c-1.0243 0-1.8577-.8244-1.8577-1.8457 0-1.0212.8334-1.8464 1.8577-1.8464s1.8568.8283 1.8568 1.8464c0 1.0182-.8333 1.8457-1.8568 1.8457z"></path><path d="m136.631 5.21874c-7.322 0-13.261 5.90166-13.261 13.17986 0 7.2783 5.938 13.1807 13.261 13.1807 7.322 0 13.261-5.9016 13.261-13.1807 0-7.279-5.936-13.17986-13.261-13.17986zm-.037 15.02556c-1.025 0-1.856-.8268-1.856-1.8488s.831-1.8425 1.856-1.8425c1.024 0 1.86.8252 1.86 1.8425s-.834 1.8488-1.86 1.8488z"></path><path d="m54.2487 20.3078c-1.0243 0-1.8561-.8267-1.8561-1.848 0-1.0212.8318-1.844 1.8561-1.844h11.9712v-11.37823h-12.4542c-7.3264 0-13.2623 5.87733-13.2623 13.15633 0 7.2791 5.9359 13.1682 13.2623 13.1682h.9438v16.577s11.2839-1.5311 11.5222-12.6191l-.011-15.2098h-11.972z"></path><path d="m38.9345 1.3094h-11.3005v30.2519h11.3005z"></path><path d="m96.009 18.3924c0 7.2782 5.936 13.1689 13.262 13.1689h12.455v-11.2527h-11.972c-1.024 0-1.856-.8267-1.856-1.8488 0-1.022.832-1.8425 1.856-1.8425h11.972v-11.3813h-12.455c-7.326 0-13.262 5.8781-13.262 13.1564z"></path><path d="m81.6444 16.6165h12.5024c-.8492-6.4342-6.2666-11.37893-12.9853-11.37893-7.3264 0-13.2623 5.87733-13.2623 13.15633 0 7.2791 5.9359 13.1682 13.2623 13.1682h12.9853v-11.2527h-12.5024c-1.0243-.0008-1.856-.8275-1.856-1.8488s.8317-1.8441 1.856-1.8441zm-2.4858-2.8684c0-1.0174.8318-1.8425 1.8561-1.8425s1.86.8251 1.86 1.8425c0 1.0173-.8326 1.8487-1.86 1.8487-1.0275 0-1.8561-.8267-1.8561-1.8487z"></path><path d="m149.698 6.70514c-1.825 0-3.302-1.46914-3.302-3.28497 0-1.81584 1.477-3.281841 3.302-3.281841 1.826 0 3.302 1.470711 3.302 3.281841 0 1.81112-1.476 3.28497-3.302 3.28497zm0-5.95735c-1.482 0-2.647 1.17657-2.647 2.67238 0 1.4958 1.165 2.67865 2.647 2.67865s2.639-1.18049 2.639-2.67865c0-1.49817-1.162-2.67238-2.639-2.67238zm.695 4.44193-.732-1.40717h-.453v1.40717h-.656v-3.54617h1.338c.675 0 1.148.502 1.148 1.08793 0 .50122-.309.82674-.701.96322l.791 1.49581h-.735zm-1.185-2.99083v1.06754h.598c.352 0 .587-.23375.587-.53495s-.235-.53259-.587-.53259z"></path></g></svg>