<svg id="Layer_1" version="1.1" viewbox="0 0 120 197" xmlns="http://www.w3.org/2000/svg"><polygon fill="none" points="9.976 192.522 15.005 192.522 12.396 188.592 9.976 192.522"></polygon><path d="M100.064,25.087l-7.891,10.78-3.352,51.04-22.936-15.128L14.147,142.463l-7.504-.353v29.055h106.713V7.226h-9.358l-3.2,4.365-.734,13.496ZM61.201,153.045c.972-8.911,19.987-3.759,21.514,0h-21.514ZM52.734,136.476l16.517-29.24,16.795,29.24h-33.312Z" fill="#fceb08"></path><polygon fill="#198acb" points="14.147 142.463 65.886 71.78 57.677 66.366 6.643 135.976 2.296 141.906 6.643 142.11 14.147 142.463"></polygon><polygon fill="#198acb" points="92.424 32.048 92.173 35.867 100.064 25.087 100.799 11.591 101.036 7.226 77.135 39.826 92.424 32.048"></polygon><path d="M57.677,66.366L6.643,135.976V7.226h94.393l-23.901,32.601-33.701,17.146,14.243,9.394ZM103.999,7.226h-2.963l-.237,4.365,3.2-4.365ZM61.201,153.045h21.514c-1.527-3.759-20.542-8.911-21.514,0Z" fill="#e12027"></path><path d="M0,0v178.391h120V0H0ZM117.704,176.089H2.296V2.303h115.409v173.786ZM10.886,185.255l-8.813,11.745h4.615l1.534-1.939h8.565l1.408,1.939h4.65l-8.522-11.745h-3.435ZM9.976,192.522l2.42-3.929,2.609,3.929h-5.029ZM79.939,194.801h7.199v2.199h-11.555v-11.745h0s11.419,0,11.419,0v2.256h-7.063v2.39h6.723v1.935h-6.723v2.964ZM37.119,194.677h6.107v2.323h-10.479v-11.745h4.372v9.422ZM51.716,185.255h13.638v2.9h-4.524v8.845h-4.591v-8.845h-4.524v-2.9h0ZM113.333,185.255h4.372v11.745h-3.14l-11.521-7.747v7.747h-4.377v-11.745h3.287l11.38,7.65v-7.65Z" fill="#fff"></path><path d="M2.296,2.303h115.409v173.786H2.296v-34.182l4.348.204v29.055h106.713V7.226H6.643v128.75l-4.348,5.93V2.303ZM92.173,35.867l.251-3.82-15.289,7.779-33.701,17.146,14.243,9.394,8.209,5.414,22.936,15.128,3.352-51.04ZM52.734,136.476h33.312l-16.795-29.24-16.517,29.24Z" fill="#231f20"></path></svg>