<?xml version="1.0" encoding="utf-8"?>
<svg xmlns="http://www.w3.org/2000/svg" height="41" viewBox="0 0 159 41" width="159">
    <g fill="none">
        <path d="M32.392 23.311L4.678 23.311 7.783 17.493 29.326 17.493z" fill="#000"/>
        <path d="M40.057 34.987L51.654 13.08c.472-.898 1.415-1.445 2.398-1.445 2.044 0 3.38 2.148 2.398 3.983L43.123 40.805h-6.132L18.515 5.818 6.172 29.168H0L15.41 0h6.171l18.476 34.987z" fill="#26D07C"/>
        <g fill="#000">
            <path d="M86.743 7.826l-2.968-.704c-1.211-.313-1.836-.9-1.836-1.84 0-1.212 1.133-1.995 2.656-1.995 1.68 0 2.656.9 3.007 2.035h3.359c-.547-2.857-2.695-4.93-6.405-4.93-3.398 0-5.937 2.151-5.937 5.243 0 2.778 1.797 4.108 4.14 4.656l2.89.705c1.406.313 1.992.9 1.992 1.917 0 1.37-1.093 2.113-2.734 2.113-1.601 0-2.773-.704-3.241-2.191H78.19c.546 3.248 3.124 5.126 6.717 5.126 3.437 0 6.015-1.996 6.015-5.283.078-2.66-1.562-4.226-4.18-4.852zM7.108.352L.234 17.882h3.672l1.523-3.873h7.147l1.523 3.874h3.671L10.897.353H7.108zm-.351 10.213l2.226-5.674 2.226 5.674H6.757zM22.496 3.757L30.893 3.757 22.496 14.439 22.496 17.883 35.228 17.883 35.228 14.439 26.831 14.439 35.228 3.757 35.228.352 22.496.352zM41.594 1.448L41.594 3.757 41.594 7.396 41.594 10.839 41.594 14.439 41.594 15.809 41.594 17.883 54.288 17.883 54.288 14.439 45.031 14.439 45.031 10.839 52.725 10.839 52.725 7.396 45.031 7.396 45.031 3.757 54.288 3.757 54.288.352 41.594.352zM59.091.352L59.091 3.757 64.559 3.757 64.559 17.883 67.957 17.883 67.957 3.757 73.425 3.757 73.425.352z" transform="translate(68 12)"/>
        </g>
    </g>
</svg>