<svg width="503" height="100" viewBox="0 0 503 100" fill="none" xmlns="http://www.w3.org/2000/svg">
    <path d="M0 84.5649H2.63149V96.8727H8.90279V99.2315H0V84.5649Z" fill="#003A70"/>
    <path d="M21.8408 84.5649H24.1158L30.4738 99.2315H27.4731L26.0958 95.8704H19.701L18.3728 99.2315H15.4337L21.8408 84.5649ZM25.1734 93.6338L22.8984 87.6694L20.5864 93.6338H25.1734Z" fill="#003A70"/>
    <path d="M38.3689 84.5649H44.1242C44.6776 84.5649 45.231 84.6261 45.7721 84.7605C46.3132 84.8949 46.7928 85.1027 47.2232 85.4083C47.6414 85.7016 47.9857 86.0927 48.2562 86.5572C48.5145 87.0216 48.6498 87.5961 48.6498 88.2561C48.6498 89.0872 48.4161 89.7716 47.9365 90.3094C47.4692 90.8471 46.842 91.2383 46.0795 91.4705V91.5071C46.5346 91.5683 46.965 91.6905 47.3585 91.886C47.752 92.0816 48.0964 92.3383 48.3669 92.656C48.6498 92.9616 48.8588 93.3282 49.0187 93.7316C49.1786 94.1349 49.2524 94.5749 49.2524 95.0516C49.2524 95.8582 49.0925 96.5182 48.7727 97.0438C48.453 97.5816 48.0349 98.0093 47.5061 98.3271C46.9896 98.6571 46.387 98.8893 45.7106 99.0238C45.0342 99.1582 44.3579 99.2315 43.6569 99.2315H38.3443V84.5649H38.3689ZM40.9883 90.5294H43.3864C44.2595 90.5294 44.9236 90.3583 45.354 90.016C45.7967 89.6738 46.0058 89.2338 46.0058 88.6838C46.0058 88.0483 45.7844 87.5716 45.3294 87.2661C44.8744 86.9605 44.1488 86.8016 43.1527 86.8016H40.9883V90.5294ZM40.9883 96.9949H43.4109C43.743 96.9949 44.0996 96.9704 44.4809 96.9338C44.8621 96.8971 45.2187 96.7993 45.5385 96.6404C45.8582 96.4938 46.1164 96.2738 46.3255 95.9927C46.5346 95.7115 46.633 95.3327 46.633 94.8438C46.633 94.0738 46.3747 93.536 45.8705 93.2305C45.3663 92.9249 44.5792 92.7782 43.5093 92.7782H40.9883V96.9949Z" fill="#003A70"/>
    <path d="M57.332 91.9594C57.332 90.7861 57.5287 89.7228 57.91 88.7572C58.3035 87.7917 58.8323 86.985 59.521 86.3005C60.2096 85.6283 61.0336 85.1028 61.9805 84.7361C62.9274 84.3694 63.9727 84.1861 65.1164 84.1861C66.2724 84.1739 67.33 84.345 68.2892 84.6994C69.2485 85.0539 70.0724 85.5672 70.7734 86.2394C71.4743 86.9117 72.0154 87.7305 72.3967 88.6839C72.7902 89.6372 72.9747 90.7005 72.9747 91.8738C72.9747 93.0227 72.7779 94.0616 72.3967 95.0027C72.0032 95.9438 71.462 96.7505 70.7734 97.4227C70.0847 98.0949 69.2485 98.6327 68.2892 99.0116C67.33 99.3905 66.2724 99.586 65.1164 99.5982C63.9727 99.5982 62.9274 99.4149 61.9805 99.0482C61.0336 98.6816 60.2096 98.1683 59.521 97.496C58.8323 96.8238 58.2912 96.0172 57.91 95.0883C57.5287 94.1472 57.332 93.1083 57.332 91.9594ZM60.0867 91.7883C60.0867 92.5705 60.2096 93.3038 60.4556 93.9638C60.7015 94.6238 61.0459 95.1983 61.4886 95.6871C61.9313 96.176 62.4601 96.5549 63.0873 96.8238C63.7022 97.1049 64.3909 97.2394 65.1656 97.2394C65.9281 97.2394 66.629 97.1049 67.2439 96.8238C67.8711 96.5427 68.3999 96.1638 68.8549 95.6871C69.2976 95.1983 69.642 94.636 69.8879 93.9638C70.1339 93.3038 70.2569 92.5827 70.2569 91.7883C70.2569 91.0549 70.1339 90.3705 69.8879 89.735C69.642 89.0994 69.2976 88.5494 68.8549 88.0728C68.4122 87.5961 67.8711 87.2294 67.2439 86.9483C66.6168 86.6794 65.9281 86.545 65.1656 86.545C64.4032 86.545 63.7145 86.6794 63.0873 86.9483C62.4724 87.2172 61.9313 87.5961 61.4886 88.0728C61.0459 88.5494 60.7015 89.0994 60.4556 89.735C60.2096 90.3705 60.0867 91.0549 60.0867 91.7883Z" fill="#003A70"/>
    <path d="M81.7307 84.5649H86.8588C87.5721 84.5649 88.2485 84.6261 88.9125 84.7605C89.5766 84.8949 90.1546 85.115 90.6711 85.4327C91.1876 85.7505 91.5934 86.1783 91.9009 86.7161C92.2083 87.2538 92.3559 87.9383 92.3559 88.7694C92.3559 89.8327 92.0608 90.7249 91.4705 91.446C90.8802 92.1671 90.0316 92.5949 88.9371 92.7538L92.8601 99.2315H89.6873L86.2685 93.0227H84.3501V99.2315H81.7184V84.5649H81.7307ZM86.4038 90.7738C86.785 90.7738 87.154 90.7616 87.5352 90.7249C87.9164 90.6882 88.2485 90.6027 88.5682 90.4805C88.8879 90.3583 89.1339 90.1505 89.3307 89.8816C89.5274 89.6127 89.6258 89.2338 89.6258 88.7572C89.6258 88.3294 89.5397 87.9872 89.3553 87.7183C89.1708 87.4616 88.9371 87.2538 88.642 87.1316C88.3468 86.9972 88.0271 86.9116 87.6705 86.8749C87.3138 86.8383 86.9695 86.8138 86.6375 86.8138H84.3624V90.786H86.4038V90.7738Z" fill="#003A70"/>
    <path d="M105.883 84.5649H108.158L114.516 99.2315H111.516L110.138 95.8704H103.743L102.415 99.2315H99.4637L105.883 84.5649ZM109.228 93.6338L106.953 87.6694L104.641 93.6338H109.228Z" fill="#003A70"/>
    <path d="M123.518 86.9238H118.993V84.5649H130.663V86.9238H126.138V99.2315H123.506V86.9238H123.518Z" fill="#003A70"/>
    <path d="M137.919 91.9594C137.919 90.7861 138.116 89.7228 138.497 88.7572C138.89 87.7917 139.419 86.985 140.108 86.3005C140.797 85.6283 141.62 85.1028 142.567 84.7361C143.514 84.3694 144.56 84.1861 145.703 84.1861C146.859 84.1739 147.917 84.345 148.876 84.6994C149.835 85.0539 150.659 85.5672 151.36 86.2394C152.061 86.9117 152.602 87.7305 152.984 88.6839C153.377 89.6372 153.562 90.7005 153.562 91.8738C153.562 93.0227 153.365 94.0616 152.984 95.0027C152.59 95.9438 152.049 96.7505 151.36 97.4227C150.672 98.0949 149.835 98.6327 148.876 99.0116C147.917 99.3905 146.859 99.586 145.703 99.5982C144.56 99.5982 143.514 99.4149 142.567 99.0482C141.62 98.6816 140.797 98.1683 140.108 97.496C139.419 96.8238 138.878 96.0172 138.497 95.0883C138.116 94.1472 137.919 93.1083 137.919 91.9594ZM140.674 91.7883C140.674 92.5705 140.797 93.3038 141.042 93.9638C141.288 94.6238 141.633 95.1983 142.075 95.6871C142.518 96.176 143.047 96.5549 143.674 96.8238C144.289 97.1049 144.978 97.2394 145.753 97.2394C146.515 97.2394 147.216 97.1049 147.831 96.8238C148.458 96.5427 148.987 96.1638 149.442 95.6871C149.885 95.1983 150.229 94.636 150.475 93.9638C150.721 93.3038 150.844 92.5827 150.844 91.7883C150.844 91.0549 150.721 90.3705 150.475 89.735C150.229 89.0994 149.885 88.5494 149.442 88.0728C148.999 87.5961 148.458 87.2294 147.831 86.9483C147.204 86.6794 146.515 86.545 145.753 86.545C144.99 86.545 144.301 86.6794 143.674 86.9483C143.059 87.2172 142.518 87.5961 142.075 88.0728C141.633 88.5494 141.288 89.0994 141.042 89.735C140.797 90.3705 140.674 91.0549 140.674 91.7883Z" fill="#003A70"/>
    <path d="M162.256 84.5649H164.888V99.2315H162.256V84.5649Z" fill="#003A70"/>
    <path d="M174.369 84.5649H179.497C180.211 84.5649 180.887 84.6261 181.551 84.7605C182.215 84.8949 182.793 85.115 183.31 85.4327C183.826 85.7505 184.232 86.1783 184.539 86.7161C184.847 87.2538 184.994 87.9383 184.994 88.7694C184.994 89.8327 184.699 90.7249 184.109 91.446C183.519 92.1671 182.67 92.5949 181.576 92.7538L185.499 99.2315H182.326L178.907 93.0227H176.989V99.2315H174.357V84.5649H174.369ZM179.042 90.7738C179.423 90.7738 179.792 90.7616 180.174 90.7249C180.555 90.6882 180.887 90.6027 181.207 90.4805C181.526 90.3583 181.772 90.1505 181.969 89.8816C182.166 89.6127 182.264 89.2338 182.264 88.7572C182.264 88.3294 182.178 87.9872 181.994 87.7183C181.809 87.4616 181.576 87.2538 181.28 87.1316C180.985 86.9972 180.666 86.9116 180.309 86.8749C179.952 86.8383 179.608 86.8138 179.276 86.8138H177.001V90.786H179.042V90.7738Z" fill="#003A70"/>
    <path d="M193.75 84.5649H203.526V86.9238H196.382V90.5294H203.157V92.8883H196.382V96.8605H203.907V99.2193H193.763V84.5649H193.75Z" fill="#003A70"/>
    <path d="M225.159 84.5649H230.975C231.947 84.5649 232.882 84.7116 233.792 85.005C234.702 85.2983 235.489 85.7505 236.19 86.3616C236.891 86.9727 237.444 87.7305 237.862 88.6472C238.28 89.5638 238.489 90.6516 238.489 91.886C238.489 93.1449 238.256 94.2327 237.776 95.1493C237.297 96.066 236.682 96.8238 235.919 97.4227C235.157 98.0215 234.32 98.4738 233.398 98.7671C232.476 99.0604 231.566 99.2071 230.68 99.2071H225.183V84.5649H225.159ZM229.746 96.8605C230.57 96.8605 231.344 96.7627 232.07 96.5793C232.796 96.396 233.435 96.1027 233.976 95.7116C234.517 95.3205 234.948 94.8071 235.255 94.1838C235.563 93.5605 235.722 92.7904 235.722 91.8982C235.722 91.0182 235.587 90.2605 235.304 89.6249C235.021 88.9894 234.64 88.476 234.148 88.0849C233.656 87.6938 233.066 87.4005 232.402 87.2172C231.726 87.0338 230.988 86.936 230.188 86.936H227.79V96.8726H229.746V96.8605Z" fill="#003A70"/>
    <path d="M247.221 84.5649H256.997V86.9238H249.852V90.5294H256.628V92.8883H249.852V96.8605H257.378V99.2193H247.233V84.5649H247.221Z" fill="#003A70"/>
    <path d="M266.208 84.5649H271.337C272.05 84.5649 272.726 84.6261 273.39 84.7605C274.054 84.8949 274.632 85.115 275.149 85.4327C275.665 85.7505 276.071 86.1783 276.379 86.7161C276.686 87.2538 276.834 87.9383 276.834 88.7694C276.834 89.8327 276.539 90.7249 275.948 91.446C275.358 92.1671 274.509 92.5949 273.415 92.7538L277.338 99.2315H274.165L270.746 93.0227H268.828V99.2315H266.196V84.5649H266.208ZM270.882 90.7738C271.263 90.7738 271.632 90.7616 272.013 90.7249C272.394 90.6882 272.726 90.6027 273.046 90.4805C273.366 90.3583 273.612 90.1505 273.808 89.8816C274.005 89.6127 274.104 89.2338 274.104 88.7572C274.104 88.3294 274.018 87.9872 273.833 87.7183C273.649 87.4616 273.415 87.2538 273.12 87.1316C272.825 86.9972 272.505 86.9116 272.148 86.8749C271.792 86.8383 271.447 86.8138 271.115 86.8138H268.84V90.786H270.882V90.7738Z" fill="#003A70"/>
    <path d="M285.651 84.5649H289.648L293.583 94.8438L297.568 84.5649H301.528V99.2315H299.031V87.0583H298.994L294.518 99.2315H292.686L288.209 87.0583H288.172V99.2315H285.676V84.5649H285.651Z" fill="#003A70"/>
    <path d="M315.916 84.5649H318.191L324.549 99.2315H321.548L320.171 95.8704H313.776L312.448 99.2315H309.509L315.916 84.5649ZM319.249 93.6338L316.974 87.6694L314.662 93.6338H319.249Z" fill="#003A70"/>
    <path d="M333.539 86.9238H329.013V84.5649H340.684V86.9238H336.158V99.2315H333.526V86.9238H333.539Z" fill="#003A70"/>
    <path d="M347.939 91.9594C347.939 90.7861 348.136 89.7228 348.517 88.7572C348.898 87.7917 349.439 86.985 350.128 86.3005C350.817 85.6283 351.641 85.1028 352.588 84.7361C353.535 84.3694 354.58 84.1861 355.724 84.1861C356.88 84.1739 357.937 84.345 358.896 84.6994C359.856 85.0539 360.679 85.5672 361.38 86.2394C362.081 86.9117 362.623 87.7305 363.004 88.6839C363.397 89.6372 363.582 90.7005 363.582 91.8738C363.582 93.0227 363.385 94.0616 363.004 95.0027C362.623 95.9438 362.069 96.7505 361.38 97.4227C360.692 98.0949 359.856 98.6327 358.896 99.0116C357.937 99.3905 356.88 99.586 355.724 99.5982C354.58 99.5982 353.535 99.4149 352.588 99.0482C351.641 98.6816 350.817 98.1683 350.128 97.496C349.439 96.8238 348.898 96.0172 348.517 95.0883C348.136 94.1472 347.939 93.1083 347.939 91.9594ZM350.694 91.7883C350.694 92.5705 350.817 93.3038 351.063 93.9638C351.309 94.6238 351.653 95.1983 352.096 95.6871C352.538 96.176 353.067 96.5549 353.694 96.8238C354.309 97.1049 355.01 97.2394 355.773 97.2394C356.535 97.2394 357.236 97.1049 357.851 96.8238C358.478 96.5427 359.007 96.1638 359.45 95.6871C359.892 95.1983 360.237 94.636 360.483 93.9638C360.729 93.3038 360.852 92.5827 360.852 91.7883C360.852 91.0549 360.729 90.3705 360.483 89.735C360.237 89.0994 359.892 88.5494 359.45 88.0728C359.007 87.5961 358.466 87.2294 357.851 86.9483C357.224 86.6794 356.535 86.545 355.773 86.545C355.01 86.545 354.322 86.6794 353.694 86.9483C353.08 87.2172 352.551 87.5961 352.096 88.0728C351.653 88.5494 351.309 89.0994 351.063 89.735C350.817 90.3705 350.694 91.0549 350.694 91.7883Z" fill="#003A70"/>
    <path d="M372.35 84.5649H374.969V96.8727H381.24V99.2315H372.337V84.5649H372.35Z" fill="#003A70"/>
    <path d="M388.62 91.9594C388.62 90.7861 388.817 89.7228 389.198 88.7572C389.579 87.7917 390.12 86.985 390.809 86.3005C391.498 85.6283 392.322 85.1028 393.269 84.7361C394.215 84.3694 395.261 84.1861 396.404 84.1861C397.56 84.1739 398.618 84.345 399.577 84.6994C400.536 85.0539 401.36 85.5672 402.061 86.2394C402.762 86.9117 403.303 87.7305 403.685 88.6839C404.078 89.6372 404.263 90.7005 404.263 91.8738C404.263 93.0227 404.066 94.0616 403.685 95.0027C403.303 95.9438 402.75 96.7505 402.061 97.4227C401.373 98.0949 400.536 98.6327 399.577 99.0116C398.618 99.3905 397.56 99.586 396.404 99.5982C395.261 99.5982 394.215 99.4149 393.269 99.0482C392.322 98.6816 391.498 98.1683 390.809 97.496C390.12 96.8238 389.579 96.0172 389.198 95.0883C388.817 94.1472 388.62 93.1083 388.62 91.9594ZM391.375 91.7883C391.375 92.5705 391.498 93.3038 391.744 93.9638C391.99 94.6238 392.334 95.1983 392.777 95.6871C393.219 96.176 393.748 96.5549 394.375 96.8238C394.99 97.1049 395.691 97.2394 396.454 97.2394C397.216 97.2394 397.917 97.1049 398.532 96.8238C399.159 96.5427 399.688 96.1638 400.131 95.6871C400.573 95.1983 400.918 94.636 401.164 93.9638C401.41 93.3038 401.533 92.5827 401.533 91.7883C401.533 91.0549 401.41 90.3705 401.164 89.735C400.918 89.0994 400.573 88.5494 400.131 88.0728C399.688 87.5961 399.147 87.2294 398.532 86.9483C397.905 86.6794 397.216 86.545 396.454 86.545C395.691 86.545 395.002 86.6794 394.375 86.9483C393.76 87.2172 393.232 87.5961 392.777 88.0728C392.334 88.5494 391.99 89.0994 391.744 89.735C391.498 90.3705 391.375 91.0549 391.375 91.7883Z" fill="#003A70"/>
    <path d="M426.14 98.1561C424.32 99.1216 422.291 99.6105 420.041 99.6105C418.897 99.6105 417.852 99.4272 416.905 99.0605C415.958 98.6938 415.134 98.1805 414.445 97.5083C413.757 96.8361 413.215 96.0294 412.834 95.1005C412.441 94.1594 412.256 93.1205 412.256 91.9717C412.256 90.7983 412.453 89.735 412.834 88.7694C413.215 87.8039 413.757 86.9972 414.445 86.3128C415.134 85.6406 415.958 85.115 416.905 84.7484C417.852 84.3817 418.897 84.1984 420.041 84.1984C421.172 84.1984 422.217 84.3328 423.213 84.6017C424.197 84.8706 425.083 85.3473 425.857 86.0439L423.914 87.9872C423.447 87.535 422.869 87.1806 422.193 86.9361C421.516 86.6917 420.803 86.5695 420.053 86.5695C419.291 86.5695 418.602 86.7039 417.975 86.9728C417.36 87.2417 416.831 87.6206 416.376 88.0972C415.933 88.5739 415.589 89.1239 415.343 89.7594C415.097 90.395 414.974 91.0794 414.974 91.8128C414.974 92.595 415.097 93.3283 415.343 93.9883C415.589 94.6483 415.933 95.2228 416.376 95.7116C416.819 96.2005 417.347 96.5794 417.975 96.8483C418.59 97.1294 419.291 97.2638 420.053 97.2638C420.717 97.2638 421.344 97.2027 421.935 97.0805C422.525 96.9583 423.054 96.7627 423.509 96.5061V93.0472H420.483V90.6883H426.128V98.1561H426.14Z" fill="#003A70"/>
    <path d="M435.437 84.5649H438.056V99.2315H435.437V84.5649Z" fill="#003A70"/>
    <path d="M463.378 99.2315H454.794C453.638 99.2315 452.581 99.0604 451.597 98.706C450.613 98.3515 449.764 97.8504 449.051 97.1904C448.338 96.5304 447.772 95.736 447.366 94.7827C446.96 93.8416 446.751 92.766 446.751 91.5805C446.751 90.5049 446.96 89.5149 447.366 88.6105C447.772 87.706 448.338 86.9238 449.039 86.2638C449.752 85.6038 450.576 85.0905 451.511 84.736C452.445 84.3694 453.441 84.186 454.499 84.186C455.557 84.186 456.553 84.3694 457.487 84.736C458.422 85.1027 459.246 85.616 459.959 86.2638C460.672 86.9238 461.226 87.6938 461.632 88.6105C462.038 89.5149 462.247 90.5049 462.247 91.5805C462.247 92.3505 462.148 93.0349 461.964 93.6215C461.779 94.2082 461.533 94.7216 461.226 95.1738C460.918 95.626 460.586 96.0049 460.217 96.2982C459.849 96.6037 459.492 96.8604 459.148 97.0682V97.1049H463.378V99.2315ZM454.438 86.5571C453.724 86.5571 453.072 86.6794 452.47 86.936C451.867 87.1927 451.338 87.5472 450.908 87.9994C450.465 88.4516 450.133 88.9893 449.875 89.6127C449.629 90.236 449.506 90.9082 449.506 91.6416C449.506 92.3871 449.629 93.0838 449.875 93.7193C450.121 94.3671 450.478 94.9171 450.92 95.3815C451.363 95.846 451.892 96.2004 452.494 96.4693C453.097 96.726 453.761 96.8604 454.487 96.8604C455.212 96.8604 455.876 96.726 456.504 96.4693C457.131 96.2127 457.647 95.846 458.102 95.3815C458.545 94.9171 458.889 94.3671 459.148 93.7193C459.406 93.0716 459.529 92.3871 459.529 91.6416C459.529 90.9082 459.406 90.236 459.148 89.6127C458.902 88.9893 458.545 88.4516 458.102 87.9994C457.66 87.5472 457.131 87.1927 456.504 86.936C455.876 86.6794 455.188 86.5571 454.438 86.5571Z" fill="#003A70"/>
    <path d="M483.362 93.8416C483.362 94.7216 483.214 95.5282 482.907 96.2371C482.599 96.946 482.181 97.5571 481.652 98.046C481.123 98.5471 480.496 98.926 479.771 99.1949C479.045 99.4637 478.258 99.5982 477.409 99.5982C476.561 99.5982 475.774 99.4637 475.061 99.1949C474.335 98.926 473.708 98.5471 473.179 98.046C472.65 97.5449 472.232 96.946 471.925 96.2371C471.63 95.5282 471.482 94.7338 471.482 93.8416V84.5649H474.101V93.756C474.101 94.1105 474.151 94.4893 474.274 94.8804C474.384 95.2716 474.569 95.6382 474.827 95.9682C475.085 96.2982 475.43 96.5671 475.848 96.7871C476.266 97.0071 476.795 97.1049 477.422 97.1049C478.049 97.1049 478.578 96.9949 478.996 96.7871C479.414 96.5793 479.758 96.2982 480.017 95.9682C480.275 95.6382 480.459 95.2716 480.57 94.8804C480.681 94.4893 480.742 94.1105 480.742 93.756V84.5649H483.362V93.8416Z" fill="#003A70"/>
    <path d="M492.843 84.5649H502.619V86.9238H495.474V90.5294H502.25V92.8883H495.474V96.8605H503V99.2193H492.855V84.5649H492.843Z" fill="#003A70"/>
    <path d="M43.6199 36.9109C42.3163 35.4198 40.7422 34.1976 38.9591 33.2809C38.0859 32.8287 37.1759 32.4742 36.229 32.2053C38.3934 31.1298 40.238 29.7365 41.7629 28.0132C43.9642 25.5443 45.071 22.3176 45.071 18.4432C45.071 15.6199 44.5422 13.1021 43.4846 10.9755C42.427 8.84882 40.9636 7.06437 39.1312 5.69549C37.3235 4.33883 35.1468 3.31219 32.6626 2.61552C30.2031 1.93108 27.5222 1.58887 24.6814 1.58887H1.50024V67.0874H24.4232C27.6329 67.0874 30.6704 66.6841 33.4497 65.8774C36.2536 65.0707 38.7623 63.873 40.8898 62.3207C43.0419 60.7441 44.7636 58.7763 46.0056 56.4786C47.2477 54.1686 47.8749 51.4552 47.8749 48.4364C47.8749 46.1753 47.4937 44.0364 46.7312 42.0686C45.9688 40.1497 44.9234 38.402 43.6199 36.9109ZM33.1054 23.4054C32.5397 24.4687 31.7772 25.3487 30.818 26.0454C29.8465 26.7421 28.6782 27.2554 27.3746 27.5487C26.0096 27.8543 24.5338 28.0132 22.9843 28.0132H12.1009V11.061H24.7921C27.9772 11.061 30.3261 11.8922 31.7526 13.5177C33.2406 15.2044 33.9539 17.1476 33.9539 19.4454C33.9416 21.0221 33.6588 22.3543 33.1054 23.4054ZM36.7455 47.8253C36.7455 49.8908 36.3151 51.553 35.4665 52.763C34.5934 54.0219 33.4989 55.0241 32.2445 55.7575C30.9655 56.503 29.5636 57.0041 28.1002 57.2608C26.563 57.5174 25.1487 57.6519 23.8821 57.6519H12.1009V37.4609H23.9805C27.9649 37.4609 31.1377 38.3409 33.4251 40.0886C35.651 41.812 36.7455 44.3419 36.7455 47.8253Z" fill="#003A70"/>
    <path d="M69.8019 1.60114H59.2012V67.0996H69.8019V1.60114Z" fill="#003A70"/>
    <path d="M141.83 9.88772C138.829 6.80774 135.177 4.3633 130.983 2.62776C126.789 0.879988 122.129 0 117.148 0C112.168 0 107.507 0.89221 103.313 2.62776C99.1196 4.37552 95.4672 6.81993 92.4666 9.89991C89.4659 12.9677 87.0925 16.6343 85.3954 20.8021C83.6983 24.9698 82.8375 29.5287 82.8375 34.3687C82.8375 39.2087 83.6983 43.7675 85.3954 47.9353C87.0925 52.103 89.4659 55.7697 92.4666 58.8374C95.4672 61.9052 99.1073 64.3496 103.313 66.0974C107.507 67.8452 112.168 68.7374 117.148 68.7374C122.129 68.7374 126.789 67.8452 130.983 66.1096C135.177 64.3619 138.829 61.9174 141.83 58.8374C144.818 55.7697 147.204 52.103 148.901 47.9353C150.598 43.7675 151.459 39.2087 151.459 34.3687C151.459 29.5409 150.598 24.9821 148.901 20.8021C147.204 16.6221 144.83 12.9555 141.83 9.88772ZM140.317 34.3565C140.317 37.6931 139.764 40.8953 138.657 43.8653C137.562 46.8231 135.988 49.4142 133.971 51.5897C131.955 53.7652 129.507 55.513 126.679 56.8085C123.863 58.0919 120.653 58.7397 117.136 58.7397C113.619 58.7397 110.409 58.0919 107.593 56.8085C104.764 55.5252 102.317 53.7652 100.3 51.5897C98.2834 49.4142 96.7093 46.8231 95.6148 43.8653C94.5203 40.9075 93.9546 37.7053 93.9546 34.3565C93.9546 31.0076 94.508 27.8176 95.6148 24.8476C96.7093 21.9021 98.2834 19.2988 100.3 17.1232C102.317 14.9477 104.764 13.1999 107.593 11.9044C110.409 10.621 113.619 9.97324 117.136 9.97324C120.653 9.97324 123.863 10.621 126.679 11.9044C129.495 13.1877 131.955 14.9477 133.971 17.1232C135.988 19.2988 137.562 21.8899 138.657 24.8476C139.764 27.8176 140.317 31.0198 140.317 34.3565Z" fill="#003A70"/>
    <path d="M218.198 20.521C217.214 18.1255 215.849 15.7544 214.152 13.4933C212.443 11.2077 210.266 9.15442 207.684 7.39443C205.114 5.64666 202.039 4.22888 198.559 3.17778C195.079 2.13889 190.983 1.61334 186.396 1.61334H163.117V67.1118H184.958C190.774 67.1118 196.001 66.183 200.465 64.3497C204.929 62.5163 208.729 60.0352 211.754 57.0041C214.792 53.9608 217.104 50.4408 218.653 46.5297C220.203 42.6309 220.978 38.5365 220.978 34.3687C220.978 32.3521 220.756 30.1154 220.326 27.7321C219.895 25.3365 219.182 22.9165 218.198 20.521ZM209.836 34.3565C209.836 38.1454 209.135 41.4942 207.77 44.3175C206.392 47.1408 204.511 49.5242 202.162 51.3942C199.801 53.2886 196.997 54.7186 193.849 55.6719C190.676 56.6252 187.257 57.1141 183.691 57.1141H173.717V11.5989H185.769C190.762 11.5989 194.87 12.4177 197.969 14.0433C201.08 15.6688 203.539 17.6855 205.286 20.0077C207.032 22.3421 208.237 24.8476 208.877 27.4265C209.516 30.0787 209.836 32.4009 209.836 34.3565Z" fill="#003A70"/>
    <path d="M244.442 38.6342H274.805V28.6365H244.442V11.5988H277.068V1.60114H233.841V67.0996H278.691V57.1141H244.442V38.6342Z" fill="#003A70"/>
    <path d="M392.752 48.6564L372.879 1.60114H358.355V67.0996H368.956V18.2721L389.124 67.0996H396.195L416.376 18.2721V67.0996H426.976V1.60114H412.453L392.752 48.6564Z" fill="#003A70"/>
    <path d="M473.474 1.60114H464.349L435.302 67.0996H447.551L453.872 51.3819H483.03L489.449 67.0996H501.673L473.474 1.60114ZM479.107 41.9342H457.745L468.506 15.9988L479.107 41.9342Z" fill="#003A70"/>
    <path d="M329.222 42.1298C328.386 40.8953 327.685 39.9787 327.144 39.4042C326.64 38.8787 326.037 38.4387 325.348 38.072L327.033 37.8887C328.988 37.5465 330.796 36.9354 332.444 36.0554C334.498 34.9554 336.256 33.5865 337.683 31.9854C339.109 30.3843 340.216 28.5632 340.979 26.571C341.741 24.591 342.122 22.4888 342.122 20.3499C342.122 18.2966 341.803 16.1455 341.188 13.9333C340.548 11.6722 339.405 9.61886 337.769 7.80998C336.146 6.01332 333.92 4.51001 331.14 3.3489C328.386 2.20002 324.856 1.61334 320.65 1.61334H293.3V67.1118H303.901V39.0865H308.525C310.21 39.0865 311.612 39.2331 312.706 39.5265C313.788 39.8198 314.772 40.3087 315.633 40.9931C316.518 41.6898 317.355 42.6187 318.129 43.7309C318.917 44.8675 319.888 46.322 321.007 48.0453L328.029 57.8964C328.951 59.3141 333.219 64.6185 335.113 67.1118H347.361C346.033 65.4252 330.058 43.352 329.222 42.1298ZM303.901 11.0611H318.216C319.839 11.0611 321.474 11.1955 323.073 11.4522C324.61 11.6966 326 12.1611 327.193 12.8211C328.324 13.4566 329.259 14.3733 329.948 15.5588C330.636 16.7566 330.993 18.3577 330.993 20.3377C330.993 22.3177 330.636 23.9188 329.948 25.1165C329.259 26.3021 328.324 27.231 327.193 27.8543C326 28.5143 324.61 28.9787 323.073 29.2232C321.474 29.4798 319.839 29.6143 318.216 29.6143H303.901V11.0611Z" fill="#003A70"/>
</svg>
