<?xml version="1.0" encoding="utf-8"?>
<!-- Generator: Adobe Illustrator 21.1.0, SVG Export Plug-In . SVG Version: 6.00 Build 0)  -->
<svg version="1.1" id="Слой_1" xmlns="http://www.w3.org/2000/svg" xmlns:xlink="http://www.w3.org/1999/xlink" x="0px" y="0px"
	 viewBox="0 0 2000 816" style="enable-background:new 0 0 2000 816;" xml:space="preserve">
<style type="text/css">
	.st0{fill:#59ACD3;}
	.st1{fill:#FFFFFF;}
	.st2{fill:#A9DCF1;}
</style>
<path class="st0" d="M329.5,320.7H109.3c-18.5,0-28.6-21.6-16.7-35.8l102.3-122.7c13.8-16.6,34.3-26.1,55.8-26.1h220.2
	c18.5,0,28.6,21.6,16.7,35.8L385.3,294.5C371.5,311.1,351.1,320.7,329.5,320.7z"/>
<path class="st1" d="M250.7,548.8h220.2c18.5,0,28.6-21.6,16.7-35.8L385.3,390.4c-13.8-16.6-34.3-26.1-55.8-26.1H109.3
	c-18.5,0-28.6,21.6-16.7,35.8l102.3,122.7C208.7,539.3,229.1,548.8,250.7,548.8z"/>
<path class="st1" d="M719.1,189.8c0,15.2-6.6,26-19.7,32.4c18.1,6.2,27.1,19.2,27.1,38.8c0,15-4.8,27-14.4,36
	c-9.6,9-22.5,13.4-38.8,13.4h-75V142.6h68.1c15.8,0,28.6,4,38.2,12.1C714.3,162.8,719.1,174.5,719.1,189.8z M664.4,166.8h-38.4v46.3
	h38.4c18.1,0,27.2-7.5,27.3-22.5c0-8-2.4-13.9-7.3-17.9C679.6,168.8,672.9,166.8,664.4,166.8z M668.5,235.8h-42.4v50.1h45.6
	c8,0,14.5-2.2,19.4-6.6c5-4.4,7.6-10.5,7.9-18.3c0-8.5-2.9-15.1-8.6-19.9C685.5,237.6,678.3,235.8,668.5,235.8z"/>
<path class="st1" d="M786.7,142.6v142.7h72.2v25.2H758.7V142.6H786.7z"/>
<path class="st1" d="M947.6,312.6c-18.9,0-34.5-5.2-47-15.7c-12.5-10.5-18.7-24.7-18.7-42.8V142.6h27.8v110.8
	c0,10.7,3.6,19.1,10.7,25.2c7.1,6.1,16.2,9.1,27.2,9.1c10.9,0,19.8-3,26.9-9.1c7-6.1,10.5-14.5,10.5-25.2V142.6h27.6v111.5
	c0,18.1-6.2,32.3-18.6,42.8C981.6,307.3,966.1,312.6,947.6,312.6z"/>
<path class="st1" d="M1154.7,142.6V167h-74.1v44.4h70v24.7h-70V285h75.5v25.4h-103.6V142.6H1154.7z"/>
<path class="st1" d="M1247.9,226.7c0-26.2,8.3-47.1,24.8-62.7c16.5-15.6,36.7-23.4,60.5-23.4c11.3,0,22.1,2,32.2,6
	c10.1,4,19.2,10.3,27.2,18.9c8,8.6,13.4,19,16.3,31.2h-26.8c-8.2-20.1-24.5-30.4-49.1-30.7c-17.1,0-30.9,5.6-41.4,16.9
	c-10.5,11.3-15.7,25.9-15.7,43.8c0,16.9,5.3,31.2,15.9,42.7c10.6,11.5,24.3,17.3,41.1,17.3c11.8,0,22.2-2.9,31-8.6
	c8.9-5.8,15.1-14.1,18.8-24.9h27.1c-4,19.3-13.2,34-27.7,44c-14.5,10-30.9,15-49.3,15c-23.8,0-44-7.7-60.4-23.1
	C1256.1,273.5,1247.9,252.8,1247.9,226.7z"/>
<path class="st1" d="M1541.6,275.6h-76.7l-16.3,34.8h-29.3v-3.6l77.7-165.4h12.9l77.2,165.4v3.6h-29L1541.6,275.6z M1503.5,185
	l-29.5,67.1h58.7L1503.5,185z"/>
<path class="st1" d="M1700.8,247.6l42.7,58.7v4.1h-28.3l-41.7-58.5h-36.9v58.5h-28V142.6h69.3c17.7,0,31.9,5.2,42.4,15.7
	c10.5,10.5,15.8,23.5,15.8,39c0,11.5-3.2,21.8-9.6,30.9C1720.1,237.3,1711.5,243.8,1700.8,247.6z M1636.1,228.9h41.5
	c9.1,0,16.6-3,22.5-8.9c5.9-5.9,8.9-13.4,8.9-22.5c0-8.8-3-16.1-8.9-21.9c-5.9-5.8-13.4-8.8-22.5-8.8h-41.5V228.9z"/>
<path class="st1" d="M1772.2,142.8h60.7c25.1,0,45,8.1,59.8,24.3c14.8,16.2,22.2,35.9,22.2,59.1c0,23.3-7.4,43.2-22.1,59.6
	c-14.7,16.4-34.7,24.6-59.9,24.6h-60.7V142.8z M1800.1,285h32.4c16.8,0,30.1-5.6,39.9-16.9c9.8-11.3,14.7-25.1,14.7-41.6
	c0-16.5-4.9-30.3-14.7-41.6c-9.8-11.3-23.1-16.9-39.7-16.9h-32.6V285z"/>
<path class="st1" d="M720.5,501.2h-76.7L627.5,536h-29.3v-3.6L675.9,367h12.9l77.2,165.4v3.6h-29L720.5,501.2z M682.4,410.6
	l-29.5,67.1h58.7L682.4,410.6z"/>
<path class="st1" d="M777.6,451.9c0-25.9,8.3-46.7,24.8-62.3c16.5-15.7,36.6-23.5,60.1-23.5c17.9,0,33.7,4.4,47.4,13.1
	c13.7,8.7,23,21.9,27.9,39.4h-27.6c-8.8-18.2-24.8-27.3-47.9-27.3c-17.1,0-30.8,5.8-41,17.4c-10.2,11.6-15.3,26-15.3,43.3
	c0,17.9,5.1,32.5,15.3,43.9c10.2,11.3,23.9,17,41,17c32,0,50-14.5,54.2-43.6h-52.3v-23.7h78.6c0.8,17.7-1.2,32.9-6,45.6
	c-6.2,15.5-15.9,27.3-29.1,35.2c-13.2,8-28.3,12-45.4,12c-23.8,0-43.9-7.8-60.2-23.5C785.7,499,777.6,478.1,777.6,451.9z"/>
<path class="st1" d="M1075.1,368.2v24.5H1001V437h70v24.7h-70v48.9h75.5V536H973V368.2H1075.1z"/>
<path class="st1" d="M1239.6,536.2L1137,421.9l1.9,53.2V536h-27.6V367.7h10.1l101.9,112.9l-1.9-51.3v-61.1h27.8v168.1H1239.6z"/>
<path class="st1" d="M1281.1,452.3c0-26.2,8.3-47.1,24.8-62.7c16.5-15.6,36.7-23.4,60.5-23.4c11.3,0,22.1,2,32.2,6
	c10.1,4,19.2,10.3,27.2,18.9c8,8.6,13.4,19,16.3,31.2h-26.8c-8.2-20.1-24.5-30.4-49.1-30.7c-17.1,0-30.9,5.6-41.4,16.9
	c-10.5,11.3-15.7,25.9-15.7,43.8c0,16.9,5.3,31.2,15.9,42.7c10.6,11.5,24.3,17.3,41.1,17.3c11.8,0,22.2-2.9,31-8.6
	c8.9-5.8,15.1-14.1,18.8-24.9h27.1c-4,19.3-13.2,34-27.7,44c-14.5,10-30.9,15-49.3,15c-23.8,0-44-7.7-60.4-23.1
	C1289.3,499.1,1281.1,478.4,1281.1,452.3z"/>
<path class="st1" d="M1527.3,444.2h1l20.9-39.8l21.8-36.2h29.7v4.1l-59,95.7V536h-27.8v-68.1l-59.2-95.7v-4.1h30l22.5,37.4
	L1527.3,444.2z"/>
<g>
	<path class="st2" d="M636.3,658.9c0.2,0.4,0.1,0.6-0.1,0.8c-0.3,0.2-0.6,0.2-0.9,0.2h-5.8c-0.3,0-0.5-0.1-0.6-0.3
		c-0.1-0.2-0.2-0.4-0.4-0.7L617.9,635h-12.5v23.9c0,0.7-0.3,1-1,1h-5.2c-0.7,0-1-0.3-1-1v-60.8c0-0.7,0.3-1,1-1h14.1
		c3,0,6,0.3,8.7,0.9c2.8,0.6,5.2,1.7,7.3,3.1c2.1,1.5,3.8,3.4,5,5.9c1.2,2.5,1.8,5.5,1.8,9.2c0,4.7-0.9,8.3-2.8,10.9
		s-4.7,4.7-8.5,6.1L636.3,658.9z M629.5,616.2c0-4.2-1.3-7.3-4-9.3c-2.7-2-6.2-3-10.4-3h-9.6v24.5h9.5
		C624.6,628.3,629.5,624.3,629.5,616.2z"/>
	<path class="st2" d="M685.5,649.2c0.6-0.4,1.1-0.4,1.4,0.1l2.6,2.9c0.5,0.6,0.5,1.1,0.1,1.5c-2.5,2.1-5.4,3.8-8.7,5.1
		c-3.4,1.3-6.9,1.9-10.6,1.9c-3.2,0-6.2-0.6-9-1.9c-2.8-1.3-5.3-2.9-7.4-5.1c-2.1-2.1-3.7-4.6-4.9-7.4c-1.2-2.8-1.8-5.8-1.8-9
		c0-3.2,0.6-6.2,1.8-9c1.2-2.8,2.8-5.3,4.9-7.4c2.1-2.1,4.5-3.7,7.3-4.9c2.8-1.2,5.8-1.8,8.9-1.8c4.5,0,8.2,0.8,11,2.4
		c2.9,1.6,5.1,3.7,6.7,6.1c1.6,2.5,2.7,5.2,3.3,8.2c0.6,3,0.9,5.8,0.9,8.5c0,0.2-0.1,0.5-0.2,0.7c-0.2,0.2-0.3,0.4-0.6,0.4h-37.1
		c0.2,1.7,0.8,3.4,1.7,5.1c0.9,1.6,2.1,3.1,3.5,4.5c1.4,1.3,3.1,2.4,4.9,3.2c1.9,0.8,3.8,1.2,5.9,1.2s4-0.2,5.6-0.6
		c1.6-0.4,3-0.9,4.3-1.5c1.3-0.6,2.3-1.2,3.2-1.7C684.2,650.1,684.9,649.6,685.5,649.2z M685.3,634.6c-0.1-1.4-0.5-3-1.1-4.7
		c-0.6-1.7-1.5-3.2-2.7-4.6c-1.2-1.4-2.7-2.6-4.6-3.5c-1.9-1-4.1-1.4-6.8-1.4c-2.8,0-5.2,0.5-7.1,1.6c-1.9,1-3.5,2.3-4.8,3.8
		c-1.2,1.5-2.2,3-2.8,4.7c-0.6,1.6-1,3.1-1.1,4.3H685.3z"/>
	<path class="st2" d="M712.9,658.9c0,0.7-0.3,1-1,1h-4.8c-0.7,0-1-0.3-1-1v-63.5c0-0.7,0.3-1,1-1h4.8c0.7,0,1,0.3,1,1V658.9z"/>
	<path class="st2" d="M727.3,637.6c0-3.2,0.6-6.3,1.8-9.1c1.2-2.8,2.9-5.3,5-7.4c2.1-2.1,4.5-3.8,7.4-5c2.8-1.2,5.8-1.8,9-1.8
		c3.2,0,6.3,0.6,9.1,1.8c2.8,1.2,5.3,2.9,7.4,5c2.1,2.1,3.8,4.6,5,7.4c1.2,2.8,1.8,5.8,1.8,9.1c0,3.2-0.6,6.2-1.8,9
		c-1.2,2.8-2.9,5.3-5,7.4c-2.1,2.1-4.6,3.8-7.4,5c-2.8,1.2-5.9,1.8-9.1,1.8c-3.2,0-6.2-0.6-9-1.8c-2.8-1.2-5.3-2.9-7.4-5
		c-2.1-2.1-3.8-4.5-5-7.4C727.9,643.7,727.3,640.7,727.3,637.6z M734,637.6c0,2.4,0.4,4.6,1.2,6.6c0.8,2,1.9,3.8,3.4,5.3
		c1.5,1.5,3.2,2.7,5.2,3.6c2,0.9,4.2,1.3,6.6,1.3c2.4,0,4.6-0.4,6.6-1.3c2-0.9,3.8-2.1,5.3-3.6c1.5-1.5,2.7-3.3,3.5-5.3
		c0.8-2,1.3-4.2,1.3-6.6c0-2.4-0.4-4.6-1.3-6.7c-0.8-2.1-2-3.9-3.5-5.5c-1.5-1.6-3.3-2.8-5.3-3.7c-2-0.9-4.2-1.3-6.6-1.3
		c-2.4,0-4.6,0.5-6.6,1.3c-2,0.9-3.7,2.1-5.2,3.7c-1.5,1.6-2.6,3.4-3.4,5.5C734.4,632.9,734,635.2,734,637.6z"/>
	<path class="st2" d="M820.3,649.7c0.5-0.5,1-0.5,1.5-0.2l3.2,2.7c0.5,0.5,0.5,1,0.1,1.4c-2,2.2-4.5,3.9-7.4,5.2
		c-3,1.3-6.1,1.9-9.3,1.9c-3.2,0-6.3-0.6-9.1-1.8c-2.8-1.2-5.3-2.9-7.4-5c-2.1-2.1-3.8-4.5-5-7.4c-1.2-2.8-1.8-5.8-1.8-9.1
		c0-3.2,0.6-6.2,1.8-9.1c1.2-2.8,2.9-5.3,5-7.4c2.1-2.1,4.6-3.8,7.4-5c2.8-1.2,5.8-1.8,9.1-1.8c3,0,6.1,0.6,9.3,1.8
		c3.1,1.2,5.7,3,7.7,5.4c0.2,0.3,0.4,0.6,0.4,0.9c0,0.3-0.1,0.6-0.4,0.8l-3.4,2.4c-0.6,0.4-1.1,0.3-1.5-0.1c-0.1-0.1-0.5-0.4-1.1-1
		c-0.6-0.5-1.5-1.1-2.5-1.7c-1-0.6-2.2-1.2-3.7-1.7c-1.4-0.5-3-0.8-4.8-0.8c-3,0-5.5,0.6-7.6,1.7c-2.1,1.2-3.8,2.6-5.2,4.4
		c-1.3,1.8-2.3,3.6-2.9,5.6c-0.6,2-0.9,3.8-0.9,5.4c0,1.6,0.3,3.4,0.9,5.4c0.6,2,1.6,3.8,2.9,5.6c1.3,1.8,3.1,3.2,5.2,4.4
		c2.1,1.2,4.6,1.7,7.6,1.7c1.6,0,3.1-0.2,4.5-0.7s2.6-1,3.6-1.5c1-0.6,1.9-1.1,2.6-1.7C819.7,650.2,820.1,649.8,820.3,649.7z"/>
	<path class="st2" d="M838.5,620.8c1.4-1.7,3.6-3.2,6.6-4.5c3.1-1.3,6.6-2,10.8-2.1c5.8-0.1,10,1.3,12.7,4c2.7,2.8,4,6.6,4,11.7
		v28.4c0,1.1-0.3,1.6-1,1.6h-4.8c-0.7,0-1-0.3-1-1v-3.1c-0.7,0.7-1.5,1.3-2.2,1.9c-0.8,0.6-1.7,1.1-2.7,1.6c-1,0.5-2.3,0.8-3.8,1.1
		c-1.5,0.3-3.3,0.4-5.5,0.4c-2,0-4-0.3-5.9-1c-1.9-0.7-3.6-1.6-5-2.9c-1.5-1.3-2.6-2.8-3.5-4.6c-0.9-1.8-1.3-3.9-1.3-6.2
		c0-4.4,1.4-7.9,4.3-10.3c2.9-2.4,7.4-3.8,13.5-4h12.1v-2c0-0.7-0.1-1.5-0.2-2.5c-0.1-1-0.5-2-1.2-3c-0.7-1-1.8-1.8-3.3-2.5
		c-1.5-0.7-3.7-1-6.5-1c-1.7,0-3.1,0.2-4.4,0.4c-1.2,0.3-2.3,0.7-3.2,1.1c-0.9,0.4-1.7,0.9-2.4,1.3c-0.7,0.5-1.3,0.9-1.9,1.3
		c-0.7,0.5-1.4,0.5-2.2-0.1l-2.3-2c-0.3-0.2-0.5-0.5-0.6-0.9C837.8,621.7,838,621.3,838.5,620.8z M865.9,637.6h-11.2
		c-2.8,0-5,0.3-6.7,0.9c-1.6,0.6-2.9,1.4-3.7,2.3c-0.8,0.9-1.4,1.9-1.6,2.9c-0.2,1-0.3,1.9-0.3,2.7c0,0.7,0.2,1.5,0.5,2.4
		c0.3,1,0.9,1.9,1.8,2.8c0.8,0.9,2,1.7,3.5,2.3c1.5,0.7,3.5,1,5.8,1c1.3,0,2.7-0.2,4.1-0.5c1.4-0.3,2.7-0.8,3.9-1.4
		c1.2-0.6,2.1-1.4,2.9-2.3c0.7-0.9,1.1-2,1.1-3.2V637.6z"/>
	<path class="st2" d="M904.3,619.8c0,0.7-0.3,1-1,1h-6.7v30.5c0,0.8,0.2,1.5,0.7,1.9c0.5,0.4,1,0.7,1.6,0.9c0.6,0.2,1.3,0.3,2,0.3
		s1.3,0,1.8,0c0.7,0,1,0.4,1,1.2v3.4c0,0.4-0.1,0.7-0.2,1c-0.2,0.3-0.4,0.4-0.9,0.4c-2.7,0-4.9-0.2-6.5-0.6c-1.6-0.4-2.9-1-3.9-1.7
		c-0.9-0.7-1.5-1.7-1.8-2.9c-0.3-1.2-0.4-2.6-0.4-4.2v-30.1h-4.8c-0.7,0-1-0.3-1-1V616c0-0.7,0.3-1,1-1h4.8v-15.2c0-0.7,0.3-1,1-1
		h4.8c0.7,0,1,0.3,1,1V615h6.7c0.7,0,1,0.3,1,1V619.8z"/>
	<path class="st2" d="M924.2,604.1c0,0.7-0.3,1-1,1h-4.8c-0.7,0-1-0.3-1-1v-8.7c0-0.7,0.3-1,1-1h4.8c0.7,0,1,0.3,1,1V604.1z
		 M924.2,658.9c0,0.7-0.3,1-1,1h-4.8c-0.7,0-1-0.3-1-1V616c0-0.7,0.3-1,1-1h4.8c0.7,0,1,0.3,1,1V658.9z"/>
	<path class="st2" d="M938.5,637.6c0-3.2,0.6-6.3,1.8-9.1c1.2-2.8,2.9-5.3,5-7.4c2.1-2.1,4.5-3.8,7.4-5c2.8-1.2,5.8-1.8,9-1.8
		c3.2,0,6.3,0.6,9.1,1.8c2.8,1.2,5.3,2.9,7.4,5c2.1,2.1,3.8,4.6,5,7.4c1.2,2.8,1.8,5.8,1.8,9.1c0,3.2-0.6,6.2-1.8,9
		c-1.2,2.8-2.9,5.3-5,7.4c-2.1,2.1-4.6,3.8-7.4,5c-2.8,1.2-5.9,1.8-9.1,1.8c-3.2,0-6.2-0.6-9-1.8c-2.8-1.2-5.3-2.9-7.4-5
		c-2.1-2.1-3.8-4.5-5-7.4C939.1,643.7,938.5,640.7,938.5,637.6z M945.2,637.6c0,2.4,0.4,4.6,1.2,6.6c0.8,2,1.9,3.8,3.4,5.3
		c1.5,1.5,3.2,2.7,5.2,3.6c2,0.9,4.2,1.3,6.6,1.3s4.6-0.4,6.6-1.3s3.8-2.1,5.3-3.6c1.5-1.5,2.7-3.3,3.5-5.3c0.8-2,1.3-4.2,1.3-6.6
		c0-2.4-0.4-4.6-1.3-6.7c-0.8-2.1-2-3.9-3.5-5.5c-1.5-1.6-3.3-2.8-5.3-3.7c-2-0.9-4.2-1.3-6.6-1.3s-4.6,0.5-6.6,1.3
		c-2,0.9-3.7,2.1-5.2,3.7c-1.5,1.6-2.6,3.4-3.4,5.5C945.6,632.9,945.2,635.2,945.2,637.6z"/>
	<path class="st2" d="M1034.3,658.9c0,0.7-0.3,1-1,1h-4.8c-0.7,0-1-0.3-1-1v-29.8c0-1.8-0.3-3.3-0.9-4.4c-0.6-1.1-1.3-2-2.2-2.7
		c-0.9-0.7-1.9-1.1-3.1-1.3c-1.2-0.2-2.4-0.4-3.7-0.4c-1.9,0-3.5,0.3-4.9,1c-1.4,0.7-2.6,1.5-3.6,2.5s-1.8,2-2.3,3.2
		c-0.5,1.1-0.8,2.2-0.8,3.1v28.8c0,0.7-0.3,1-1,1h-4.8c-0.7,0-1-0.3-1-1V616c0-0.7,0.3-1,1-1h4.8c0.7,0,1,0.3,1,1v4.2
		c1.4-2,3.2-3.5,5.6-4.5c2.4-1,4.5-1.5,6.4-1.5c2.5,0,4.7,0.3,6.7,0.8c2,0.5,3.7,1.4,5.1,2.7c1.4,1.3,2.5,2.9,3.3,5
		c0.8,2.1,1.2,4.6,1.2,7.7V658.9z"/>
	<path class="st2" d="M1118.4,658.9c0.3,0.3,0.3,0.5,0,0.7c-0.3,0.2-0.6,0.3-0.9,0.3h-6.4c-0.7,0-1.2-0.3-1.6-1l-3-4
		c-1.9,1.6-4.3,2.9-7,4c-2.8,1.1-5.7,1.7-9,1.7c-6.1,0-10.8-1.7-14-5.1c-3.2-3.4-4.8-7.9-4.8-13.5c0-2,0.2-3.8,0.7-5.4
		c0.5-1.6,1.2-3.1,2.1-4.4c1-1.3,2.2-2.6,3.7-3.7c1.5-1.1,3.4-2.2,5.6-3.2c-2.2-2.7-4-5.2-5.3-7.5c-1.3-2.3-2-4.8-2-7.4
		c0-1.6,0.3-3.2,0.9-4.9c0.6-1.6,1.6-3.2,2.9-4.5c1.3-1.4,3-2.5,5-3.4c2-0.9,4.4-1.3,7.3-1.3c2.5,0,4.7,0.4,6.6,1.2
		c1.9,0.8,3.4,1.8,4.7,3.1c1.2,1.3,2.1,2.8,2.7,4.5c0.6,1.7,0.9,3.5,0.9,5.4c0,2.1-0.3,4-1,5.6c-0.7,1.6-1.6,3.1-2.8,4.5
		c-1.2,1.3-2.6,2.6-4.2,3.7c-1.6,1.1-3.4,2.1-5.2,3.1l13.1,17.1c1.1-1.6,2-3.2,2.5-4.8c0.5-1.7,0.9-3,1-4c0.1-0.9,0.3-1.5,0.5-1.8
		c0.2-0.3,0.6-0.5,1-0.5h4.3c0.5,0,0.9,0.2,0.9,0.5c0.1,0.4,0.1,0.9,0,1.5c-0.3,2.7-1,5.3-2.1,7.8s-2.4,4.8-4,6.9L1118.4,658.9z
		 M1078.5,642.2c0,1.7,0.3,3.2,0.9,4.7c0.6,1.5,1.4,2.7,2.5,3.8s2.3,1.9,3.8,2.6c1.5,0.6,3.1,0.9,4.9,0.9c1.2,0,2.4-0.1,3.5-0.4
		c1.2-0.3,2.3-0.6,3.3-1.1c1-0.4,2-0.9,2.8-1.5c0.9-0.5,1.6-1.1,2.1-1.6l-14.8-19.4c-2.9,1.3-5.1,2.9-6.6,4.8
		C1079.3,637.1,1078.5,639.5,1078.5,642.2z M1091.8,602.5c-1,0-2,0.2-3,0.5c-1,0.3-1.9,0.8-2.7,1.4c-0.8,0.6-1.5,1.4-2,2.4
		c-0.5,1-0.8,2.1-0.8,3.3c0,0.8,0.1,1.6,0.4,2.4c0.2,0.8,0.6,1.6,1.2,2.5c0.6,0.9,1.3,1.9,2.2,3.1c0.9,1.2,2,2.6,3.3,4.3
		c1.3-0.6,2.5-1.3,3.7-2.1c1.2-0.8,2.3-1.7,3.3-2.6c1-1,1.7-2,2.3-3.2c0.6-1.2,0.9-2.4,0.9-3.8c0-2.9-0.8-4.9-2.5-6.2
		S1094.3,602.5,1091.8,602.5z"/>
	<path class="st2" d="M1195.2,658.9c0.2,0.4,0.1,0.6-0.1,0.8c-0.3,0.2-0.6,0.2-0.9,0.2h-5.8c-0.3,0-0.5-0.1-0.6-0.3
		c-0.1-0.2-0.2-0.4-0.4-0.7l-10.6-23.9h-12.5v23.9c0,0.7-0.3,1-1,1h-5.2c-0.7,0-1-0.3-1-1v-60.8c0-0.7,0.3-1,1-1h14.1
		c3,0,6,0.3,8.7,0.9c2.8,0.6,5.2,1.7,7.3,3.1c2.1,1.5,3.8,3.4,5,5.9c1.2,2.5,1.8,5.5,1.8,9.2c0,4.7-0.9,8.3-2.8,10.9
		s-4.7,4.7-8.5,6.1L1195.2,658.9z M1188.3,616.2c0-4.2-1.3-7.3-4-9.3c-2.7-2-6.2-3-10.4-3h-9.6v24.5h9.5
		C1183.5,628.3,1188.3,624.3,1188.3,616.2z"/>
	<path class="st2" d="M1244.4,649.2c0.6-0.4,1.1-0.4,1.4,0.1l2.6,2.9c0.5,0.6,0.5,1.1,0.1,1.5c-2.5,2.1-5.4,3.8-8.7,5.1
		c-3.4,1.3-6.9,1.9-10.6,1.9c-3.2,0-6.2-0.6-9-1.9c-2.8-1.3-5.3-2.9-7.4-5.1c-2.1-2.1-3.7-4.6-4.9-7.4c-1.2-2.8-1.8-5.8-1.8-9
		c0-3.2,0.6-6.2,1.8-9c1.2-2.8,2.8-5.3,4.9-7.4c2.1-2.1,4.5-3.7,7.3-4.9c2.8-1.2,5.8-1.8,8.9-1.8c4.5,0,8.2,0.8,11,2.4
		c2.9,1.6,5.1,3.7,6.7,6.1c1.6,2.5,2.7,5.2,3.3,8.2c0.6,3,0.9,5.8,0.9,8.5c0,0.2-0.1,0.5-0.2,0.7c-0.2,0.2-0.3,0.4-0.6,0.4H1213
		c0.2,1.7,0.8,3.4,1.7,5.1c0.9,1.6,2.1,3.1,3.5,4.5c1.4,1.3,3.1,2.4,4.9,3.2c1.9,0.8,3.8,1.2,5.9,1.2c2.1,0,4-0.2,5.6-0.6
		c1.6-0.4,3-0.9,4.3-1.5c1.3-0.6,2.3-1.2,3.2-1.7C1243,650.1,1243.8,649.6,1244.4,649.2z M1244.1,634.6c-0.1-1.4-0.5-3-1.1-4.7
		c-0.6-1.7-1.5-3.2-2.7-4.6c-1.2-1.4-2.7-2.6-4.6-3.5c-1.9-1-4.1-1.4-6.8-1.4c-2.8,0-5.2,0.5-7.1,1.6c-1.9,1-3.5,2.3-4.8,3.8
		c-1.2,1.5-2.2,3-2.8,4.7c-0.6,1.6-1,3.1-1.1,4.3H1244.1z"/>
	<path class="st2" d="M1297.1,649.7c0.5-0.5,1-0.5,1.5-0.2l3.2,2.7c0.5,0.5,0.5,1,0.1,1.4c-2,2.2-4.5,3.9-7.4,5.2
		c-3,1.3-6.1,1.9-9.3,1.9c-3.2,0-6.3-0.6-9.1-1.8c-2.8-1.2-5.3-2.9-7.4-5c-2.1-2.1-3.8-4.5-5-7.4c-1.2-2.8-1.8-5.8-1.8-9.1
		c0-3.2,0.6-6.2,1.8-9.1c1.2-2.8,2.9-5.3,5-7.4c2.1-2.1,4.6-3.8,7.4-5c2.8-1.2,5.8-1.8,9.1-1.8c3,0,6.1,0.6,9.3,1.8
		c3.1,1.2,5.7,3,7.7,5.4c0.2,0.3,0.4,0.6,0.4,0.9c0,0.3-0.1,0.6-0.4,0.8l-3.4,2.4c-0.6,0.4-1.1,0.3-1.5-0.1c-0.1-0.1-0.5-0.4-1.1-1
		c-0.6-0.5-1.5-1.1-2.5-1.7c-1-0.6-2.2-1.2-3.7-1.7c-1.4-0.5-3-0.8-4.8-0.8c-3,0-5.5,0.6-7.6,1.7c-2.1,1.2-3.8,2.6-5.2,4.4
		c-1.3,1.8-2.3,3.6-2.9,5.6c-0.6,2-0.9,3.8-0.9,5.4c0,1.6,0.3,3.4,0.9,5.4c0.6,2,1.6,3.8,2.9,5.6c1.3,1.8,3.1,3.2,5.2,4.4
		c2.1,1.2,4.6,1.7,7.6,1.7c1.6,0,3.1-0.2,4.5-0.7s2.6-1,3.6-1.5c1-0.6,1.9-1.1,2.6-1.7C1296.6,650.2,1297,649.8,1297.1,649.7z"/>
	<path class="st2" d="M1339.3,616.8c0.4,0.2,0.5,0.5,0.5,0.8c0,0.4-0.1,0.7-0.3,1l-2.4,3.8c-0.2,0.2-0.4,0.4-0.6,0.6
		c-0.2,0.2-0.5,0.1-0.8,0c-1-0.7-1.9-1.2-2.7-1.6c-0.8-0.4-1.8-0.6-3.1-0.6c-1.2,0-2.3,0.2-3.2,0.7c-1,0.5-1.8,1-2.4,1.7
		c-0.7,0.7-1.2,1.5-1.6,2.4c-0.4,0.9-0.6,1.8-0.6,2.7v30.6c0,0.7-0.3,1-1,1h-4.8c-0.7,0-1-0.3-1-1V616c0-0.7,0.3-1,1-1h4.8
		c0.7,0,1,0.3,1,1v4.2c1.4-2,2.9-3.5,4.7-4.5c1.7-1,3.4-1.5,4.9-1.5c1.1,0,2,0.1,2.7,0.3c0.7,0.2,1.4,0.4,2,0.6
		c0.6,0.2,1.1,0.5,1.5,0.9C1338.4,616.3,1338.8,616.6,1339.3,616.8z"/>
	<path class="st2" d="M1351.3,616c0-0.7,0.3-1,1-1h4.8c0.7,0,1,0.3,1,1v28.6c0,2,0.3,3.7,0.8,4.9c0.5,1.3,1.2,2.2,2.1,3
		c0.9,0.7,2,1.2,3.2,1.4c1.2,0.2,2.6,0.4,4.1,0.4c1.4,0,2.7-0.3,4.1-0.8c1.4-0.5,2.6-1.2,3.7-2c1.1-0.8,1.9-1.8,2.6-2.9
		c0.7-1.1,1-2.2,1-3.2V616c0-0.7,0.3-1,1-1h4.8c0.7,0,1,0.3,1,1v42.9c0,0.7-0.3,1-1,1h-4.8c-0.7,0-1-0.3-1-1v-4.2
		c-1.4,1.9-3.1,3.4-5.3,4.3c-2.2,1-4.4,1.4-6.7,1.4c-2,0-4-0.2-6-0.7c-1.9-0.5-3.7-1.3-5.2-2.6c-1.5-1.3-2.7-3-3.7-5.3
		c-0.9-2.3-1.4-5.3-1.4-9.1V616z"/>
	<path class="st2" d="M1410.4,604.1c0,0.7-0.3,1-1,1h-4.8c-0.7,0-1-0.3-1-1v-8.7c0-0.7,0.3-1,1-1h4.8c0.7,0,1,0.3,1,1V604.1z
		 M1410.4,658.9c0,0.7-0.3,1-1,1h-4.8c-0.7,0-1-0.3-1-1V616c0-0.7,0.3-1,1-1h4.8c0.7,0,1,0.3,1,1V658.9z"/>
	<path class="st2" d="M1443.3,619.8c0,0.7-0.3,1-1,1h-6.7v30.5c0,0.8,0.2,1.5,0.7,1.9c0.5,0.4,1,0.7,1.6,0.9c0.6,0.2,1.3,0.3,2,0.3
		c0.7,0,1.3,0,1.8,0c0.7,0,1,0.4,1,1.2v3.4c0,0.4-0.1,0.7-0.2,1c-0.2,0.3-0.4,0.4-0.9,0.4c-2.7,0-4.9-0.2-6.5-0.6
		c-1.6-0.4-2.9-1-3.9-1.7c-0.9-0.7-1.5-1.7-1.8-2.9c-0.3-1.2-0.4-2.6-0.4-4.2v-30.1h-4.8c-0.7,0-1-0.3-1-1V616c0-0.7,0.3-1,1-1h4.8
		v-15.2c0-0.7,0.3-1,1-1h4.8c0.7,0,1,0.3,1,1V615h6.7c0.7,0,1,0.3,1,1V619.8z"/>
	<path class="st2" d="M1463.2,604.1c0,0.7-0.3,1-1,1h-4.8c-0.7,0-1-0.3-1-1v-8.7c0-0.7,0.3-1,1-1h4.8c0.7,0,1,0.3,1,1V604.1z
		 M1463.2,658.9c0,0.7-0.3,1-1,1h-4.8c-0.7,0-1-0.3-1-1V616c0-0.7,0.3-1,1-1h4.8c0.7,0,1,0.3,1,1V658.9z"/>
	<path class="st2" d="M1515.5,658.9c0,0.7-0.3,1-1,1h-4.8c-0.7,0-1-0.3-1-1v-29.8c0-1.8-0.3-3.3-0.9-4.4c-0.6-1.1-1.3-2-2.2-2.7
		c-0.9-0.7-1.9-1.1-3.1-1.3c-1.2-0.2-2.4-0.4-3.7-0.4c-1.9,0-3.5,0.3-4.9,1c-1.4,0.7-2.6,1.5-3.6,2.5c-1,1-1.8,2-2.3,3.2
		c-0.5,1.1-0.8,2.2-0.8,3.1v28.8c0,0.7-0.3,1-1,1h-4.8c-0.7,0-1-0.3-1-1V616c0-0.7,0.3-1,1-1h4.8c0.7,0,1,0.3,1,1v4.2
		c1.4-2,3.2-3.5,5.6-4.5c2.4-1,4.5-1.5,6.4-1.5c2.5,0,4.7,0.3,6.7,0.8c2,0.5,3.7,1.4,5.1,2.7c1.4,1.3,2.5,2.9,3.3,5
		c0.8,2.1,1.2,4.6,1.2,7.7V658.9z"/>
	<path class="st2" d="M1570,656.6c0,3.5-0.4,6.6-1.3,9.5c-0.9,2.8-2.2,5.3-3.9,7.3c-1.7,2-3.7,3.6-6.2,4.7c-2.5,1.1-5.2,1.7-8.3,1.7
		c-2.9,0-5.5-0.4-7.6-1.1c-2.1-0.7-3.9-1.5-5.3-2.4s-2.4-1.7-3.1-2.4c-0.7-0.7-1.1-1.2-1.2-1.3c-0.4-0.5-0.5-0.8-0.5-1
		c0-0.2,0.1-0.4,0.4-0.7l3.1-3c0.4-0.4,0.7-0.6,1-0.6c0.2,0,0.5,0.2,0.8,0.5c0.2,0.2,0.5,0.6,1.1,1.2c0.5,0.6,1.3,1.2,2.2,1.9
		s2.1,1.3,3.5,1.8c1.4,0.5,3.1,0.8,5,0.8c2.5,0,4.6-0.5,6.4-1.3c1.7-0.9,3.2-2.1,4.3-3.6c1.1-1.5,1.9-3.3,2.4-5.3
		c0.5-2,0.7-4.1,0.7-6.4v-1.5c-0.5,0.6-1.3,1.2-2.2,1.8c-0.9,0.6-1.9,1.2-3,1.7c-1.1,0.5-2.4,0.9-3.7,1.3c-1.3,0.3-2.8,0.5-4.3,0.5
		c-3,0-5.7-0.6-8.3-1.7c-2.5-1.1-4.7-2.7-6.5-4.7c-1.8-2-3.2-4.4-4.2-7.3c-1-2.8-1.5-6-1.5-9.4c0-3.5,0.5-6.6,1.4-9.5
		c1-2.9,2.3-5.3,4.1-7.4c1.8-2,3.9-3.6,6.4-4.7c2.5-1.1,5.3-1.7,8.4-1.7c1.2,0,2.5,0.2,3.9,0.6c1.4,0.4,2.7,0.9,4,1.5
		c1.3,0.6,2.4,1.3,3.4,2.1c1,0.8,1.7,1.6,2,2.4V616c0-0.7,0.3-1,1-1h4.8c0.7,0,1,0.3,1,1V656.6z M1549.9,620.3
		c-2.5,0-4.6,0.4-6.3,1.2c-1.7,0.8-3.1,2-4.1,3.5c-1,1.5-1.8,3.3-2.3,5.4c-0.5,2.1-0.7,4.5-0.7,7c0,5.7,1.2,10,3.7,12.7
		c2.5,2.8,5.7,4.1,9.8,4.1s7.3-1.4,9.8-4.1c2.5-2.7,3.7-7,3.7-12.7c0-2.8-0.4-5.3-1.1-7.5c-0.7-2.2-1.7-3.9-3-5.4
		c-1.3-1.4-2.7-2.5-4.3-3.2C1553.4,620.7,1551.7,620.3,1549.9,620.3z"/>
	<path class="st2" d="M1624,654.1c2.2,0,4.1-0.3,5.7-0.9c1.6-0.6,2.8-1.4,3.7-2.3c0.9-1,1.6-2.1,2-3.3c0.4-1.3,0.6-2.6,0.6-4
		c0-1.8-0.4-3.4-1.3-4.8s-2-2.6-3.5-3.8s-3-2.2-4.8-3.1c-1.8-1-3.6-1.9-5.5-2.9c-1.7-0.9-3.4-1.9-5-2.9c-1.6-1-3.1-2.2-4.3-3.6
		c-1.3-1.3-2.3-2.9-3-4.6c-0.8-1.7-1.2-3.7-1.2-5.8c0-1.9,0.3-3.7,1-5.6c0.7-1.9,1.7-3.6,3.2-5.1c1.5-1.5,3.4-2.7,5.8-3.7
		c2.4-1,5.2-1.4,8.6-1.4c2.5,0,4.8,0.3,6.8,0.8c2,0.5,3.7,1.1,5.1,1.7c1.4,0.6,2.8,1.5,4.4,2.6c0.7,0.6,0.7,1.2,0.3,1.8l-2.5,3
		c-0.4,0.5-0.9,0.7-1.4,0.5c-0.3-0.1-0.8-0.3-1.4-0.7c-0.7-0.4-1.5-0.9-2.5-1.3c-1-0.5-2.2-0.9-3.5-1.2c-1.3-0.4-2.9-0.5-4.5-0.5
		c-2.3,0-4.3,0.2-5.8,0.7c-1.5,0.5-2.7,1.1-3.6,2c-0.9,0.8-1.5,1.8-1.9,2.8c-0.4,1-0.6,2.1-0.6,3.2c0,1.4,0.4,2.7,1.1,3.9
		c0.7,1.1,1.7,2.2,2.9,3.2c1.2,1,2.6,2,4.1,2.8c1.6,0.9,3.2,1.7,4.8,2.6c1.9,1,3.7,2,5.6,3.2c1.9,1.2,3.6,2.6,5.1,4.1
		c1.5,1.5,2.7,3.3,3.6,5.2c0.9,2,1.4,4.2,1.4,6.7c0,2.6-0.4,5-1.3,7.1c-0.9,2.1-2.1,3.9-3.6,5.4c-1.6,1.5-3.4,2.7-5.6,3.5
		s-4.5,1.2-7.1,1.2c-3,0-5.6-0.3-7.9-0.9c-2.2-0.6-4.1-1.3-5.7-2.1c-1.6-0.8-3.1-1.8-4.8-3.1c-0.6-0.5-0.7-1.1-0.3-1.8l2.5-3.5
		c0.3-0.5,0.8-0.7,1.4-0.5c0.3,0.1,0.8,0.5,1.4,1c0.7,0.6,1.5,1.2,2.6,1.8c1.1,0.6,2.4,1.2,3.9,1.8
		C1620.4,653.8,1622.1,654.1,1624,654.1z"/>
	<path class="st2" d="M1692.6,649.2c0.6-0.4,1.1-0.4,1.4,0.1l2.6,2.9c0.5,0.6,0.5,1.1,0.1,1.5c-2.5,2.1-5.4,3.8-8.7,5.1
		c-3.4,1.3-6.9,1.9-10.6,1.9c-3.2,0-6.2-0.6-9-1.9c-2.8-1.3-5.3-2.9-7.4-5.1c-2.1-2.1-3.7-4.6-4.9-7.4c-1.2-2.8-1.8-5.8-1.8-9
		c0-3.2,0.6-6.2,1.8-9c1.2-2.8,2.8-5.3,4.9-7.4c2.1-2.1,4.5-3.7,7.3-4.9c2.8-1.2,5.8-1.8,8.9-1.8c4.5,0,8.2,0.8,11,2.4
		c2.9,1.6,5.1,3.7,6.7,6.1c1.6,2.5,2.7,5.2,3.3,8.2c0.6,3,0.9,5.8,0.9,8.5c0,0.2-0.1,0.5-0.2,0.7c-0.2,0.2-0.3,0.4-0.6,0.4h-37.1
		c0.2,1.7,0.8,3.4,1.7,5.1c0.9,1.6,2.1,3.1,3.5,4.5c1.4,1.3,3.1,2.4,4.9,3.2c1.9,0.8,3.8,1.2,5.9,1.2c2.1,0,4-0.2,5.6-0.6
		c1.6-0.4,3-0.9,4.3-1.5c1.3-0.6,2.3-1.2,3.2-1.7C1691.3,650.1,1692,649.6,1692.6,649.2z M1692.3,634.6c-0.1-1.4-0.5-3-1.1-4.7
		c-0.6-1.7-1.5-3.2-2.7-4.6c-1.2-1.4-2.7-2.6-4.6-3.5c-1.9-1-4.1-1.4-6.8-1.4c-2.8,0-5.2,0.5-7.1,1.6c-1.9,1-3.5,2.3-4.8,3.8
		c-1.2,1.5-2.2,3-2.8,4.7c-0.6,1.6-1,3.1-1.1,4.3H1692.3z"/>
	<path class="st2" d="M1737.2,616.8c0.4,0.2,0.5,0.5,0.5,0.8c0,0.4-0.1,0.7-0.3,1l-2.4,3.8c-0.2,0.2-0.4,0.4-0.6,0.6
		c-0.2,0.2-0.5,0.1-0.8,0c-1-0.7-1.9-1.2-2.7-1.6c-0.8-0.4-1.8-0.6-3.1-0.6c-1.2,0-2.3,0.2-3.2,0.7c-1,0.5-1.8,1-2.4,1.7
		c-0.7,0.7-1.2,1.5-1.6,2.4c-0.4,0.9-0.6,1.8-0.6,2.7v30.6c0,0.7-0.3,1-1,1h-4.8c-0.7,0-1-0.3-1-1V616c0-0.7,0.3-1,1-1h4.8
		c0.7,0,1,0.3,1,1v4.2c1.4-2,2.9-3.5,4.7-4.5c1.7-1,3.4-1.5,4.9-1.5c1.1,0,2,0.1,2.7,0.3c0.7,0.2,1.4,0.4,2,0.6
		c0.6,0.2,1.1,0.5,1.5,0.9C1736.2,616.3,1736.7,616.6,1737.2,616.8z"/>
	<path class="st2" d="M1767.8,649.3l12.6-33.3c0.2-0.7,0.6-1,1.2-1h5.7c0.3,0,0.6,0.1,0.8,0.3c0.2,0.2,0.3,0.4,0.2,0.7l-17.3,42.9
		c-0.2,0.7-0.6,1-1.2,1h-3.5c-0.6,0-1-0.3-1.3-1l-18.5-42.9c-0.1-0.3-0.1-0.5,0.2-0.7c0.2-0.2,0.5-0.3,0.8-0.3h5.7
		c0.5,0,0.9,0.3,1.2,1L1767.8,649.3z"/>
	<path class="st2" d="M1806.4,604.1c0,0.7-0.3,1-1,1h-4.8c-0.7,0-1-0.3-1-1v-8.7c0-0.7,0.3-1,1-1h4.8c0.7,0,1,0.3,1,1V604.1z
		 M1806.4,658.9c0,0.7-0.3,1-1,1h-4.8c-0.7,0-1-0.3-1-1V616c0-0.7,0.3-1,1-1h4.8c0.7,0,1,0.3,1,1V658.9z"/>
	<path class="st2" d="M1855.9,649.7c0.5-0.5,1-0.5,1.5-0.2l3.2,2.7c0.5,0.5,0.5,1,0.1,1.4c-2,2.2-4.5,3.9-7.4,5.2
		c-3,1.3-6.1,1.9-9.3,1.9s-6.3-0.6-9.1-1.8c-2.8-1.2-5.3-2.9-7.4-5c-2.1-2.1-3.8-4.5-5-7.4c-1.2-2.8-1.8-5.8-1.8-9.1
		c0-3.2,0.6-6.2,1.8-9.1c1.2-2.8,2.9-5.3,5-7.4c2.1-2.1,4.6-3.8,7.4-5c2.8-1.2,5.8-1.8,9.1-1.8c3,0,6.1,0.6,9.3,1.8
		c3.1,1.2,5.7,3,7.7,5.4c0.2,0.3,0.4,0.6,0.4,0.9c0,0.3-0.1,0.6-0.4,0.8l-3.4,2.4c-0.6,0.4-1.1,0.3-1.5-0.1c-0.1-0.1-0.5-0.4-1.1-1
		c-0.6-0.5-1.5-1.1-2.5-1.7c-1-0.6-2.2-1.2-3.7-1.7c-1.4-0.5-3-0.8-4.8-0.8c-3,0-5.5,0.6-7.6,1.7c-2.1,1.2-3.8,2.6-5.2,4.4
		c-1.3,1.8-2.3,3.6-2.9,5.6c-0.6,2-0.9,3.8-0.9,5.4c0,1.6,0.3,3.4,0.9,5.4c0.6,2,1.6,3.8,2.9,5.6c1.3,1.8,3.1,3.2,5.2,4.4
		c2.1,1.2,4.6,1.7,7.6,1.7c1.6,0,3.1-0.2,4.5-0.7s2.6-1,3.6-1.5c1-0.6,1.9-1.1,2.6-1.7C1855.3,650.2,1855.7,649.8,1855.9,649.7z"/>
	<path class="st2" d="M1908.5,649.2c0.6-0.4,1.1-0.4,1.4,0.1l2.6,2.9c0.5,0.6,0.5,1.1,0.1,1.5c-2.5,2.1-5.4,3.8-8.7,5.1
		c-3.4,1.3-6.9,1.9-10.6,1.9c-3.2,0-6.2-0.6-9-1.9c-2.8-1.3-5.3-2.9-7.4-5.1c-2.1-2.1-3.7-4.6-4.9-7.4c-1.2-2.8-1.8-5.8-1.8-9
		c0-3.2,0.6-6.2,1.8-9c1.2-2.8,2.8-5.3,4.9-7.4c2.1-2.1,4.5-3.7,7.3-4.9c2.8-1.2,5.8-1.8,8.9-1.8c4.5,0,8.2,0.8,11,2.4
		c2.9,1.6,5.1,3.7,6.7,6.1c1.6,2.5,2.7,5.2,3.3,8.2c0.6,3,0.9,5.8,0.9,8.5c0,0.2-0.1,0.5-0.2,0.7c-0.2,0.2-0.3,0.4-0.6,0.4H1877
		c0.2,1.7,0.8,3.4,1.7,5.1c0.9,1.6,2.1,3.1,3.5,4.5c1.4,1.3,3.1,2.4,4.9,3.2c1.9,0.8,3.8,1.2,5.9,1.2s4-0.2,5.6-0.6
		c1.6-0.4,3-0.9,4.3-1.5c1.3-0.6,2.3-1.2,3.2-1.7C1907.1,650.1,1907.8,649.6,1908.5,649.2z M1908.2,634.6c-0.1-1.4-0.5-3-1.1-4.7
		c-0.6-1.7-1.5-3.2-2.7-4.6c-1.2-1.4-2.7-2.6-4.6-3.5s-4.1-1.4-6.8-1.4c-2.8,0-5.2,0.5-7.1,1.6c-1.9,1-3.5,2.3-4.8,3.8
		c-1.2,1.5-2.2,3-2.8,4.7c-0.6,1.6-1,3.1-1.1,4.3H1908.2z"/>
</g>
</svg>
