<?xml version="1.0" encoding="utf-8"?>
<!-- Generator: Adobe Illustrator 16.0.0, SVG Export Plug-In . SVG Version: 6.00 Build 0)  -->
<!DOCTYPE svg PUBLIC "-//W3C//DTD SVG 1.1//EN" "http://www.w3.org/Graphics/SVG/1.1/DTD/svg11.dtd">
<svg version="1.1" id="Layer_1" xmlns="http://www.w3.org/2000/svg" xmlns:xlink="http://www.w3.org/1999/xlink" x="0px" y="0px"
	 width="293.027px" height="96.354px" viewBox="0 0 293.027 96.354" enable-background="new 0 0 293.027 96.354"
	 xml:space="preserve">
<g>
	<g>
		<g>
			<g>
				<path fill="#5C6F7C" d="M183.263,46.16c0.151-0.115,0.343-0.153,0.578-0.113c0.234,0.04,0.409,0.135,0.524,0.285
					c0.115,0.151,0.197,0.332,0.246,0.545c0.048,0.212,0.021,0.39-0.08,0.531c-0.102,0.142-0.089,0.255,0.039,0.339
					c0.129,0.084,0.58,0.252,1.355,0.504c0.774,0.252,1.402,0.551,1.885,0.896s0.881,0.766,1.195,1.262
					c0.314,0.496,0.496,0.85,0.545,1.063s0.075,0.54,0.08,0.982c0.004,0.443-0.106,0.839-0.332,1.188
					c-0.227,0.351-0.523,0.739-0.891,1.169s-0.77,0.879-1.208,1.348c-0.438,0.469-1.04,0.947-1.806,1.434s-1.508,0.875-2.225,1.162
					s-1.424,0.49-2.118,0.604c-0.694,0.115-1.131,0.152-1.308,0.107c-0.178-0.045-0.281-0.18-0.313-0.406
					c-0.031-0.225,0.007-0.785,0.113-1.68c0.105-0.893,0.633-2.788,1.58-5.683c0.947-2.895,1.445-4.44,1.494-4.635
					c0.049-0.194,0.131-0.365,0.246-0.511C182.979,46.406,183.112,46.275,183.263,46.16z M185.148,49.493
					c-0.558-0.177-0.969-0.312-1.234-0.405c-0.266-0.093-0.477,0.102-0.631,0.584c-0.155,0.483-0.295,0.899-0.418,1.249
					c-0.125,0.35-0.269,0.776-0.432,1.281c-0.164,0.504-0.445,1.443-0.844,2.814c-0.398,1.374-0.627,2.194-0.684,2.463
					c-0.059,0.271-0.066,0.441-0.027,0.512c0.04,0.07,0.395,0.014,1.063-0.172s1.275-0.426,1.819-0.717
					c0.544-0.293,1.192-0.754,1.946-1.382c0.752-0.628,1.35-1.259,1.792-1.892s0.659-1.121,0.651-1.461
					c-0.01-0.342-0.143-0.729-0.398-1.162c-0.258-0.434-0.613-0.785-1.069-1.056C186.227,49.881,185.715,49.662,185.148,49.493z"/>
				<path fill="#5C6F7C" d="M190.461,52.561c0.194-0.044,0.418-0.031,0.67,0.04c0.253,0.07,0.297,0.327,0.133,0.77
					c-0.164,0.443-0.343,1.019-0.537,1.727c-0.195,0.709-0.379,1.284-0.551,1.727c-0.174,0.441-0.365,0.826-0.578,1.148
					s-0.416,0.498-0.611,0.523c-0.194,0.027-0.33,0.021-0.404-0.02c-0.076-0.039-0.082-0.246-0.021-0.617s0.192-0.939,0.392-1.707
					c0.199-0.765,0.388-1.431,0.564-1.999c0.178-0.566,0.18-0.855,0.007-0.869s-0.106-0.127,0.199-0.339
					S190.275,52.605,190.461,52.561z M192.586,48.537c0.193,0.159,0.312,0.507,0.352,1.042c0.039,0.536,0.223,1.059,0.551,1.566
					c0.328,0.51,0.713,0.914,1.155,1.216c0.442,0.301,0.848,0.513,1.216,0.638c0.367,0.123,0.355,0.152-0.033,0.086
					c-0.391-0.066-0.777-0.221-1.162-0.465c-0.386-0.243-0.799-0.606-1.242-1.089s-0.766-0.837-0.969-1.063
					c-0.204-0.226-0.348-0.352-0.432-0.378c-0.085-0.026-0.155-0.046-0.213-0.06c-0.058-0.014-0.19-0.102-0.398-0.266
					c-0.208-0.164-0.283-0.365-0.226-0.604c0.058-0.239,0.135-0.416,0.232-0.531c0.097-0.115,0.268-0.201,0.511-0.259
					C192.172,48.313,192.391,48.369,192.586,48.537z"/>
				<path fill="#5C6F7C" d="M194.883,52.787c0.354-0.178,0.707-0.292,1.063-0.346c0.354-0.053,0.568,0.014,0.644,0.199
					c0.075,0.187,0.04,0.367-0.106,0.545s-0.346,0.277-0.598,0.299s-0.524,0.203-0.816,0.545c-0.293,0.34-0.461,0.743-0.505,1.208
					s-0.033,0.787,0.033,0.962c0.066,0.178,0.14,0.523,0.22,1.037c0.079,0.512,0.025,0.953-0.16,1.32s-0.385,0.635-0.598,0.803
					c-0.212,0.17-0.476,0.293-0.789,0.373c-0.314,0.08-0.583,0.119-0.805,0.119c-0.221,0-0.457-0.053-0.71-0.16
					c-0.252-0.105-0.407-0.324-0.465-0.656s0.407-0.947,1.395-1.846s1.064-0.926,0.232-0.08c-0.833,0.846-1.157,1.369-0.976,1.574
					c0.181,0.203,0.398,0.256,0.65,0.158s0.451-0.227,0.598-0.391s0.254-0.363,0.325-0.598s0.102-0.451,0.093-0.65
					s-0.078-0.643-0.205-1.329c-0.129-0.687-0.129-1.202,0-1.547c0.127-0.346,0.318-0.645,0.57-0.896
					C194.225,53.178,194.528,52.964,194.883,52.787z"/>
				<path fill="#5C6F7C" d="M199.025,52.958c0.859-0.336,1.443-0.42,1.754-0.252c0.309,0.168,0.462,0.421,0.457,0.758
					c-0.004,0.336-0.312,0.518-0.922,0.544c-0.611,0.026-1.139,0.188-1.581,0.485c-0.442,0.296-0.729,0.729-0.862,1.301
					c-0.133,0.571-0.023,1.002,0.332,1.295c0.354,0.291,0.712,0.428,1.075,0.404c0.362-0.021,0.684-0.076,0.962-0.166
					c0.279-0.088,0.605-0.234,0.977-0.438c0.372-0.203,0.79-0.498,1.255-0.883c0.465-0.386,0.454-0.334-0.033,0.152
					c-0.487,0.486-0.929,0.896-1.327,1.229s-0.754,0.574-1.063,0.73c-0.311,0.154-0.615,0.264-0.917,0.324
					c-0.301,0.063-0.661,0.08-1.082,0.053c-0.421-0.025-0.819-0.236-1.195-0.629c-0.376-0.395-0.562-0.861-0.558-1.402
					c0.004-0.54,0.088-0.996,0.252-1.368c0.164-0.371,0.414-0.736,0.75-1.096C197.636,53.643,198.211,53.296,199.025,52.958z"/>
				<path fill="#5C6F7C" d="M203.714,53.304c0.168-0.159,0.374-0.261,0.617-0.305c0.243-0.045,0.445-0.031,0.604,0.039
					c0.159,0.071,0.294,0.197,0.405,0.379c0.11,0.182,0.387,0.268,0.829,0.259c0.443-0.009,0.994-0.007,1.653,0.007
					c0.66,0.014,0.521,0.033-0.418,0.06s-1.472,0.064-1.601,0.112c-0.128,0.049-0.181,0.207-0.159,0.473
					c0.022,0.266,0.04,0.546,0.054,0.843c0.013,0.296,0.015,0.626,0.006,0.99c-0.009,0.363-0.035,0.633-0.079,0.811
					c-0.045,0.176-0.111,0.361-0.199,0.557c-0.089,0.195-0.219,0.4-0.392,0.617s-0.386,0.418-0.638,0.605
					c-0.252,0.186-0.484,0.324-0.697,0.418c-0.212,0.092-0.442,0.098-0.69,0.014s-0.449-0.217-0.604-0.398
					c-0.154-0.182-0.278-0.371-0.371-0.564c-0.094-0.195-0.133-0.537-0.12-1.023c0.014-0.486,0.066-0.879,0.159-1.176
					c0.094-0.295,0.237-0.606,0.432-0.928c0.195-0.324,0.253-0.475,0.173-0.452s-0.1,0.011-0.06-0.033s0.192-0.234,0.458-0.571
					C203.342,53.699,203.555,53.455,203.714,53.304z M204.378,55.389c-0.195-0.239-0.438-0.173-0.73,0.199s-0.468,0.767-0.524,1.183
					c-0.058,0.416-0.036,0.707,0.066,0.875c0.102,0.168,0.207,0.266,0.318,0.293c0.11,0.027,0.268-0.047,0.472-0.219
					c0.203-0.174,0.369-0.547,0.498-1.123C204.605,56.023,204.572,55.62,204.378,55.389z"/>
				<path fill="#5C6F7C" d="M211.694,53.145c0.098-0.079,0.217-0.117,0.358-0.112c0.142,0.004,0.266,0.057,0.372,0.158
					c0.106,0.103,0.239,0.232,0.398,0.393c0.159,0.159,0.38,0.264,0.664,0.313c0.283,0.049,0.761,0.008,1.434-0.12
					s0.669-0.104-0.013,0.073c-0.683,0.178-1.246,0.318-1.693,0.425s-0.788,0.278-1.022,0.519c-0.234,0.238-0.503,0.544-0.804,0.916
					c-0.301,0.372-0.646,0.85-1.036,1.434s-0.646,0.982-0.77,1.195s-0.283,0.389-0.479,0.531c-0.194,0.141-0.407,0.158-0.637,0.053
					c-0.23-0.105-0.398-0.266-0.505-0.479s-0.169-0.459-0.187-0.742s-0.105-0.656-0.266-1.117c-0.159-0.459-0.352-0.903-0.577-1.328
					s-0.279-0.743-0.159-0.956c0.119-0.213,0.303-0.336,0.551-0.371s0.46,0.053,0.638,0.266c0.177,0.212,0.345,0.546,0.505,1.002
					c0.159,0.456,0.261,0.801,0.305,1.036c0.045,0.234,0.133,0.309,0.266,0.219c0.133-0.088,0.545-0.602,1.235-1.54
					c0.69-0.938,1.075-1.449,1.155-1.534C211.509,53.293,211.597,53.216,211.694,53.145z"/>
				<path fill="#5C6F7C" d="M215.917,52.614c0.594-0.044,0.954,0.056,1.083,0.299c0.128,0.243,0.188,0.554,0.179,0.93
					s-0.186,0.695-0.531,0.956c-0.345,0.262-0.801,0.521-1.367,0.777c-0.16,0.062-0.304,0.095-0.432,0.1
					c-0.129,0.004-0.235,0-0.319-0.014s-0.15-0.026-0.199-0.04c-0.049-0.013-0.077-0.007-0.086,0.021
					c-0.159,0.256-0.241,0.514-0.246,0.77c-0.004,0.258,0.08,0.494,0.253,0.711s0.365,0.342,0.577,0.379
					c0.213,0.035,0.434,0.027,0.664-0.021s0.655-0.201,1.275-0.457c0.619-0.258,1.051-0.498,1.294-0.725
					c0.244-0.225,0.477-0.445,0.697-0.657c0.222-0.213,0.253-0.213,0.094,0c-0.16,0.212-0.356,0.469-0.592,0.77
					c-0.234,0.301-0.526,0.6-0.876,0.896s-0.636,0.525-0.856,0.684c-0.222,0.16-0.516,0.303-0.883,0.432
					c-0.368,0.129-0.729,0.168-1.083,0.119c-0.354-0.049-0.619-0.131-0.797-0.246c-0.177-0.113-0.341-0.252-0.491-0.41
					c-0.15-0.16-0.274-0.348-0.371-0.564c-0.098-0.217-0.148-0.514-0.153-0.891c-0.004-0.375,0.084-0.786,0.266-1.228
					s0.388-0.81,0.617-1.103c0.23-0.292,0.543-0.586,0.937-0.883S215.413,52.72,215.917,52.614z M215.931,53.809
					c-0.063-0.062-0.215-0.03-0.458,0.093c-0.244,0.125-0.421,0.264-0.531,0.418c-0.111,0.156-0.131,0.269-0.06,0.34
					c0.07,0.07,0.221,0.041,0.451-0.087s0.414-0.257,0.551-0.386C216.021,54.06,216.037,53.933,215.931,53.809z"/>
				<path fill="#5C6F7C" d="M219.277,54.486c0.318-1.23,0.626-1.832,0.923-1.806c0.296,0.026,0.52,0.159,0.67,0.398
					s0.136,0.534-0.046,0.884s-0.199,0.514-0.054,0.49c0.146-0.021,0.339-0.109,0.578-0.266c0.239-0.154,0.467-0.278,0.684-0.371
					c0.217-0.094,0.392-0.152,0.524-0.18c0.133-0.026,0.388,0.018,0.764,0.133c0.377,0.115,0.732,0.277,1.069,0.484
					c0.336,0.209,0.781,0.227,1.335,0.054c0.553-0.173,0.493-0.114-0.18,0.173s-1.361,0.423-2.064,0.404
					c-0.704-0.018-1.249,0.066-1.634,0.253c-0.385,0.186-0.711,0.392-0.977,0.617s-0.511,0.597-0.736,1.117
					c-0.226,0.518-0.398,0.953-0.519,1.307c-0.119,0.355-0.226,0.645-0.318,0.871c-0.093,0.225-0.283,0.344-0.571,0.357
					c-0.287,0.014-0.478-0.09-0.57-0.313c-0.094-0.221-0.115-0.365-0.066-0.432s0.182-0.471,0.398-1.215
					C218.704,56.705,218.967,55.716,219.277,54.486z"/>
				<g>
					<path fill="#5C6F7C" d="M240.822,49.295c0.109-0.131,0.219-0.356,0.335-0.688c0.129-0.364,0.128-0.688-0.003-0.962
						c-0.172-0.358-0.438-0.475-0.634-0.51c-0.274-0.053-0.617,0.099-1.042,0.46c-0.373,0.318-0.71,0.681-1.002,1.079
						c-0.283,0.384-0.647,0.87-1.094,1.458c-0.455,0.6-0.929,1.266-1.408,1.977c-0.309,0.457-0.488,0.68-0.588,0.789
						c-0.033-0.063-0.075-0.156-0.126-0.292c-0.112-0.298-0.255-0.583-0.423-0.845c-0.154-0.24-0.561-1.01-1.209-2.288
						c-0.679-1.338-1.24-2.166-1.718-2.53c-0.476-0.36-0.877-0.582-1.228-0.679c-0.514-0.142-0.789,0.023-0.902,0.188
						c-0.109,0.174-0.173,0.354-0.189,0.534c-0.018,0.183,0.031,0.421,0.153,0.75c0.116,0.309,0.345,0.686,0.699,1.152
						c0.332,0.437,0.808,1.111,1.453,2.061c0.63,0.927,1.091,1.645,1.371,2.135c0.284,0.498,0.547,0.924,0.781,1.266
						c0.257,0.374,0.282,0.557,0.275,0.633c-0.005,0.057-0.079,0.347-0.82,1.709c-0.552,1.014-0.948,1.809-1.179,2.359
						c-0.232,0.553-0.401,0.973-0.509,1.258c-0.111,0.297-0.196,0.617-0.252,0.949c-0.062,0.371,0.019,0.781,0.236,1.215
						c0.179,0.359,0.347,0.598,0.584,0.598c0.099,0,0.189-0.043,0.257-0.125c0.104-0.125,0.219-0.324,0.353-0.611
						c0.124-0.266,0.471-1.057,1.039-2.369c0.559-1.293,0.989-2.174,1.28-2.619c0.307-0.469,0.652-1.111,1.027-1.91
						c0.367-0.781,0.819-1.585,1.344-2.387s1.159-1.605,1.887-2.39C240.572,49.581,240.765,49.364,240.822,49.295z"/>
					<path fill="#5C6F7C" d="M258.176,53.96h-0.204c-0.05,0-0.117,0.008-0.438,0.107c-0.479,0.15-0.854,0.143-1.13-0.027
						c-0.354-0.219-0.733-0.391-1.127-0.511c-0.435-0.132-0.722-0.171-0.886-0.138c-0.152,0.029-0.34,0.094-0.574,0.193
						c-0.227,0.098-0.47,0.229-0.721,0.393c-0.063,0.04-0.118,0.074-0.168,0.102c0-0.001,0.001-0.002,0.001-0.002
						c0.225-0.432,0.236-0.813,0.036-1.133c-0.191-0.303-0.488-0.48-0.9-0.516c-0.447,0-0.78,0.578-1.146,1.996
						c-0.317,1.257-0.575,2.223-0.788,2.954c-0.033,0.111-0.063,0.213-0.09,0.305c-0.255,0.02-0.387-0.051-0.433-0.113
						c-0.057-0.076-0.144-0.283-0.085-0.813c0.052-0.453,0.156-1.017,0.313-1.675c0.241-1.007,0.201-1.209,0.138-1.331
						c-0.063-0.118-0.192-0.27-0.46-0.32c-0.188-0.036-0.413,0.008-0.643,0.128c-0.141,0.069-0.465,0.313-1.739,1.587
						c-1.004,1.004-1.51,1.362-1.785,1.479c0.015-0.119,0.072-0.359,0.274-0.833c0.391-0.918,0.615-1.473,0.685-1.696
						c0.082-0.261,0.091-0.497,0.026-0.7c-0.072-0.229-0.233-0.396-0.469-0.484c-0.212-0.08-0.439-0.092-0.665-0.035
						c-0.235,0.057-0.472,0.227-0.723,0.518c-0.009,0.011-0.029,0.021-0.043,0.033c-0.245-0.004-0.474-0.006-0.695-0.006
						c-0.042-0.014-0.079-0.021-0.124-0.039c-0.466-0.176-0.566-0.19-0.636-0.19l-0.206,0.007l-0.053,0.178
						c-0.002,0.006,0.001,0.01-0.001,0.014c-0.141-0.033-0.196-0.082-0.209-0.104c-0.138-0.225-0.312-0.385-0.517-0.477
						c-0.205-0.09-0.451-0.111-0.751-0.057c-0.292,0.053-0.542,0.178-0.744,0.369c-0.17,0.16-0.386,0.408-0.662,0.758
						c-0.26,0.329-0.408,0.515-0.447,0.559l-0.128,0.158l0.065,0.147c0.007,0.015,0.015,0.028,0.022,0.04
						c-0.024,0.047-0.058,0.104-0.102,0.178c-0.203,0.337-0.356,0.668-0.456,0.982c-0.101,0.321-0.156,0.729-0.171,1.245
						c-0.014,0.541,0.032,0.902,0.145,1.137c0.102,0.213,0.238,0.422,0.406,0.619c0.185,0.215,0.425,0.375,0.714,0.473
						c0.144,0.049,0.285,0.072,0.422,0.072c0.156,0,0.307-0.031,0.45-0.094c0.229-0.1,0.48-0.25,0.745-0.445
						c0.27-0.199,0.5-0.418,0.685-0.65c0.184-0.229,0.326-0.455,0.424-0.67c0.094-0.209,0.166-0.41,0.214-0.602
						c0.049-0.195,0.077-0.479,0.087-0.863c0.009-0.37,0.007-0.706-0.006-1.007c-0.014-0.3-0.032-0.584-0.055-0.852
						c-0.013-0.155,0.009-0.214,0.003-0.219c0.041-0.013,0.198-0.04,0.762-0.067c0.169,0.041,0.339,0.08,0.548,0.104
						c0.154,0.016,0.188,0.072,0.198,0.09c0.035,0.059,0.092,0.254-0.131,0.802c-0.316,0.775-0.545,1.398-0.679,1.849
						c-0.146,0.49-0.191,0.859-0.139,1.129c0.058,0.297,0.209,0.521,0.448,0.664c0.228,0.137,0.477,0.189,0.743,0.146
						c0.222-0.033,0.446-0.088,0.669-0.164c0.232-0.08,0.532-0.246,0.916-0.508c0.372-0.254,0.73-0.553,1.065-0.887
						c0.232-0.232,0.44-0.455,0.621-0.662c-0.021,0.117-0.049,0.244-0.079,0.375c-0.092,0.393-0.078,0.734,0.039,1.016
						c0.109,0.266,0.262,0.496,0.453,0.686c0.204,0.205,0.472,0.336,0.793,0.389c0.11,0.018,0.216,0.027,0.316,0.027
						c0.124,0,0.232-0.035,0.345-0.063c0.019,0.063,0.042,0.121,0.065,0.178c0.126,0.301,0.393,0.467,0.752,0.467l0.061-0.002
						c0.488-0.021,0.699-0.291,0.791-0.514c0.094-0.229,0.202-0.523,0.323-0.883c0.118-0.35,0.29-0.783,0.512-1.289
						c0.209-0.48,0.434-0.826,0.669-1.026c0.248-0.211,0.559-0.406,0.923-0.582c0.315-0.152,0.769-0.23,1.347-0.23l0.303,0.004
						c0.691,0,1.377-0.144,2.038-0.427c0.619-0.264,0.747-0.319,0.701-0.546L258.176,53.96z M241.189,56.543
						c-0.152,0.68-0.326,0.91-0.415,0.986c-0.179,0.15-0.256,0.164-0.254,0.166c-0.01-0.002-0.068-0.025-0.161-0.178
						c-0.032-0.053-0.1-0.229-0.032-0.713c0.05-0.367,0.209-0.725,0.473-1.062c0.189-0.241,0.282-0.243,0.283-0.243
						c0.007,0,0.028,0.013,0.06,0.051C241.239,55.666,241.326,55.93,241.189,56.543z M250.561,59.396c0,0,0.001,0.002,0.002,0.002
						l-0.002,0.01V59.396z"/>
				</g>
				<path fill="#5C6F7C" d="M268.782,47.753c0.407-0.416,0.682-0.606,0.823-0.571c0.142,0.036,0.274,0.106,0.398,0.212
					c0.124,0.106,0.194,0.23,0.213,0.372c0.018,0.142,0.028,0.376,0.033,0.704c0.004,0.328,0.033,0.553,0.086,0.677
					c0.054,0.124,0.133,0.522,0.239,1.195s0.164,1.082,0.173,1.229s0.048,0.365,0.119,0.657s0.449,0.362,1.136,0.212
					c0.686-0.15,1.363-0.318,2.031-0.504c0.669-0.186,1.162-0.33,1.48-0.432c0.319-0.102-0.018,0.053-1.009,0.465
					c-0.991,0.411-1.683,0.736-2.071,0.976c-0.39,0.239-0.742,0.478-1.056,0.718c-0.314,0.238-0.474,0.523-0.479,0.855
					s-0.042,0.791-0.113,1.375c-0.07,0.584-0.142,1.098-0.212,1.542c-0.071,0.441-0.124,0.805-0.159,1.088
					c-0.036,0.283-0.133,0.559-0.292,0.824c-0.16,0.266-0.337,0.416-0.531,0.451c-0.195,0.035-0.354-0.027-0.479-0.186
					c-0.124-0.16-0.142-0.553-0.053-1.176c0.088-0.625,0.177-1.182,0.266-1.674c0.088-0.49,0.172-1.024,0.252-1.6
					c0.08-0.575-0.106-0.832-0.558-0.77c-0.451,0.062-0.925,0.128-1.421,0.199c-0.496,0.07-0.991,0.137-1.487,0.199
					c-0.496,0.062-0.91,0.174-1.242,0.338c-0.331,0.164-0.916,0.814-1.752,1.952c-0.837,1.139-1.384,1.885-1.641,2.238
					s-0.486,0.531-0.69,0.531c-0.203,0-0.35-0.078-0.438-0.232c-0.088-0.154-0.091-0.383-0.007-0.684
					c0.085-0.301,0.395-0.861,0.93-1.68c0.536-0.818,1.158-1.663,1.866-2.53c0.708-0.868,1.297-1.57,1.766-2.105
					c0.47-0.535,0.893-1.063,1.269-1.58s0.804-1.091,1.281-1.72C267.933,48.692,268.375,48.17,268.782,47.753z M269.287,50.515
					c-0.089-0.619-0.259-0.771-0.512-0.458c-0.252,0.315-0.484,0.616-0.697,0.903c-0.212,0.288-0.646,0.793-1.301,1.514
					c-0.655,0.723-0.713,1.019-0.173,0.891c0.54-0.129,1.193-0.232,1.959-0.313s1.135-0.244,1.108-0.491
					c-0.026-0.248-0.073-0.496-0.14-0.743C269.466,51.57,269.385,51.136,269.287,50.515z"/>
				<path fill="#5C6F7C" d="M275.462,52.787c0.354-0.178,0.708-0.292,1.063-0.346c0.354-0.053,0.568,0.014,0.644,0.199
					c0.075,0.187,0.04,0.367-0.105,0.545c-0.146,0.178-0.346,0.277-0.598,0.299c-0.253,0.021-0.524,0.203-0.817,0.545
					c-0.292,0.34-0.46,0.743-0.504,1.208c-0.045,0.465-0.033,0.787,0.033,0.962c0.066,0.178,0.139,0.523,0.219,1.037
					c0.08,0.512,0.026,0.953-0.159,1.32c-0.187,0.367-0.386,0.635-0.598,0.803c-0.213,0.17-0.477,0.293-0.79,0.373
					c-0.314,0.08-0.582,0.119-0.804,0.119s-0.458-0.053-0.71-0.16c-0.253-0.105-0.407-0.324-0.465-0.656s0.407-0.947,1.394-1.846
					c0.987-0.898,1.064-0.926,0.232-0.08s-1.157,1.369-0.976,1.574c0.182,0.203,0.398,0.256,0.65,0.158
					c0.253-0.098,0.452-0.227,0.598-0.391c0.146-0.164,0.255-0.363,0.325-0.598c0.071-0.234,0.102-0.451,0.094-0.65
					c-0.01-0.199-0.078-0.643-0.206-1.329c-0.129-0.687-0.129-1.202,0-1.547c0.128-0.346,0.318-0.645,0.571-0.896
					C274.805,53.178,275.107,52.964,275.462,52.787z"/>
				<path fill="#5C6F7C" d="M278.902,52.561c0.194-0.044,0.418-0.031,0.67,0.04c0.253,0.07,0.297,0.327,0.133,0.77
					c-0.163,0.443-0.343,1.019-0.537,1.727c-0.195,0.709-0.379,1.284-0.552,1.727c-0.172,0.441-0.365,0.826-0.577,1.148
					c-0.213,0.322-0.416,0.498-0.611,0.523c-0.194,0.027-0.33,0.021-0.404-0.02c-0.076-0.039-0.082-0.246-0.021-0.617
					s0.192-0.939,0.392-1.707c0.199-0.765,0.388-1.431,0.564-1.999c0.177-0.566,0.18-0.855,0.007-0.869s-0.106-0.127,0.199-0.339
					S278.716,52.605,278.902,52.561z M281.026,48.537c0.195,0.159,0.313,0.507,0.353,1.042s0.224,1.059,0.551,1.566
					c0.327,0.51,0.713,0.914,1.155,1.216c0.442,0.301,0.848,0.513,1.215,0.638c0.367,0.123,0.356,0.152-0.033,0.086
					s-0.776-0.221-1.161-0.465c-0.386-0.243-0.8-0.606-1.242-1.089s-0.766-0.837-0.97-1.063c-0.203-0.226-0.347-0.352-0.432-0.378
					c-0.084-0.026-0.154-0.046-0.212-0.06c-0.058-0.014-0.19-0.102-0.398-0.266c-0.208-0.164-0.283-0.365-0.226-0.604
					c0.058-0.239,0.135-0.416,0.232-0.531c0.097-0.115,0.268-0.201,0.511-0.259C280.613,48.313,280.832,48.369,281.026,48.537z"/>
				<path fill="#5C6F7C" d="M285.037,52.694c0.204-0.054,0.427-0.062,0.671-0.026c0.243,0.035,0.438,0.11,0.584,0.226
					c0.146,0.114,0.286,0.341,0.419,0.677c0.133,0.337,0.072,0.563-0.18,0.678s-0.48,0.075-0.684-0.119
					c-0.204-0.195-0.417-0.234-0.638-0.12c-0.222,0.115-0.44,0.232-0.657,0.353c-0.217,0.119-0.485,0.307-0.804,0.564
					c-0.318,0.256-0.646,0.584-0.982,0.982c-0.337,0.399-0.522,0.653-0.558,0.764c-0.036,0.109,0.051,0.094,0.259-0.047
					c0.208-0.143,0.526-0.357,0.956-0.645c0.43-0.287,0.97-0.582,1.62-0.883s1.063-0.418,1.235-0.352
					c0.172,0.066,0.32,0.188,0.444,0.365c0.124,0.177,0.194,0.33,0.213,0.458c0.018,0.128-0.003,0.229-0.06,0.306
					c-0.059,0.074-0.125,0.245-0.199,0.51c-0.076,0.266-0.069,0.523,0.02,0.771c0.088,0.248,0.201,0.418,0.339,0.512
					c0.137,0.092,0.325,0.119,0.564,0.078c0.238-0.039,0.533-0.221,0.883-0.543c0.35-0.324,0.334-0.248-0.047,0.225
					c-0.381,0.475-0.682,0.775-0.902,0.902c-0.222,0.129-0.395,0.191-0.519,0.188c-0.124-0.006-0.285-0.045-0.484-0.121
					c-0.199-0.074-0.388-0.191-0.564-0.352c-0.177-0.158-0.316-0.354-0.418-0.584c-0.103-0.23-0.171-0.4-0.206-0.512
					c-0.035-0.109-0.117-0.232-0.246-0.365c-0.128-0.133-0.285-0.16-0.471-0.086c-0.187,0.076-0.512,0.281-0.977,0.617
					c-0.465,0.338-0.898,0.613-1.301,0.83c-0.403,0.217-0.764,0.367-1.083,0.451c-0.318,0.086-0.524,0.113-0.617,0.088
					c-0.093-0.027-0.195-0.127-0.306-0.299c-0.11-0.174-0.175-0.361-0.192-0.564s0.012-0.41,0.086-0.617
					c0.076-0.209,0.359-0.625,0.851-1.25c0.491-0.624,0.965-1.136,1.421-1.534s0.94-0.736,1.454-1.016
					C284.475,52.925,284.834,52.755,285.037,52.694z"/>
			</g>
		</g>
		<g>
			<g>
				<path fill="#00549E" d="M46.857,26.984c0.612-0.123,1.469-0.221,2.568-0.293c1.1-0.073,2.21-0.11,3.335-0.11
					c1.395,0,2.663,0.123,3.813,0.366c1.149,0.244,2.131,0.64,2.95,1.19s1.454,1.259,1.907,2.127
					c0.451,0.869,0.678,1.924,0.678,3.171c0,0.759-0.117,1.46-0.348,2.109c-0.233,0.647-0.545,1.222-0.936,1.722
					c-0.393,0.5-0.843,0.916-1.355,1.246c-0.515,0.331-1.039,0.569-1.576,0.715c0.683,0.075,1.374,0.258,2.069,0.551
					c0.696,0.293,1.327,0.709,1.889,1.246c0.561,0.537,1.02,1.217,1.375,2.035c0.354,0.819,0.531,1.814,0.531,2.987
					c0,1.417-0.282,2.621-0.845,3.612c-0.561,0.987-1.323,1.788-2.289,2.4c-0.966,0.61-2.102,1.051-3.409,1.321
					c-1.31,0.268-2.709,0.401-4.199,0.401c-0.928,0-1.942-0.042-3.042-0.13c-1.1-0.085-2.14-0.188-3.118-0.311V26.984z
					 M53.235,37.981c1.663,0,2.933-0.36,3.813-1.082c0.881-0.72,1.32-1.803,1.32-3.244c0-1.393-0.471-2.432-1.411-3.116
					c-0.941-0.685-2.217-1.025-3.83-1.025c-0.49,0-0.961,0.012-1.411,0.037c-0.453,0.023-0.838,0.06-1.155,0.108v8.321H53.235z
					 M50.561,50.443c0.342,0.051,0.774,0.088,1.3,0.111c0.524,0.023,1.045,0.036,1.559,0.036c0.88,0,1.703-0.073,2.473-0.22
					c0.769-0.147,1.448-0.397,2.036-0.752c0.586-0.354,1.048-0.829,1.394-1.43c0.339-0.598,0.51-1.36,0.51-2.289
					c0-0.905-0.159-1.669-0.476-2.293c-0.317-0.622-0.75-1.122-1.301-1.502s-1.205-0.647-1.962-0.805
					c-0.758-0.159-1.575-0.238-2.455-0.238h-3.079V50.443z"/>
				<path fill="#00549E" d="M65.698,34.535c0.269-0.049,0.575-0.085,0.916-0.109c0.343-0.025,0.638-0.038,0.881-0.038
					c0.269,0,0.574,0.013,0.916,0.038c0.342,0.023,0.648,0.06,0.917,0.109v10.301c0,1.172,0.11,2.143,0.329,2.914
					c0.221,0.769,0.551,1.374,0.992,1.815c0.439,0.439,0.976,0.746,1.612,0.915c0.635,0.173,1.368,0.258,2.199,0.258
					c1.247,0,2.309-0.136,3.189-0.404V34.535c0.268-0.049,0.568-0.085,0.898-0.109c0.331-0.025,0.628-0.038,0.898-0.038
					c0.269,0,0.568,0.013,0.898,0.038c0.328,0.023,0.628,0.06,0.897,0.109v18.218c-0.856,0.244-1.875,0.477-3.062,0.696
					c-1.185,0.22-2.413,0.33-3.684,0.33c-1.197,0-2.328-0.104-3.39-0.312c-1.063-0.208-1.998-0.631-2.804-1.266
					c-0.807-0.635-1.441-1.527-1.908-2.674c-0.464-1.148-0.696-2.666-0.696-4.545V34.535z"/>
				<path fill="#00549E" d="M86.409,37.394H83.33c-0.1-0.39-0.148-0.867-0.148-1.429c0-0.537,0.048-1.014,0.148-1.43h3.079v-1.136
					c0-2.321,0.575-4.088,1.723-5.298c1.15-1.209,2.811-1.813,4.986-1.813c0.635,0,1.222,0.043,1.76,0.128
					c0.536,0.086,1.014,0.19,1.428,0.311c-0.073,0.635-0.194,1.18-0.365,1.631c-0.173,0.452-0.354,0.887-0.551,1.302
					c-0.221-0.074-0.49-0.14-0.807-0.201c-0.317-0.063-0.696-0.093-1.135-0.093c-0.515,0-0.984,0.056-1.412,0.166
					c-0.426,0.109-0.788,0.317-1.082,0.622c-0.291,0.307-0.52,0.728-0.677,1.266c-0.159,0.536-0.239,1.234-0.239,2.09v1.025h7.918
					v-1.32c0-2.32,0.581-4.088,1.741-5.297c1.159-1.21,2.852-1.815,5.076-1.815c0.611,0,1.15,0.031,1.614,0.094
					c0.462,0.06,0.903,0.152,1.319,0.275c-0.051,0.611-0.117,1.135-0.201,1.576c-0.088,0.44-0.201,0.891-0.349,1.355
					c-0.245-0.048-0.531-0.104-0.861-0.164c-0.33-0.061-0.728-0.093-1.192-0.093c-0.538,0-1.021,0.057-1.448,0.165
					c-0.427,0.111-0.794,0.319-1.099,0.624c-0.308,0.307-0.545,0.733-0.716,1.284c-0.171,0.549-0.256,1.251-0.256,2.106v1.21h4.804
					c0.073,0.489,0.11,0.991,0.11,1.503c0,0.464-0.037,0.917-0.11,1.355h-4.804v15.945c-0.269,0.051-0.568,0.088-0.898,0.11
					c-0.328,0.024-0.628,0.037-0.896,0.037c-0.27,0-0.575-0.013-0.917-0.037c-0.343-0.022-0.649-0.06-0.917-0.11V37.394h-7.918
					v15.945c-0.269,0.051-0.567,0.088-0.897,0.11c-0.33,0.024-0.63,0.037-0.898,0.037c-0.27,0-0.575-0.013-0.917-0.037
					c-0.342-0.022-0.647-0.06-0.917-0.11V37.394z"/>
				<path fill="#00549E" d="M117.996,40.95c0-1.442-0.367-2.442-1.101-3.006c-0.733-0.561-1.797-0.843-3.189-0.843
					c-0.857,0-1.656,0.067-2.399,0.202c-0.746,0.135-1.474,0.311-2.183,0.53c-0.464-0.805-0.696-1.771-0.696-2.895
					c0.832-0.268,1.747-0.476,2.75-0.623c1.002-0.147,1.968-0.222,2.896-0.222c2.443,0,4.301,0.559,5.572,1.67
					c1.27,1.111,1.905,2.889,1.905,5.334v11.765c-0.854,0.195-1.894,0.397-3.114,0.605c-1.222,0.207-2.469,0.312-3.739,0.312
					c-1.199,0-2.279-0.11-3.245-0.33s-1.784-0.573-2.456-1.063c-0.671-0.489-1.191-1.11-1.558-1.87
					c-0.367-0.758-0.549-1.674-0.549-2.749c0-1.051,0.212-1.973,0.642-2.767c0.427-0.794,1.007-1.454,1.741-1.981
					c0.732-0.524,1.575-0.916,2.529-1.173c0.953-0.256,1.954-0.383,3.006-0.383c0.782,0,1.424,0.019,1.924,0.056
					c0.501,0.037,0.922,0.079,1.266,0.127V40.95z M117.996,44.506c-0.367-0.047-0.832-0.098-1.394-0.147
					c-0.563-0.048-1.039-0.073-1.43-0.073c-1.515,0-2.669,0.281-3.464,0.842c-0.794,0.563-1.192,1.418-1.192,2.566
					c0,0.732,0.134,1.307,0.404,1.725c0.269,0.416,0.604,0.731,1.008,0.951c0.403,0.22,0.849,0.354,1.338,0.403
					c0.487,0.049,0.952,0.074,1.393,0.074c0.562,0,1.141-0.031,1.739-0.093c0.601-0.061,1.132-0.153,1.597-0.275V44.506z"/>
				<path fill="#00549E" d="M123.735,26.472c0.268-0.05,0.567-0.085,0.898-0.112c0.329-0.023,0.627-0.037,0.897-0.037
					c0.268,0,0.568,0.014,0.898,0.037c0.33,0.027,0.628,0.063,0.897,0.112v21.187c0,0.685,0.061,1.221,0.184,1.612
					c0.122,0.392,0.288,0.692,0.494,0.897c0.208,0.21,0.454,0.344,0.733,0.404c0.282,0.063,0.581,0.092,0.898,0.092
					c0.221,0,0.471-0.011,0.752-0.036c0.282-0.025,0.52-0.06,0.716-0.11c0.218,0.855,0.328,1.785,0.328,2.787
					c-0.341,0.123-0.758,0.201-1.245,0.238c-0.489,0.034-0.942,0.055-1.358,0.055c-0.707,0-1.367-0.088-1.979-0.258
					c-0.61-0.17-1.148-0.451-1.612-0.842c-0.464-0.393-0.831-0.918-1.099-1.576c-0.27-0.66-0.403-1.48-0.403-2.457V26.472z"/>
				<path fill="#00549E" d="M140.888,53.78c-1.466,0-2.75-0.251-3.85-0.753c-1.099-0.498-2.016-1.189-2.748-2.07
					c-0.734-0.879-1.277-1.918-1.63-3.115c-0.356-1.198-0.535-2.492-0.535-3.886c0-1.394,0.179-2.688,0.535-3.885
					c0.353-1.197,0.896-2.238,1.63-3.115c0.732-0.88,1.649-1.578,2.748-2.091c1.1-0.514,2.384-0.771,3.85-0.771
					c1.465,0,2.749,0.256,3.848,0.771c1.101,0.514,2.016,1.211,2.75,2.091c0.733,0.877,1.275,1.918,1.63,3.115
					c0.354,1.196,0.531,2.491,0.531,3.885c0,1.394-0.178,2.688-0.531,3.886c-0.355,1.197-0.897,2.236-1.63,3.115
					c-0.734,0.881-1.65,1.572-2.75,2.07C143.637,53.529,142.354,53.78,140.888,53.78z M140.888,50.884
					c1.685,0,2.931-0.61,3.739-1.833c0.805-1.222,1.209-2.92,1.209-5.096c0-2.176-0.404-3.869-1.209-5.077
					c-0.809-1.21-2.054-1.814-3.739-1.814c-1.686,0-2.928,0.604-3.723,1.814c-0.792,1.208-1.191,2.901-1.191,5.077
					c0,2.175,0.398,3.874,1.191,5.096C137.96,50.274,139.202,50.884,140.888,50.884z"/>
			</g>
		</g>
		<g>
			<g>
				<path fill="#F58426" d="M65.208,64.98h-2.652l-0.135-0.475l5.849-6.529h0.271v4.318h4.417c0.091,0.387,0.137,0.816,0.137,1.293
					c0,0.248-0.011,0.486-0.035,0.709c-0.02,0.229-0.055,0.455-0.102,0.684h-4.417v7.953c0,0.951,0.037,1.711,0.117,2.277
					c0.079,0.566,0.218,1.004,0.407,1.309c0.193,0.307,0.453,0.51,0.782,0.615c0.33,0.102,0.744,0.148,1.243,0.148
					c0.383,0,0.745-0.027,1.087-0.084c0.338-0.055,0.645-0.119,0.917-0.188c0.157,0.457,0.256,0.918,0.289,1.395
					c0.032,0.477,0.051,0.896,0.051,1.258c-0.455,0.113-0.931,0.199-1.428,0.258c-0.498,0.055-1.032,0.082-1.597,0.082
					c-1.633,0-2.908-0.395-3.823-1.186c-0.919-0.797-1.379-2.111-1.379-3.945V64.98z"/>
				<path fill="#F58426" d="M82.751,80.143c-1.361,0-2.551-0.232-3.571-0.695c-1.019-0.469-1.87-1.109-2.55-1.924
					c-0.681-0.816-1.184-1.779-1.512-2.891c-0.328-1.109-0.494-2.309-0.494-3.604c0-1.289,0.166-2.492,0.494-3.602
					c0.328-1.111,0.831-2.074,1.512-2.891c0.68-0.814,1.531-1.461,2.55-1.938c1.021-0.473,2.21-0.713,3.571-0.713
					c1.357,0,2.547,0.24,3.565,0.713c1.022,0.477,1.873,1.123,2.551,1.938c0.678,0.816,1.184,1.779,1.513,2.891
					c0.329,1.109,0.493,2.313,0.493,3.602c0,1.295-0.164,2.494-0.493,3.604c-0.329,1.111-0.835,2.074-1.513,2.891
					c-0.678,0.814-1.528,1.455-2.551,1.924C85.298,79.91,84.108,80.143,82.751,80.143z M82.751,77.455
					c1.562,0,2.717-0.566,3.467-1.697c0.745-1.135,1.121-2.709,1.121-4.729c0-2.014-0.376-3.584-1.121-4.707
					c-0.75-1.121-1.905-1.684-3.467-1.684c-1.566,0-2.716,0.563-3.453,1.684c-0.734,1.123-1.105,2.693-1.105,4.707
					c0,2.02,0.371,3.594,1.105,4.729C80.035,76.889,81.185,77.455,82.751,77.455z"/>
				<path fill="#F58426" d="M92.814,62.295c0.247-0.047,0.53-0.078,0.848-0.102c0.318-0.02,0.589-0.037,0.815-0.037
					c0.249,0,0.533,0.018,0.852,0.037c0.314,0.023,0.598,0.055,0.851,0.102v9.551c0,1.088,0.102,1.99,0.305,2.703
					c0.204,0.715,0.51,1.277,0.918,1.684c0.407,0.41,0.906,0.691,1.497,0.848c0.59,0.16,1.268,0.238,2.037,0.238
					c1.157,0,2.142-0.125,2.956-0.371V62.295c0.252-0.047,0.528-0.078,0.835-0.102c0.307-0.02,0.583-0.037,0.833-0.037
					c0.249,0,0.526,0.018,0.832,0.037c0.307,0.023,0.584,0.055,0.833,0.102v16.895c-0.795,0.229-1.739,0.443-2.841,0.646
					c-1.097,0.203-2.235,0.307-3.416,0.307c-1.108,0-2.154-0.096-3.143-0.291c-0.984-0.193-1.853-0.58-2.601-1.172
					c-0.748-0.59-1.337-1.416-1.768-2.482c-0.43-1.063-0.644-2.471-0.644-4.215V62.295z"/>
				<path fill="#F58426" d="M109.48,62.295c0.247-0.047,0.488-0.078,0.714-0.102c0.227-0.02,0.464-0.037,0.714-0.037
					c0.249,0,0.5,0.018,0.75,0.037c0.247,0.023,0.474,0.055,0.68,0.102c0.065,0.34,0.135,0.791,0.203,1.342
					c0.066,0.557,0.102,1.025,0.102,1.412c0.477-0.771,1.104-1.439,1.889-2.006c0.781-0.568,1.781-0.85,3.005-0.85
					c0.183,0,0.369,0.006,0.562,0.018c0.193,0.01,0.357,0.027,0.494,0.049c0.044,0.205,0.078,0.422,0.102,0.646
					c0.022,0.227,0.032,0.465,0.032,0.713c0,0.275-0.015,0.557-0.049,0.852c-0.037,0.295-0.076,0.578-0.119,0.85
					c-0.184-0.045-0.369-0.068-0.562-0.068s-0.345,0-0.46,0c-0.61,0-1.194,0.084-1.749,0.254c-0.556,0.174-1.055,0.473-1.496,0.902
					c-0.44,0.43-0.794,1.02-1.054,1.77c-0.263,0.746-0.392,1.707-0.392,2.889v8.668c-0.25,0.043-0.526,0.076-0.831,0.102
					c-0.308,0.021-0.586,0.035-0.834,0.035c-0.25,0-0.528-0.014-0.832-0.035c-0.307-0.025-0.596-0.059-0.868-0.102V62.295z"/>
				<path fill="#F58426" d="M120.601,76.572c0.61,0.25,1.283,0.447,2.019,0.592c0.738,0.154,1.469,0.225,2.193,0.225
					c0.522,0,1.021-0.059,1.499-0.17c0.474-0.115,0.887-0.283,1.24-0.512c0.35-0.227,0.633-0.504,0.85-0.834
					c0.215-0.326,0.323-0.693,0.323-1.102c0-0.453-0.085-0.826-0.256-1.123c-0.171-0.293-0.397-0.545-0.679-0.748
					c-0.284-0.203-0.612-0.379-0.989-0.527c-0.371-0.146-0.772-0.291-1.204-0.424l-1.19-0.443c-1.451-0.541-2.505-1.154-3.162-1.834
					c-0.656-0.68-0.985-1.598-0.985-2.756c0-1.539,0.551-2.762,1.648-3.67c1.102-0.904,2.715-1.359,4.846-1.359
					c0.882,0,1.751,0.084,2.601,0.256c0.85,0.17,1.591,0.367,2.226,0.594c-0.047,0.453-0.13,0.906-0.253,1.361
					c-0.124,0.451-0.28,0.873-0.46,1.256c-0.499-0.18-1.097-0.355-1.787-0.527c-0.691-0.168-1.432-0.254-2.225-0.254
					c-0.839,0-1.581,0.148-2.227,0.443c-0.647,0.293-0.968,0.816-0.968,1.559c0,0.389,0.079,0.717,0.235,0.988
					c0.16,0.271,0.374,0.504,0.647,0.699c0.27,0.191,0.581,0.352,0.935,0.49c0.351,0.137,0.73,0.271,1.139,0.41l1.495,0.51
					c0.544,0.182,1.06,0.395,1.547,0.646c0.487,0.25,0.907,0.561,1.259,0.934c0.349,0.373,0.633,0.826,0.85,1.359
					c0.215,0.533,0.323,1.172,0.323,1.92c0,0.838-0.171,1.605-0.511,2.295c-0.338,0.689-0.824,1.279-1.444,1.77
					c-0.622,0.484-1.38,0.869-2.26,1.139c-0.886,0.27-1.859,0.408-2.924,0.408c-1.089,0-2.039-0.076-2.856-0.221
					c-0.814-0.15-1.574-0.35-2.276-0.596c0.044-0.453,0.14-0.912,0.289-1.377C120.254,77.484,120.418,77.025,120.601,76.572z"/>
			</g>
		</g>
		<path fill="#F58426" d="M27.552,14.752L27.552,14.752c-1.731,5.753-2.013,12.825-0.865,21.619
			C28.504,50.29,37.7,61.795,47.364,72.156l0.426,0.455l-0.545,0.303c-2.304,1.271-8.733,7.082-9.089,7.594l-0.263,0.377
			l-0.396-0.229c-4.585-2.799-8.7-7.668-12.577-14.881c-3.051-5.68-4.122-12.7-4.122-19.809c0-12.49,3.302-25.233,4.986-31.437
			c-0.991,2.085-2.217,4.942-3.129,7.376c-4.346,11.596-6.522,22.209-6.522,31.758c0,8.167,1.59,15.558,4.774,22.123
			c3.146,6.484,7.643,11.748,12.406,14.592c1.755-6.039,12.232-9.943,17.827-10.754c0.741-0.793,3.962-8.262,4.525-9.846
			C41.611,57.738,32.938,42.627,30.602,26.045c-0.222-1.579-0.31-3.478-0.31-5.499c0-5.353,0.617-11.536,1.004-14.892
			C30.331,7.355,28.791,10.632,27.552,14.752z"/>
		<path fill="#00549E" d="M7.761,19.14L7.761,19.14c-0.185,6.004,1.372,12.908,4.754,21.106
			c5.356,12.977,17.214,21.714,29.228,29.222l0.529,0.332l-0.45,0.432c-1.895,1.822-6.603,9.098-6.815,9.689l-0.154,0.432
			l-0.445-0.121c-5.152-1.52-10.386-5.156-15.996-11.125C6.636,56.584,5.992,31.177,5.992,20.404c0-0.38,0.002-0.685,0.003-1.026
			c-0.415,2.271-0.863,5.351-1.114,7.94c-0.393,4.021-0.588,7.882-0.588,11.58c0,17.327,4.299,31.058,12.83,40.921
			c4.709,5.445,10.408,9.363,15.739,10.881c0.141-6.283,9.266-12.762,14.458-14.992c0.512-0.957,1.692-9.02,1.826-10.68
			c-16.69-7.996-28.975-20.353-35.519-35.767c-2.26-5.325-3.92-15.281-4.602-19.875C8.533,11.277,7.892,14.84,7.761,19.14z"/>
	</g>
	<rect x="163.593" y="26.765" fill="#5C6F7C" width="1" height="53.106"/>
</g>
</svg>
