<?xml version="1.0" encoding="utf-8"?>
<!-- Generator: Adobe Illustrator 25.2.0, SVG Export Plug-In . SVG Version: 6.00 Build 0)  -->
<svg version="1.1" id="Calque_1" xmlns="http://www.w3.org/2000/svg" xmlns:xlink="http://www.w3.org/1999/xlink" x="0px" y="0px"
	 viewBox="0 0 242 33.9" style="enable-background:new 0 0 242 33.9;" xml:space="preserve">
<style type="text/css">
	.st0{fill:#FFBC22;}
</style>
<g>
	<path class="st0" d="M74.5,12.3l5.1-11.5h-7.2L61.2,25.9h-4.7c-0.8,0-1.1-0.9-0.8-1.7c0.6-1.4,5.6-12.3,5.6-12.3h-7.8
		c0,0-6.2,13.8-6.3,14.1h-2.8c-0.9,0-1.4-0.8-1-1.8c0.5-1.3,5.6-12.3,5.6-12.3h-7.7l-5.9,13.2c0,0.1-0.2,0.4-0.3,0.9
		c0,0-17.7,0-21.8,0c-3.3,0-5.6-2.9-4.2-5.6c4.3-8.9,15.6-13.3,19.5-13c1.7,0.1,1.4,1.6,0.2,3.2c-0.3,0.4,0.1,0.8,0.3,0.8h7.3
		c3-4.5,2.7-12-6.7-11.2C14.1,1.6,0.9,14.2,1,23.9c0.1,4.6,4.8,9.3,10.6,9.3h23.6l1-2.4c0.7,1.1,2.2,2.4,4.3,2.4h6.6
		c0,0,0.9-1.9,1.2-2.5c0.6,0.8,2,2.5,4.3,2.5h12.7l0.7-1.4c4.5,3.6,13.3,2.7,17.3-7.2C86,18,82.1,10.7,74.5,12.3z M77.3,21.2
		c-0.2,2.2-3.5,7.7-8.5,5.1c-0.3-0.2-0.2-0.7-0.1-0.9c0.3-0.7,2.7-6.3,3.1-7.1c0.1-0.1,0.2-0.1,0.4-0.2
		C74.1,17.3,77.6,17.9,77.3,21.2z"/>
	<path class="st0" d="M230.9,29.5c0-0.7-0.4-1-1.2-1h-1.3v3.4h0.5v-1.5h0.5l0.9,1.5h0.6l-1-1.5C230.5,30.4,230.9,30.1,230.9,29.5z
		 M229.5,30h-0.5V29h0.7c0.4,0,0.8,0.1,0.8,0.5C230.4,30,230,30,229.5,30z"/>
	<path class="st0" d="M229.5,27.3c-1.6,0-3,1.3-3,2.9c0,1.7,1.4,2.9,3,2.9c1.6,0,2.9-1.3,2.9-2.9C232.5,28.6,231.2,27.3,229.5,27.3z
		 M229.5,32.8c-1.4,0-2.4-1.1-2.4-2.5s1-2.5,2.4-2.5c1.4,0,2.4,1.1,2.4,2.5C231.9,31.7,230.9,32.8,229.5,32.8z"/>
	<path class="st0" d="M210.8,23.7c0.4-1.3,5.7-12.8,5.7-12.8s11.1,0,11.3,0c0.3,0,0.7-0.2,0.8-0.5c0.1-0.1,2.5-5.4,2.5-5.4h-12.4
		l1.7-4.2h-7.5c0,0-1.6,3.6-1.6,3.6c-0.1,0.2-0.3,0.5-1,0.5c-0.2,0-3.9,0-3.9,0l-2.6,5.9h5.1l-6.5,15c0,0-10.2,0-14.5,0
		c-0.3-0.1-3,0.2-3.1-2.1h13.4c0.7,0,1.2-0.4,1.5-0.9c1.7-3.6,1.3-9.1-3.9-10.9c-4.1-1.3-10.3,0-13.9,3.9c-2.2,2.3-4.6,6.4-4.6,10
		h-3.6c-1.5,0-1.9-1.1-1.4-2.2c0.5-1.1,10.1-22.9,10.1-22.9H175l-5.7,12.5C165,10,151,13.4,150.8,26h-4c-1.4,0-1.7-1.1-1.3-2.2
		c0.5-1.1,5.3-11.8,5.3-11.8h-7.6l-0.7,1.5c-6-3.9-18.6,1.3-18.8,12.5c-0.4,0-17,0-20.5,0c-3.3,0-5.6-2.9-4.2-5.6
		c4.3-8.9,15.6-13.3,19.5-13c1.7,0.1,1.4,1.6,0.2,3.2c-0.3,0.4,0.1,0.8,0.3,0.8h7.3c3-4.5,2.7-12-6.7-11.2
		c-15.8,1.4-29,14-28.9,23.8c0.1,4.6,4.7,9.1,10.5,9.3h23.7l0.9-2.2c4.5,4.4,10,2.1,11.8-0.6c0.8,1.7,3.2,2.8,4.4,2.8h8.9l1.3-3
		c3.8,5.1,9.9,3.6,12.1,0.2c1.1,1.9,3.1,2.8,4.1,2.8h9.8l1.1-2.7c2,2.6,4.5,2.7,5,2.7H202l1-2.3c0.5,0.9,2.6,2.3,4.9,2.3
		c2.3,0,13.6,0,13.6,0l3.1-7.2h-12.7C210.6,26,210.4,25,210.8,23.7z M186,19.4c1.6-2.7,6.9-4,8.2-1c0.1,0.2,0.2,0.7,0.1,1
		c0,0.1,0,0.3-0.2,0.3c-0.1,0-7.9,0-7.9,0S185.8,19.7,186,19.4z M140.5,19c-0.8,1.7-2.6,5.8-3.2,7.1c-1.7,1.1-5.7,0.5-5.4-3
		c0.2-2.2,3.5-7.7,8.5-5.1C140.7,18.3,140.7,18.8,140.5,19z M167.2,19c-0.8,1.7-2.6,5.8-3.2,7.1c-1.7,1.1-5.7,0.5-5.4-3
		c0.2-2.2,3.5-7.7,8.5-5.1C167.4,18.3,167.3,18.8,167.2,19z"/>
</g>
</svg>
