<?xml version="1.0" encoding="UTF-8"?>
<svg id="Ebene_1" data-name="Ebene 1" xmlns="http://www.w3.org/2000/svg" width="120.87" height="80" viewBox="0 0 120.87 80">
  <path d="M0,34.23v12.76H58.92v-12.76H0Zm8.89,11.12c-2.76,0-5.09-1.7-5.09-4.74s2.32-4.74,5.09-4.74c0,0,0,0,0,0h0s0,0,0,0c1.52,0,2.9,.52,3.84,1.49l-1.5,1.27c-.57-.62-1.42-.95-2.35-.95-1.67,0-3.07,1.05-3.07,2.94s1.4,2.94,3.07,2.94c1.01,0,1.92-.39,2.48-1.11l1.6,1.17c-.94,1.14-2.43,1.75-4.08,1.75Zm14.23-.3h-2.26l-4-8.88h2.17l2.97,6.41,3.02-6.41h2.24l-4.13,8.88Zm15.44-4.5c0,3.19-1.72,4.71-4.12,4.71s-3.68-1.75-3.95-3.06l1.71-.42c.39,1.35,1.48,1.67,2.15,1.67,.96,0,2.18-.72,2.18-2.3v-3.3h-4.25v-1.69h6.29v4.38Zm15.95,4.52h-2.04v-5.72l-2.77,3.62h-.64l-2.77-3.62v5.72h-2.04v-8.89h1.93l3.21,4.19,3.21-4.19h1.93v8.89Z" style="fill: #fff;"/>
  <g>
    <path d="M114.87,41.35c.41,0,.71-.29,.71-.87,0-.55-.3-.84-.71-.84s-.71,.28-.71,.84,.3,.87,.71,.87Z" style="fill: #fff;"/>
    <path d="M105.61,39.78c-.48,0-.9,.33-1.01,1.02h1.88c0-.6-.25-1.02-.87-1.02Z" style="fill: #fff;"/>
    <path d="M99.87,39.86c-.32,0-.6,.15-.89,.47v2.13c.27,.25,.57,.34,.83,.34,.54,0,.97-.46,.97-1.53,0-.93-.28-1.41-.9-1.41Z" style="fill: #fff;"/>
    <path d="M115.39,44.13h-.54c-.36,0-.57-.02-.74-.06-.19,.17-.28,.33-.28,.51,0,.39,.46,.6,1.16,.6s1.2-.28,1.2-.64c0-.33-.28-.41-.8-.41Z" style="fill: #fff;"/>
    <path d="M63.17,34.24v12.76h57.7v-12.76H63.17Zm14.83,2.24c.43,0,.73,.31,.73,.72s-.3,.74-.73,.74-.73-.32-.73-.74,.3-.72,.73-.72Zm-2.08,0c.43,0,.73,.31,.73,.72s-.3,.74-.73,.74-.73-.32-.73-.74,.3-.72,.73-.72Zm-2.73,7.45h-1.45v-2.51c0-.67,.13-1.67,.2-2.33h-.04l-.56,1.59-1.06,2.66h-.62l-1.05-2.66-.55-1.59h-.04c.07,.66,.2,1.66,.2,2.33v2.51h-1.43v-6.85h1.64l1.14,3.08,.41,1.2h.04l.41-1.2,1.11-3.08h1.64v6.85Zm6.07,0h-1.26l-.12-.73h-.03c-.44,.53-.92,.85-1.64,.85-1.13,0-1.62-.8-1.62-2.1v-3.23h1.54v3.03c0,.75,.2,.99,.65,.99,.39,0,.62-.17,.92-.58v-3.44h1.54v5.21Zm6.03,0h-1.54v-3.03c0-.76-.2-.99-.64-.99-.39,0-.63,.18-.97,.5v3.52h-1.54v-5.21h1.26l.1,.66h.04c.44-.42,.97-.79,1.67-.79,1.13,0,1.62,.8,1.62,2.1v3.23Zm3.56,.13c-1.45,0-2.57-1-2.57-2.73s1.27-2.73,2.71-2.73c.64,0,1.18,.24,1.52,.6l-.7,.96c-.25-.21-.48-.3-.72-.3-.75,0-1.22,.58-1.22,1.48s.49,1.48,1.17,1.48c.38,0,.68-.18,.93-.38l.62,.98c-.5,.44-1.17,.65-1.73,.65Zm7.31-.13h-1.54v-3.03c0-.76-.2-.99-.64-.99-.39,0-.63,.18-.97,.5v3.52h-1.54v-7.36h1.54v1.81l-.07,.93c.39-.35,.9-.71,1.61-.71,1.13,0,1.62,.8,1.62,2.1v3.23Zm4.01,.13c-.46,0-.95-.23-1.35-.67h-.04l-.13,.55h-1.21v-7.36h1.54v1.81l-.04,.8c.4-.36,.89-.58,1.38-.58,1.26,0,2.05,1.04,2.05,2.63,0,1.8-1.07,2.82-2.19,2.82Zm7.57-2.31h-3.12c.14,.79,.66,1.13,1.35,1.13,.39,0,.75-.12,1.12-.35l.51,.93c-.54,.37-1.23,.59-1.85,.59-1.49,0-2.63-1.01-2.63-2.73s1.21-2.73,2.46-2.73c1.48,0,2.22,1.08,2.22,2.5,0,.27-.03,.52-.06,.65Zm4.37-1.71c-.19-.05-.35-.08-.57-.08-.39,0-.87,.25-1.14,.96v3.02h-1.54v-5.21h1.26l.1,.91h.04c.38-.7,.95-1.04,1.48-1.04,.29,0,.47,.04,.62,.1l-.25,1.33Zm2.66,6.11c-1.22,0-2.18-.4-2.18-1.32,0-.43,.26-.78,.75-1.05v-.04c-.27-.18-.48-.45-.48-.88,0-.38,.25-.75,.59-.98v-.04c-.37-.25-.7-.75-.7-1.35,0-1.25,1.03-1.88,2.15-1.88,.29,0,.58,.04,.81,.13h1.9v1.12h-.83c.09,.16,.17,.41,.17,.68,0,1.2-.9,1.75-2.05,1.75-.19,0-.4-.03-.63-.1-.14,.12-.19,.21-.19,.39,0,.26,.21,.39,.79,.39h.84c1.28,0,1.98,.39,1.98,1.32,0,1.08-1.12,1.87-2.91,1.87Z" style="fill: #fff;"/>
  </g>
  <g>
    <polygon points="16.64 33.29 14.73 29.99 44.19 29.99 42.28 33.29 52.1 33.29 58.92 21.49 0 21.49 6.82 33.29 16.64 33.29" style="fill: #fff;"/>
    <polygon points="33.69 48.16 29.46 55.5 25.22 48.16 15.4 48.16 29.46 72.51 43.52 48.16 33.69 48.16" style="fill: #fff;"/>
  </g>
</svg>