<?xml version="1.0" encoding="UTF-8"?> <svg xmlns="http://www.w3.org/2000/svg" id="Layer_1" data-name="Layer 1" viewBox="0 0 766 225"><defs><style>.cls-1{fill:#1f4e79;}.cls-2{fill:#46d088;}.cls-3{fill:#22af61;opacity:0.8;}</style></defs><title>1.2 Main logo Alt lockup</title><path class="cls-1" d="M256.69,162.3V87.79h26.69c21.22,0,36.78,13.77,36.78,37.3S304.5,162.3,283.27,162.3Zm26.06-13.46c12.19,0,22.38-7.56,22.38-23.75S295,101.24,282.85,101.24H271.19v47.6Z"></path><path class="cls-1" d="M332.77,162.3V87.79h47.08v13.77H347.27V120h29v13.34h-28.9v29Z"></path><path class="cls-1" d="M413.37,125.09c0-23.74,18-38.88,37.93-38.88,20.6,0,31.21,12.61,34.16,24.7l-13.67,4.31c-1.78-7.15-7.56-15-20.49-15-11.14,0-22.91,8-22.91,24.9,0,15.87,11.14,24.6,23.12,24.6,12.72,0,18.92-8.31,20.91-15.24l13.56,4.1c-2.84,11.45-13.56,25.32-34.47,25.32S413.37,148.84,413.37,125.09Z"></path><path class="cls-1" d="M507.84,132.56l12.71-1.89c2.94-.43,3.89-1.9,3.89-3.68,0-3.68-2.84-6.73-8.72-6.73-6.1,0-9.46,3.89-9.88,8.41L493.44,126c.84-8.09,8.3-17,22.17-17,16.4,0,22.49,9.24,22.49,19.65V154.1a58.82,58.82,0,0,0,.63,8.2H525.91a35.66,35.66,0,0,1-.52-6.2c-2.63,4.09-7.57,7.67-15.24,7.67-11,0-17.76-7.46-17.76-15.56C492.39,139,499.22,133.82,507.84,132.56Zm16.6,8.82v-2.31l-11.66,1.79c-3.58.52-6.41,2.52-6.41,6.51,0,3,2.2,6,6.72,6C519,153.36,524.44,150.53,524.44,141.38Z"></path><path class="cls-1" d="M552.18,182.26V110.59h13.56v6.31c2.31-4,8.09-7.46,15.87-7.46,15.13,0,23.85,11.56,23.85,26.9,0,15.66-9.77,27.22-24.38,27.22-7.15,0-12.4-2.84-14.92-6.31v25Zm26.69-60.32c-7.14,0-12.92,5.36-12.92,14.5s5.78,14.61,12.92,14.61,12.82-5.36,12.82-14.61S586,121.94,578.87,121.94Z"></path><path class="cls-1" d="M623.43,85a8.62,8.62,0,1,1-8.62,8.72A8.62,8.62,0,0,1,623.43,85Zm-6.94,77.35V110.59h14V162.3Z"></path><path class="cls-1" d="M662.63,110.59H673V123h-10.4v21.65c0,4.52,2.1,6,6.09,6a20.36,20.36,0,0,0,4.31-.42v11.56a20.62,20.62,0,0,1-7.88,1.26c-10.09,0-16.4-6-16.4-16V123H639.4v-12.4H642c5.46,0,8-3.57,8-8.19V95.15h12.61Z"></path><path class="cls-1" d="M697.51,132.56l12.72-1.89c2.94-.43,3.89-1.9,3.89-3.68,0-3.68-2.84-6.73-8.73-6.73-6.09,0-9.45,3.89-9.87,8.41L683.11,126c.85-8.09,8.31-17,22.18-17,16.39,0,22.49,9.24,22.49,19.65V154.1a57.33,57.33,0,0,0,.63,8.2H715.59a34.62,34.62,0,0,1-.53-6.2c-2.63,4.09-7.57,7.67-15.24,7.67-11,0-17.76-7.46-17.76-15.56C682.06,139,688.89,133.82,697.51,132.56Zm16.61,8.82v-2.31l-11.67,1.79c-3.57.52-6.41,2.52-6.41,6.51,0,3,2.21,6,6.73,6C708.65,153.36,714.12,150.53,714.12,141.38Z"></path><path class="cls-1" d="M741.86,162.3V86.21h14V162.3Z"></path><path class="cls-2" d="M192,14.4a126.17,126.17,0,0,0-126,126H66v69.39h69.49V140.16s0-.07,0-.1A56.49,56.49,0,0,1,191.1,84H192V14.4ZM66.05,208.86c0-.13,0-.28,0-.43v-.05c0-.12,0-.26,0-.39C66.06,208.32,66.05,208.62,66.05,208.86Zm0-1.1h0c0-.17,0-.35,0-.55v0Q66.1,207.48,66.08,207.76Zm.06-1.16c0-.07,0-.14,0-.21v0C66.15,206.44,66.14,206.52,66.14,206.6Zm.07-1.28h0a2.83,2.83,0,0,0,0-.29C66.23,205.12,66.22,205.22,66.21,205.32Zm.16-2.11h0l.06-.78C66.41,202.69,66.39,203,66.37,203.21Zm.09-1.15v0l.06-.73C66.51,201.56,66.48,201.81,66.46,202.06Zm.12-1.27v0c0-.15,0-.32,0-.49C66.62,200.45,66.6,200.62,66.58,200.79Zm.4-3.63c0-.14,0-.26,0-.4v0C67,196.88,67,197,67,197.16Zm.19-1.46.06-.48v-.05C67.21,195.35,67.19,195.52,67.17,195.7Zm.1-.78h0c0-.19.06-.39.08-.58C67.33,194.52,67.3,194.72,67.27,194.92ZM67.7,192s0-.07,0-.11h0A.36.36,0,0,0,67.7,192Zm.66-4v0c.08-.46.17-.93.25-1.4C68.53,187.06,68.45,187.53,68.36,188Zm.84-4.35.24-1.14v0C69.37,182.87,69.29,183.26,69.2,183.65Zm.31-1.44v0c.12-.51.23-1,.35-1.55C69.74,181.16,69.62,181.69,69.51,182.21Zm.45-2v0c.13-.57.27-1.16.41-1.74h0Zm1.91-7.5.21-.75v0Zm.29-1.05v0c.07-.25.15-.51.23-.77Zm1.36-4.48h0c.14-.44.28-.88.43-1.32C73.81,166.26,73.66,166.71,73.52,167.15Zm.75-2.27v0l.69-2h0C74.73,163.53,74.49,164.2,74.27,164.88Zm1.1-3.15.43-1.2v0Zm2.36-6.12v0c.25-.59.5-1.19.76-1.78C78.24,154.41,78,155,77.73,155.61Zm1-2.34v0c.31-.73.63-1.45,1-2.17C79.37,151.81,79,152.54,78.73,153.27Zm2.15-4.71v0c.13-.28.28-.56.41-.84Zm3.64-7-.41.76.41-.75h0l0,0v0Zm66.34-84.41.47-.76.31-.43Zm40.25-42h0l.19-.13Z"></path><path class="cls-3" d="M9.52,83.8v69.57l.85,0A56.49,56.49,0,0,1,66,209.45c0,.12,0,.24,0,.36h69.58A126.16,126.16,0,0,0,9.52,83.8Z"></path></svg> 