<?xml version="1.0" encoding="UTF-8"?>
<svg id="Logo_Best_Lunch" xmlns="http://www.w3.org/2000/svg" version="1.1" xmlns:xlink="http://www.w3.org/1999/xlink" viewBox="0 0 820 801">
  <!-- Generator: Adobe Illustrator 29.8.4, SVG Export Plug-In . SVG Version: 2.1.1 Build 6)  -->
  <defs>
    <style>
      .st0 {
        fill: #111;
      }

      .st1 {
        fill: #81c105;
      }

      .st2 {
        fill: #ff220e;
      }

      .st3 {
        fill: #fff;
      }

      .st4 {
        fill: url(#Dégradé_sans_nom_81);
      }

      .st5 {
        fill: url(#Dégradé_sans_nom_83);
      }

      .st6 {
        display: none;
      }

      .st7 {
        fill: url(#Dégradé_sans_nom_85);
      }

      .st8 {
        fill: url(#Dégradé_sans_nom_82);
      }

      .st9 {
        fill: url(#Dégradé_sans_nom_84);
      }

      .st10 {
        fill: url(#Dégradé_sans_nom_8);
      }
    </style>
    <linearGradient id="Dégradé_sans_nom_8" data-name="Dégradé sans nom 8" x1="279.2" y1="536.8" x2="528.6" y2="624.5" gradientUnits="userSpaceOnUse">
      <stop offset="0" stop-color="#f72717"/>
      <stop offset="1" stop-color="#ff007d"/>
    </linearGradient>
    <linearGradient id="Dégradé_sans_nom_81" data-name="Dégradé sans nom 8" x1="287.7" y1="512.6" x2="537.1" y2="600.3" xlink:href="#Dégradé_sans_nom_8"/>
    <linearGradient id="Dégradé_sans_nom_82" data-name="Dégradé sans nom 8" x1="294.2" y1="494" x2="543.6" y2="581.7" xlink:href="#Dégradé_sans_nom_8"/>
    <linearGradient id="Dégradé_sans_nom_83" data-name="Dégradé sans nom 8" x1="302.7" y1="469.9" x2="552.1" y2="557.6" xlink:href="#Dégradé_sans_nom_8"/>
    <linearGradient id="Dégradé_sans_nom_84" data-name="Dégradé sans nom 8" x1="550.3" y1="335.9" x2="734.4" y2="400.7" xlink:href="#Dégradé_sans_nom_8"/>
    <linearGradient id="Dégradé_sans_nom_85" data-name="Dégradé sans nom 8" x1="137.4" y1="343.2" x2="232.2" y2="376.5" xlink:href="#Dégradé_sans_nom_8"/>
  </defs>
  <circle class="st3" cx="410" cy="400" r="346"/>
  <g id="Txt">
    <g>
      <path class="st10" d="M286.3,582.6c0-15.8,4.7-26,18.3-35,8.9-6,19.9-10,19.9-16.1s-5.9-8.3-11.6-8.3-13.7,1.7-20.1,4.9l-5.4-12.5c7.9-4.5,17.6-6.6,26.7-6.6,15,0,29.5,5,29.5,21.7s-5.6,16-15.2,20.6c-11.4,5.6-22.2,8.8-23.3,16.8h37.4l-2.5,14.4h-53.9Z"/>
      <path class="st4" d="M384.5,509.2c19,0,33.6,14.4,33.6,37.4s-14.5,37.4-33.6,37.4-33.4-14.4-33.4-37.4,14.4-37.4,33.4-37.4ZM384.5,569c9.8,0,15.3-9.5,15.3-22.3s-5.4-22.3-15.3-22.3-15.2,9.6-15.2,22.3,5.4,22.3,15.2,22.3Z"/>
      <path class="st8" d="M423,582.6c0-15.8,4.7-26,18.3-35,8.9-6,19.9-10,19.9-16.1s-5.9-8.3-11.6-8.3-13.7,1.7-20.1,4.9l-5.4-12.5c7.9-4.5,17.6-6.6,26.7-6.6,15,0,29.5,5,29.5,21.7s-5.6,16-15.2,20.6c-11.4,5.6-22.2,8.8-23.3,16.8h37.4l-2.5,14.4h-53.9Z"/>
      <path class="st5" d="M516.6,583.8c-11.8,0-19-1.8-28.2-4.9l4-13.3c5.7,2.2,11.2,4.7,20.4,4.6,9.1-.2,15.3-4.7,15.3-13.1s-5.1-10.2-10.8-10.2-9.2,2.7-10.9,4.7h-14.9l2.2-41.3h48.1l.3,13.8h-34.7l-.7,15.3c4.8-3.4,10.1-5,16.5-5,14.4,0,23.9,8.7,23.9,23.2s-14.1,26.3-30.4,26.3Z"/>
    </g>
    <g>
      <path d="M281.9,318.7c4.7,2.6,9.4,4.1,14.4,4.1s8.4-1.7,8.4-6.3-4.3-6.3-8.2-8.1l-6.3-2.8c-7-3.2-11.6-7-11.6-14.1s9-14.1,19.3-14.1,11.4,1.3,17.1,3.8l-3.7,8.7c-4.1-2.8-8.6-3.8-12.7-3.8s-8.5,1-8.5,5.2,4.4,5.2,8,6.9l6.1,2.8c7.5,3.6,12.1,7.5,12.1,15.4s-9,15.1-19.8,15.1-12.2-1.1-18.2-3.9l3.8-8.9Z"/>
      <path d="M348.7,291.6h9.8v23.8c0,10.9-7.6,16-18.2,16s-18.2-5.1-18.2-16v-23.8h9.8v21.7c0,5.9,2.6,9.5,8.4,9.5s8.4-3.6,8.4-9.5v-21.7Z"/>
      <path d="M385.8,291.1c12,0,21.6,7.3,21.7,20.1,0,13-9.6,20.1-21.7,20.1s-21.8-7.2-21.8-20.1,10.1-20.1,21.8-20.1ZM385.8,322.8c6.6,0,11.4-4.4,11.3-11.6,0-7.1-4.8-11.6-11.3-11.6-6.3,0-11.4,4.5-11.4,11.6s4.8,11.6,11.4,11.6Z"/>
      <path d="M443.2,299.4c2.1-5.8,8.3-8.3,14.1-8.3,9.8,0,16,5.5,16,15.5v24h-9.8v-21.8c0-5.6-2.4-9.3-7.7-9.3s-7.8,3.4-7.8,9.2v21.8h-9.6v-21.8c0-5.8-2.4-9.2-7.8-9.2s-7.7,3.8-7.7,9.3v21.8h-9.8v-24c0-10.1,6.1-15.5,16-15.5s11.7,2.4,13.8,8.3h.2Z"/>
      <path d="M511,329.5c-2.9,1.3-6.6,1.9-10.4,1.9-12.7,0-21.7-7.8-21.7-20.5s8.3-19.8,20.6-19.8,20.6,9,20.4,22.4h-30.2c.9,7.3,7.1,10.3,13.1,10.3s6.1-.7,8.9-2.1l-.7,7.8ZM489.5,306.7h19.8c-.7-5.3-4.4-8.4-9.6-8.4s-9.1,3.5-10.2,8.4Z"/>
      <path d="M551.7,309.2c0-5.9-2.6-9.5-8.4-9.5s-8.4,3.6-8.4,9.5v21.5h-9.8v-23.5c0-10.9,7.6-15.9,18.2-15.9s18.2,5,18.2,15.9v23.5h-9.8v-21.5Z"/>
      <path d="M210.8,353.4c11,0,16.2,7.8,16.2,16.7s-5.6,16.7-17.2,16.7h-10.4c-4.3,0-5.4-2-6.4-3.7v22.6h-10.6v-52.2h28.5ZM192.9,373.3c0,2.9,1.7,4.7,6,4.7h8.3c5.8,0,8.4-3.4,8.4-8s-3.2-8-8.1-8h-14.6v11.2Z"/>
      <path d="M272.2,405.6h-9.6v-5.5c-3.3,3.8-8.4,6.1-14,6.1-11.2,0-19.9-7.7-19.9-19.8s8.8-20.4,21.7-20.4,21.8,8.3,21.8,20.9v18.6ZM250.3,374.6c-6.9,0-11.4,5.2-11.4,11.6s4.4,11.6,11.4,11.6,11.5-4.7,11.5-11.6-4.6-11.6-11.5-11.6Z"/>
      <path d="M300.5,375.6c-.6-.3-2.5-.9-4.4-.9-5.7,0-7.2,3.6-7.2,9.5v21.5h-9.8v-23.5c0-11.8,7.2-16,16.7-16s5.7.8,6.7,1l-2,8.5Z"/>
      <path d="M346.8,405.6h-9.6v-5.5c-3.3,3.8-8.4,6.1-14,6.1-11.2,0-19.9-7.7-19.9-19.8s8.8-20.4,21.7-20.4,21.8,8.3,21.8,20.9v18.6ZM324.9,374.6c-6.9,0-11.4,5.2-11.4,11.6s4.4,11.6,11.4,11.6,11.5-4.7,11.5-11.6-4.6-11.6-11.5-11.6Z"/>
      <path d="M354.3,395.6c3.6,2,7.3,3.3,11.2,3.3s5.4-1,5.4-4-3-4.1-6.9-5.8l-2.5-1.2c-5.1-2.3-9.9-4.9-9.9-11s6.9-10.7,14.8-10.7,9.5,1,14,3l-3.1,7.6c-3.2-2.1-7.1-3.3-10.2-3.3s-5.3.7-5.3,3.2,3.3,3.3,6.7,4.9l2.5,1.2c5.5,2.5,10.3,5.5,10.3,12.1s-7.3,11.5-15.5,11.5-9.7-.8-14.3-3l2.9-7.8Z"/>
      <path d="M425,405.6c-7.8,0-13.3-4.4-13.3-12.3v-40h10.6v37.6c0,3.6,1.6,5.7,5.4,5.7h20.2l-1.5,9h-21.4Z"/>
      <path d="M471.5,366.1c12,0,21.6,7.3,21.7,20.1,0,13-9.6,20.1-21.7,20.1s-21.8-7.2-21.8-20.1,10.1-20.1,21.8-20.1ZM471.5,397.8c6.6,0,11.4-4.4,11.3-11.6,0-7.1-4.8-11.6-11.3-11.6-6.3,0-11.4,4.5-11.4,11.6s4.8,11.6,11.4,11.6Z"/>
      <path d="M525.4,366.6h9.8v23.8c0,10.9-7.6,16-18.2,16s-18.2-5.1-18.2-16v-23.8h9.8v21.7c0,5.9,2.6,9.5,8.4,9.5s8.4-3.6,8.4-9.5v-21.7Z"/>
      <path d="M569.1,384.2c0-5.9-2.6-9.5-8.4-9.5s-8.4,3.6-8.4,9.5v21.5h-9.8v-23.5c0-10.9,7.6-15.9,18.2-15.9s18.2,5,18.2,15.9v23.5h-9.8v-21.5Z"/>
      <path d="M627.9,405.6h-9.6v-5.5c-3.3,3.8-8.4,6.1-14,6.1-11.2,0-19.9-7.7-19.9-19.8s8.8-20.4,21.7-20.4,21.8,8.3,21.8,20.9v18.6ZM606,374.6c-6.9,0-11.4,5.2-11.4,11.6s4.4,11.6,11.4,11.6,11.5-4.7,11.5-11.6-4.6-11.6-11.5-11.6Z"/>
      <path d="M635.5,395.6c3.6,2,7.3,3.3,11.2,3.3s5.4-1,5.4-4-3-4.1-6.9-5.8l-2.5-1.2c-5.1-2.3-9.9-4.9-9.9-11s6.9-10.7,14.8-10.7,9.5,1,14,3l-3.1,7.6c-3.2-2.1-7.1-3.3-10.2-3.3s-5.3.7-5.3,3.2,3.3,3.3,6.7,4.9l2.5,1.2c5.5,2.5,10.3,5.5,10.3,12.1s-7.3,11.5-15.5,11.5-9.7-.8-14.3-3l2.9-7.8Z"/>
    </g>
    <g>
      <path d="M217.3,577c2.7,3.1,1.7,6.5-.7,8.6-2.6,2.2-6,2.5-8.8-.8l-2.8-3.2c-1-1.1-.7-1.9-.6-2.7l-6.7,5.7-2.2-2.5,15-12.9,6.7,7.8ZM207,576.7c-.8.7-1,1.8,0,3l2.3,2.7c1.5,1.8,3.3,1.8,4.8.5,1.9-1.7,1.7-3.2.4-4.7l-3.9-4.6-3.6,3.1Z"/>
      <path d="M236.4,596.1c4.6,4.2,5.3,9.9.9,14.7-4.5,4.8-10.2,4.5-14.8.3-4.5-4.2-5.4-9.9-.9-14.7,4.5-4.8,10.2-4.5,14.7-.3ZM224.6,608.9c3.2,3,7.1,2.5,10-.6,2.8-3,3.1-7-.2-10-3.2-3-7.1-2.4-9.9.6-2.8,3-3.1,7,.2,10Z"/>
      <path d="M251.5,609.9l2.9,2.1-5.3,14.9,12.1-10,2.6,1.9-5.4,14.8,12.1-10,2.6,1.9-16.2,12.7-2.8-2,5.2-14.3-11.8,9.6-2.7-1.9,6.5-19.6Z"/>
      <path d="M277.6,650.6c-2.5-1.4-3.5-3.7-2.1-6.2l7.4-13.4,11.9,6.6-1.8,2.2-8.5-4.7-2.8,5,7.6,4.2-1.7,2.1s-.6-.3-7.2-4l-1.7,3.1c-.7,1.2-.5,2.3.8,3l6.9,3.8-1.8,2.2-7.1-3.9Z"/>
      <path d="M315.1,646.9c3.9,1.7,4.5,5.2,3.4,7.9-1.2,2.9-4.3,4.3-6.8,3.2,2.5,1.7,1.9,4.2,1.8,6.7,0,1,.1,2.4.3,3.1l-3.7-1.6c-.2-.4-.3-1.3-.2-2.3.1-3.1.7-5.5-2.4-6.8l-1.6-.7c-1.6-.7-1.5-1.4-1.6-2.1l-3.4,8-3.1-1.3,7.7-18.2,9.6,4.1ZM305.6,651.2c-.4,1-.1,2,1.4,2.7l3.5,1.5c2.1.9,3.8,0,4.5-1.8,1-2.3,0-3.7-1.9-4.6l-5.5-2.4-1.9,4.6Z"/>
      <path d="M330.9,673.6c-2.8-.9-4.1-2.9-3.3-5.7l4.5-14.6,13,4-1.3,2.5-9.3-2.9-1.7,5.5,8.3,2.6-1.3,2.4s-.6-.2-7.9-2.4l-1,3.3c-.4,1.4,0,2.3,1.4,2.8l7.6,2.3-1.3,2.5-7.7-2.4Z"/>
      <path d="M357.4,680.7c-3.1-.6-4.4-2.7-3.9-5.5l2.9-14.9,10.1,2c5.7,1.1,8,6.2,7,11.4-1,5.3-5,9.1-10.8,7.9l-5.3-1ZM362.5,678.8c4.1.8,6.7-2.2,7.4-5.8.7-3.5-.6-7.3-4.6-8.1l-6-1.2-2.4,11.9c-.3,1.4.3,2.2,1.8,2.4l3.8.7Z"/>
      <path d="M413.9,667.1c3.8,0,5.8,1.7,5.8,5.2,0,2-.9,3.8-2.9,4.1,2.8.4,3.9,2.4,3.9,5,0,3.9-2.5,5.6-6.5,5.5h-4.4c-3.2-.1-4.8-1.9-4.8-4.7l.2-15.2h8.7ZM408.4,681.9c0,1.4.7,2.1,2.2,2.1h3.2c2.1,0,3.3-.9,3.4-3,0-2.2-1-3-3.1-3h-3.3c-1.3,0-1.8-.6-2.2-1.4v5.3ZM408.5,673.5c0,1.1.6,1.9,2,2h2.3c2.1,0,3.3-.8,3.3-2.8,0-2.4-1.3-2.8-3.1-2.8h-4.4c0,0,0,3.6,0,3.6Z"/>
      <path d="M431.8,666.7l3.3-.3.5,6.2c.2,2.3,1.7,3.3,3.9,3.1,2.3-.2,3.5-1.5,3.3-3.6l-.5-6.2,3.2-.3.6,6.8c.3,3.2-1.4,5.2-4.6,5.8l.6,7.5-3.4.3-.6-7.4c-3.4,0-5.5-1.7-5.8-5.2l-.6-6.7Z"/>
      <path d="M485,678.5c-2.8.7-5.1-.3-5.8-3.2l-3.8-14.8,13.2-3.3.2,2.8-9.4,2.4,1.4,5.6,8.4-2.1.2,2.7s-.7.2-8,2l.9,3.4c.3,1.4,1.1,2,2.6,1.6l7.7-1.9.2,2.8-7.8,2Z"/>
      <path d="M511.3,670.6c-3,1.1-5.2,0-6.1-2.7l-5.2-14.2,9.6-3.5c5.5-2,10,1.1,11.9,6.2,1.9,5,.4,10.4-5.1,12.4l-5.1,1.9ZM514.7,666.4c3.9-1.4,4.6-5.4,3.3-8.8-1.2-3.4-4.3-6-8.2-4.5l-5.7,2.1,4.2,11.4c.5,1.3,1.4,1.7,2.8,1.2l3.6-1.3Z"/>
      <path d="M541.9,657.9c-2.6,1.3-5,.7-6.3-1.9l-6.8-13.7,12.2-6,.8,2.7-8.7,4.3,2.5,5.1,7.8-3.9.8,2.6s-.6.3-7.4,3.6l1.5,3.1c.6,1.3,1.5,1.7,2.9,1.1l7.1-3.5.8,2.7-7.3,3.6Z"/>
      <path d="M572.6,640.5l-16.3-7.9,8.2,13-2.6,1.6-10.5-16.7,3.4-2.2,16.1,7.8-8.1-12.8,2.6-1.6,10.5,16.7-3.3,2.1Z"/>
      <path d="M584,607.8c3.4-2.7,6.7-1.5,8.6.8,2,2.5,1.7,5.8-.4,7.5,2.7-1.4,4.6.4,6.8,1.6.9.5,2.2,1,2.9,1.2l-3.1,2.5c-.4,0-1.3-.4-2.2-.9-2.7-1.6-4.5-3.3-7.2-1.1l-1.4,1.1c-1.4,1.1-1.9.6-2.6.4l5.4,6.8-2.6,2.1-12.3-15.5,8.1-6.5ZM583.3,618.2c.7.9,1.7,1.1,3,0l3-2.4c1.8-1.4,1.8-3.3.6-4.8-1.6-2-3.2-1.9-5-.5l-4.7,3.8,3.1,3.9Z"/>
      <path d="M615,606.6c-2.1,2-4.5,2.2-6.6.2l-10.7-10.9,9.7-9.5,1.6,2.4-6.9,6.8,4,4.1,6.2-6.1,1.5,2.3s-.5.5-5.9,5.8l2.4,2.5c1,1,2,1.2,3.1.1l5.7-5.5,1.6,2.4-5.8,5.7Z"/>
      <path d="M633.9,586.5c-2,2.4-4.4,2.6-6.6.8l-11.7-9.6,6.5-7.9c3.7-4.5,9.2-4.1,13.4-.7,4.1,3.4,5.6,8.8,1.9,13.3l-3.4,4.2ZM634.6,581.2c2.6-3.2,1.2-6.9-1.6-9.2-2.8-2.3-6.7-3-9.4.2l-3.9,4.7,9.4,7.7c1.1.9,2.1.7,3-.4l2.5-3Z"/>
    </g>
  </g>
  <g id="Edenred">
    <g>
      <path class="st2" d="M405.8,139.2c-2.6,0-4.3,1.7-4.8,4h9.3c-.3-2.5-2.1-4-4.5-4Z"/>
      <path class="st2" d="M380.9,140.2c-3.3,0-5.4,2.3-5.4,5.5s2.1,5.5,5.4,5.5,5.5-2.3,5.5-5.5-2.2-5.5-5.5-5.5Z"/>
      <path class="st2" d="M448,135c-5,0-8.9,2-9.5,7.2,0,0,0,0,0,0-1.6-23.5-20.1-42-43.9-42s-35,11.6-41.7,28h16l-.8,5.4h-12.5v5.7h11.4l-.9,5.2h-10.5v3.3c0,2,.9,3,2.5,3h10.7l-.9,5.4h-11.9c-.6,0-1.1,0-1.7-.1h0s-2.1-.2-3.3-1.9c0,0-.5-.7-.8-1.7s0-.3-.1-.5c0,.7.2,1.6.3,1.9.4,1.9.8,3.5.9,3.6,5.3,18.9,22.7,32.8,43.3,32.8s38.9-14.5,43.8-34.1h-6.1v-11c0-3-1.1-4.9-4.1-4.9s-4.1,1.9-4.1,4.9v11h-6.1v-12.5c0-6,4.4-8.6,10.1-8.6s10.1,2.7,10.1,8.6v12.5s6.1,0,6.1,0v-11c0-3,.8-4.9,3.7-4.9s2,.3,2.4.5l1.1-5.3c-.7,0-2.4-.4-3.7-.4ZM392.5,144.5c0,7.6-4.5,12-11.9,12s-11.5-4.6-11.5-10.8,4.4-10.8,11-10.8,5.2,1.2,6.3,2.4v-9.2h6.1v16.3ZM407.8,151.9c1.8,0,3.4-.5,5-1.2l-.5,4.8c-1.7.7-3.8,1-5.9,1-7,0-11.9-4.1-11.9-11s4.4-10.5,11.1-10.5,11.4,4.8,11.2,12.3h-15.7c.6,3.4,3.8,4.7,6.6,4.7Z"/>
      <path class="st2" d="M461.7,135c-6.7,0-11.1,4.5-11.1,10.5s4.9,11,11.9,11,4.2-.3,5.9-1l.5-4.8c-1.5.7-3.2,1.2-5,1.2-2.8,0-6.1-1.3-6.6-4.7h15.7c.2-7.4-3.6-12.3-11.2-12.3ZM457.2,143.2c.5-2.3,2.2-4,4.8-4s4.2,1.5,4.5,4h-9.3Z"/>
      <path class="st2" d="M490.9,128.2v9.2c-1.1-1.2-3.3-2.4-6.3-2.4-6.6,0-11,4.3-11,10.8s4.6,10.8,11.5,10.8,11.9-4.4,11.9-12v-16.3h-6.1ZM485.4,151.3c-3.3,0-5.4-2.4-5.4-5.5s2.1-5.5,5.4-5.5,5.5,2.2,5.5,5.5-2.2,5.5-5.5,5.5Z"/>
    </g>
  </g>
  <g id="Stars">
    <path class="st1" d="M419.9,446.1l3.3,10.2h10.8c.7,0,1,.9.4,1.4l-8.7,6.3,3.3,10.2c.2.7-.6,1.3-1.2.8l-8.7-6.3-8.7,6.3c-.6.4-1.4-.1-1.2-.8l3.3-10.2-8.7-6.3c-.6-.4-.3-1.4.4-1.4h10.8s3.3-10.2,3.3-10.2c.2-.7,1.2-.7,1.4,0Z"/>
    <path class="st1" d="M467.9,449.4l2.5,7.7h8.1c.7,0,1,.9.4,1.4l-6.6,4.8,2.5,7.7c.2.7-.6,1.3-1.2.8l-6.6-4.8-6.6,4.8c-.6.4-1.4-.1-1.2-.8l2.5-7.7-6.6-4.8c-.6-.4-.3-1.4.4-1.4h8.1s2.5-7.7,2.5-7.7c.2-.7,1.2-.7,1.4,0Z"/>
    <path class="st1" d="M371.9,449.4l2.5,7.7h8.1c.7,0,1,.9.4,1.4l-6.6,4.8,2.5,7.7c.2.7-.6,1.3-1.2.8l-6.6-4.8-6.6,4.8c-.6.4-1.4-.1-1.2-.8l2.5-7.7-6.6-4.8c-.6-.4-.3-1.4.4-1.4h8.1s2.5-7.7,2.5-7.7c.2-.7,1.2-.7,1.4,0Z"/>
    <path class="st1" d="M503.9,452l1.9,5.8h6.1c.7,0,1,.9.4,1.4l-4.9,3.6,1.9,5.8c.2.7-.6,1.3-1.2.8l-4.9-3.6-4.9,3.6c-.6.4-1.4-.1-1.2-.8l1.9-5.8-4.9-3.6c-.6-.4-.3-1.4.4-1.4h6.1s1.9-5.8,1.9-5.8c.2-.7,1.2-.7,1.4,0Z"/>
    <path class="st1" d="M333.5,451.8l1.9,5.8h6.1c.7,0,1,.9.4,1.4l-4.9,3.6,1.9,5.8c.2.7-.6,1.3-1.2.8l-4.9-3.6-4.9,3.6c-.6.4-1.4-.1-1.2-.8l1.9-5.8-4.9-3.6c-.6-.4-.3-1.4.4-1.4h6.1s1.9-5.8,1.9-5.8c.2-.7,1.2-.7,1.4,0Z"/>
  </g>
  <g id="Fork">
    <g>
      <g id="Shape_29" class="st6">
        <path class="st0" d="M712.6,430.1c2.1,1,3,3.6,1.9,5.7l-56.7,114.5c-1,2.1-3.6,3-5.7,1.9s-3-3.6-1.9-5.7l56.7-114.5c1-2.1,3.6-3,5.7-1.9Z"/>
      </g>
      <path class="st9" d="M688.5,479.5c7.2-25.3,11-51.6,11-78,0-40.4-8.4-79.5-24.8-116.1-15.9-35.3-38.6-66.5-67.3-92.8-1.8-1.7-4.7-1.5-6.4.3-1.7,1.8-1.5,4.7.3,6.4,56.7,51.8,89.2,125.5,89.2,202.2s-3.6,50.9-10.5,75.2c-8.9-.9-17.8,3.8-21.6,12.4l-15.7,35c-1,2.1,0,4.7,2.1,5.6,2.1,1,4.7,0,5.6-2.1l15.7-35c2.1-4.6,6.6-7.4,11.3-7.5-5.1,16-11.7,31.4-19.6,46.2-1.2,2.2-.4,4.9,1.8,6.1.7.4,1.4.5,2.1.5,1.6,0,3.2-.9,4-2.4,8.2-15.2,14.9-31.1,20.2-47.5,4.3,3.6,5.9,9.7,3.5,15.1l-15.7,35c-1,2.1,0,4.7,2.1,5.6s4.7,0,5.6-2.1l15.7-35c4.5-10,.6-21.7-8.7-27.1Z"/>
    </g>
  </g>
  <g id="Knife">
    <path class="st7" d="M231.8,193.3c-.6-.6-1.2-.9-1.9-1.2,0,0-.1,0-.2-.1-.9-.4-1.6-.3-2.1,0-.7.2-1.4.5-2,1-28.6,26.2-51.1,57.4-66.9,92.6-16.4,36.5-24.7,75.4-24.7,115.7s11.8,93.7,34.1,134.8c.8,1.5,2.4,2.4,4,2.4s1.5-.2,2.1-.5c2.2-1.2,3-3.9,1.8-6.1-21.6-39.8-33-84.9-33-130.5s12-92,34.1-132.1l6.7,5.3c5.3,4.7,13.1,3.9,17.5-1.3.2-.3.5-.6.7-.8,14.8-20.4,30.2-41.4,33.2-71.9.2-2.9-1-5.6-3.3-7.4ZM194.8,267.9c-1.4,1.6-3.8,1.8-5.7.3l-7.9-6.2c12.2-20.7,27.2-39.8,44.6-56.8-3.9,25.3-17.6,44.2-31.1,62.6Z"/>
  </g>
</svg>