<svg xmlns="http://www.w3.org/2000/svg" width="178" height="70" viewBox="0 0 178 70" fill="none"><path d="M133.958 31.9719C133.924 32.1764 133.889 32.3823 133.854 32.5867C133.659 33.73 133.181 34.7365 132.396 35.5961C131.479 36.5996 130.333 37.226 129.055 37.6378C128.083 37.9502 127.086 38.1158 126.069 38.1907C124.613 38.2972 123.166 38.2267 121.728 37.9819C120.472 37.7674 119.254 37.4276 118.11 36.8487C117.989 36.7868 117.963 36.7321 117.996 36.6011C118.369 35.1137 118.734 33.6263 119.103 32.1375C119.11 32.1116 119.119 32.0857 119.123 32.0713C119.598 32.2873 120.059 32.5176 120.534 32.7106C121.726 33.1929 122.962 33.5155 124.246 33.622C124.942 33.6796 125.637 33.6537 126.311 33.4492C126.816 33.2966 127.263 33.0432 127.463 32.5205C127.741 31.7963 127.607 30.9655 126.767 30.4457C126.22 30.1073 125.626 29.887 125.031 29.6581C124.223 29.3471 123.398 29.072 122.615 28.7049C121.358 28.116 120.239 27.3298 119.424 26.1736C118.786 25.2694 118.477 24.2644 118.478 23.1528C118.481 21.5387 118.991 20.1204 120.059 18.911C120.867 17.9981 121.865 17.3545 122.996 16.9153C124.092 16.4891 125.233 16.2731 126.405 16.2199C128.164 16.1392 129.892 16.3322 131.578 16.8448C132.043 16.9859 132.491 17.1874 132.947 17.3559C133.058 17.3977 133.038 17.4697 133.018 17.5488C132.803 18.3825 132.587 19.2162 132.371 20.0499C132.232 20.5942 132.092 21.1399 131.952 21.6841C131.929 21.772 131.902 21.8598 131.886 21.9159C131.277 21.6798 130.681 21.4249 130.07 21.2176C129.158 20.908 128.213 20.7396 127.245 20.7482C126.609 20.7525 125.988 20.8476 125.438 21.2176C124.667 21.7388 124.554 22.9512 125.326 23.5444C125.82 23.9245 126.376 24.1808 126.947 24.404C127.813 24.7424 128.691 25.0462 129.548 25.4062C130.554 25.828 131.483 26.3881 132.266 27.1628C133.277 28.1635 133.803 29.3874 133.922 30.7956C133.925 30.8301 133.944 30.8647 133.955 30.8992V31.9705L133.958 31.9719Z" fill="white"></path><path d="M71.7444 61.2932C71.5472 61.276 71.3514 61.2587 71.1541 61.2414C70.509 61.1896 69.8625 61.1349 69.2175 61.0873C69.1109 61.0801 69.0735 61.0413 69.085 60.9405C69.0879 60.9117 69.085 60.8829 69.085 60.8541C69.085 55.911 69.085 50.968 69.085 46.025C69.085 45.9616 69.085 45.8983 69.085 45.8075C69.3499 45.7658 69.612 45.7168 69.8769 45.6823C70.9021 45.5484 71.9316 45.4807 72.9669 45.4706C73.9676 45.462 74.964 45.4908 75.946 45.7125C76.8041 45.9069 77.573 46.2827 78.2281 46.8658C78.8804 47.4461 79.2058 48.1963 79.2764 49.0631C79.3527 50.0019 79.0964 50.8327 78.4816 51.5497C78.0338 52.0724 77.4693 52.4251 76.8401 52.6858C76.7984 52.703 76.7566 52.7218 76.6601 52.7635C76.7768 52.7995 76.8473 52.8225 76.9179 52.8441C77.9848 53.1753 78.8458 53.7786 79.3944 54.7721C79.7688 55.4488 79.8869 56.1832 79.8293 56.9521C79.7587 57.9081 79.4088 58.7418 78.758 59.4502C78.087 60.1817 77.2433 60.6122 76.3002 60.8685C75.37 61.1219 74.4197 61.2241 73.4579 61.2558C73.4046 61.2572 73.3513 61.2774 73.298 61.2889H71.743L71.7444 61.2932ZM71.9345 54.0047V59.0888C72.4845 59.0989 73.0187 59.1378 73.55 59.1075C74.0396 59.0802 74.5378 59.0255 75.0086 58.8959C76.3578 58.5229 77.0331 57.4632 76.8156 56.0867C76.6659 55.1393 76.0367 54.6008 75.1756 54.2869C74.1202 53.901 73.023 54.0263 71.9345 54.0047ZM71.9259 51.9241C71.9547 51.9284 71.9777 51.9327 71.9993 51.9327C72.5407 51.9327 73.0821 51.9457 73.622 51.9298C74.1346 51.914 74.6371 51.8204 75.1123 51.6145C76.0252 51.2157 76.4902 50.4439 76.4082 49.4576C76.339 48.6354 75.7818 48.0033 74.9251 47.7571C74.2455 47.5627 73.5515 47.5642 72.8575 47.5944C72.545 47.6074 72.2354 47.6477 71.9287 47.6736V51.9241H71.9259Z" fill="white"></path><path d="M46.1479 61.2932C45.9334 61.276 45.7203 61.2587 45.5058 61.2414C44.8708 61.1896 44.2372 61.1363 43.6023 61.0873C43.5116 61.0801 43.4784 61.0427 43.4871 60.9578C43.49 60.9347 43.4871 60.9117 43.4871 60.8886C43.4871 55.9226 43.4871 50.955 43.4871 45.989C43.4871 45.9371 43.4871 45.8853 43.4871 45.8075C43.7477 45.7658 44.0054 45.7183 44.2646 45.6837C45.2955 45.5484 46.3308 45.4807 47.3718 45.4721C48.4186 45.4634 49.4611 45.4922 50.4834 45.7514C51.3401 45.9688 52.1061 46.3648 52.7397 46.9839C53.3473 47.5771 53.6295 48.3244 53.677 49.1624C53.7332 50.143 53.4164 50.9954 52.7382 51.7038C52.3322 52.1271 51.8426 52.4381 51.2983 52.657C51.235 52.6829 51.1745 52.7117 51.0651 52.7606C51.1601 52.7923 51.2148 52.8125 51.2695 52.8297C51.9693 53.0385 52.5985 53.3754 53.1198 53.888C53.7576 54.5144 54.1205 55.2804 54.2126 56.1717C54.3941 57.9182 53.5402 59.5251 51.9938 60.3559C51.2033 60.7806 50.3495 61.0038 49.4668 61.1147C48.9096 61.1853 48.3466 61.2112 47.788 61.2587C47.7577 61.2616 47.7304 61.2803 47.7016 61.2918C47.1832 61.2918 46.6649 61.2918 46.1465 61.2918L46.1479 61.2932ZM46.3294 59.0514C46.4014 59.0629 46.4575 59.0802 46.5137 59.0816C47.0479 59.0946 47.5835 59.1262 48.1162 59.1119C48.6864 59.096 49.2422 58.988 49.7764 58.7706C51.4135 58.1025 51.5042 56.2912 50.9427 55.3423C50.6029 54.7678 50.0673 54.4481 49.4481 54.248C48.7829 54.0335 48.0961 53.9931 47.4035 54.0061C47.0479 54.0133 46.6922 54.0061 46.3294 54.0061V59.0514ZM46.3294 51.9341H46.505C46.9831 51.9341 47.4611 51.9428 47.9377 51.9327C48.5165 51.9197 49.0781 51.8175 49.6065 51.5655C50.9787 50.9104 51.0435 49.4086 50.4906 48.5649C50.1824 48.0955 49.7131 47.8637 49.1904 47.7269C48.4517 47.5339 47.6987 47.5671 46.9471 47.6117C46.7383 47.6232 46.5324 47.6606 46.3294 47.6851V51.9356V51.9341Z" fill="white"></path><path d="M75.527 37.8034H68.9468C68.9468 37.7299 68.9468 37.6579 68.9468 37.5874C68.9468 33.645 68.9525 29.7027 68.9425 25.7604C68.9396 24.8936 68.8071 24.0412 68.4313 23.2478C67.9274 22.1823 67.0822 21.615 65.9015 21.5401C64.9972 21.4825 64.1765 21.7043 63.4839 22.2932C62.6488 23.0016 62.1981 23.9231 62.093 25.0102C62.0657 25.2953 62.057 25.5833 62.057 25.8698C62.0541 29.7661 62.0556 33.6623 62.0556 37.5586C62.0556 37.6378 62.0556 37.717 62.0556 37.799H55.4754V37.573C55.4754 32.5767 55.4812 27.5818 55.4711 22.5855C55.4682 21.2176 55.4221 19.8512 55.3861 18.4848C55.3703 17.8887 55.3343 17.2926 55.3055 16.6806C55.3559 16.6777 55.4048 16.6705 55.4538 16.6705C57.2551 16.6705 59.0578 16.6705 60.8591 16.6677C60.9886 16.6677 61.0275 16.6979 61.0405 16.8376C61.1225 17.7116 61.219 18.5827 61.3126 19.4552C61.3169 19.4941 61.3486 19.5301 61.3673 19.5675C61.4076 19.5416 61.4566 19.5229 61.4854 19.4883C61.7705 19.15 62.0253 18.7842 62.3378 18.4747C63.6625 17.1586 65.2679 16.4214 67.1239 16.2415C68.2916 16.1291 69.4421 16.2242 70.5609 16.5928C71.9302 17.0435 73.0389 17.8527 73.874 19.0305C74.6328 20.1003 75.059 21.304 75.2995 22.5812C75.4679 23.4811 75.5284 24.3896 75.5284 25.3054C75.5241 29.3859 75.527 33.4665 75.527 37.5471C75.527 37.6263 75.527 37.7069 75.527 37.8019V37.8034Z" fill="white"></path><path d="M114.307 37.8077H114.111C112.264 37.8077 110.415 37.8062 108.568 37.8106C108.421 37.8106 108.362 37.7774 108.337 37.6219C108.241 37.033 108.126 36.447 108.018 35.8595C108.007 35.8034 107.993 35.7487 107.973 35.6608C107.907 35.7026 107.848 35.7228 107.812 35.7631C106.51 37.2706 104.822 38.0049 102.879 38.2195C101.773 38.3404 100.679 38.2814 99.6029 37.9718C97.027 37.2346 95.1869 34.9625 95.0127 32.2916C94.9291 31.0087 95.1106 29.7718 95.6692 28.6041C96.3085 27.2679 97.3251 26.2902 98.5907 25.5545C99.8765 24.8057 101.273 24.3522 102.732 24.1045C103.675 23.9447 104.63 23.8497 105.583 23.759C106.103 23.71 106.628 23.7287 107.151 23.7172C107.218 23.7158 107.288 23.7172 107.368 23.7172C107.424 23.0146 107.299 22.3753 106.847 21.8339C106.329 21.2133 105.619 20.9512 104.851 20.8173C103.751 20.6244 102.655 20.7021 101.564 20.9008C100.468 21.0995 99.4158 21.435 98.4151 21.9231C98.1832 22.0355 97.9615 22.1694 97.7124 22.3047C97.6548 22.106 97.5987 21.9116 97.5439 21.7158C97.2128 20.5596 96.8845 19.4034 96.5461 18.2501C96.5015 18.0974 96.5332 18.0326 96.6714 17.9606C97.8319 17.3617 99.0601 16.9556 100.33 16.6734C101.515 16.4099 102.716 16.2616 103.93 16.2184C105.349 16.168 106.756 16.24 108.136 16.6029C109.516 16.9657 110.753 17.592 111.758 18.6287C112.599 19.4955 113.156 20.5294 113.509 21.6755C113.82 22.6863 113.984 23.723 113.989 24.7784C114.003 27.6034 114 30.4284 114.01 33.2548C114.015 34.6213 114.064 35.9863 114.235 37.344C114.254 37.4909 114.281 37.6378 114.307 37.8062V37.8077ZM107.601 27.8611C107.169 27.8611 106.762 27.8467 106.356 27.864C105.411 27.9043 104.481 28.0425 103.591 28.378C102.997 28.6027 102.46 28.918 102.058 29.4234C101.495 30.1289 101.388 30.941 101.551 31.802C101.642 32.2829 101.859 32.7005 102.234 33.0273C102.745 33.4737 103.36 33.6407 104.018 33.6422C105.116 33.645 106.045 33.2347 106.781 32.4168C107.211 31.9374 107.501 31.3801 107.558 30.725C107.583 30.4514 107.597 30.175 107.599 29.9C107.604 29.216 107.6 28.5321 107.6 27.8611H107.601Z" fill="white"></path><path d="M81.4347 16.6763V16.42C81.4347 15.0449 81.4376 13.6684 81.4318 12.2934C81.4318 12.1465 81.4722 12.0875 81.619 12.0543C83.5067 11.6296 85.3929 11.1976 87.2791 10.7671C87.4735 10.7225 87.6693 10.6793 87.8767 10.6332V16.6691H92.5836V21.5229H87.8781V21.7316C87.8781 24.2586 87.8724 26.7856 87.881 29.3111C87.8839 29.9993 87.9271 30.689 88.1474 31.3513C88.4627 32.3017 89.1135 32.7941 90.1128 32.8531C90.8327 32.8949 91.5455 32.8301 92.2568 32.7178C92.3014 32.7106 92.346 32.7063 92.4051 32.6976C92.4108 32.7466 92.4209 32.7898 92.4209 32.833C92.4281 33.4939 92.4339 34.1562 92.4382 34.8171C92.4454 35.7141 92.4483 36.6112 92.4583 37.5096C92.4598 37.6407 92.4209 37.7011 92.2928 37.7429C91.5167 37.9949 90.7161 38.11 89.9083 38.1676C89.2906 38.2108 88.6686 38.244 88.0495 38.2353C86.8054 38.2195 85.6147 37.9646 84.506 37.3685C83.2907 36.7148 82.506 35.7098 82.0452 34.4298C81.6925 33.4492 81.5067 32.4312 81.4779 31.3945C81.4376 29.8884 81.4419 28.3809 81.4376 26.8734C81.4318 25.1758 81.4376 23.4782 81.4376 21.7806V21.5329H78.6313V16.6777H81.4376L81.4347 16.6763Z" fill="white"></path><path d="M49.87 37.8034H43.2769V8.70667H49.87V37.8034Z" fill="white"></path><path d="M60.345 58.8066H66.7611V61.2457H56.1075C56.1046 61.2054 56.096 61.1622 56.096 61.1176C56.096 60.605 56.0917 60.0938 56.1003 59.5812C56.1003 59.5064 56.1392 59.4113 56.1939 59.3609C56.921 58.677 57.6626 58.006 58.3854 57.3163C59.232 56.5057 60.0686 55.685 60.8979 54.8556C61.5171 54.2379 62.0815 53.5727 62.561 52.8398C62.9886 52.1847 63.3227 51.4907 63.4076 50.6987C63.4782 50.0494 63.4033 49.423 63.0736 48.8514C62.6718 48.1545 62.0253 47.8305 61.255 47.7211C60.0556 47.5512 58.9728 47.8853 57.962 48.5102C57.7288 48.6541 57.5042 48.814 57.2565 48.9796C57.1788 48.7967 57.1039 48.621 57.0304 48.4439C56.8303 47.9616 56.6359 47.4763 56.43 46.9969C56.3839 46.8889 56.407 46.837 56.4963 46.7708C57.6338 45.9083 58.9268 45.4433 60.3364 45.2878C61.458 45.1639 62.5682 45.2258 63.6222 45.6636C65.337 46.3763 66.2312 47.7038 66.404 49.5281C66.5364 50.9262 66.1376 52.1976 65.4191 53.3826C64.9727 54.117 64.4414 54.7865 63.8626 55.4186C62.8101 56.5676 61.6654 57.6216 60.4789 58.6295C60.4285 58.6727 60.3738 58.713 60.322 58.7548C60.3306 58.772 60.3378 58.7893 60.3465 58.8066H60.345Z" fill="white"></path></svg>