<svg xmlns="http://www.w3.org/2000/svg" width="288" height="30" viewBox="0 0 288 30">
    <g fill="none" fill-rule="evenodd">
        <path fill="#A49471" d="M281.377 4.695V2.478h1.025c.484 0 .847.082 1.09.25.24.164.363.44.363.818 0 .386-.123.678-.372.863-.248.191-.608.286-1.08.286h-1.026zm3.031 2.787l-1.459-2.46c.424-.067.755-.226.993-.472.234-.254.352-.586.352-1.004 0-.496-.158-.854-.472-1.091-.316-.227-.756-.345-1.322-.345h-1.557v5.372h.434V5.054h1.107l1.42 2.428h.504z"/>
        <path stroke="#A49471" stroke-width=".5" d="M281.377 4.695V2.478h1.025c.484 0 .847.082 1.09.25.24.164.363.44.363.818 0 .386-.123.678-.372.863-.248.191-.608.286-1.08.286h-1.026zm3.031 2.787l-1.459-2.46c.424-.067.755-.226.993-.472.234-.254.352-.586.352-1.004 0-.496-.158-.854-.472-1.091-.316-.227-.756-.345-1.322-.345h-1.557v5.372h.434V5.054h1.107l1.42 2.428h.504z"/>
        <path fill="#A49471" d="M282.676 9.591a4.804 4.804 0 0 1-4.8-4.797 4.803 4.803 0 0 1 4.8-4.794c2.647 0 4.8 2.152 4.8 4.794a4.804 4.804 0 0 1-4.8 4.797m0-9.22a4.432 4.432 0 0 0-4.43 4.423 4.436 4.436 0 0 0 4.43 4.429 4.435 4.435 0 0 0 4.429-4.429A4.431 4.431 0 0 0 282.676.37"/>
        <path stroke="#A49471" stroke-width=".5" d="M282.676 9.591a4.804 4.804 0 0 1-4.8-4.797 4.803 4.803 0 0 1 4.8-4.794c2.647 0 4.8 2.152 4.8 4.794a4.804 4.804 0 0 1-4.8 4.797zm0-9.22a4.432 4.432 0 0 0-4.43 4.423 4.436 4.436 0 0 0 4.43 4.429 4.435 4.435 0 0 0 4.429-4.429A4.431 4.431 0 0 0 282.676.37z"/>
        <path fill="#A49471" d="M6.087 19.761c2.678 0 3.015.17 3.382 1.212.197.563.366 1.182.563 1.971h.254v-6.958h-.254c-.197.79-.366 1.55-.591 2.17-.339.93-.846 1.042-3.354 1.042H4.452V10.55c.818-.197 1.663-.282 3.298-.282 2.987 0 3.466.169 4.142 1.55.339.675.705 1.634 1.212 2.93h.282l-.282-4.987H0v.253l1.155.198c.987.169 1.071.31 1.071 1.577v15.465c0 1.268-.113 1.409-1.07 1.577L0 29.03v.254h7.017v-.254L5.58 28.83c-.987-.14-1.128-.31-1.128-1.577v-7.493h1.635zm6.34 9.522h4.848v-.254l-.79-.169c-.816-.17-1.126-.535-1.126-1.183 0-.367.084-.93.478-2.028l1.297-3.719h6.313l1.493 4.535c.113.338.282.93.282 1.325 0 .506-.17.873-1.155 1.098l-.592.14v.255h6.341v-.254l-.648-.14c-.818-.17-1.184-.677-1.888-2.733L21.728 9.76h-.93l-5.806 15.972c-.902 2.48-1.042 2.873-2.057 3.155l-.508.14v.255zm7.92-16.508h.084l2.818 8.563h-5.918l3.015-8.563zm17.867-2.479c2.902 0 3.269.507 3.86 1.888.367.873.733 1.859 1.1 2.873h.253l-.281-5.296H28.97l-.31 5.296h.253c.366-1.014.76-2 1.127-2.873.592-1.38.958-1.888 3.861-1.888h1.043v16.958c0 1.268-.085 1.409-1.07 1.577l-1.157.198v.254h6.68v-.254l-1.1-.198c-1.07-.197-1.127-.337-1.127-1.577V10.296h1.043zm17.021 0c2.903 0 3.27.507 3.861 1.888.366.873.733 1.859 1.1 2.873h.253l-.282-5.296H45.991l-.31 5.296h.254c.367-1.014.761-2 1.127-2.873.592-1.38.959-1.888 3.861-1.888h1.043v16.958c0 1.268-.084 1.409-1.071 1.577l-1.155.198v.254h6.679v-.254l-1.1-.198c-1.07-.197-1.126-.337-1.126-1.577V10.296h1.042zm4.059 18.987h4.846v-.254l-.788-.169c-.818-.17-1.128-.535-1.128-1.183 0-.367.085-.93.48-2.028L64 21.93h6.312l1.494 4.535c.113.338.282.93.282 1.325 0 .506-.17.873-1.156 1.098l-.592.14v.255h6.341v-.254l-.648-.14c-.817-.17-1.184-.677-1.888-2.733L68.593 9.76h-.93l-5.805 15.972c-.902 2.48-1.043 2.873-2.057 3.155l-.507.14v.255zm7.919-16.508h.084l2.818 8.563h-5.918l3.016-8.563zM77.47 29.283h13.387l.337-5.607h-.281c-.451 1.324-.93 2.508-1.466 3.494-.732 1.352-1.38 1.605-4.255 1.605-3.128 0-3.27-.337-3.27-1.972V11.79c0-1.267.113-1.408 1.128-1.577l1.099-.198v-.253H77.47v.253l1.156.198c.986.169 1.07.31 1.07 1.577v15.465c0 1.268-.112 1.409-1.07 1.577l-1.156.198v.254zm21.56 0h6.678v-.254l-1.099-.198c-1.043-.197-1.127-.31-1.127-1.577V19.62h9.553v7.634c0 1.268-.084 1.38-1.127 1.577l-1.099.198v.254h6.679v-.254l-1.155-.198c-.987-.168-1.071-.31-1.071-1.577V11.79c0-1.267.084-1.408 1.07-1.577l1.156-.198v-.253h-6.679v.253l1.1.198c1.042.197 1.126.31 1.126 1.577v7.24h-9.553v-7.24c0-1.267.084-1.38 1.127-1.577l1.1-.198v-.253h-6.68v.253l1.155.198c.987.169 1.071.31 1.071 1.577v15.465c0 1.268-.084 1.409-1.07 1.577l-1.156.198v.254zm28.8.281c4.51 0 8.625-2.76 8.625-10.141 0-6.45-3.41-9.944-8.483-9.944-4.51 0-8.624 2.901-8.624 10.31 0 6.479 3.41 9.775 8.482 9.775zm.057-.564c-4.002 0-6.172-3.661-6.172-9.633 0-5.972 1.889-9.324 6.2-9.324 4.34 0 6.172 4.225 6.172 9.802 0 5.972-1.916 9.155-6.2 9.155zm19.868-18.704c2.903 0 3.27.507 3.86 1.888.367.873.734 1.859 1.1 2.873h.254l-.282-5.296H138.51l-.31 5.296h.254c.367-1.014.76-2 1.127-2.873.592-1.38.959-1.888 3.861-1.888h1.043v16.958c0 1.268-.084 1.409-1.07 1.577l-1.156.198v.254h6.679v-.254l-1.1-.198c-1.07-.197-1.127-.337-1.127-1.577V10.296h1.043zm17.162 5.634h-.253c-.197.789-.367 1.465-.592 1.916-.451.9-.846 1.014-3.354 1.014h-1.916v-8.282c.986-.197 2.001-.282 3.495-.282 2.818 0 3.494.113 4.255 1.352.338.536.789 1.578 1.212 2.564h.254l-.339-4.451h-13.33v.253l1.156.198c.986.197 1.07.31 1.07 1.577v15.465c0 1.268-.112 1.38-1.07 1.577l-1.156.198v.254h13.894l.395-5.41h-.254c-.451 1.24-.958 2.733-1.578 3.55-.79 1.043-1.184 1.324-4.115 1.324-3.748 0-3.889-.056-3.889-2.394v-6.93h1.916c2.508 0 2.96.085 3.354.986.197.45.395 1.099.592 1.916h.253V15.93zm5.58 13.353h13.386l.339-5.607h-.282c-.45 1.324-.93 2.508-1.465 3.494-.734 1.352-1.382 1.605-4.256 1.605-3.128 0-3.269-.337-3.269-1.972V11.79c0-1.267.112-1.408 1.127-1.577l1.1-.198v-.253h-6.68v.253l1.155.198c.987.169 1.071.31 1.071 1.577v15.465c0 1.268-.113 1.409-1.07 1.577l-1.156.198v.254zm31.028.281c2.93 0 5.044-.676 6.143-1.042V23.31c0-.93.113-1.156.762-1.268l1.127-.197v-.254h-6.34v.254l1.154.197c1.015.169 1.071.338 1.071 1.577v4.48c-.76.45-2.113.9-3.974.9-4.79 0-6.735-3.605-6.735-10.028 0-6.676 2.846-8.929 6.877-8.929 2.198 0 3.128.563 4.002 1.775.76 1.042 1.042 1.915 1.55 3.098h.252l-.28-4.76c-1.466-.451-3.185-.677-5.299-.677-4.368 0-9.413 2.113-9.413 10.254 0 6.732 3.41 9.831 9.103 9.831zm8.905-.281h6.68v-.254l-1.1-.198c-1.043-.225-1.127-.31-1.127-1.577v-7.409c.874.03 1.832.057 2.537.057 1.747 3.324 3.889 6.93 5.664 9.38h3.692v-.253l-.508-.113c-.535-.113-.789-.225-1.606-1.267-1.38-1.719-3.663-5.578-5.129-8.197v-.057c2.705-.873 4.34-2.45 4.34-5.099 0-2.986-1.86-4.535-5.833-4.535h-7.61v.253l1.156.198c.958.197 1.07.282 1.07 1.577v15.465c0 1.296-.112 1.38-1.07 1.577l-1.156.198v.254zm6.454-9.944c-.958 0-1.578-.085-2-.17v-8.62c.788-.168 1.576-.253 2.733-.253 2.339 0 3.973 1.014 3.973 4.451 0 3.099-1.606 4.592-4.706 4.592zm18.46 10.225c4.508 0 8.623-2.76 8.623-10.141 0-6.45-3.41-9.944-8.483-9.944-4.51 0-8.624 2.901-8.624 10.31 0 6.479 3.41 9.775 8.483 9.775zm.055-.564c-4.002 0-6.171-3.661-6.171-9.633 0-5.972 1.888-9.324 6.2-9.324 4.34 0 6.171 4.225 6.171 9.802 0 5.972-1.916 9.155-6.2 9.155zm19.164.564c4.988 0 6.792-2.76 6.792-6.225V12.24c0-1.38.169-1.746 1.042-1.944l1.184-.282v-.253h-5.636v.253l1.409.282c1.015.198 1.07.648 1.07 1.972v10.789c0 3.633-1.549 5.437-5.128 5.437-3.636 0-5.383-1.578-5.383-5.324V11.79c0-1.268.084-1.381 1.127-1.578l1.1-.198v-.253h-6.68v.253l1.156.198c.986.169 1.071.31 1.071 1.577v11.353c0 4.619 2.48 6.422 6.876 6.422zm10.287-.281h7.045v-.254l-1.41-.198c-1.098-.14-1.183-.337-1.183-1.577V10.55c.789-.197 1.72-.282 2.65-.282 3.184 0 4.452 1.606 4.452 5.155 0 3.916-1.944 5.493-6.228 5.267v.283c.338.084 1.014.14 1.69.14 4.594 0 6.877-2.366 6.877-6 0-3.38-2.17-5.352-6.51-5.352h-7.383v.253l1.154.198c.987.169 1.072.31 1.072 1.577v15.465c0 1.296-.085 1.409-1.072 1.577l-1.154.198v.254z"/>
        <path stroke="#A49471" stroke-width=".5" d="M6.087 19.761c2.678 0 3.015.17 3.382 1.212.197.563.366 1.182.563 1.971h.254v-6.958h-.254c-.197.79-.366 1.55-.591 2.17-.339.93-.846 1.042-3.354 1.042H4.452V10.55c.818-.197 1.663-.282 3.298-.282 2.987 0 3.466.169 4.142 1.55.339.675.705 1.634 1.212 2.93h.282l-.282-4.987H0v.253l1.155.198c.987.169 1.071.31 1.071 1.577v15.465c0 1.268-.113 1.409-1.07 1.577L0 29.03v.254h7.017v-.254L5.58 28.83c-.987-.14-1.128-.31-1.128-1.577v-7.493h1.635zm6.34 9.522h4.848v-.254l-.79-.169c-.816-.17-1.126-.535-1.126-1.183 0-.367.084-.93.478-2.028l1.297-3.719h6.313l1.493 4.535c.113.338.282.93.282 1.325 0 .506-.17.873-1.155 1.098l-.592.14v.255h6.341v-.254l-.648-.14c-.818-.17-1.184-.677-1.888-2.733L21.728 9.76h-.93l-5.806 15.972c-.902 2.48-1.042 2.873-2.057 3.155l-.508.14v.255zm7.92-16.508h.084l2.818 8.563h-5.918l3.015-8.563zm17.867-2.479c2.902 0 3.269.507 3.86 1.888.367.873.733 1.859 1.1 2.873h.253l-.281-5.296H28.97l-.31 5.296h.253c.366-1.014.76-2 1.127-2.873.592-1.38.958-1.888 3.861-1.888h1.043v16.958c0 1.268-.085 1.409-1.07 1.577l-1.157.198v.254h6.68v-.254l-1.1-.198c-1.07-.197-1.127-.337-1.127-1.577V10.296h1.043zm17.021 0c2.903 0 3.27.507 3.861 1.888.366.873.733 1.859 1.1 2.873h.253l-.282-5.296H45.991l-.31 5.296h.254c.367-1.014.761-2 1.127-2.873.592-1.38.959-1.888 3.861-1.888h1.043v16.958c0 1.268-.084 1.409-1.071 1.577l-1.155.198v.254h6.679v-.254l-1.1-.198c-1.07-.197-1.126-.337-1.126-1.577V10.296h1.042zm4.059 18.987h4.846v-.254l-.788-.169c-.818-.17-1.128-.535-1.128-1.183 0-.367.085-.93.48-2.028L64 21.93h6.312l1.494 4.535c.113.338.282.93.282 1.325 0 .506-.17.873-1.156 1.098l-.592.14v.255h6.341v-.254l-.648-.14c-.817-.17-1.184-.677-1.888-2.733L68.593 9.76h-.93l-5.805 15.972c-.902 2.48-1.043 2.873-2.057 3.155l-.507.14v.255zm7.919-16.508h.084l2.818 8.563h-5.918l3.016-8.563zM77.47 29.283h13.387l.337-5.607h-.281c-.451 1.324-.93 2.508-1.466 3.494-.732 1.352-1.38 1.605-4.255 1.605-3.128 0-3.27-.337-3.27-1.972V11.79c0-1.267.113-1.408 1.128-1.577l1.099-.198v-.253H77.47v.253l1.156.198c.986.169 1.07.31 1.07 1.577v15.465c0 1.268-.112 1.409-1.07 1.577l-1.156.198v.254zm21.56 0h6.678v-.254l-1.099-.198c-1.043-.197-1.127-.31-1.127-1.577V19.62h9.553v7.634c0 1.268-.084 1.38-1.127 1.577l-1.099.198v.254h6.679v-.254l-1.155-.198c-.987-.168-1.071-.31-1.071-1.577V11.79c0-1.267.084-1.408 1.07-1.577l1.156-.198v-.253h-6.679v.253l1.1.198c1.042.197 1.126.31 1.126 1.577v7.24h-9.553v-7.24c0-1.267.084-1.38 1.127-1.577l1.1-.198v-.253h-6.68v.253l1.155.198c.987.169 1.071.31 1.071 1.577v15.465c0 1.268-.084 1.409-1.07 1.577l-1.156.198v.254zm28.8.281c4.51 0 8.625-2.76 8.625-10.141 0-6.45-3.41-9.944-8.483-9.944-4.51 0-8.624 2.901-8.624 10.31 0 6.479 3.41 9.775 8.482 9.775zm.057-.564c-4.002 0-6.172-3.661-6.172-9.633 0-5.972 1.889-9.324 6.2-9.324 4.34 0 6.172 4.225 6.172 9.802 0 5.972-1.916 9.155-6.2 9.155zm19.868-18.704c2.903 0 3.27.507 3.86 1.888.367.873.734 1.859 1.1 2.873h.254l-.282-5.296H138.51l-.31 5.296h.254c.367-1.014.76-2 1.127-2.873.592-1.38.959-1.888 3.861-1.888h1.043v16.958c0 1.268-.084 1.409-1.07 1.577l-1.156.198v.254h6.679v-.254l-1.1-.198c-1.07-.197-1.127-.337-1.127-1.577V10.296h1.043zm17.162 5.634h-.253c-.197.789-.367 1.465-.592 1.916-.451.9-.846 1.014-3.354 1.014h-1.916v-8.282c.986-.197 2.001-.282 3.495-.282 2.818 0 3.494.113 4.255 1.352.338.536.789 1.578 1.212 2.564h.254l-.339-4.451h-13.33v.253l1.156.198c.986.197 1.07.31 1.07 1.577v15.465c0 1.268-.112 1.38-1.07 1.577l-1.156.198v.254h13.894l.395-5.41h-.254c-.451 1.24-.958 2.733-1.578 3.55-.79 1.043-1.184 1.324-4.115 1.324-3.748 0-3.889-.056-3.889-2.394v-6.93h1.916c2.508 0 2.96.085 3.354.986.197.45.395 1.099.592 1.916h.253V15.93zm5.58 13.353h13.386l.339-5.607h-.282c-.45 1.324-.93 2.508-1.465 3.494-.734 1.352-1.382 1.605-4.256 1.605-3.128 0-3.269-.337-3.269-1.972V11.79c0-1.267.112-1.408 1.127-1.577l1.1-.198v-.253h-6.68v.253l1.155.198c.987.169 1.071.31 1.071 1.577v15.465c0 1.268-.113 1.409-1.07 1.577l-1.156.198v.254zm31.028.281c2.93 0 5.044-.676 6.143-1.042V23.31c0-.93.113-1.156.762-1.268l1.127-.197v-.254h-6.34v.254l1.154.197c1.015.169 1.071.338 1.071 1.577v4.48c-.76.45-2.113.9-3.974.9-4.79 0-6.735-3.605-6.735-10.028 0-6.676 2.846-8.929 6.877-8.929 2.198 0 3.128.563 4.002 1.775.76 1.042 1.042 1.915 1.55 3.098h.252l-.28-4.76c-1.466-.451-3.185-.677-5.299-.677-4.368 0-9.413 2.113-9.413 10.254 0 6.732 3.41 9.831 9.103 9.831zm8.905-.281h6.68v-.254l-1.1-.198c-1.043-.225-1.127-.31-1.127-1.577v-7.409c.874.03 1.832.057 2.537.057 1.747 3.324 3.889 6.93 5.664 9.38h3.692v-.253l-.508-.113c-.535-.113-.789-.225-1.606-1.267-1.38-1.719-3.663-5.578-5.129-8.197v-.057c2.705-.873 4.34-2.45 4.34-5.099 0-2.986-1.86-4.535-5.833-4.535h-7.61v.253l1.156.198c.958.197 1.07.282 1.07 1.577v15.465c0 1.296-.112 1.38-1.07 1.577l-1.156.198v.254zm6.454-9.944c-.958 0-1.578-.085-2-.17v-8.62c.788-.168 1.576-.253 2.733-.253 2.339 0 3.973 1.014 3.973 4.451 0 3.099-1.606 4.592-4.706 4.592zm18.46 10.225c4.508 0 8.623-2.76 8.623-10.141 0-6.45-3.41-9.944-8.483-9.944-4.51 0-8.624 2.901-8.624 10.31 0 6.479 3.41 9.775 8.483 9.775zm.055-.564c-4.002 0-6.171-3.661-6.171-9.633 0-5.972 1.888-9.324 6.2-9.324 4.34 0 6.171 4.225 6.171 9.802 0 5.972-1.916 9.155-6.2 9.155zm19.164.564c4.988 0 6.792-2.76 6.792-6.225V12.24c0-1.38.169-1.746 1.042-1.944l1.184-.282v-.253h-5.636v.253l1.409.282c1.015.198 1.07.648 1.07 1.972v10.789c0 3.633-1.549 5.437-5.128 5.437-3.636 0-5.383-1.578-5.383-5.324V11.79c0-1.268.084-1.381 1.127-1.578l1.1-.198v-.253h-6.68v.253l1.156.198c.986.169 1.071.31 1.071 1.577v11.353c0 4.619 2.48 6.422 6.876 6.422zm10.287-.281h7.045v-.254l-1.41-.198c-1.098-.14-1.183-.337-1.183-1.577V10.55c.789-.197 1.72-.282 2.65-.282 3.184 0 4.452 1.606 4.452 5.155 0 3.916-1.944 5.493-6.228 5.267v.283c.338.084 1.014.14 1.69.14 4.594 0 6.877-2.366 6.877-6 0-3.38-2.17-5.352-6.51-5.352h-7.383v.253l1.154.198c.987.169 1.072.31 1.072 1.577v15.465c0 1.296-.085 1.409-1.072 1.577l-1.154.198v.254z"/>
    </g>
</svg>
