<?xml version="1.0" encoding="utf-8"?>
<!-- Generator: Adobe Illustrator 27.8.0, SVG Export Plug-In . SVG Version: 6.00 Build 0)  -->
<svg version="1.1" id="Layer_1" xmlns="http://www.w3.org/2000/svg" xmlns:xlink="http://www.w3.org/1999/xlink" x="0px" y="0px"
	 viewBox="0 0 214 50.2" style="enable-background:new 0 0 214 50.2;" xml:space="preserve">
<style type="text/css">
	.st0{fill:#E30613;}
</style>
<g>
	<path d="M4.5,10.3H0V8h4.5V6.6C4.5,3.7,5.4,0,10.9,0c2.8,0,3.9,0.3,4.6,0.5v2.5c-1.2-0.3-2.4-0.6-3.8-0.6c-3.8,0-4.4,1.8-4.4,4.4V8
		h7.3v2.4H7.3v15.1H4.5L4.5,10.3L4.5,10.3z"/>
	<path d="M21.7,0.6v3.2h-3.2V0.6H21.7L21.7,0.6z M18.7,7.6h2.8v17.9h-2.8V7.6L18.7,7.6z"/>
	<path d="M26.3,7.6H29v2.5c2-1.7,4.2-3,7.1-3c3.9,0,4.9,1.9,5.7,3.2C44.6,7.9,46.4,7,49,7c1.6,0,6.6,0.3,6.6,5.5v12.9h-2.8V13.6
		c0-1.1,0-4.2-3.9-4.2c-3.1,0-5.4,2-6.6,3.1v12.9h-2.8V13.6c0-1.1,0-4.2-3.9-4.2c-3.2,0-5.5,2-6.6,3.1v12.9h-2.8L26.3,7.6L26.3,7.6z
		"/>
	<path d="M78.1,22.7c0,1.1,0.1,1.8,0.3,2.8h-2.8c-0.1-0.5-0.3-1.4-0.3-2.2C72.7,25,69.8,26,66.4,26c-2.9,0-7.3-0.8-7.3-5.4
		c0-6.2,9.3-6.4,16.2-7.2v-0.7c0-2.4-2.9-3.3-5.7-3.3c-4.7,0-6.4,2-7.3,3l-2.1-1.4c1-1.3,3-3.8,9.2-3.8c4.1,0,8.7,1.2,8.7,5.8V22.7
		L78.1,22.7z M75.3,15.6c-8.1,0.8-13.6,1.5-13.6,5c0,2.8,3.1,3.2,4.5,3.2c3.9,0,7.3-1.8,9.1-2.8V15.6L75.3,15.6z"/>
	<polygon class="st0" points="83.2,0.6 85.9,0.6 85.9,50.2 83.2,50.2 	"/>
	<path class="st0" d="M92.3,25.4V22h0.4v0.6h0c0.1-0.4,0.2-0.6,0.5-0.7v0.9c0,0,0,0-0.1,0c-0.2,0-0.4,0.5-0.4,0.6v2.1L92.3,25.4
		L92.3,25.4z"/>
	<path class="st0" d="M104.3,22v3.5h-0.8V25c-0.3,0.2-0.7,0.4-1.1,0.4c-0.7,0-1-0.5-1-1.2V22h0.8v2.2c0,0.5,0.1,0.6,0.4,0.6
		c0.4,0,0.6-0.2,0.8-0.4V22L104.3,22L104.3,22z"/>
	<path class="st0" d="M112.8,20.6h0.8v1.7h0c0.2-0.2,0.6-0.4,0.8-0.4c0.9,0,1.4,0.8,1.4,1.7c0,1.1-0.5,1.9-1.4,1.9
		c-0.4,0-0.6-0.2-0.9-0.4l-0.1,0.4h-0.6L112.8,20.6L112.8,20.6z M113.7,24.5c0.2,0.1,0.3,0.3,0.6,0.3c0.5,0,0.8-0.4,0.8-1.1
		c0-0.7-0.3-1.1-0.8-1.1c-0.3,0-0.5,0.1-0.6,0.3V24.5L113.7,24.5z"/>
	<path class="st0" d="M124.3,21.3v-0.8h0.8v0.8H124.3L124.3,21.3z M125.1,25.4h-0.8V22h0.8V25.4L125.1,25.4z"/>
	<path class="st0" d="M133.8,25.4V22h0.8v0.4c0.3-0.2,0.7-0.4,1.1-0.4c0.7,0,1,0.5,1,1.2v2.4h-0.8v-2.2c0-0.5-0.1-0.6-0.4-0.6
		c-0.4,0-0.6,0.2-0.8,0.4v2.5L133.8,25.4L133.8,25.4z"/>
	<path class="st0" d="M145.7,23.8c0,0.7,0.3,1,0.7,1c0.4,0,0.6-0.2,0.8-0.4l0.6,0.4c-0.3,0.5-0.8,0.7-1.4,0.7
		c-0.9,0-1.5-0.7-1.5-1.8s0.6-1.8,1.5-1.8c0.9,0,1.4,0.8,1.4,1.6v0.3L145.7,23.8L145.7,23.8z M147,23.3c0-0.5-0.3-0.8-0.7-0.8
		c-0.4,0-0.6,0.3-0.7,0.8H147L147,23.3z"/>
	<path class="st0" d="M156.3,22v-1.1h0.8V22h0.7v0.7h-0.7v2c0,0.2,0.1,0.2,0.3,0.2c0.1,0,0.3,0,0.4-0.1v0.7c-0.2,0-0.4,0.1-0.6,0.1
		c-0.6,0-0.9-0.3-0.9-0.8v-2.1h-0.5V22L156.3,22L156.3,22z"/>
	<path class="st0" d="M166.2,22v-1.1h0.8V22h0.7v0.7H167v2c0,0.2,0.1,0.2,0.3,0.2c0.1,0,0.3,0,0.4-0.1v0.7c-0.2,0-0.4,0.1-0.6,0.1
		c-0.6,0-0.8-0.3-0.8-0.8v-2.1h-0.5V22L166.2,22L166.2,22z"/>
	<path class="st0" d="M176.6,23.8c0,0.7,0.3,1,0.7,1c0.4,0,0.6-0.2,0.8-0.4l0.6,0.4c-0.3,0.5-0.8,0.7-1.4,0.7
		c-0.9,0-1.5-0.7-1.5-1.8s0.6-1.8,1.5-1.8c0.9,0,1.4,0.8,1.4,1.6v0.3L176.6,23.8L176.6,23.8z M177.9,23.3c0-0.5-0.3-0.8-0.7-0.8
		c-0.4,0-0.6,0.3-0.7,0.8H177.9L177.9,23.3z"/>
	<path class="st0" d="M187,25.4V22h0.8v0.6h0c0.2-0.4,0.5-0.6,1-0.7v0.9c0,0-0.1,0-0.1,0c-0.4,0-0.8,0.5-0.8,0.6v2.1L187,25.4
		L187,25.4z"/>
	<path class="st0" d="M197,21.3v-0.8h0.8v0.8H197L197,21.3z M197.8,25.4H197V22h0.8V25.4L197.8,25.4z"/>
	<path class="st0" d="M207,23.8c0,0.7,0.3,1,0.7,1c0.4,0,0.6-0.2,0.8-0.4l0.6,0.4c-0.3,0.5-0.8,0.7-1.4,0.7c-0.9,0-1.5-0.7-1.5-1.8
		s0.6-1.8,1.5-1.8c0.9,0,1.4,0.8,1.4,1.6v0.3L207,23.8L207,23.8z M208.4,23.3c0-0.5-0.3-0.8-0.7-0.8c-0.4,0-0.7,0.3-0.7,0.8
		L208.4,23.3L208.4,23.3z"/>
	<path d="M101.8,15.9c-1.2,2.2-3.4,3.1-5.2,3.1c-3.1,0-5.9-2.5-5.9-5.8s2.7-5.8,5.9-5.8c2.9,0,4.7,2,5.2,3.1h-1.3
		c-1.2-1.8-3.2-2.1-3.9-2.1c-2.6,0-4.7,2.3-4.7,4.8c0,2.6,2.3,4.8,4.7,4.8c0.6,0,2.4-0.1,3.9-2.1L101.8,15.9L101.8,15.9z"/>
	<path d="M107.7,7.6h1.3l4.8,11.3h-1.2l-1.6-3.8h-5.2l-1.6,3.8h-1.2L107.7,7.6L107.7,7.6z M106.1,14h4.4l-2.2-5.2L106.1,14L106.1,14
		z"/>
	<path d="M115.3,7.6h2.9c1.5,0,2.3,0.2,2.8,0.4c1.3,0.6,2,1.8,2,3.2c0,1.6-1.2,3.3-3.3,3.4l3.2,4.2h-1.4l-3.8-5.1
		c1.4,0,1.9,0,2.4-0.2c1.2-0.3,1.9-1.4,1.9-2.4c0-0.9-0.5-1.8-1.2-2.2c-0.7-0.3-1.2-0.4-2.2-0.4h-2v10.2h-1.1L115.3,7.6L115.3,7.6z"
		/>
	<polygon points="124.9,7.6 126,7.6 126,17.8 130.7,17.8 130.7,18.8 124.9,18.8 	"/>
	<path d="M137.4,7.4c3.2,0,6,2.5,6,5.8c0,3.3-2.8,5.8-6,5.8c-3.2,0-5.9-2.6-5.9-5.8C131.4,9.7,134.4,7.4,137.4,7.4L137.4,7.4z
		 M137.4,18c2.6,0,4.8-2.1,4.8-4.8c0-2.6-2.2-4.8-4.8-4.8c-2.5,0-4.8,2.1-4.8,4.9C132.5,15.8,134.7,18,137.4,18L137.4,18z"/>
	<polygon points="149.9,7.6 155.6,7.6 155.6,8.6 151.1,8.6 151.1,12.7 155.5,12.7 155.5,13.7 151.1,13.7 151.1,18.8 149.9,18.8 	"/>
	<path d="M157.8,7.6h2.9c1.5,0,2.2,0.2,2.8,0.4c1.3,0.6,2,1.8,2,3.2c0,1.6-1.2,3.3-3.3,3.4l3.2,4.2h-1.4l-3.8-5.1
		c1.4,0,1.9,0,2.4-0.2c1.2-0.3,1.9-1.4,1.9-2.4c0-0.9-0.5-1.8-1.2-2.2c-0.7-0.3-1.2-0.4-2.2-0.4h-2v10.2h-1.1V7.6L157.8,7.6z"/>
	<path d="M171.2,7.6h1.3l4.8,11.3h-1.2l-1.6-3.8h-5.2l-1.6,3.8h-1.2L171.2,7.6L171.2,7.6z M169.7,14h4.4l-2.2-5.2L169.7,14L169.7,14
		z"/>
	<polygon points="179.4,8.6 176.8,8.6 176.8,7.6 183.1,7.6 183.1,8.6 180.5,8.6 180.5,18.8 179.4,18.8 	"/>
	<polygon points="186.5,8.6 183.9,8.6 183.9,7.6 190.2,7.6 190.2,8.6 187.6,8.6 187.6,18.8 186.5,18.8 	"/>
	<polygon points="191.9,7.6 193,7.6 193,18.8 191.9,18.8 	"/>
	<polygon points="195.8,7.6 197.3,7.6 203.6,16.9 203.6,16.9 203.6,7.6 204.8,7.6 204.8,18.8 203.6,18.8 196.9,8.9 196.9,8.9 
		196.9,18.8 195.8,18.8 	"/>
	<polygon points="207.5,7.6 208.6,7.6 208.6,18.8 207.5,18.8 	"/>
	<path d="M212.2,7.5c1,0,1.8,0.8,1.8,1.8c0,1-0.8,1.8-1.8,1.8c-1,0-1.8-0.8-1.8-1.8C210.4,8.2,211.2,7.5,212.2,7.5L212.2,7.5z
		 M212.2,10.8c0.8,0,1.5-0.7,1.5-1.5c0-0.9-0.6-1.5-1.5-1.5c-0.8,0-1.5,0.7-1.5,1.5C210.7,10.1,211.3,10.8,212.2,10.8L212.2,10.8z
		 M211.5,8.2h0.8c0.5,0,0.7,0.2,0.7,0.6c0,0.4-0.2,0.5-0.6,0.6l0.6,0.9h-0.4l-0.6-0.9h-0.3v0.9h-0.3L211.5,8.2L211.5,8.2z
		 M211.8,9.1h0.3c0.3,0,0.6,0,0.6-0.3c0-0.3-0.2-0.3-0.5-0.3h-0.4L211.8,9.1L211.8,9.1z"/>
</g>
</svg>
