<svg width="154" height="60" viewBox="0 0 154 60" fill="none" xmlns="http://www.w3.org/2000/svg">
<path d="M85.3386 34.9629C86.0656 35.7326 87.0753 36.2188 88.2466 36.2188C89.4178 36.2188 90.4275 35.7326 91.1545 35.0034C91.8815 34.2336 92.3258 33.1398 92.3258 31.9244V31.8839C92.3258 30.6685 91.8815 29.5747 91.1142 28.7644C90.3872 27.9947 89.3371 27.5085 88.1658 27.5085C86.9945 27.5085 85.9848 27.9947 85.2578 28.7239C84.5308 29.5341 84.0865 30.628 84.0865 31.8029V31.8434C84.1269 33.0588 84.5712 34.1526 85.3386 34.9629ZM92.447 36.1377C91.3969 37.1911 89.9025 37.8798 88.2062 37.8798C86.5099 37.8798 85.0559 37.2316 84.0058 36.1782C82.9153 35.0844 82.2691 33.5854 82.2691 31.9244V31.8839C82.2691 30.2229 82.9153 28.7239 84.0058 27.63C85.0559 26.5767 86.5502 25.888 88.2466 25.888C89.9429 25.888 91.3969 26.5362 92.447 27.5895C93.5375 28.6834 94.1837 30.1823 94.1837 31.8434V31.8839C94.1837 33.5044 93.5375 35.0439 92.447 36.1377ZM95.3146 26.0906H97.2936L100.605 30.4659L103.958 26.0906H106.018L101.656 31.7218L106.179 37.5962H104.079L100.565 32.9777L97.0917 37.5962H95.0318L99.515 31.7624L95.2338 26.1311H95.3146V26.0906ZM143.175 26.0906H145.114L148.426 30.4659L151.778 26.0906H153.838L149.476 31.7218L153.999 37.5962H151.899L148.426 32.9777L144.952 37.5962H142.892L147.375 31.7624L143.094 26.1311H143.175V26.0906ZM133.765 34.9629C134.492 35.7326 135.501 36.2188 136.672 36.2188C137.844 36.2188 138.853 35.7326 139.58 35.0034C140.307 34.2336 140.752 33.1398 140.752 31.9244V31.8839C140.752 30.6685 140.307 29.5747 139.54 28.7644C138.813 27.9947 137.763 27.5085 136.592 27.5085C135.42 27.5085 134.411 27.9947 133.684 28.7239C132.957 29.5341 132.512 30.628 132.512 31.8029V31.8434C132.553 33.0588 132.997 34.1526 133.765 34.9629ZM140.873 36.1377C139.823 37.1911 138.328 37.8798 136.632 37.8798C134.936 37.8798 133.482 37.2316 132.432 36.1782C131.341 35.0844 130.695 33.5854 130.695 31.9244V31.8839C130.695 30.2229 131.341 28.7239 132.432 27.63C133.482 26.5767 134.976 25.888 136.672 25.888C138.369 25.888 139.823 26.5362 140.873 27.5895C141.963 28.6834 142.61 30.1823 142.61 31.8434V31.8839C142.61 33.5044 141.963 35.0439 140.873 36.1377ZM120.032 34.9223C120.8 35.7326 121.85 36.2188 122.9 36.2188C124.031 36.2188 125.041 35.7731 125.727 35.0034C126.414 34.2741 126.818 33.2208 126.818 31.9244V31.8839C126.818 30.5875 126.373 29.5341 125.727 28.8049C125 27.9947 123.99 27.549 122.9 27.549C121.85 27.549 120.8 28.0352 120.032 28.8049C119.346 29.5747 118.861 30.5875 118.861 31.8434V31.8839C118.861 33.0993 119.305 34.1526 120.032 34.9223ZM127.141 36.0972C126.091 37.2316 124.677 37.8393 123.183 37.8393C122.133 37.8393 121.244 37.5557 120.517 37.11C119.871 36.7049 119.346 36.1377 118.902 35.5706V37.5962H117.124V21.4316H118.942V28.2377C119.386 27.63 119.911 27.0629 120.557 26.6172C121.284 26.1311 122.133 25.8475 123.183 25.8475C124.637 25.8475 126.091 26.4552 127.141 27.5895C128.07 28.6023 128.676 30.0203 128.676 31.8029V31.8434C128.676 33.6259 128.07 35.0844 127.141 36.0972ZM77.6244 37.5962H75.8877V27.7111H74.3125V26.0906H75.8473V25.1588C75.8473 24.5106 75.928 23.9434 76.0896 23.4572C76.2512 22.9711 76.5339 22.5254 76.857 22.2013C77.1397 21.9177 77.5032 21.6747 77.9475 21.5126C78.3514 21.3506 78.836 21.2695 79.3611 21.2695C79.765 21.2695 80.0881 21.31 80.4112 21.3506C80.7343 21.3911 80.9766 21.4721 81.2593 21.5531H81.2997V23.1736L81.219 23.1331C80.8958 23.0521 80.6535 22.9711 80.3708 22.9306C80.1285 22.89 79.8457 22.8495 79.563 22.8495C78.311 22.8495 77.6648 23.6193 77.6648 25.1993V26.05H81.2593V27.63H77.7051V37.5152H77.6244V37.5962Z" fill="white"/>
<path d="M110.136 36.7454C110.338 36.9075 110.661 37.029 110.984 37.029C111.429 37.029 111.833 36.9075 112.115 36.6644C112.398 36.4213 112.56 36.1377 112.56 35.7731V35.3275C112.398 35.2869 112.196 35.2464 111.954 35.2059C111.711 35.1654 111.429 35.1249 111.146 35.1249C110.702 35.1249 110.379 35.2059 110.136 35.368C109.894 35.53 109.773 35.7731 109.773 36.0567C109.813 36.3808 109.934 36.5834 110.136 36.7454ZM110.984 30.9116H110.177V25.8475H111.025V26.5767C111.186 26.3741 111.348 26.1716 111.59 26.05C111.873 25.888 112.236 25.7664 112.64 25.7664C113.246 25.7664 113.731 25.969 114.054 26.3336C114.377 26.6982 114.579 27.2249 114.579 27.8326V30.9521H113.731V27.9541C113.731 27.5085 113.61 27.1439 113.367 26.9008C113.165 26.6577 112.842 26.5362 112.398 26.5362C111.994 26.5362 111.631 26.6982 111.388 26.9413C111.146 27.1844 110.984 27.5895 110.984 27.9946V30.8711V30.8711V30.9116ZM108.561 30.9116H107.753V25.8475H108.601V30.9116H108.561ZM108.601 24.8752H107.713V23.9434H108.682V24.8752H108.601ZM111.873 37.5152C111.59 37.6367 111.227 37.7177 110.863 37.7177C110.379 37.7177 109.853 37.5557 109.49 37.2721C109.167 36.9885 108.965 36.6239 108.965 36.1377C108.965 35.6111 109.167 35.2059 109.53 34.9223C109.894 34.6387 110.459 34.4767 111.106 34.4767C111.429 34.4767 111.711 34.5172 111.954 34.5172C112.156 34.5577 112.358 34.5982 112.56 34.6387V34.5577C112.56 34.1526 112.438 33.8285 112.196 33.5854C111.954 33.3828 111.59 33.2613 111.146 33.2613C110.863 33.2613 110.621 33.3018 110.379 33.3423C110.136 33.4234 109.894 33.5044 109.692 33.5854L109.652 33.6259L109.409 32.8967L109.45 32.8562C109.732 32.7346 109.975 32.6131 110.298 32.5726C110.58 32.4916 110.904 32.4511 111.267 32.4511C111.631 32.4511 111.913 32.4916 112.196 32.5726C112.479 32.6536 112.681 32.8157 112.883 32.9777C113.044 33.1398 113.206 33.3423 113.287 33.6259C113.367 33.869 113.408 34.1526 113.408 34.4767V37.5557H112.6V36.9075C112.398 37.1911 112.156 37.3531 111.873 37.5152Z" fill="white"/>
<path fill-rule="evenodd" clip-rule="evenodd" d="M27.3 47.1576L46.121 34.3556L37.6394 12.8027L18.8184 25.6453L27.3 47.1576Z" fill="#E84E0F"/>
<path fill-rule="evenodd" clip-rule="evenodd" d="M37.6422 12.802L18.8211 25.6446L0 12.802L18.8211 0L37.6422 12.802Z" fill="#F18800"/>
<path fill-rule="evenodd" clip-rule="evenodd" d="M10.5398 7.49609L2.78516 12.8033L10.5398 18.0699L7.63179 12.8033L10.5398 7.49609Z" fill="white"/>
<path fill-rule="evenodd" clip-rule="evenodd" d="M46.123 34.3543V59.9989L64.9441 47.1563V21.5117L46.123 34.3543Z" fill="#E84E0F"/>
<path fill-rule="evenodd" clip-rule="evenodd" d="M46.1258 34.3543L27.3047 21.5117V47.1563L46.1258 59.9989V34.3543Z" fill="#F18800"/>
<path fill-rule="evenodd" clip-rule="evenodd" d="M54.1612 42.5371C53.2322 42.5371 52.4648 43.3069 52.4648 44.2386C52.4648 45.1704 53.2322 45.9402 54.1612 45.9402C55.0901 45.9402 55.8575 45.1704 55.8575 44.2386C55.8171 43.3069 55.0901 42.5371 54.1612 42.5371Z" fill="white"/>
<path fill-rule="evenodd" clip-rule="evenodd" d="M38.128 42.5371C37.199 42.5371 36.4316 43.3069 36.4316 44.2386C36.4316 45.1704 37.199 45.9402 38.128 45.9402C39.0569 45.9402 39.8243 45.1704 39.8243 44.2386C39.8243 43.3069 39.0973 42.5371 38.128 42.5371Z" fill="white"/>
<path fill-rule="evenodd" clip-rule="evenodd" d="M28.5996 31.3173L33.8905 27.7521L28.5996 24.1465V31.3173Z" fill="white"/>
<path fill-rule="evenodd" clip-rule="evenodd" d="M46.1235 55.9062C44.8311 55.9062 43.7406 56.7165 43.1348 57.9319L46.1235 59.9575V55.9062Z" fill="#878787"/>
<path fill-rule="evenodd" clip-rule="evenodd" d="M46.123 60.0005L49.1118 57.9749C48.506 56.7595 47.4155 55.9492 46.123 55.9492V60.0005Z" fill="#575756"/>
<path fill-rule="evenodd" clip-rule="evenodd" d="M63.6913 31.3173L58.4004 27.7521L63.6913 24.1465V31.3173Z" fill="white"/>
<path d="M80.3726 51.2461L78.3935 48.6128H76.4549V51.2461H75.6875V44.4805H78.5955C78.959 44.4805 79.3225 44.521 79.6052 44.6425C79.8879 44.7235 80.1706 44.8856 80.3726 45.0476C80.5745 45.2097 80.7361 45.4528 80.8572 45.6959C80.9784 45.9389 81.0188 46.2225 81.0188 46.5061C81.0188 46.7897 80.9784 47.0328 80.8976 47.2759C80.8169 47.4784 80.6957 47.681 80.5341 47.843C80.3726 48.0051 80.1706 48.1266 79.9687 48.2482C79.7264 48.3697 79.484 48.4507 79.2417 48.4912L81.3015 51.2461H80.3726ZM79.8475 45.5338C79.5244 45.2907 79.1205 45.1692 78.5551 45.1692H76.4549V47.9241H78.5551C78.7974 47.9241 79.0398 47.8835 79.2417 47.843C79.4436 47.762 79.6456 47.681 79.8071 47.5594C79.9687 47.4379 80.0899 47.2759 80.1706 47.1138C80.2514 46.9518 80.2918 46.7492 80.2918 46.5061C80.2918 46.101 80.1302 45.7769 79.8475 45.5338Z" fill="#ED6B06"/>
<path d="M89.0573 49.1799C88.8958 49.585 88.6534 49.9901 88.3707 50.3143C88.088 50.6384 87.6841 50.8814 87.2802 51.084C86.8359 51.2866 86.3917 51.3676 85.8666 51.3676C85.3416 51.3676 84.8973 51.2866 84.453 51.084C84.0491 50.8814 83.6856 50.6384 83.3625 50.3143C83.0394 49.9901 82.8375 49.6255 82.6759 49.1799C82.5144 48.7748 82.4336 48.3291 82.4336 47.843C82.4336 47.3568 82.5144 46.9112 82.6759 46.5061C82.8375 46.1009 83.0798 45.6958 83.3625 45.3717C83.6452 45.0476 84.0491 44.8045 84.453 44.6019C84.8973 44.3994 85.3416 44.3184 85.8666 44.3184C86.3917 44.3184 86.8359 44.3994 87.2802 44.6019C87.6841 44.8045 88.0476 45.0476 88.3707 45.3717C88.6534 45.6958 88.8958 46.0604 89.0573 46.5061C89.2189 46.9112 89.2997 47.3568 89.2997 47.843C89.2997 48.3291 89.2189 48.7748 89.0573 49.1799ZM88.2899 46.7896C88.1688 46.4655 87.9668 46.1414 87.7245 45.8984C87.4822 45.6553 87.1994 45.4527 86.8763 45.2907C86.5532 45.1286 86.1897 45.0476 85.8262 45.0476C85.4223 45.0476 85.0992 45.1286 84.7761 45.2502C84.453 45.4122 84.1703 45.5743 83.928 45.8578C83.6856 46.1414 83.5241 46.425 83.3625 46.7491C83.201 47.0732 83.1606 47.4378 83.1606 47.843C83.1606 48.2481 83.2414 48.6127 83.3625 48.9368C83.4837 49.2609 83.6856 49.585 83.928 49.8281C84.1703 50.0712 84.453 50.2737 84.7761 50.4358C85.0992 50.5978 85.4627 50.6789 85.8262 50.6789C86.2301 50.6789 86.5532 50.5978 86.8763 50.4763C87.1994 50.3143 87.4822 50.1522 87.7245 49.8686C87.9668 49.6255 88.1284 49.3014 88.2899 48.9773C88.4111 48.6532 88.4919 48.2886 88.4919 47.8835C88.4919 47.4784 88.4515 47.1137 88.2899 46.7896Z" fill="#ED6B06"/>
<path d="M97.2585 49.1799C97.0969 49.585 96.8546 49.9901 96.5719 50.3143C96.2892 50.6384 95.8853 50.8814 95.4814 51.084C95.0371 51.2866 94.5928 51.3676 94.0678 51.3676C93.5427 51.3676 93.0985 51.2866 92.6542 51.084C92.2503 50.8814 91.8868 50.6384 91.5637 50.3143C91.2406 49.9901 91.0387 49.6255 90.8771 49.1799C90.7155 48.7748 90.6348 48.3291 90.6348 47.843C90.6348 47.3568 90.7155 46.9112 90.8771 46.5061C91.0387 46.1009 91.281 45.6958 91.5637 45.3717C91.8464 45.0476 92.2503 44.8045 92.6542 44.6019C93.0985 44.3994 93.5427 44.3184 94.0678 44.3184C94.5928 44.3184 95.0371 44.3994 95.4814 44.6019C95.8853 44.8045 96.2488 45.0476 96.5719 45.3717C96.8546 45.6958 97.0969 46.0604 97.2585 46.5061C97.42 46.9112 97.5008 47.3568 97.5008 47.843C97.5008 48.3291 97.42 48.7748 97.2585 49.1799ZM96.5315 46.7896C96.4103 46.4655 96.2084 46.1414 95.9661 45.8984C95.7237 45.6553 95.441 45.4527 95.1179 45.2907C94.7948 45.1286 94.4313 45.0476 94.0678 45.0476C93.6639 45.0476 93.3408 45.1286 93.0177 45.2502C92.6946 45.4122 92.4119 45.5743 92.1695 45.8578C91.9272 46.1414 91.7656 46.425 91.6041 46.7491C91.4425 47.0732 91.4022 47.4378 91.4022 47.843C91.4022 48.2481 91.4829 48.6127 91.6041 48.9368C91.7253 49.2609 91.9272 49.585 92.1695 49.8281C92.4119 50.0712 92.6946 50.2737 93.0177 50.4358C93.3408 50.5978 93.7043 50.6789 94.0678 50.6789C94.4717 50.6789 94.7948 50.5978 95.1179 50.4763C95.441 50.3143 95.7237 50.1522 95.9661 49.8686C96.2084 49.6255 96.3699 49.3014 96.5315 48.9773C96.6527 48.6532 96.7334 48.2886 96.7334 47.8835C96.7334 47.4784 96.6527 47.1137 96.5315 46.7896Z" fill="#ED6B06"/>
<path d="M102.342 49.3825L99.8383 45.7769V51.2461H99.1113V44.4805H99.8787L102.342 48.1671L104.806 44.4805H105.573V51.2461H104.806V45.7769L102.342 49.3825Z" fill="#ED6B06"/>
<path d="M115.266 45.1692H111.146V47.4784H114.822V48.1671H111.146V50.5574H115.306V51.2461H110.379V44.4805H115.266V45.1692V45.1692Z" fill="#ED6B06"/>
<path d="M117.529 46.5856C117.57 46.7072 117.691 46.8287 117.812 46.9502C117.933 47.0718 118.135 47.1528 118.377 47.2338C118.62 47.3149 118.903 47.3959 119.306 47.4769C120.074 47.639 120.599 47.882 120.962 48.1656C121.326 48.4492 121.487 48.8543 121.487 49.381C121.487 49.6646 121.447 49.9482 121.326 50.1913C121.205 50.4343 121.043 50.6369 120.841 50.799C120.639 50.961 120.397 51.0826 120.114 51.2041C119.831 51.2851 119.508 51.3256 119.185 51.3256C118.66 51.3256 118.135 51.2446 117.691 51.0825C117.247 50.9205 116.802 50.6369 116.398 50.2723L116.883 49.7051C117.247 50.0292 117.61 50.2723 117.974 50.4343C118.337 50.5964 118.741 50.6774 119.226 50.6774C119.67 50.6774 120.033 50.5559 120.316 50.3533C120.599 50.1508 120.72 49.8672 120.72 49.5025C120.72 49.3405 120.68 49.1784 120.639 49.0569C120.599 48.9354 120.478 48.8138 120.357 48.6923C120.235 48.5708 120.033 48.4897 119.831 48.4087C119.63 48.3277 119.306 48.2467 118.943 48.1656C118.539 48.0846 118.216 48.0036 117.933 47.882C117.65 47.7605 117.408 47.639 117.206 47.4769C117.004 47.3149 116.883 47.1528 116.802 46.9502C116.722 46.7477 116.681 46.5046 116.681 46.221C116.681 45.9374 116.722 45.6943 116.843 45.4918C116.964 45.2487 117.125 45.0867 117.287 44.8841C117.489 44.722 117.731 44.6005 117.974 44.479C118.216 44.3574 118.539 44.3574 118.862 44.3574C119.347 44.3574 119.791 44.4384 120.155 44.56C120.518 44.6815 120.882 44.8841 121.245 45.1677L120.801 45.7754C120.478 45.5323 120.155 45.3297 119.831 45.2082C119.508 45.0867 119.185 45.0461 118.822 45.0461C118.62 45.0461 118.418 45.0867 118.216 45.1272C118.014 45.1677 117.893 45.2487 117.772 45.3702C117.65 45.4513 117.57 45.5728 117.489 45.7349C117.408 45.8564 117.368 46.0184 117.368 46.1805C117.449 46.302 117.489 46.4641 117.529 46.5856Z" fill="#ED6B06"/>
<path d="M128.314 50.6789C128.113 50.8409 127.911 50.9625 127.709 51.0435C127.507 51.165 127.264 51.246 127.022 51.2866C126.78 51.3271 126.497 51.3676 126.174 51.3676C125.689 51.3676 125.245 51.2866 124.841 51.084C124.437 50.8814 124.074 50.6384 123.751 50.3548C123.427 50.0307 123.226 49.666 123.024 49.2609C122.862 48.8153 122.781 48.3696 122.781 47.8835C122.781 47.3973 122.862 46.9517 123.024 46.5061C123.185 46.0604 123.427 45.6958 123.751 45.3717C124.033 45.0476 124.397 44.8045 124.841 44.6019C125.245 44.3994 125.73 44.3184 126.214 44.3184C126.537 44.3184 126.82 44.3589 127.062 44.3994C127.305 44.4399 127.547 44.5209 127.749 44.6019C127.951 44.683 128.153 44.8045 128.355 44.9261C128.516 45.0476 128.718 45.2096 128.88 45.3717L128.355 45.9389C128.072 45.6553 127.749 45.4527 127.426 45.2502C127.103 45.0476 126.699 45.0071 126.214 45.0071C125.851 45.0071 125.487 45.0881 125.164 45.2096C124.841 45.3717 124.558 45.5337 124.316 45.8173C124.074 46.1009 123.912 46.3845 123.751 46.7086C123.629 47.0327 123.549 47.3973 123.549 47.8025C123.549 48.2076 123.629 48.5722 123.751 48.8963C123.872 49.2204 124.074 49.5445 124.316 49.7876C124.558 50.0307 124.841 50.2332 125.164 50.3953C125.487 50.5573 125.81 50.5978 126.214 50.5978C126.659 50.5978 127.062 50.5168 127.426 50.3548C127.789 50.1927 128.072 49.9496 128.395 49.6255L128.88 50.1117C128.678 50.3548 128.516 50.5168 128.314 50.6789Z" fill="#ED6B06"/>
<path d="M136.475 51.2451H135.668L134.86 49.4625H131.185L130.377 51.2451H129.609L132.679 44.3984H133.406L136.475 51.2451ZM133.042 45.3302L131.508 48.7738H134.577L133.042 45.3302Z" fill="#ED6B06"/>
<path d="M142.655 47.6014C142.494 47.885 142.332 48.1281 142.09 48.2901C141.847 48.4927 141.565 48.6142 141.242 48.6953C140.919 48.7763 140.595 48.8168 140.232 48.8168H138.576V51.2071H137.809V44.4414H140.353C140.717 44.4414 141.08 44.4819 141.403 44.6035C141.726 44.725 141.969 44.8465 142.211 45.0491C142.453 45.2517 142.615 45.4542 142.736 45.7378C142.857 46.0214 142.898 46.305 142.898 46.6291C142.898 46.9937 142.817 47.3178 142.655 47.6014ZM141.605 45.5353C141.282 45.2922 140.838 45.1706 140.272 45.1706H138.576V48.1686H140.232C140.515 48.1686 140.757 48.1281 140.999 48.047C141.242 47.966 141.444 47.885 141.605 47.7229C141.767 47.6014 141.888 47.4394 141.969 47.2368C142.049 47.0342 142.09 46.8317 142.09 46.6291C142.13 46.1835 141.969 45.8188 141.605 45.5353Z" fill="#ED6B06"/>
<path d="M149.155 45.1692H145.035V47.4784H148.71V48.1671H145.035V50.5574H149.195V51.2461H144.268V44.4805H149.155V45.1692V45.1692Z" fill="#ED6B06"/>
</svg>
