<svg width="548" height="432" viewBox="0 0 548 432" fill="none" xmlns="http://www.w3.org/2000/svg">
<g clip-path="url(#clip0_128_565)">
<path fill-rule="evenodd" clip-rule="evenodd" d="M161.61 187.451C161.45 188.401 161.33 189.421 161.24 190.511C160.23 203.121 161.1 202.571 161.14 204.851C161.18 207.111 162.11 210.601 156.87 210.681C151.62 210.791 150.41 211.001 149.26 206.441C148.14 201.931 145.51 201.451 139.55 201.201C133.59 200.961 126.6 201.091 122.75 201.511C118.92 201.931 117.2 204.221 116.55 206.861C115.9 209.501 115.22 210.911 111.02 210.991C106.83 211.071 104.73 211.441 104.78 203.931C104.81 196.401 105.33 195.861 104.52 189.741C104.42 189.001 104.31 188.231 104.17 187.441H161.6L161.61 187.451Z" fill="#69737A"/>
<path fill-rule="evenodd" clip-rule="evenodd" d="M48.5896 163.442C52.1196 165.592 55.9596 165.762 59.0296 164.172C59.2896 164.032 59.5596 163.772 59.7496 163.442H125.54C125.72 163.582 125.89 163.722 126.07 163.872C127.19 164.822 130.3 166.072 130.26 163.442C130.26 163.442 130.26 163.432 130.26 163.422H137.89C138.46 164.252 139.55 164.292 140.74 163.422H173.91C173.85 166.032 173.78 168.112 173.82 170.302C173.91 175.022 172.87 173.972 170.92 174.382C168.54 174.902 163.26 177.382 161.61 187.432H104.18C103.17 181.742 100.7 175.292 91.3296 175.452C80.6496 175.632 60.0096 175.842 51.0896 176.012C42.8796 176.142 34.6996 172.342 31.8496 163.432H48.5996L48.5896 163.442ZM141.67 185.772C146.11 185.702 149.16 185.492 149.16 181.132C149.16 177.132 143.38 176.542 140.81 176.592C138.25 176.652 126.54 176.572 123.05 176.862C119.55 177.182 117.5 178.282 117.8 181.772C118.09 185.292 121.14 185.912 124.41 186.092L141.67 185.772Z" fill="#69737A"/>
<path fill-rule="evenodd" clip-rule="evenodd" d="M63.0306 147.453C64.4106 149.183 66.6406 151.393 68.0706 152.483C69.8506 153.863 72.4706 154.153 74.5406 152.383C76.2706 150.883 78.2106 148.893 79.4106 147.453H106.271C107.641 148.943 109.571 150.533 110.721 151.373C112.141 152.393 113.541 152.533 115.261 151.263C116.501 150.383 118.431 148.763 119.741 147.453H145.991C147.211 148.663 148.841 149.973 149.571 150.523C150.691 151.343 152.631 152.433 154.471 151.003C155.601 150.123 157.071 148.663 158.191 147.453H174.041C173.941 148.823 173.901 150.153 173.931 151.403C174.031 156.743 173.961 160.443 173.891 163.453H140.721C140.811 163.383 140.901 163.313 140.991 163.233C142.721 161.803 144.431 160.023 145.101 158.783C145.781 157.543 146.101 155.963 144.491 154.243C142.891 152.533 140.931 151.343 140.051 150.463C139.151 149.623 137.751 149.653 137.441 152.103C137.151 154.563 137.031 158.073 137.451 162.263C137.501 162.763 137.641 163.163 137.851 163.463H130.221C130.171 160.803 130.401 154.893 130.031 153.483C129.651 152.103 128.921 150.203 127.701 150.553C126.491 150.933 123.031 153.613 121.491 155.393C119.951 157.173 120.671 158.733 121.921 160.123C123.021 161.343 124.261 162.403 125.501 163.453H59.7506C60.1906 162.713 60.2306 161.583 58.8906 160.703C51.5706 155.863 49.1506 152.073 46.4006 149.593C44.5106 147.883 43.5706 149.153 43.0406 150.593C42.0906 153.123 42.4706 157.913 45.7506 161.213C46.6606 162.123 47.6106 162.863 48.5906 163.463H31.8406C31.5906 162.683 31.3806 161.863 31.2106 161.003C30.2306 155.943 32.3006 149.873 32.8906 147.503C32.8906 147.493 32.8906 147.483 32.8906 147.463H63.0106L63.0306 147.453ZM161.691 161.723C162.511 162.413 166.231 163.903 166.401 160.413C166.521 157.843 166.431 153.333 166.171 151.343C165.891 149.383 165.061 148.793 164.041 149.873C163.031 150.933 160.261 153.443 159.001 155.213C157.751 156.993 158.121 157.903 159.071 159.173C160.041 160.453 160.501 160.693 161.681 161.723H161.691ZM96.3906 160.593C96.6306 162.353 100.221 164.073 102.321 162.333C103.771 161.113 104.371 160.963 105.581 159.533C106.791 158.113 106.761 157.253 105.321 155.173C103.891 153.103 101.221 151.033 99.9706 150.183C98.7306 149.333 97.3206 149.373 97.0206 151.303C96.7006 153.233 95.8006 156.053 96.3906 160.583V160.593ZM84.7906 159.523C87.4006 160.423 89.4606 160.983 89.6906 157.883C89.7806 156.593 90.0206 156.473 89.7606 152.203C89.6406 149.983 87.8706 148.433 85.7106 150.113C83.5706 151.783 83.9006 151.553 82.0806 153.423C80.4506 155.123 79.2106 156.833 81.1906 158.093C82.7406 159.073 81.3006 158.303 84.7906 159.523Z" fill="#69737A"/>
<path fill-rule="evenodd" clip-rule="evenodd" d="M44.3 115.45C44.16 115.62 44.03 115.79 43.89 115.97C42.53 117.74 42.53 121.32 43.85 124C45.31 126.95 47.72 131.02 49.39 133C50.89 134.81 52.57 134.55 54.12 133.11C55.66 131.69 60.72 127.55 62.26 125.6C63.81 123.66 63.59 122.43 62.18 120.87C61.32 119.94 58.6 117.52 56.3 115.45H64.73C65.9 116.42 67.1 117.26 68.06 117.79C70.17 118.99 71.21 118.78 72.42 117.7C72.98 117.21 73.86 116.37 74.82 115.44H82.6C80.52 117.36 78.98 119 78.1 120.24C77.07 121.65 76.4 123.06 77.65 124.96C78.91 126.87 82.29 129.26 84.41 130.78C86.54 132.32 87.23 131.79 87.53 128.99C87.83 126.18 87.87 119 87.65 116.03C87.63 115.81 87.6 115.62 87.56 115.43H95.53C95.43 115.66 95.36 115.93 95.33 116.25C94.88 120.8 95.69 127.09 96.08 129.02C96.46 130.94 97.86 130.93 99.08 130.02C100.28 129.12 102.87 126.99 104.24 124.84C105.6 122.71 105.58 121.85 104.33 120.46C103.18 119.19 100.52 116.62 98.87 115.43H107.46C108.58 116.25 109.49 116.77 110.21 117.38C111.62 118.58 112.67 118.2 113.87 117.14C114.37 116.7 115.16 116.1 116.01 115.42H126.24C125.58 115.67 124.95 116.06 124.56 116.41C123.19 117.67 121.81 118.93 120.61 120.35C119.41 121.78 118.74 123.35 120.34 125.07C121.95 126.8 125.49 129.36 126.73 129.69C127.95 130.02 128.63 128.07 128.96 126.68C129.28 125.27 128.81 119.33 128.78 116.7C128.77 116.07 128.58 115.66 128.28 115.44H136.94C136.5 115.72 136.21 116.28 136.16 117.08C135.9 121.27 136.13 124.78 136.53 127.21C136.91 129.66 138.31 129.64 139.18 128.75C140.04 127.86 141.94 126.61 143.49 124.82C145.02 123.03 144.65 121.49 143.92 120.27C143.2 119.07 141.42 117.33 139.63 115.96C139.33 115.73 139.04 115.55 138.76 115.43H148.34C149.11 116.08 149.8 116.59 150.36 116.87C151.83 117.65 152.71 118.24 154.32 117.15C154.88 116.78 155.52 116.14 156.18 115.43H164.7C163.47 116.6 161.09 119.08 160.24 120.31C159.32 121.62 159 122.56 160.3 124.28C161.62 126.01 164.46 128.4 165.53 129.43C166.6 130.45 167.41 129.86 167.6 127.88C167.81 125.9 167.67 118.75 167.41 116.21C167.37 115.9 167.32 115.63 167.25 115.41H188.76C186.65 116.74 184.72 118.28 183.27 120.03C178.19 126.12 174.76 137.89 174.08 147.41H158.23C158.94 146.65 159.51 145.98 159.77 145.61C160.45 144.68 160.53 142.69 158.43 142.61C156.32 142.51 149.54 141.84 146.29 142.59C143.03 143.34 143.88 144.49 144.73 145.89C144.99 146.32 145.46 146.86 146.02 147.41H119.77C120.3 146.89 120.73 146.41 120.97 146.05C121.83 144.81 122.31 143.22 119.35 143.11C116.37 142.98 112.51 142.36 106.04 142.99C104.44 143.16 104.14 144.6 105.41 146.33C105.66 146.67 105.96 147.03 106.3 147.4H79.44C79.68 147.11 79.89 146.84 80.06 146.61C81.08 145.18 81.42 143.79 78.95 143.67C76.49 143.55 70.7 142.59 64.42 143.24C61.97 143.49 61.11 144.52 62.19 146.25C62.4 146.59 62.7 146.99 63.04 147.41H32.92C33.56 144.8 32.7 143.91 30.91 143.45C28.21 142.75 24.53 142.19 22.62 144.35C21.88 145.19 21.15 147.45 18.86 147.32C16.59 147.17 15.97 145.03 13.9 143.68C11.82 142.28 3.65004 142.79 1.89004 142.8C0.140044 142.82 -1.28996 138.55 1.89004 138.28C4.52004 138.07 12.9 139.08 14.7 135.58C17.05 130.96 21.36 132.39 23.14 134.28C24.91 136.17 24.01 137.03 30.11 136.02C32.04 135.71 32.65 133.56 32.19 131.33C31.71 128.97 29.99 122.3 29.02 115.43H44.3V115.45ZM144.94 132.59C144.16 134 143.36 135.18 146.64 135.81C149.92 136.46 156.66 135.54 158.76 135.37C160.87 135.21 160.71 133.23 160 132.32C159.27 131.39 156.42 128.52 154.54 127.16C152.64 125.8 150.75 126.95 149.65 127.83C148.61 128.67 145.74 131.17 144.95 132.59H144.94ZM118.61 135.59C121.58 135.36 121.03 133.79 120.13 132.59C119.22 131.37 116.03 128.81 114.26 127.62C112.49 126.44 111.1 126.63 109.72 127.7C108.33 128.78 105.75 131.11 104.56 132.86C103.37 134.64 103.71 136.08 105.31 136.18C111.81 136.57 115.63 135.82 118.6 135.59H118.61ZM78.23 136.47C80.67 136.26 80.31 134.85 79.24 133.48C78.15 132.09 75.65 129.68 73.54 127.97C71.4 126.27 68.78 126.66 67.07 128.09C65.33 129.52 62.4 132.72 61.42 134.5C60.39 136.26 61.29 137.28 63.74 137.43C70.05 137.84 75.79 136.69 78.24 136.47H78.23Z" fill="#69737A"/>
<path fill-rule="evenodd" clip-rule="evenodd" d="M22.541 99.4497C23.211 100.03 23.821 100.8 24.361 101.62C25.641 103.51 27.931 102.1 29.411 99.7697C29.481 99.6497 29.551 99.5497 29.621 99.4397H44.051C44.251 99.8197 44.521 100.17 44.881 100.5C44.881 100.5 46.391 101.44 47.301 102.12C48.921 103.31 51.141 103.17 52.901 101.66C53.281 101.33 54.221 100.49 55.391 99.4397H63.791C63.621 99.6697 63.471 99.8897 63.331 100.11C62.301 101.7 63.211 102.88 64.611 103.06C68.291 103.5 73.011 102.71 76.141 102.67C79.181 102.62 78.451 100.51 77.571 99.4297H103.361C102.701 100.6 102.071 101.92 104.621 102.18C107.591 102.47 114.941 102.18 117.571 101.94C119.721 101.76 119.841 100.54 119.421 99.4497H144.011C143.611 100.51 144.641 101.22 146.461 101.42C149.271 101.71 155.211 101.61 157.841 101.73C160.061 101.85 160.511 100.73 159.841 99.4397H184.561C184.201 100.55 184.611 101.58 186.371 101.74C189.351 102.04 195.991 101.9 197.921 101.7C199.511 101.53 200.381 100.77 199.711 99.4297H210.801C212.091 100.02 213.391 100.11 215.451 99.4297H247.341C248.361 100.23 249.551 100.64 251.821 100.47C254.961 100.23 257.081 101.08 257.111 102.82C257.151 104.57 254.891 106.01 251.731 105.91C248.581 105.79 247.361 105.81 245.981 107.41C244.611 109.01 244.471 110.77 242.361 110.62C240.271 110.48 239.541 109.1 237.761 107.91C235.981 106.73 233.891 106.75 232.871 107.98C231.831 109.24 231.141 109.07 228.691 109.12C226.241 109.16 208.901 109.55 204.371 109.81C201.081 110 194.241 111.97 188.711 115.44H167.201C166.721 113.88 165.571 114.58 164.871 115.24C164.801 115.3 164.731 115.37 164.651 115.45H156.131C157.391 114.08 158.701 112.41 159.531 111.72C160.801 110.63 161.241 109.11 158.441 108.93C155.631 108.77 148.061 109.12 145.731 109.27C143.391 109.43 143.891 111.04 144.951 112.2C146.111 113.45 147.261 114.58 148.281 115.44H138.701C137.981 115.12 137.341 115.12 136.871 115.44H128.211C127.721 115.07 126.931 115.16 126.181 115.44H115.951C117.181 114.46 118.531 113.3 119.341 112.16C120.691 110.19 118.921 108.65 116.641 108.52C114.361 108.38 106.481 108.36 104.561 108.91C102.661 109.47 102.381 110.55 103.571 111.91C105.061 113.59 106.331 114.65 107.401 115.43H98.811C98.671 115.33 98.531 115.24 98.411 115.16C97.111 114.32 95.951 114.4 95.481 115.43H87.511C86.991 113.13 84.661 113.51 83.531 114.52C83.191 114.83 82.861 115.12 82.551 115.42H74.771C75.891 114.34 77.121 113.12 78.051 112.17C79.761 110.39 79.041 108.82 75.521 108.54C72.031 108.25 64.681 108.54 62.581 108.76C60.501 108.99 60.381 110.54 61.071 111.61C61.861 112.85 63.241 114.24 64.681 115.43H56.251C54.721 114.05 53.371 112.82 52.861 112.27C51.621 110.9 48.821 111.29 47.631 112.19C46.541 113 45.461 113.95 44.261 115.42H28.981C28.801 114.16 28.651 112.9 28.541 111.65C28.331 109.22 26.721 107.67 25.181 109.27C23.631 110.88 22.431 112.64 20.681 112.68C18.941 112.71 17.321 110.47 16.241 109.25C15.181 108.04 14.471 108.07 11.851 108.12C9.22096 108.16 9.76096 108.33 7.82096 108.19C5.90096 108.05 5.11096 103.52 7.92096 103.47C10.711 103.41 13.691 103.71 15.751 101.58C16.661 100.63 17.131 99.9297 17.541 99.4297H22.491L22.541 99.4497Z" fill="#69737A"/>
<path fill-rule="evenodd" clip-rule="evenodd" d="M50.4898 83.4497C47.8698 86.2397 44.6698 91.1097 43.9498 94.3297C43.5598 96.1297 43.1898 97.9197 44.0498 99.4597H29.6198C29.9098 98.9897 30.1298 98.6297 30.3198 98.2597C30.8598 97.1597 31.0798 95.9097 31.8898 91.5097C32.1998 89.8597 34.3298 85.7197 35.2598 83.4597H50.5098L50.4898 83.4497ZM64.7698 83.4497C66.0698 84.4197 67.3198 85.2297 68.0798 85.5997C69.8598 86.4397 71.2598 86.3997 72.6398 85.4997C73.1998 85.1297 74.0698 84.3297 74.9798 83.4397H81.8098C80.2398 84.8097 78.3898 86.5497 77.4398 87.7797C76.0698 89.5397 76.2798 91.1097 77.1798 91.9797C78.0598 93.0097 81.6098 95.7397 83.5598 96.9297C85.4998 98.1197 86.7198 97.2097 86.8398 95.3097C86.9798 93.3797 86.8399 86.1997 86.7999 83.7597C86.7999 83.6497 86.7998 83.5397 86.7898 83.4397H94.0798C94.0698 86.2697 94.5098 92.1497 95.0198 94.6497C95.5998 97.4297 96.4698 97.7797 97.6898 96.8797C98.8898 95.9697 102.67 92.9397 103.87 91.1597C105.06 89.3897 105.23 88.6897 103.97 86.6097C103.34 85.5797 102.24 84.4697 101.07 83.4397H109.74C110.06 83.6397 110.37 83.8397 110.66 84.0397C112.44 85.2297 113.83 84.8597 115.04 83.9497C115.25 83.7997 115.46 83.6297 115.68 83.4397H123.07C121.74 85.0697 120.26 87.5497 120.29 89.2897C120.34 91.5597 123.17 93.2597 124.59 94.4597C126.02 95.6597 127.92 94.7397 128.06 92.4697C128.18 90.3697 127.96 85.8897 127.49 83.4297H135.17C135.14 83.6697 135.12 83.8897 135.12 84.1097C135.02 87.9597 135.22 90.7497 135.8 93.0097C136.37 95.2897 137.76 95.4397 138.97 94.5397C140.18 93.6397 141.75 92.2097 143.45 90.2597C145.16 88.3197 144.45 87.2697 143.91 86.2297C143.57 85.5797 142.55 84.5397 141.24 83.4397H149.33C150.44 84.0897 152.03 84.2897 153.4 83.4397H161.12C160.5 84.0197 159.98 84.5397 159.63 84.8897C158.77 85.7797 157.39 87.0397 158.31 89.1197C159.22 91.1997 163.12 93.9297 164.89 95.1197C166.66 96.3197 167.35 96.3097 167.67 93.8597C167.91 91.7997 168.12 86.4697 168.15 83.4397H175.68C175.22 86.4497 175.68 92.6597 176.07 94.7497C176.46 96.8297 178.03 96.9997 179.59 95.9097C181.15 94.8297 183.22 92.7097 184.23 91.4497C185.25 90.2097 185.78 88.9797 184.68 87.4197C183.89 86.2897 181.96 84.6997 180.5 83.4397H187.61C188.1 83.8697 188.52 84.2297 188.79 84.4497C190.32 85.7097 192.5 85.9597 194.39 84.3497C194.72 84.0697 195.09 83.7597 195.48 83.4397H203.6C202.62 84.2997 201.65 85.2497 200.93 86.0897C199.55 87.6997 199.41 89.6297 200.47 90.6497C201.56 91.6797 206.93 97.0697 209.59 98.7597C210 99.0197 210.39 99.2497 210.78 99.4297H199.69C199.55 99.1597 199.35 98.8497 199.07 98.5297C197.45 96.6397 196.03 95.4397 194.43 94.2397C192.85 93.0497 191.27 93.0697 189.54 94.3297C187.81 95.5797 186.09 97.0397 185.07 98.4197C184.83 98.7497 184.65 99.0997 184.54 99.4397H159.82C159.7 99.1997 159.54 98.9597 159.34 98.7197C158.1 97.1697 156.84 96.1397 154.89 94.2397C152.93 92.3697 150.84 92.9297 149.11 94.1697C147.39 95.4297 146.18 96.8597 144.66 98.4797C144.32 98.8197 144.11 99.1397 144 99.4297H119.41C119.32 99.1997 119.2 98.9697 119.08 98.7597C118.36 97.5597 115.88 94.5897 114.79 93.7697C113.32 92.6597 111.06 92.8997 109.2 93.8697C107.8 94.5897 104.36 97.6397 103.68 98.8697C103.58 99.0497 103.47 99.2497 103.35 99.4397H77.5598C77.5598 99.4397 77.4998 99.3497 77.4598 99.3197C76.5698 98.2797 74.4398 96.5897 73.0198 95.3897C71.5998 94.1797 68.9998 94.9297 67.6098 95.6397C66.4098 96.2797 64.8298 97.9597 63.7698 99.4397H55.3698C58.0098 97.0797 61.8398 93.6397 63.1398 92.3997C65.0298 90.6297 64.1298 89.0497 62.9098 88.0397C61.9298 87.2297 59.4298 84.9497 57.5398 83.4397H64.7498L64.7698 83.4497ZM228.11 83.4497C229.56 86.8197 232.22 94.0997 232.67 95.9497C233.23 98.2197 236.06 100.26 238.29 97.5897C240.53 94.9397 240.7 94.9097 241.91 94.9097C243.15 94.8797 244.75 96.7797 246.16 98.3197C246.56 98.7497 246.93 99.1297 247.33 99.4497H215.44C215.44 99.4497 215.5 99.4497 215.53 99.4297C216.43 99.1297 217.84 98.4997 218.41 96.4397C219.1 93.9797 218.1 91.2297 217.63 90.3097C217.16 89.4097 215.35 85.8897 213.47 83.4497H228.1H228.11ZM17.5898 99.4497C18.0998 98.8197 18.5198 98.4997 19.5898 98.3797C20.6798 98.2497 21.6598 98.6897 22.5398 99.4497H17.5898Z" fill="#69737A"/>
<path fill-rule="evenodd" clip-rule="evenodd" d="M40.6603 67.4497C40.7603 68.1497 40.5403 68.9197 40.3803 69.7697C40.0803 71.2297 41.5203 72.6197 42.9103 71.1797C43.4303 70.6297 44.7403 69.1897 46.3503 67.4397H60.9303C60.7803 67.6897 60.6503 67.9197 60.5503 68.1497C59.7703 69.9597 62.1003 70.5897 63.6803 70.7497C65.2703 70.9197 72.6203 71.0897 76.8203 70.7297C80.3103 70.4397 79.5603 68.5697 78.6003 67.4497H104.37C104.19 68.4397 104.57 69.3997 105.84 69.6497C107.6 69.9797 115.29 69.7997 117.04 69.2697C118.13 68.9397 118.81 68.2797 118.88 67.4497H144.34C144.03 68.4597 144.23 68.9097 145.74 69.3697C147.49 69.8797 155.54 69.5297 156.94 69.3297C157.94 69.2197 158.22 68.3597 157.97 67.4397H181.92C181.91 68.2197 182.42 68.9897 183.7 69.4597C185.64 70.1497 196.65 69.5897 198.57 69.4297C200.06 69.2797 200.93 68.6197 200.74 67.4397H216.83C217.38 68.0197 217.84 68.5197 218.18 68.8897C220.49 71.4797 222.57 69.6897 222.36 67.9497C222.34 67.7797 222.33 67.6097 222.33 67.4297H237.88C236.27 69.2797 235.07 71.1297 235.21 72.9597C235.45 75.5897 234.08 77.5197 230.05 77.0697C226.02 76.6297 226.43 80.4697 227.35 81.8497C227.51 82.1097 227.78 82.6697 228.11 83.4397H213.48C213.01 82.8297 212.53 82.2897 212.07 81.8697C209.76 79.8297 207.67 80.3797 206.11 81.4697C205.38 81.9697 204.49 82.6697 203.62 83.4397H195.5C197.37 81.8897 199.76 79.8997 200.6 78.3097C201.61 76.3597 200.72 75.3297 198.77 75.1797C196.86 75.0497 185.82 74.7097 183.9 75.4597C182 76.1797 181.85 77.5997 182.57 78.6297C183.13 79.4397 185.85 81.9097 187.61 83.4497H180.5C179.97 82.9897 179.5 82.5797 179.17 82.2597C177.91 81.0697 175.98 81.6597 175.69 83.3797C175.69 83.3997 175.69 83.4197 175.69 83.4397H168.16C168.16 82.8397 168.16 82.3197 168.16 81.9497C168.11 79.6697 165.7 79.7397 164.29 80.7897C163.16 81.6397 162.04 82.6097 161.13 83.4497H153.41C153.54 83.3597 153.67 83.2697 153.8 83.1597C155.35 81.9197 156.88 80.3097 157.74 79.0697C158.6 77.8397 158.58 76.2597 157.17 76.1097C155.76 75.9597 147.71 75.7497 145.98 76.2997C144.24 76.8497 144.25 77.3797 144.8 78.7697C145.35 80.1597 147.65 82.2197 149.07 83.2497C149.16 83.3097 149.25 83.3697 149.35 83.4297H141.26C140.45 82.7597 139.54 82.0697 138.6 81.4197C136.4 79.9197 135.43 81.7397 135.2 83.4497H127.52C127.48 83.2297 127.44 83.0397 127.4 82.8697C126.83 80.6097 125.33 81.2297 124.24 82.2197C123.91 82.5197 123.52 82.9397 123.11 83.4397H115.72C116.76 82.5197 117.87 81.1997 118.85 79.8697C120.05 78.2797 119.33 76.8797 117.56 76.4097C115.82 75.8997 108.11 75.8797 106.37 76.2497C104.63 76.6397 104.6 78.3497 105.39 79.5997C106.42 81.3197 108.2 82.4397 109.78 83.4497H101.11C99.9303 82.4097 98.6803 81.4597 97.7803 80.7597C95.8903 79.3197 94.2503 80.6297 94.1403 82.5897C94.1303 82.8297 94.1203 83.1097 94.1203 83.4397H86.8303C86.6603 81.2497 85.1603 80.6797 83.6703 81.8897C83.1803 82.2797 82.5403 82.8197 81.8403 83.4297H75.0103C76.3303 82.1397 77.7303 80.6697 78.3503 80.1397C79.3803 79.2497 81.2603 76.5897 77.0503 76.3297C72.8503 76.0297 63.2303 76.5597 61.6603 76.7797C60.0803 76.9697 59.3603 77.7897 60.4803 79.4197C61.3003 80.5997 63.0903 82.1597 64.8103 83.4397H57.6003C57.0703 83.0097 56.5903 82.6397 56.2003 82.3897C54.4303 81.1797 52.7603 81.2097 50.9603 82.9997C50.8203 83.1397 50.6703 83.2897 50.5303 83.4497H35.2803C35.3403 83.2997 35.3903 83.1597 35.4403 83.0397C36.1103 81.2997 35.1903 79.0397 32.7503 79.0597C30.3103 79.0997 29.0903 79.6497 27.4703 78.1097C25.8803 76.5497 27.2503 75.3097 27.0503 73.3897C26.8403 71.4597 25.7803 71.1397 24.1803 69.9397C23.1903 69.1897 22.6003 68.3697 21.8203 67.4497H40.6903H40.6603Z" fill="#69737A"/>
<path fill-rule="evenodd" clip-rule="evenodd" d="M78.6 59.4514C80.07 61.2614 81.16 62.4714 82.6 63.4714C84.23 64.6314 86.81 63.8314 86.7 61.3914C86.67 60.7314 86.67 60.0814 86.68 59.4414H93.84C93.75 61.4814 93.73 63.3614 93.81 64.3414C93.96 66.3114 95.64 67.5914 97.5 66.1114C99.23 64.7014 102.38 62.2514 103.6 60.1414C103.74 59.8914 103.87 59.6614 103.97 59.4514H120.65C121.54 61.2214 122.98 62.9914 123.91 63.7914C125.03 64.7414 126.53 65.3514 127.05 63.0714C127.26 62.1814 127.41 60.8714 127.5 59.4614H134.71C134.71 60.1514 134.74 60.8814 134.77 61.6514C134.85 63.4614 135.83 66.0214 138.26 64.2614C140.64 62.5714 142.86 60.5414 143.46 59.4614H158.39C158.68 59.8114 158.99 60.1114 159.26 60.3714C160.15 61.2414 162.07 63.0014 163.99 64.3914C165.41 65.4114 167.85 65.4314 167.84 63.1614C167.84 62.3714 167.8 61.0114 167.72 59.4514H174.28C174.37 60.2614 174.49 61.1014 174.64 61.9214C174.97 63.6514 176.93 64.1914 178.15 62.9714C178.98 62.1314 180.69 60.7414 182.02 59.4414H190.04C189.47 59.5914 188.96 59.9014 188.42 60.3714C187.2 61.4214 183 65.2714 182.31 66.3314C182.08 66.6814 181.94 67.0714 181.93 67.4514H157.98C157.88 67.0914 157.71 66.7214 157.46 66.3714C156.58 65.1514 155.01 63.5814 153.43 62.3614C151.85 61.1414 149.88 61.4814 148.71 62.3614C147.31 63.4114 145.04 65.5214 144.52 66.9414C144.45 67.1214 144.39 67.2914 144.34 67.4514H118.88C118.92 66.9514 118.73 66.3814 118.27 65.7814C117.04 64.2014 115.64 62.6314 114.41 61.7514C113.18 60.8814 111.77 60.5414 110.03 61.7514C108.28 63.0014 106.01 64.2314 104.79 66.3214C104.58 66.6714 104.44 67.0614 104.37 67.4414H78.6C78.41 67.2214 78.21 67.0314 78.04 66.8814C76.98 66.0014 73.65 62.5114 72.25 61.6414C70.86 60.7814 69.45 60.7814 67.72 61.6414C66.13 62.4414 62.4 65.1314 60.93 67.4414H46.35C48.72 64.8514 51.73 61.5914 53.84 59.4414H78.6V59.4514ZM209.19 59.4514C211.68 62.0314 214.84 65.3014 216.84 67.4414H200.75C200.7 67.1014 200.56 66.7214 200.32 66.2914C199.27 64.3614 196.23 61.4614 194.01 60.3614C193.09 59.8914 192.32 59.5814 191.66 59.4414H209.18L209.19 59.4514ZM241.68 59.4514C241.68 59.4514 241.77 59.5214 241.81 59.5514C242.88 60.4114 242.74 62.3514 240.16 65.0014C239.38 65.8114 238.59 66.6314 237.88 67.4414H222.33C222.31 65.7314 223.24 63.6014 227.38 63.8414C231.91 64.1114 232.44 63.7414 235.89 61.2314C237.09 60.3614 238.05 59.7914 238.82 59.4514H241.68ZM21.79 67.4514C21.32 66.8914 20.79 66.2914 20.06 65.6514C18.1 63.9214 18.72 59.7214 22.95 61.5714C27.19 63.4214 28.14 64.5314 29.73 65.3714C31.33 66.2214 31.33 66.1014 34.21 65.4314C37.87 64.5714 38.93 65.1514 40 66.1814C40.41 66.5814 40.6 67.0014 40.67 67.4414H21.8L21.79 67.4514Z" fill="#69737A"/>
<path fill-rule="evenodd" clip-rule="evenodd" d="M94.7009 51.4531C94.6209 51.6931 94.5509 51.9731 94.4909 52.2831C94.1909 53.8731 93.9509 56.7931 93.8409 59.4531H86.6809C86.7209 57.7131 86.9009 56.0731 86.8809 54.6531C86.8409 51.2131 85.1009 51.2131 83.0109 51.7331C80.7909 52.2831 78.4909 53.6931 77.6109 54.7131C75.7209 56.3831 76.9009 57.3431 78.3109 59.0931C78.4109 59.2131 78.5009 59.3331 78.5909 59.4431H53.8309C54.0209 59.2531 54.2109 59.0631 54.3909 58.8931C57.8309 55.5131 56.0509 54.1531 55.6909 53.4631C55.3409 52.7731 54.1009 52.2631 51.6309 51.7831C51.2209 51.7031 50.8309 51.5931 50.4609 51.4631H94.6909L94.7009 51.4531ZM105.801 51.4531C106.851 52.2531 107.971 52.9931 108.661 53.3431C110.541 54.2831 112.831 54.4631 114.261 53.3331C114.731 52.9631 115.361 52.2431 115.991 51.4531H124.161C124.161 51.4531 124.101 51.4931 124.081 51.5231C122.681 52.7531 119.871 54.5031 119.871 56.7931C119.871 57.5831 120.191 58.5231 120.661 59.4631H103.981C104.771 57.8531 104.501 57.1431 103.421 55.5931C102.491 54.2731 100.421 52.5831 98.9509 51.4731H105.801V51.4531ZM135.781 51.4531C135.571 51.7731 135.401 52.1931 135.281 52.7331C134.871 54.5531 134.681 56.7031 134.711 59.4631H127.501C127.651 57.2631 127.671 54.8431 127.561 53.4531C127.491 52.5531 127.141 51.8731 126.661 51.4531H135.781ZM146.451 51.4531C146.931 52.0431 147.391 52.5531 147.771 52.8631C149.211 53.9931 151.491 53.8031 153.371 52.8631C153.981 52.5531 154.721 52.0331 155.451 51.4531H162.241C160.571 52.7231 158.561 54.4931 157.861 56.1731C157.261 57.6331 157.751 58.6731 158.391 59.4631H143.461C143.461 59.4631 143.491 59.4031 143.511 59.3731C144.031 58.3231 144.741 57.2631 142.991 55.3531C141.421 53.6531 140.001 52.3431 138.831 51.4631H146.441L146.451 51.4531ZM174.731 51.4531C174.341 51.9131 174.381 52.7231 174.221 53.6931C173.981 55.2131 174.031 57.2831 174.281 59.4431H167.721C167.591 56.6131 167.371 53.1431 167.151 51.4531H174.731ZM207.431 51.4531C204.061 52.4431 204.071 54.1031 205.881 56.0131C206.501 56.6631 207.731 57.9431 209.191 59.4531H191.671C191.061 59.3231 190.531 59.3231 190.051 59.4531H182.031C182.671 58.8331 183.231 58.2231 183.561 57.7131C184.621 56.1231 184.301 55.5231 183.241 54.3031C182.181 53.0931 180.711 52.1531 178.871 51.6231C178.671 51.5631 178.481 51.5131 178.291 51.4631H207.431V51.4531ZM238.831 59.4531C240.201 58.8531 241.021 58.9731 241.691 59.4531H238.831Z" fill="#69737A"/>
<path fill-rule="evenodd" clip-rule="evenodd" d="M62.04 43.4531C62.04 43.5431 62.02 43.6331 62.01 43.7231C61.55 47.4031 62.6 47.5631 63.83 48.2431C65.07 48.9131 65.84 49.7331 67.81 48.7531C70.68 47.3331 74.38 45.4131 78.33 43.4531H186.29C188.83 44.5331 191.24 45.6231 192.94 46.6131C196.13 48.4831 198.37 46.7131 198.15 44.2531C198.13 44.0031 198.1 43.7331 198.06 43.4631H212.53C212.51 43.8531 212.51 44.2531 212.52 44.7031C212.58 47.6731 212.45 50.3031 208.26 51.2531C207.97 51.3231 207.69 51.3931 207.44 51.4631H178.3C176.08 50.8731 175.16 50.9631 174.74 51.4631H167.16C167.16 51.4031 167.14 51.3331 167.13 51.2731C166.77 48.8231 165.15 49.3931 163.39 50.6131C163.05 50.8531 162.65 51.1431 162.24 51.4531H155.45C156.38 50.7131 157.27 49.8731 157.79 49.2631C159.14 47.7231 158.81 45.6431 155.85 45.0231C152.92 44.4031 148.46 43.3031 144.83 43.7131C142.22 44.0131 141.74 45.3631 144.07 48.3031C144.64 49.0231 145.58 50.3631 146.47 51.4531H138.86C138.72 51.3531 138.58 51.2431 138.44 51.1531C137.51 50.4831 136.47 50.4331 135.8 51.4631H126.68C125.98 50.8331 124.99 50.7831 124.16 51.4631H115.99C116.79 50.4731 117.58 49.3631 118.03 48.7131C119.75 46.2031 119.42 44.4831 116.79 44.1631C113.16 43.7431 108.46 44.1231 105.06 45.2131C102.2 46.1531 102.69 47.9131 103.4 49.1431C103.76 49.7631 104.74 50.6531 105.81 51.4631H98.96C98.5 51.1131 98.09 50.8231 97.8 50.6131C96.72 49.8431 95.37 49.5631 94.72 51.4631H50.49C48.68 50.7931 47.54 49.4131 48.08 46.7731C48.34 45.5031 48.34 44.4131 48.18 43.4531H62.06H62.04Z" fill="#69737A"/>
<path fill-rule="evenodd" clip-rule="evenodd" d="M48.1503 43.4513C47.9003 42.0213 47.2803 40.9113 46.5403 39.9913C45.2803 38.4213 43.3003 35.4913 44.6803 34.2313C46.0603 32.9813 49.7503 34.8413 51.5403 36.5713C53.3203 38.2813 53.3203 38.8013 57.0003 38.7413C60.5903 38.6813 62.3703 39.9813 62.0303 43.4613H48.1503V43.4513ZM78.3303 43.4513C79.6603 42.7913 81.0103 42.1213 82.3703 41.4713C85.5603 39.9913 84.7803 38.0013 83.2403 37.7313C80.4303 37.2613 77.9403 35.2113 81.2603 31.7013C83.0003 29.8613 83.2703 27.2513 80.2303 26.4213C77.2403 25.5913 77.5403 22.4513 79.5903 19.7713C81.6203 17.1313 80.2003 14.8713 80.3303 12.9413C80.4803 11.0113 83.1603 9.57126 84.8703 12.3313C85.9503 14.0713 87.0503 17.0113 90.2103 17.4913C93.3603 17.9813 93.4103 20.7413 92.3903 22.3513C91.3703 23.9613 90.8903 26.0513 93.7003 26.7013C96.5003 27.3513 98.9903 29.0613 97.1403 32.7713C95.2903 36.4713 96.8603 36.4413 99.6603 36.0613C102.44 35.6513 109.76 33.8013 120.95 33.0413C124.44 32.8013 124.06 31.5913 122.63 29.3313C121.18 27.0913 120.25 24.8413 124.22 20.7313C126.8 18.0613 125.54 16.3313 124.13 14.9513C122.7 13.5913 122.08 11.9413 124.89 9.33126C126.45 7.90126 126.76 6.16126 127.58 2.64126C128.38 -0.868738 131.71 -0.918738 132.3 2.72126C132.9 6.39126 133.1 8.32126 135.4 9.51126C137.69 10.6913 138.45 13.6513 136.04 15.8013C133.63 17.9513 135.08 20.3813 137.73 21.7213C140.38 23.0613 140.8 26.9113 138.73 28.7113C136.66 30.4913 137.06 32.9313 139.84 33.0513C142.64 33.1813 155.52 34.6313 161.6 35.6513C165.46 36.2713 164.73 34.3513 163.64 32.7913C162.56 31.2413 161.62 27.7713 165.28 26.8213C168.94 25.8813 168.74 24.1313 167.64 22.0513C166.56 19.9713 166.7 18.0513 169.64 16.4113C172.6 14.7813 172.76 15.1313 173.59 12.3213C174.41 9.51126 179.64 8.54126 179.9 12.7413C180.15 16.9313 179.3 18.3413 181.43 20.0513C183.56 21.7613 183.08 24.2013 180.13 25.8613C177.87 27.1313 178.45 28.8513 179.51 30.2513C180.59 31.6213 182.58 35.0813 178.92 36.9013C175.28 38.7213 178.02 40.0313 179.71 40.7213C181.75 41.5913 184.07 42.5313 186.28 43.4713H78.3203L78.3303 43.4513ZM198.06 43.4513C197.76 41.1113 197.27 38.2513 202.77 37.6813C208.87 37.0613 208.49 35.3013 210.56 33.3613C212.62 31.3813 217.35 32.1813 215.17 36.2413C213.29 39.6913 212.65 41.2413 212.53 43.4613H198.06V43.4513Z" fill="#69737A"/>
<path d="M198.58 412.752H183.52C182.79 412.482 182.42 411.902 182.42 410.992V370.902H184.21V410.992H198.58V412.752Z" fill="#69737A" stroke="#69737A" stroke-width="5.39" stroke-miterlimit="3.86"/>
<path d="M221.92 410.212C219.76 412.252 217.25 413.272 214.36 413.272C210.96 413.272 208.07 411.942 205.71 409.282C203.35 406.622 202.17 403.332 202.17 399.422C202.17 395.192 203.58 391.702 206.39 388.962C208.75 386.662 211.23 385.512 213.84 385.512C216.93 385.512 219.71 386.722 222.17 389.142C224.81 391.722 226.13 394.762 226.13 398.262C226.13 399.072 226.1 400.002 225.71 400.012H203.78C203.78 403.312 204.86 406.092 207.02 408.352C209.08 410.532 211.55 411.612 214.44 411.612C216.81 411.612 218.89 410.722 220.68 408.952L221.92 410.212ZM224.51 398.352C224.51 395.282 223.43 392.652 221.28 390.462C219.23 388.402 216.85 387.372 214.14 387.372C211.26 387.372 208.88 388.362 207 390.342C205.13 392.322 204.05 394.992 203.77 398.352H224.51Z" fill="#69737A"/>
<path d="M221.92 410.212C219.76 412.252 217.25 413.272 214.36 413.272C210.96 413.272 208.07 411.942 205.71 409.282C203.35 406.622 202.17 403.332 202.17 399.422C202.17 395.192 203.58 391.702 206.39 388.962C208.75 386.662 211.23 385.512 213.84 385.512C216.93 385.512 219.71 386.722 222.17 389.142C224.81 391.722 226.13 394.762 226.13 398.262C226.13 399.072 226.1 400.002 225.71 400.012H203.78C203.78 403.312 204.86 406.092 207.02 408.352C209.08 410.532 211.55 411.612 214.44 411.612C216.81 411.612 218.89 410.722 220.68 408.952L221.92 410.212ZM224.51 398.352C224.51 395.282 223.43 392.652 221.28 390.462C219.23 388.402 216.85 387.372 214.14 387.372C211.26 387.372 208.88 388.362 207 390.342C205.13 392.322 204.05 394.992 203.77 398.352H224.51Z" stroke="#69737A" stroke-width="5.39" stroke-miterlimit="3.86"/>
<path d="M293.811 410.212C291.651 412.252 289.141 413.272 286.251 413.272C282.851 413.272 279.961 411.942 277.601 409.282C275.241 406.622 274.061 403.332 274.061 399.422C274.061 395.192 275.471 391.702 278.281 388.962C280.641 386.662 283.121 385.512 285.731 385.512C288.821 385.512 291.601 386.722 294.061 389.142C296.701 391.722 298.021 394.762 298.021 398.262C298.021 399.072 297.991 400.002 297.601 400.012H275.671C275.671 403.312 276.751 406.092 278.911 408.352C280.971 410.532 283.441 411.612 286.331 411.612C288.701 411.612 290.781 410.722 292.581 408.952L293.821 410.212H293.811ZM296.401 398.352C296.401 395.282 295.321 392.652 293.171 390.462C291.121 388.402 288.741 387.372 286.031 387.372C283.151 387.372 280.771 388.362 278.891 390.342C277.021 392.322 275.941 394.992 275.661 398.352H296.401Z" fill="#69737A"/>
<path d="M293.811 410.212C291.651 412.252 289.141 413.272 286.251 413.272C282.851 413.272 279.961 411.942 277.601 409.282C275.241 406.622 274.061 403.332 274.061 399.422C274.061 395.192 275.471 391.702 278.281 388.962C280.641 386.662 283.121 385.512 285.731 385.512C288.821 385.512 291.601 386.722 294.061 389.142C296.701 391.722 298.021 394.762 298.021 398.262C298.021 399.072 297.991 400.002 297.601 400.012H275.671C275.671 403.312 276.751 406.092 278.911 408.352C280.971 410.532 283.441 411.612 286.331 411.612C288.701 411.612 290.781 410.722 292.581 408.952L293.821 410.212H293.811ZM296.401 398.352C296.401 395.282 295.321 392.652 293.171 390.462C291.121 388.402 288.741 387.372 286.031 387.372C283.151 387.372 280.771 388.362 278.891 390.342C277.021 392.322 275.941 394.992 275.661 398.352H296.401Z" stroke="#69737A" stroke-width="5.39" stroke-miterlimit="3.86"/>
<path d="M246.041 412.753H231.241C230.791 412.753 230.561 412.393 230.561 411.683C230.561 411.523 230.751 411.143 231.121 410.553L244.011 387.893H230.771V386.133H245.361C245.741 386.133 245.971 386.393 246.041 386.923C246.141 387.283 246.091 387.653 245.881 388.013L232.741 410.903H246.031V412.763L246.041 412.753Z" fill="#69737A" stroke="#69737A" stroke-width="5.39" stroke-miterlimit="3.86"/>
<path d="M268.71 412.753H253.91C253.46 412.753 253.23 412.393 253.23 411.683C253.23 411.523 253.42 411.143 253.79 410.553L266.68 387.893H253.44V386.133H268.03C268.41 386.133 268.64 386.393 268.71 386.923C268.81 387.283 268.76 387.653 268.55 388.013L255.41 410.903H268.7V412.763L268.71 412.753Z" fill="#69737A" stroke="#69737A" stroke-width="5.39" stroke-miterlimit="3.86"/>
<path d="M314.73 388.203H308.03V405.823C308.03 407.603 308.79 409.033 310.3 410.123C311.64 411.053 313.12 411.513 314.74 411.513V413.143C314.18 413.223 313.78 413.263 313.53 413.263C311.6 413.263 309.93 412.483 308.53 410.903C307.13 409.333 306.43 407.433 306.43 405.223V376.383H308.04V386.333H314.74V388.193L314.73 388.203Z" fill="#69737A" stroke="#69737A" stroke-width="5.39" stroke-miterlimit="3.86"/>
<path d="M361.27 400.182C361.27 403.642 360.06 406.702 357.65 409.372C355.24 412.042 352.54 413.382 349.56 413.382C346.3 413.382 343.47 412.102 341.08 409.552C338.68 407.002 337.49 403.852 337.49 400.122V371.012H339.1V400.012C339.1 403.432 340.11 406.182 342.12 408.272C344.13 410.362 346.64 411.412 349.63 411.412C352.62 411.412 354.87 410.352 356.72 408.242C358.56 406.132 359.48 403.412 359.48 400.072V371.012H361.27V400.182Z" fill="#69737A" stroke="#69737A" stroke-width="5.39" stroke-miterlimit="3.86"/>
<path d="M372.731 424.301C374.351 425.921 376.421 426.741 378.941 426.741C381.181 426.741 383.201 425.961 385.001 424.421C386.801 422.871 387.701 420.971 387.701 418.721V409.071C385.101 411.801 382.221 413.171 379.061 413.171C376.461 413.171 374.241 412.261 372.401 410.451C370.561 408.641 369.641 406.421 369.641 403.801V386.141H371.491V403.011C371.491 405.311 372.291 407.281 373.881 408.941C375.481 410.591 377.411 411.421 379.691 411.421C381.971 411.421 383.861 410.631 385.401 409.061C386.941 407.491 387.701 405.551 387.701 403.261V386.151H389.651V418.081C389.651 421.061 388.591 423.541 386.471 425.541C384.351 427.531 381.791 428.531 378.801 428.531C375.811 428.531 373.251 427.551 371.271 425.611L372.721 424.331L372.731 424.301Z" fill="#69737A" stroke="#69737A" stroke-width="5.39" stroke-miterlimit="3.86"/>
<path d="M402.98 423.85C404.82 425.71 407.06 426.64 409.71 426.64C412.53 426.64 414.8 425.43 416.54 423.01C418.17 420.75 418.99 417.96 418.99 414.65V406.6C416.7 411.12 413.17 413.38 408.41 413.38C404.97 413.38 402.16 412.03 399.99 409.34C397.82 406.64 396.73 403.31 396.73 399.32C396.73 395.78 397.92 392.66 400.3 389.97C402.68 387.27 405.4 385.93 408.46 385.93C411.52 385.93 414.42 387.2 416.85 389.74C419.28 392.28 420.5 395.36 420.5 398.99V415.62C420.5 419.09 419.45 422.12 417.35 424.72C415.25 427.32 412.72 428.62 409.76 428.62C406.49 428.62 403.79 427.43 401.65 425.05L402.98 423.86V423.85ZM418.89 399.93C418.89 396.55 417.89 393.66 415.91 391.27C413.92 388.88 411.48 387.68 408.59 387.68C405.7 387.68 403.25 388.83 401.24 391.12C399.24 393.41 398.23 396.23 398.23 399.57C398.23 402.91 399.2 405.79 401.13 408.2C403.06 410.62 405.46 411.82 408.32 411.82C411.18 411.82 413.69 410.67 415.77 408.38C417.84 406.09 418.88 403.27 418.88 399.93H418.89Z" fill="#69737A"/>
<path d="M402.98 423.85C404.82 425.71 407.06 426.64 409.71 426.64C412.53 426.64 414.8 425.43 416.54 423.01C418.17 420.75 418.99 417.96 418.99 414.65V406.6C416.7 411.12 413.17 413.38 408.41 413.38C404.97 413.38 402.16 412.03 399.99 409.34C397.82 406.64 396.73 403.31 396.73 399.32C396.73 395.78 397.92 392.66 400.3 389.97C402.68 387.27 405.4 385.93 408.46 385.93C411.52 385.93 414.42 387.2 416.85 389.74C419.28 392.28 420.5 395.36 420.5 398.99V415.62C420.5 419.09 419.45 422.12 417.35 424.72C415.25 427.32 412.72 428.62 409.76 428.62C406.49 428.62 403.79 427.43 401.65 425.05L402.98 423.86V423.85ZM418.89 399.93C418.89 396.55 417.89 393.66 415.91 391.27C413.92 388.88 411.48 387.68 408.59 387.68C405.7 387.68 403.25 388.83 401.24 391.12C399.24 393.41 398.23 396.23 398.23 399.57C398.23 402.91 399.2 405.79 401.13 408.2C403.06 410.62 405.46 411.82 408.32 411.82C411.18 411.82 413.69 410.67 415.77 408.38C417.84 406.09 418.88 403.27 418.88 399.93H418.89Z" stroke="#69737A" stroke-width="5.39" stroke-miterlimit="3.86"/>
<path d="M517.91 379.709C515.67 379.709 513.7 379.149 511.99 378.029L512.82 376.859C514.29 377.789 516.11 378.389 517.97 378.389H518.08C519.95 378.389 521.64 377.859 523.11 376.929L523.84 378.029C522.13 379.149 520.15 379.709 517.91 379.709Z" fill="#69737A" stroke="#69737A" stroke-width="5.39" stroke-miterlimit="3.86"/>
<path d="M451.35 412.749H449.92V406.049C448.85 408.219 447.4 409.949 445.57 411.239C443.74 412.529 441.76 413.169 439.62 413.169C436.27 413.169 433.5 411.819 431.31 409.129C429.12 406.439 428.02 403.119 428.02 399.179C428.02 395.239 429.12 392.149 431.33 389.529C433.53 386.919 436.28 385.609 439.58 385.609C442.88 385.609 445.71 387.009 447.96 389.799C450.22 392.589 451.34 395.919 451.34 399.779V412.749H451.35ZM449.92 399.669C449.92 396.309 448.93 393.429 446.95 391.049C444.97 388.669 442.54 387.469 439.65 387.469C436.76 387.469 434.35 388.589 432.39 390.839C430.43 393.079 429.45 395.869 429.45 399.189C429.45 402.509 430.39 405.319 432.26 407.719C434.2 410.249 436.58 411.509 439.4 411.509C442.22 411.509 444.8 410.379 446.85 408.119C448.9 405.859 449.92 403.039 449.92 399.679V399.669Z" fill="#69737A"/>
<path d="M451.35 412.749H449.92V406.049C448.85 408.219 447.4 409.949 445.57 411.239C443.74 412.529 441.76 413.169 439.62 413.169C436.27 413.169 433.5 411.819 431.31 409.129C429.12 406.439 428.02 403.119 428.02 399.179C428.02 395.239 429.12 392.149 431.33 389.529C433.53 386.919 436.28 385.609 439.58 385.609C442.88 385.609 445.71 387.009 447.96 389.799C450.22 392.589 451.34 395.919 451.34 399.779V412.749H451.35ZM449.92 399.669C449.92 396.309 448.93 393.429 446.95 391.049C444.97 388.669 442.54 387.469 439.65 387.469C436.76 387.469 434.35 388.589 432.39 390.839C430.43 393.079 429.45 395.869 429.45 399.189C429.45 402.509 430.39 405.319 432.26 407.719C434.2 410.249 436.58 411.509 439.4 411.509C442.22 411.509 444.8 410.379 446.85 408.119C448.9 405.859 449.92 403.039 449.92 399.679V399.669Z" stroke="#69737A" stroke-width="5.39" stroke-miterlimit="3.86"/>
<path d="M476.32 389.56C474.95 388.21 472.95 387.42 471.34 387.42C469.17 387.42 463.18 388.83 463.18 396.2V412.76H461.66V395.98C461.66 393.89 462.74 386 471.35 386C471.35 386 474.94 386.17 477.17 388.44L476.32 389.56Z" fill="#69737A" stroke="#69737A" stroke-width="5.39" stroke-miterlimit="3.86"/>
<path d="M485.251 412.75H483.641V371.52H485.251V412.75Z" fill="#69737A" stroke="#69737A" stroke-width="5.39" stroke-miterlimit="3.86"/>
<path d="M497.821 412.861H496.211V386.301H497.821V412.861Z" fill="#69737A" stroke="#69737A" stroke-width="5.39" stroke-miterlimit="3.86"/>
<path d="M512.53 423.85C514.37 425.71 516.61 426.64 519.25 426.64C522.07 426.64 524.34 425.43 526.08 423.01C527.71 420.75 528.53 417.96 528.53 414.65V406.6C526.24 411.12 522.71 413.38 517.95 413.38C514.51 413.38 511.7 412.03 509.53 409.34C507.36 406.64 506.27 403.31 506.27 399.32C506.27 395.78 507.46 392.66 509.84 389.97C512.22 387.27 514.94 385.93 518 385.93C521.06 385.93 523.96 387.2 526.39 389.74C528.83 392.28 530.04 395.36 530.04 398.99V415.62C530.04 419.09 528.99 422.12 526.88 424.72C524.78 427.32 522.25 428.62 519.29 428.62C516.02 428.62 513.32 427.43 511.18 425.05L512.51 423.86L512.53 423.85ZM528.45 399.93C528.45 396.55 527.46 393.66 525.47 391.27C523.48 388.88 521.05 387.68 518.15 387.68C515.25 387.68 512.81 388.83 510.8 391.12C508.8 393.41 507.79 396.23 507.79 399.57C507.79 402.91 508.76 405.79 510.69 408.2C512.62 410.62 515.02 411.82 517.88 411.82C520.74 411.82 523.25 410.67 525.33 408.38C527.4 406.09 528.44 403.27 528.44 399.93H528.45Z" fill="#69737A"/>
<path d="M512.53 423.85C514.37 425.71 516.61 426.64 519.25 426.64C522.07 426.64 524.34 425.43 526.08 423.01C527.71 420.75 528.53 417.96 528.53 414.65V406.6C526.24 411.12 522.71 413.38 517.95 413.38C514.51 413.38 511.7 412.03 509.53 409.34C507.36 406.64 506.27 403.31 506.27 399.32C506.27 395.78 507.46 392.66 509.84 389.97C512.22 387.27 514.94 385.93 518 385.93C521.06 385.93 523.96 387.2 526.39 389.74C528.83 392.28 530.04 395.36 530.04 398.99V415.62C530.04 419.09 528.99 422.12 526.88 424.72C524.78 427.32 522.25 428.62 519.29 428.62C516.02 428.62 513.32 427.43 511.18 425.05L512.51 423.86L512.53 423.85ZM528.45 399.93C528.45 396.55 527.46 393.66 525.47 391.27C523.48 388.88 521.05 387.68 518.15 387.68C515.25 387.68 512.81 388.83 510.8 391.12C508.8 393.41 507.79 396.23 507.79 399.57C507.79 402.91 508.76 405.79 510.69 408.2C512.62 410.62 515.02 411.82 517.88 411.82C520.74 411.82 523.25 410.67 525.33 408.38C527.4 406.09 528.44 403.27 528.44 399.93H528.45Z" stroke="#69737A" stroke-width="5.39" stroke-miterlimit="3.86"/>
<path d="M542.45 386.301H540.85V412.861H542.45V386.301Z" fill="#69737A" stroke="#69737A" stroke-width="5.39" stroke-miterlimit="3.86"/>
<path d="M303.35 386.359H306.94V388.209H303.35V386.359Z" fill="#69737A" stroke="#69737A" stroke-width="5.39" stroke-miterlimit="3.86"/>
<path d="M461.65 386.703H463.18V401.153H461.65V386.703Z" fill="#69737A" stroke="#69737A" stroke-width="5.39" stroke-miterlimit="3.86"/>
<path d="M451.36 401.153L449.83 395.293V386.703H451.36V401.153Z" fill="#69737A" stroke="#69737A" stroke-width="5.39" stroke-miterlimit="3.86"/>
<path d="M530.05 401.153L528.51 395.293V386.703H530.05V401.153Z" fill="#69737A" stroke="#69737A" stroke-width="5.39" stroke-miterlimit="3.86"/>
<path d="M420.491 401.153L418.961 395.293V386.703H420.491V401.153Z" fill="#69737A" stroke="#69737A" stroke-width="5.39" stroke-miterlimit="3.86"/>
<path d="M217.78 121.911C217.78 121.911 187.15 119.731 187.89 151.801V307.781C187.89 307.781 186.98 336.581 217.04 336.941H305.97C305.97 336.941 325.67 338.411 334.41 320.191C334.41 320.191 340.97 336.941 362.84 336.941H406.59C406.59 336.941 429.17 338.781 435.55 323.471C435.55 323.471 439.75 338.941 465.62 336.941H510.1C510.1 336.941 541.44 339.331 539.98 307.781V217.401C539.98 217.401 540.72 205.561 536.71 201.741C536.71 201.741 552 168.951 532.69 142.671C532.69 142.671 506.25 100.781 454.31 126.291C454.31 126.291 444.47 121.911 440.11 121.911H334.41C334.41 121.911 326.02 121.361 319.1 126.291C319.1 126.291 312.89 121.741 306.71 121.911H217.78Z" fill="#69737A" stroke="#69737A" stroke-width="9.68"/>
<path d="M305.971 131.032C313.091 130.842 319.101 136.142 319.101 136.142C324.931 130.122 331.861 131.032 331.861 131.032H438.651C445.401 130.122 453.951 136.142 453.951 136.142C467.811 125.562 484.581 126.382 484.581 126.382C511.921 126.382 533.411 146.712 534.061 175.852C534.301 186.832 526.841 201.742 526.841 201.742C533.051 205.762 532.131 218.152 532.131 218.152L531.961 305.622C533.951 329.492 509.711 328.212 509.711 328.212H461.961C435.541 328.952 438.651 305.622 438.651 305.622V227.982H432.821V305.972C431.361 328.582 410.581 328.202 410.581 328.202H361.741C339.161 326.752 338.781 304.532 338.781 304.532V227.982H330.041V242.572C330.041 254.212 324.211 257.142 324.211 257.142C331.131 261.892 330.041 271.722 330.041 271.722V305.252C328.211 329.682 307.071 328.212 307.071 328.212H219.241C196.821 329.312 196.641 305.982 196.641 305.982V153.642C196.641 130.322 218.881 131.032 218.881 131.032H305.981H305.971Z" fill="white"/>
<path d="M276.091 253.84C276.091 253.84 275.371 247.3 281.191 248.39H304.881C304.881 248.39 315.821 249.1 313.631 239.64V219.6C313.631 219.6 313.631 210.12 305.241 211.58H281.181C281.181 211.58 275.171 212.31 276.081 205.37V199.9C276.081 199.9 275.361 194.07 280.441 194.07H304.501C304.501 194.07 314.161 195.53 313.621 184.59V155.45C313.621 155.45 313.621 146.15 304.871 147.42H221.411C221.411 147.42 211.931 147.42 213.021 156.36V303.44C213.021 303.44 212.311 312.53 221.411 311.8H308.141C308.141 311.8 316.901 312.91 316.171 303.78V274.25C316.171 274.25 316.901 265.51 308.141 265.51H281.181C281.181 265.51 275.171 266.41 276.081 259.84V253.83L276.091 253.84Z" fill="#69737A"/>
<path d="M437.911 147.42H332.951C332.951 147.42 323.831 147.25 324.571 155.81V202.09C324.571 202.09 323.111 210.84 332.951 211.58H345.531C345.531 211.58 354.641 210.66 353.731 220.5V303.59C353.731 303.59 353.001 311.8 361.741 311.8H409.301C409.301 311.8 417.511 312.72 417.511 303.97V220.68C417.511 220.68 416.971 211.21 425.891 211.59H438.481C438.481 211.59 446.321 212.68 446.321 203.03V155.64C446.321 155.64 447.581 146.89 437.921 147.43L437.911 147.42Z" fill="#69737A"/>
<path d="M461.61 211.59C461.61 211.59 452.31 211.22 453.59 219.96V303.6C453.59 303.6 453.05 313.27 461.96 311.81H507.53C507.53 311.81 515.56 312.92 515.56 303.6V220.15C515.56 220.15 516.28 210.67 507.17 211.59H461.61Z" fill="#69737A"/>
<path d="M452.609 174.401C452.609 156.751 466.919 142.441 484.569 142.441C502.219 142.441 516.529 156.751 516.529 174.401C516.529 192.051 502.219 206.361 484.569 206.361C466.919 206.361 452.609 192.051 452.609 174.401Z" fill="#69737A"/>
</g>
<defs>
<clipPath id="clip0_128_565">
<rect width="547.29" height="431.3" fill="white"/>
</clipPath>
</defs>
</svg>
