<?xml version="1.0" encoding="UTF-8"?>
<svg id="Layer_1" data-name="Layer 1" xmlns="http://www.w3.org/2000/svg" viewBox="0 0 63 30">
  <defs>
    <style>
      .cls-1 {
        fill: #231f20;
      }

      .cls-2 {
        fill: #ffc222;
      }
    </style>
  </defs>
  <path class="cls-2" d="M62.93,27.06V2.83C62.93,1.26,61.75,0,60.31,0h-2.08c.07.16.11.33.11.52,0,.76-.6,1.38-1.37,1.38l-2.78.02c-.77,0-1.4-.6-1.41-1.36,0-.19.04-.38.11-.55h-4.52c.08.18.13.37.13.57,0,.76-.6,1.38-1.37,1.39l-2.78.02c-.77,0-1.4-.6-1.41-1.36,0-.21.04-.41.13-.59h-4.66c.09.19.15.39.15.61,0,.76-.6,1.38-1.37,1.39l-2.78.02c-.77,0-1.4-.6-1.41-1.36,0-.23.05-.45.15-.64h-4.33c.11.2.17.42.17.66,0,.76-.6,1.38-1.37,1.38l-2.78.02c-.77,0-1.4-.6-1.41-1.36,0-.25.06-.48.18-.68h-4.37c.12.21.2.45.2.7,0,.76-.6,1.38-1.37,1.38l-2.78.02c-.77,0-1.4-.6-1.41-1.36,0-.27.07-.52.2-.74h-4.77c.14.22.23.47.23.76,0,.76-.6,1.38-1.37,1.39l-2.78.02c-.77,0-1.4-.6-1.41-1.36,0-.29.08-.55.23-.78h-1.46C1.34.1.06,1.36.07,2.94v24.23c0,1.57,1.18,2.83,2.62,2.83h2.03c-.03-.11-.04-.22-.04-.33,0-.76.6-1.38,1.37-1.39l2.78-.02c.77,0,1.4.6,1.41,1.36,0,.13-.01.25-.05.36h4.44c-.04-.13-.06-.25-.06-.38,0-.76.6-1.38,1.37-1.38l2.78-.02c.77,0,1.4.6,1.41,1.36,0,.14-.02.28-.06.41h4.12c-.04-.14-.07-.28-.07-.42,0-.76.6-1.38,1.37-1.39l2.78-.02c.77,0,1.4.6,1.41,1.36,0,.16-.02.31-.07.45h4.16c-.05-.15-.08-.31-.09-.47,0-.76.6-1.38,1.37-1.39l2.78-.02c.77,0,1.4.6,1.41,1.36,0,.17-.03.34-.09.49h4.58c-.07-.16-.1-.33-.1-.51,0-.76.6-1.38,1.37-1.38l2.78-.02c.77,0,1.4.6,1.41,1.36,0,.19-.04.37-.11.54h4.51c-.08-.18-.12-.36-.12-.56,0-.76.6-1.38,1.37-1.39l2.78-.02c.77,0,1.4.6,1.41,1.36,0,.21-.04.41-.13.59h1.35c1.44,0,2.7-1.28,2.69-2.84"/>
  <g>
    <path class="cls-1" d="M12.82,13.25h-5.31v-.98l3.42-4.91h-3.33v-1.25h5.13v.98l-3.42,4.91h3.51v1.25Z"/>
    <path class="cls-1" d="M18.85,7.79v5.46h-1.14l-.2-.7h-.08c-.17.28-.41.48-.72.61-.3.13-.62.19-.96.19-.59,0-1.06-.16-1.41-.47-.35-.32-.53-.83-.53-1.53v-3.56h1.49v3.19c0,.39.07.68.21.88.14.2.36.3.67.3.45,0,.76-.16.93-.46.17-.31.25-.75.25-1.33v-2.57h1.49ZM14.67,6.39c0-.23.07-.4.2-.5s.29-.15.48-.15.35.05.48.15.21.27.21.5c0,.22-.07.38-.21.49s-.3.16-.48.16-.35-.05-.48-.16-.2-.27-.2-.49ZM16.64,6.39c0-.23.07-.4.2-.5s.3-.15.49-.15.35.05.49.15.21.27.21.5c0,.22-.07.38-.21.49s-.3.16-.49.16-.36-.05-.49-.16-.2-.27-.2-.49Z"/>
    <path class="cls-1" d="M22.63,13.35c-.81,0-1.44-.22-1.88-.67s-.67-1.16-.67-2.12c0-.67.11-1.21.34-1.63s.54-.73.94-.93c.4-.2.87-.3,1.4-.3.37,0,.7.04.98.11.28.07.52.16.72.26l-.44,1.15c-.23-.09-.45-.17-.66-.23-.2-.06-.4-.09-.6-.09-.77,0-1.16.55-1.16,1.65,0,.55.1.95.3,1.21s.49.39.85.39c.31,0,.59-.04.83-.12.24-.08.47-.2.7-.34v1.27c-.23.15-.46.25-.71.31s-.57.09-.95.09Z"/>
    <path class="cls-1" d="M27.77,13.35c-.81,0-1.44-.22-1.88-.67-.44-.45-.67-1.16-.67-2.12,0-.67.11-1.21.34-1.63s.54-.73.95-.93.87-.3,1.39-.3c.37,0,.7.04.98.11s.52.16.73.26l-.44,1.15c-.23-.09-.45-.17-.66-.23-.2-.06-.4-.09-.61-.09-.77,0-1.16.55-1.16,1.65,0,.55.1.95.3,1.21.2.26.49.39.85.39.31,0,.59-.04.83-.12.24-.08.47-.2.7-.34v1.27c-.23.15-.47.25-.72.31s-.57.09-.94.09Z"/>
    <path class="cls-1" d="M32.93,7.68c.73,0,1.29.16,1.68.48.39.32.59.8.59,1.46v3.64h-1.04l-.29-.74h-.04c-.23.29-.48.51-.74.64-.26.13-.62.2-1.07.2-.49,0-.89-.14-1.21-.42s-.48-.72-.48-1.3.2-1.01.61-1.29,1.02-.43,1.83-.46l.95-.03v-.24c0-.29-.08-.5-.22-.63-.15-.13-.36-.2-.62-.2s-.53.04-.78.11c-.25.08-.51.17-.76.29l-.49-1.01c.29-.15.62-.27.97-.36.36-.09.73-.13,1.12-.13ZM33.72,10.72l-.58.02c-.48.01-.81.1-1,.26s-.28.37-.28.63c0,.23.07.39.2.49s.31.14.52.14c.32,0,.59-.09.81-.29.22-.19.33-.46.33-.8v-.45Z"/>
    <path class="cls-1" d="M38.95,13.35c-.81,0-1.44-.22-1.88-.67-.44-.45-.67-1.16-.67-2.12,0-.67.11-1.21.34-1.63s.54-.73.95-.93.87-.3,1.39-.3c.37,0,.7.04.98.11s.52.16.73.26l-.44,1.15c-.23-.09-.45-.17-.66-.23-.2-.06-.4-.09-.61-.09-.77,0-1.16.55-1.16,1.65,0,.55.1.95.3,1.21.2.26.49.39.85.39.31,0,.59-.04.83-.12.24-.08.47-.2.7-.34v1.27c-.23.15-.47.25-.72.31s-.57.09-.94.09Z"/>
    <path class="cls-1" d="M42.61,5.65c.22,0,.41.05.57.15.16.1.24.29.24.58s-.08.46-.24.57c-.16.11-.35.16-.57.16s-.42-.05-.58-.16-.23-.3-.23-.57.08-.47.23-.58c.16-.1.35-.15.58-.15ZM43.36,7.79v5.46h-1.49v-5.46h1.49Z"/>
    <path class="cls-1" d="M44.14,7.79h1.63l1.03,3.07c.05.15.09.3.12.46.03.16.05.32.06.49h.03c.02-.17.05-.34.08-.49.04-.16.08-.31.12-.46l1.01-3.07h1.6l-2.31,6.16c-.21.57-.51.99-.91,1.27s-.85.43-1.38.43c-.17,0-.31,0-.43-.03-.12-.02-.23-.04-.33-.05v-1.18c.07.01.16.03.27.04.1.01.21.02.32.02.31,0,.56-.09.75-.29.18-.19.32-.42.41-.68l.09-.27-2.17-5.42Z"/>
    <path class="cls-1" d="M52.86,7.69c.75,0,1.35.21,1.79.64s.66,1.04.66,1.83v.72h-3.52c.01.42.14.75.38.99.24.24.56.36.98.36.35,0,.67-.04.96-.11.29-.07.58-.18.89-.33v1.15c-.27.13-.55.23-.84.29-.3.06-.66.09-1.08.09-.55,0-1.03-.1-1.45-.3s-.75-.51-.99-.92-.36-.93-.36-1.56.11-1.17.32-1.59c.22-.42.52-.74.91-.96.39-.21.84-.32,1.35-.32ZM52.87,8.75c-.29,0-.53.09-.71.28-.19.19-.3.48-.34.87h2.09c0-.33-.09-.61-.26-.83s-.43-.33-.78-.33Z"/>
    <path class="cls-1" d="M8.92,24.25h-1.51v-3.08h-2.83v3.08h-1.51v-7.14h1.51v2.8h2.83v-2.8h1.51v7.14Z"/>
    <path class="cls-1" d="M12.85,18.69c.75,0,1.35.21,1.79.64s.66,1.04.66,1.83v.72h-3.52c.01.42.14.75.38.99.24.24.56.36.98.36.35,0,.67-.04.96-.11.29-.07.58-.18.89-.33v1.15c-.27.13-.55.23-.84.29-.3.06-.66.09-1.08.09-.55,0-1.03-.1-1.45-.3s-.75-.51-.99-.92-.36-.93-.36-1.56.11-1.17.32-1.59c.22-.42.52-.74.91-.96.39-.21.84-.32,1.35-.32ZM12.86,19.75c-.29,0-.53.09-.71.28-.19.19-.3.48-.34.87h2.09c0-.33-.09-.61-.26-.83s-.43-.33-.78-.33Z"/>
    <path class="cls-1" d="M18.24,24.35c-.61,0-1.1-.24-1.48-.71s-.57-1.18-.57-2.1.19-1.64.58-2.12c.39-.48.89-.72,1.52-.72.39,0,.72.08.97.23s.45.34.6.57h.05c-.02-.11-.04-.26-.07-.46-.03-.2-.04-.41-.04-.62v-1.75h1.49v7.6h-1.14l-.29-.71h-.06c-.15.23-.34.42-.59.58-.25.16-.57.23-.96.23ZM18.76,23.16c.41,0,.7-.12.87-.37s.25-.61.26-1.09v-.16c0-.53-.08-.94-.24-1.22-.16-.28-.46-.42-.91-.42-.33,0-.58.14-.77.42-.19.28-.28.69-.28,1.22s.09.94.28,1.21c.19.27.45.41.79.41Z"/>
    <path class="cls-1" d="M23.58,16.65c.22,0,.41.05.57.15.16.1.24.29.24.58s-.08.46-.24.57-.35.16-.57.16-.42-.05-.57-.16-.23-.3-.23-.57.08-.47.23-.58c.16-.1.35-.15.57-.15ZM24.32,18.79v5.46h-1.49v-5.46h1.49Z"/>
    <path class="cls-1" d="M25.11,18.79h1.63l1.03,3.07c.05.15.09.3.12.46.03.16.05.32.06.49h.03c.02-.17.05-.34.09-.49.04-.16.08-.31.12-.46l1.01-3.07h1.6l-2.31,6.16c-.21.57-.51.99-.9,1.27s-.86.43-1.38.43c-.17,0-.31,0-.44-.03s-.23-.04-.32-.05v-1.18c.07.01.16.03.26.04.1.01.21.02.33.02.31,0,.56-.09.74-.29.18-.19.32-.42.41-.68l.09-.27-2.17-5.42Z"/>
    <path class="cls-1" d="M33.82,18.69c.75,0,1.35.21,1.79.64s.66,1.04.66,1.83v.72h-3.52c.01.42.14.75.38.99.24.24.57.36.99.36.35,0,.67-.04.96-.11.29-.07.58-.18.89-.33v1.15c-.27.13-.55.23-.85.29s-.65.09-1.07.09c-.55,0-1.03-.1-1.45-.3-.42-.2-.75-.51-.99-.92-.24-.41-.36-.93-.36-1.56s.11-1.17.33-1.59c.22-.42.52-.74.91-.96.39-.21.84-.32,1.35-.32ZM33.83,19.75c-.29,0-.52.09-.71.28-.19.19-.3.48-.33.87h2.09c0-.33-.09-.61-.26-.83s-.43-.33-.78-.33Z"/>
    <path class="cls-1" d="M43.24,18.27c-.58,0-1.02.22-1.33.65s-.46,1.03-.46,1.78.14,1.35.42,1.76c.28.42.74.62,1.37.62.29,0,.59-.03.88-.1.29-.07.61-.16.95-.28v1.27c-.31.13-.62.22-.93.28-.31.06-.65.09-1.03.09-.73,0-1.34-.15-1.82-.46-.48-.3-.83-.73-1.05-1.28s-.34-1.19-.34-1.92.13-1.36.39-1.91c.26-.55.64-.99,1.13-1.3.5-.31,1.1-.47,1.82-.47.35,0,.71.04,1.07.13.36.09.7.21,1.02.37l-.49,1.23c-.27-.13-.53-.24-.8-.33-.27-.09-.54-.14-.79-.14ZM44.16,25.47c0,.37-.11.66-.32.87s-.61.31-1.19.31c-.15,0-.28-.01-.39-.03-.12-.02-.22-.04-.31-.07v-.82c.09.03.21.05.34.07.14.02.26.03.36.03.09,0,.18-.02.25-.07.07-.04.1-.12.1-.23,0-.12-.06-.23-.18-.32-.12-.09-.33-.16-.63-.21l.38-.75h.94l-.13.3c.2.07.38.17.54.33.16.15.24.35.24.59Z"/>
    <path class="cls-1" d="M48.7,18.69c.75,0,1.35.21,1.79.64s.66,1.04.66,1.83v.72h-3.52c.01.42.14.75.38.99.24.24.56.36.98.36.35,0,.67-.04.96-.11.29-.07.58-.18.89-.33v1.15c-.27.13-.55.23-.84.29-.3.06-.66.09-1.08.09-.55,0-1.03-.1-1.45-.3s-.75-.51-.99-.92-.36-.93-.36-1.56.11-1.17.32-1.59c.22-.42.52-.74.91-.96.39-.21.84-.32,1.35-.32ZM48.72,19.75c-.29,0-.53.09-.71.28-.19.19-.3.48-.34.87h2.09c0-.33-.09-.61-.26-.83s-.43-.33-.78-.33Z"/>
    <path class="cls-1" d="M53.86,16.65v3.4c0,.21,0,.41-.02.62-.02.2-.04.41-.06.62h.02c.1-.14.2-.28.31-.42.11-.14.22-.28.34-.41l1.53-1.66h1.68l-2.17,2.37,2.3,3.09h-1.72l-1.57-2.21-.64.51v1.7h-1.49v-7.6h1.49Z"/>
    <path class="cls-1" d="M59.32,16.65c.22,0,.41.05.57.15.16.1.24.29.24.58s-.08.46-.24.57c-.16.11-.35.16-.57.16s-.42-.05-.58-.16c-.16-.11-.24-.3-.24-.57s.08-.47.24-.58c.16-.1.35-.15.58-.15ZM60.06,18.79v5.46h-1.49v-5.46h1.49Z"/>
  </g>
</svg>