<svg aria-hidden="true" class="header__logo-desktop" focusable="false" viewbox="0 0 582 65.7" xmlns="http://www.w3.org/2000/svg">
<style>
                    .st0{fill:#e30613}.st1{fill:#164194}
                  </style>
<path class="st0" d="M88 9.4C88 5.6 90.5 3 94.4 3c3.9 0 6.4 2.6 6.4 6.4v45.5c0 3.8-2.5 6.4-6.4 6.4-3.9 0-6.4-2.6-6.4-6.4V9.4zm23.6 1.1c0-5.3 2.6-7.5 8.1-7.5 2.7 0 5 1 6.4 3.4l22.5 36.2h.2V9.2c0-4.1 2.3-6.2 6.2-6.2 3.8 0 6.2 2 6.2 6.2v44.2c0 5.1-2.2 8-7.6 8-4.1 0-5.4-.9-7-3.4l-22.3-35.2h-.3v32.5c0 4.1-2.3 6.2-6.2 6.2-3.8 0-6.2-2-6.2-6.2V10.5zm69.8 4.3h-9.1c-3.7 0-6.6-1.9-6.6-5.4 0-3.5 3-5.4 6.6-5.4h31.1c3.7 0 6.6 1.9 6.6 5.4 0 3.5-3 5.4-6.6 5.4h-9.1v40.1c0 3.8-2.5 6.4-6.4 6.4-3.9 0-6.4-2.6-6.4-6.4V14.8zm33.3-3.3c0-5.7 3-7.5 7.5-7.5h28.1c3.8 0 6.5 1.1 6.5 5.2s-2.7 5.2-6.5 5.2h-22.8v12.2h19.8c3.4 0 6 .9 6 4.9s-2.7 4.9-6 4.9h-19.8V50H251c3.8 0 6.5 1.1 6.5 5.2s-2.7 5.2-6.5 5.2h-28.8c-4.5 0-7.5-1.8-7.5-7.5V11.5zM275.9 29h10.8c4.9 0 9.7-1.3 9.7-7.6 0-6-3.7-7.6-9.3-7.6h-11.2V29zm-12.8-17.5c0-5.7 3-7.5 7.5-7.5H290c15.3 0 19.3 8.4 19.3 15.6 0 6.1-3.6 12.1-9.7 13.5v.2c6.6.9 7.7 5.7 7.7 11.4 0 6.5 1.7 8.9 1.7 11.6 0 3-3.1 5-6 5-7 0-7.6-6.8-7.6-9.1 0-9.9-1.8-13.8-8.8-13.8h-10.7v16.5c0 3.8-2.5 6.4-6.4 6.4-3.9 0-6.4-2.6-6.4-6.4V11.5z"></path>
<path class="st1" d="M484.8 29h10.8c4.9 0 9.7-1.3 9.7-7.6 0-6-3.7-7.6-9.3-7.6h-11.2V29zm-12.9-17.5c0-5.7 3-7.5 7.5-7.5h19.4c15.3 0 19.3 8.4 19.3 15.6 0 6.1-3.6 12.1-9.7 13.5v.2c6.6.9 7.7 5.7 7.7 11.4 0 6.5 1.7 8.9 1.7 11.6 0 3-3.1 5-6 5-7 0-7.6-6.8-7.6-9.1 0-9.9-1.8-13.8-8.8-13.8h-10.7v16.5c0 3.8-2.5 6.4-6.4 6.4-3.9 0-6.4-2.6-6.4-6.4V11.5zM347.3 27.7C359 30.4 362 37.3 362 43.9c0 10.2-7.7 17.8-23.2 17.8-16.3 0-23.5-8.1-23.5-14.2 0-3.1 2.3-5.3 5.4-5.3 7 0 5.2 10.2 18.1 10.2 6.7 0 10.3-3.7 10.3-7.4 0-2.3-1.1-4.8-5.5-5.9l-14.5-3.7c-11.7-3-13.8-9.4-13.8-15.4 0-12.5 11.6-17.2 22.5-17.2 10 0 21.8 5.6 21.8 13.1 0 3.2-2.7 5.1-5.9 5.1-5.9 0-4.9-8.4-16.8-8.4-5.9 0-9.2 2.7-9.2 6.6s4.7 5.2 8.8 6.1l10.8 2.4zm33.2 2.1h10c5.2 0 9-3.1 9-8 0-5.6-4-8-10.3-8h-8.7v16zm-12.8-18.3c0-5.7 3-7.5 7.5-7.5h17.6c10.8 0 19.5 5.3 19.5 17.8 0 10.2-7.1 17.8-19.6 17.8h-12.3v15.3c0 3.8-2.5 6.4-6.4 6.4-3.9 0-6.4-2.6-6.4-6.4V11.5zm72.8 39.8c11.7 0 11.7-9.1 11.7-19.9S451 13 440.5 13s-11.7 7.7-11.7 18.5-.4 19.8 11.7 19.8m0-48.6C458.9 2.7 465 15 465 31.5c0 15.9-5.3 30.2-24.5 30.2-20.2 0-24.5-13.1-24.5-30.2 0-16.5 6-28.8 24.5-28.8m94.7 12.1h-9.1c-3.7 0-6.6-1.9-6.6-5.4 0-3.5 3-5.4 6.6-5.4h31.1c3.7 0 6.6 1.9 6.6 5.4 0 3.5-3 5.4-6.6 5.4H548v40.1c0 3.8-2.5 6.4-6.4 6.4-3.9 0-6.4-2.6-6.4-6.4V14.8zM571.6 9V7h1.7c.3 0 .6 0 .9.2.3.2.5.5.5.8 0 .3-.1.5-.3.7-.4.3-.8.3-1.3.3h-1.5zm3.9 3.1l-1.3-2.6c.8-.2 1.2-.8 1.2-1.5 0-.5-.3-1-.7-1.2-.4-.3-1-.3-1.5-.3h-2.5v5.7h.8V9.6h1.7l1.2 2.5h1.1z"></path>
<path class="st1" d="M572.9 5.3c-2.3 0-4.1 1.9-4.1 4.1 0 2.3 1.9 4.1 4.1 4.1 2.3 0 4.1-1.9 4.1-4.1 0-2.3-1.9-4.1-4.1-4.1m0 9.1c-2.8 0-5-2.2-5-5s2.2-5 5-5 5 2.2 5 5c-.1 2.7-2.3 5-5 5"></path>
<path class="st0" d="M7.7 16c0-7 5.6-12.6 12.6-12.6S32.9 9 32.9 16s-5.6 12.6-12.6 12.6S7.7 23 7.7 16"></path>
<path class="st1" d="M20.3 60.8c-1.7 0-3.1-1.5-3.1-3.4V36.7c0-1.9 1.3-3.4 3.1-3.4 19.8 0 21.4-26.9 49.9-26.9 1.7 0 3.1 1.5 3.1 3.4v20.5c0 1.9-1.4 3.4-3.1 3.4-19.4 0-20.6 27.1-49.9 27.1"></path>
</svg>