<svg fill="none" height="80" viewbox="0 0 148 80" width="148" xmlns="http://www.w3.org/2000/svg"><path d="M61.7148 58.7701V52.3498C61.7148 52.2605 61.765 52.2009 61.8553 52.2009H65.1566C65.2469 52.2009 65.2971 52.2605 65.2971 52.3498V53.0246C65.2971 53.1139 65.2369 53.1734 65.1566 53.1734H62.8086V54.9695H65.0262C65.1165 54.9695 65.1667 55.0291 65.1667 55.1184V55.7931C65.1667 55.8824 65.1065 55.942 65.0262 55.942H62.8086V58.7999C62.8086 58.8892 62.7484 58.9487 62.6581 58.9487H61.8553C61.765 58.919 61.7148 58.8594 61.7148 58.7701Z" fill="#1F6D58"></path><path d="M73.2845 58.919H72.4416C72.3613 58.919 72.3011 58.8893 72.281 58.8L71.8797 57.629H69.07L68.6586 58.8C68.6285 58.8893 68.5784 58.919 68.4981 58.919H67.6652C67.5549 58.919 67.5147 58.8496 67.5448 58.7603L69.8527 52.33C69.8828 52.2506 69.9531 52.2109 70.0233 52.2109H70.9063C70.9866 52.2109 71.0568 52.2506 71.087 52.33L73.3949 58.7603C73.445 58.8496 73.3949 58.919 73.2845 58.919ZM71.5485 56.6764L70.4749 53.5407L69.4012 56.6764H71.5485Z" fill="#1F6D58"></path><path d="M75.5921 58.0061C75.5419 57.9366 75.5419 57.8671 75.6121 57.7977L76.0236 57.3412C76.1038 57.2519 76.1741 57.2618 76.2443 57.3313C76.6457 57.7778 77.0571 58.0458 77.6993 58.0458C78.4117 58.0458 78.8432 57.7084 78.8432 57.1229C78.8432 56.5473 78.4117 56.3191 77.8398 56.0512L77.0169 55.6642C76.3045 55.3268 75.7225 54.8207 75.7225 53.9177C75.7225 52.7864 76.6156 52.1216 77.7194 52.1216C78.5121 52.1216 79.1342 52.4391 79.6259 52.9948C79.7062 53.0742 79.6961 53.1337 79.6259 53.2131L79.2245 53.6795C79.1543 53.7688 79.084 53.7688 79.0037 53.6994C78.6024 53.3024 78.2411 53.104 77.7495 53.104C77.1775 53.104 76.7661 53.3918 76.7661 53.9078C76.7661 54.3444 77.037 54.5726 77.5989 54.8405L78.3415 55.1879C79.1041 55.555 79.8767 56.0115 79.8767 57.113C79.8767 58.3732 78.8633 59.0182 77.6893 59.0182C76.6858 59.0282 75.9834 58.5518 75.5921 58.0061Z" fill="#1F6D58"></path><path d="M83.9608 58.7703V53.1636H82.576C82.4857 53.1636 82.4355 53.1041 82.4355 53.0148V52.34C82.4355 52.2507 82.4857 52.1912 82.576 52.1912H86.4292C86.5195 52.1912 86.5697 52.2507 86.5697 52.34V53.0148C86.5697 53.1041 86.5095 53.1636 86.4292 53.1636H85.0545V58.7703C85.0545 58.8596 84.9943 58.9191 84.904 58.9191H84.1013C84.0109 58.9191 83.9608 58.8596 83.9608 58.7703Z" fill="#1F6D58"></path><path d="M89.9199 58.7701V52.3498C89.9199 52.2605 89.9701 52.2009 90.0604 52.2009H90.8632C90.9535 52.2009 91.0137 52.2605 91.0137 52.3498V58.7701C91.0137 58.8594 90.9535 58.919 90.8632 58.919H90.0604C89.9701 58.919 89.9199 58.8594 89.9199 58.7701Z" fill="#1F6D58"></path><path d="M94.0371 55.5948C94.0371 53.6399 95.5523 52.1316 97.519 52.1316C98.4723 52.1316 99.2449 52.469 99.847 53.0644C99.9273 53.1338 99.9273 53.2033 99.857 53.2728L99.3653 53.7987C99.3051 53.8682 99.2349 53.8682 99.1847 53.8086C98.7231 53.4117 98.1713 53.1835 97.5291 53.1835C96.1744 53.1835 95.1409 54.2055 95.1409 55.5948C95.1409 56.9741 96.1644 57.9962 97.5792 57.9962C98.8135 57.9962 99.6062 57.2321 99.6363 56.22H97.6194C97.5291 56.22 97.4789 56.1703 97.4789 56.081V55.3864C97.4789 55.2971 97.5291 55.2475 97.6194 55.2475H100.529C100.62 55.2475 100.68 55.307 100.68 55.3963V55.8627C100.68 57.639 99.4958 59.0382 97.5592 59.0382C95.5523 59.0382 94.0371 57.5497 94.0371 55.5948Z" fill="#1F6D58"></path><path d="M103.709 58.7701V52.3498C103.709 52.2605 103.759 52.2009 103.849 52.2009H104.652C104.743 52.2009 104.803 52.2605 104.803 52.3498V55.1283H107.612V52.3498C107.612 52.2605 107.673 52.2009 107.753 52.2009H108.556C108.646 52.2009 108.696 52.2605 108.696 52.3498V58.7701C108.696 58.8594 108.646 58.919 108.556 58.919H107.753C107.663 58.919 107.612 58.8594 107.612 58.7701V56.0809H104.803V58.78C104.803 58.8693 104.743 58.9289 104.652 58.9289H103.849C103.759 58.919 103.709 58.8594 103.709 58.7701Z" fill="#1F6D58"></path><path d="M112.389 58.7701V52.3498C112.389 52.2605 112.439 52.2009 112.529 52.2009H115.891C115.981 52.2009 116.031 52.2605 116.031 52.3498V53.0246C116.031 53.1139 115.981 53.1734 115.891 53.1734H113.472V55.0191H115.75C115.84 55.0191 115.891 55.0787 115.891 55.168V55.8527C115.891 55.942 115.83 55.9916 115.75 55.9916H113.472V57.9862H115.891C115.981 57.9862 116.031 58.0457 116.031 58.135V58.8098C116.031 58.8991 115.971 58.9586 115.891 58.9586H112.529C112.439 58.919 112.389 58.8594 112.389 58.7701Z" fill="#1F6D58"></path><path d="M120.566 58.7703V53.1636H119.181C119.091 53.1636 119.041 53.1041 119.041 53.0148V52.34C119.041 52.2507 119.091 52.1912 119.181 52.1912H123.035C123.125 52.1912 123.175 52.2507 123.175 52.34V53.0148C123.175 53.1041 123.115 53.1636 123.035 53.1636H121.66V58.7703C121.66 58.8596 121.6 58.9191 121.509 58.9191H120.707C120.616 58.9191 120.566 58.8596 120.566 58.7703Z" fill="#1F6D58"></path><path d="M126.346 58.7701V52.3498C126.346 52.2605 126.396 52.2009 126.486 52.2009H129.848C129.938 52.2009 129.988 52.2605 129.988 52.3498V53.0246C129.988 53.1139 129.938 53.1734 129.848 53.1734H127.429V55.0191H129.707C129.798 55.0191 129.858 55.0787 129.858 55.168V55.8527C129.858 55.942 129.798 55.9916 129.707 55.9916H127.429V57.9862H129.848C129.938 57.9862 129.988 58.0457 129.988 58.135V58.8098C129.988 58.8991 129.928 58.9586 129.848 58.9586H126.486C126.396 58.919 126.346 58.8594 126.346 58.7701Z" fill="#1F6D58"></path><path d="M137.866 58.919H137.013C136.933 58.919 136.873 58.8892 136.843 58.8197L135.317 56.4778H134.555V58.7701C134.555 58.8594 134.494 58.919 134.404 58.919H133.601C133.511 58.919 133.461 58.8594 133.461 58.7701V52.3498C133.461 52.2605 133.511 52.2009 133.601 52.2009H135.558C137.103 52.2009 137.876 53.0841 137.876 54.3344C137.876 55.3367 137.384 56.1008 136.391 56.3687L137.966 58.7403C138.037 58.8495 137.986 58.919 137.866 58.919ZM134.555 55.5252H135.518C136.23 55.5252 136.832 55.2474 136.832 54.3443C136.832 53.4413 136.23 53.1635 135.518 53.1635H134.555V55.5252Z" fill="#1F6D58"></path><path d="M99.3149 26.5692H93.194C92.9331 26.5692 92.7625 26.7379 92.7625 26.9959V45.0463L86.3807 26.9364C87.2336 26.2914 87.7353 25.2891 87.7353 24.138C87.7353 22.1931 86.2703 20.5359 84.0527 20.5359C81.8351 20.5359 80.3701 22.1931 80.3701 24.138C80.3701 25.299 80.8818 26.3112 81.7448 26.9562L76.0353 43.1609L70.6067 35.52L77.3397 27.0852C77.5404 26.8272 77.4802 26.5692 77.1089 26.5692H73.1353C72.9346 26.5692 72.754 26.6288 72.6135 26.7974L65.8805 35.8574V26.9959C65.8805 26.7379 65.7099 26.5692 65.449 26.5692H62.1678C61.9069 26.5692 61.7363 26.7379 61.7363 26.9959V46.2172C61.7363 46.4752 61.9069 46.6439 62.1678 46.6439H65.449C65.7099 46.6439 65.8805 46.4752 65.8805 46.2172V41.4541L68.0881 38.7252L73.5668 46.3859C73.7073 46.5844 73.8578 46.6439 74.0886 46.6439H75.3329H78.7546C78.9854 46.6439 79.1559 46.5546 79.2462 46.2966L80.2296 43.3395H87.8858L88.8692 46.2966C88.9595 46.5546 89.1301 46.6439 89.3609 46.6439H96.4852C96.7461 46.6439 96.9167 46.4752 96.9167 46.2172V39.6183H99.325C104.141 39.6183 106.459 36.9489 106.459 33.0788C106.459 29.2386 104.131 26.5692 99.3149 26.5692ZM84.0527 22.5106C84.9959 22.5106 85.6682 23.2449 85.6682 24.1082C85.6682 24.9716 84.9959 25.7059 84.0527 25.7059C83.1095 25.7059 82.4372 24.9716 82.4372 24.1082C82.4372 23.2449 83.1095 22.5106 84.0527 22.5106ZM81.4137 39.7076L84.0527 31.7293L86.6917 39.7076H81.4137ZM99.1744 35.9764H96.9167V30.211H99.1744C100.94 30.211 102.486 30.8164 102.486 33.0788C102.486 35.3711 100.94 35.9764 99.1744 35.9764Z" fill="#1F6D58"></path><path d="M137.467 26.5692H134.186C133.925 26.5692 133.754 26.7379 133.754 26.9959V40.0747L126.499 26.847C126.379 26.6485 126.208 26.5592 125.978 26.5592H122.124C121.863 26.5592 121.693 26.7279 121.693 26.9859V45.1653L115.251 26.8966C115.161 26.6684 114.93 26.5493 114.699 26.5493H111.187C110.956 26.5493 110.725 26.6684 110.635 26.8966L103.852 46.1477C103.731 46.4355 103.882 46.6339 104.203 46.6339H107.625C107.856 46.6339 108.026 46.5446 108.116 46.2866L109.1 43.3295H116.756L117.739 46.2866C117.83 46.5446 118 46.6339 118.231 46.6339H125.396C125.656 46.6339 125.827 46.4652 125.827 46.2072V33.1383L133.082 46.366C133.192 46.5645 133.373 46.6538 133.604 46.6538H137.467C137.728 46.6538 137.898 46.4851 137.898 46.2271V26.9959C137.898 26.7379 137.728 26.5692 137.467 26.5692ZM110.284 39.7075L112.923 31.7292L115.562 39.7075H110.284Z" fill="#1F6D58"></path><path d="M33.8416 39.7968V20C36.7114 20.5755 39.8521 24.138 40.3438 28.0577C43.2739 26.2715 48.5921 25.8646 51.2913 27.502L37.3937 41.2456C36.4304 40.4121 35.1962 39.8762 33.8416 39.7968ZM29.0251 41.7716L15.1476 28.0477C13.9535 30.598 14.2546 35.8474 16.9839 38.8839C13.6023 39.5885 10.4816 42.7242 10 45.2745H27.5501C27.6404 43.9348 28.1722 42.7143 29.0251 41.7716ZM39.3906 45.2745H56.9306C56.4489 42.7242 53.3283 39.5885 49.9467 38.8839C52.676 35.8474 52.9771 30.598 51.783 28.0477L37.9155 41.7716C38.7584 42.7143 39.3003 43.9348 39.3906 45.2745ZM33.099 39.7968V20C30.2292 20.5755 27.0885 24.138 26.5968 28.0577C23.6668 26.2715 18.3486 25.8646 15.6493 27.502L29.5569 41.2556C30.5102 40.4121 31.7444 39.8762 33.099 39.7968ZM56.9406 46.0187H39.3906C39.3103 47.3583 38.7684 48.5789 37.9256 49.5216L47.7391 59.2265C48.9031 57.4701 49.0235 54.8603 48.271 52.4291C52.7663 51.7742 56.459 48.7079 56.9406 46.0187ZM33.4703 51.5063C31.9652 51.5063 30.6005 50.9506 29.5469 50.0376L19.8638 59.6135C23.9879 60.3478 29.1756 60.0998 31.5437 58.3136C33.4001 56.9144 33.4703 54.9595 33.4703 53.094C33.4703 54.9595 33.5406 56.9144 35.3969 58.3136C37.765 60.0998 42.9528 60.3478 47.0769 59.6135L37.3937 50.0376C36.3401 50.9605 34.9755 51.5063 33.4703 51.5063ZM27.5501 46.0187H10C10.4816 48.7079 14.1743 51.7742 18.6797 52.4291C17.9271 54.8702 18.0375 57.4701 19.2115 59.2265L29.0251 49.5216C28.1722 48.5789 27.6404 47.3583 27.5501 46.0187Z" fill="#59AA64"></path></svg>