<?xml version="1.0" encoding="utf-8"?>
<!-- Generator: Adobe Illustrator 28.0.0, SVG Export Plug-In . SVG Version: 6.00 Build 0)  -->


<svg version="1.1" id="Kia-Eswatini-logo_176x26"
     xmlns="http://www.w3.org/2000/svg"
     xmlns:xlink="http://www.w3.org/1999/xlink"
     x="0px" y="0px"
     width="175" height="20"
     viewBox="0 0 175 20"
     style="enable-background:new 0 0 175 20;"
     xml:space="preserve">
<style type="text/css">
	.st0{fill:#FFFFFF;}
</style>



<g id="Eswatini">
	<path class="st0" d="M96.68,18.12H86.02V1.41h10.55v2.42h-7.58v4.48h6.36v2.41h-6.36v4.95h7.69V18.12z"/>
	<path class="st0" d="M99.19,14.36c0.46,0.6,1.03,1.06,1.7,1.38c0.65,0.32,1.35,0.48,2.06,0.48c0.71,0,1.25-0.13,1.58-0.38
		c0.33-0.25,0.51-0.57,0.51-0.97c0-0.32-0.1-0.6-0.32-0.81c-0.22-0.22-0.61-0.44-1.19-0.65l-1.2-0.46
		c-1.04-0.39-1.83-0.89-2.35-1.47c-0.52-0.58-0.8-1.32-0.8-2.24c0-0.62,0.16-1.2,0.48-1.74c0.32-0.52,0.81-0.94,1.47-1.26
		s1.45-0.48,2.38-0.48c0.7,0,1.38,0.12,2.05,0.36c0.65,0.25,1.22,0.54,1.67,0.87v2.73c-0.57-0.6-1.16-1.04-1.79-1.34
		s-1.25-0.42-1.89-0.42c-0.6,0-1.03,0.12-1.29,0.35s-0.39,0.48-0.39,0.74c0,0.29,0.13,0.54,0.38,0.74c0.25,0.2,0.67,0.42,1.28,0.65
		l1.19,0.44c1.07,0.39,1.86,0.89,2.34,1.48c0.48,0.6,0.74,1.34,0.74,2.24c0,1.22-0.45,2.16-1.34,2.83c-0.89,0.67-2.06,1-3.53,1
		c-0.75,0-1.45-0.13-2.13-0.38c-0.68-0.25-1.2-0.57-1.61-0.94L99.19,14.36z"/>
	<path class="st0" d="M112.5,18.18L108.99,6.1h2.83l2.31,8.68l2.35-8.68h3.44l2.38,8.72l2.32-8.72h2.51l-3.45,12h-3.09l-2.5-9.11
		l-2.42,9.13L112.5,18.18z"/>
	<path class="st0" d="M129.12,12.44c0.44-0.49,1.02-0.89,1.74-1.15c0.73-0.28,1.6-0.49,2.61-0.65l2.53-0.39
		c-0.13-1.57-1.1-2.35-2.9-2.35c-0.68,0-1.35,0.17-2.02,0.54c-0.67,0.36-1.22,0.86-1.65,1.48V7.16c1.15-0.93,2.57-1.38,4.27-1.38
		c1.52,0,2.77,0.41,3.73,1.23s1.44,2.06,1.44,3.74v7.36h-2.38l-0.26-1.38c-0.6,0.57-1.22,1-1.84,1.29
		c-0.62,0.29-1.36,0.42-2.21,0.42c-1.2,0-2.15-0.33-2.83-0.99c-0.68-0.65-1.02-1.57-1.02-2.7C128.34,13.84,128.6,13.07,129.12,12.44
		L129.12,12.44z M131.57,15.77c0.29,0.28,0.67,0.42,1.16,0.42c0.73,0,1.38-0.22,1.99-0.65c0.61-0.44,1.06-0.97,1.35-1.61v-1.68
		l-1.42,0.25c-1,0.16-1.7,0.32-2.1,0.49c-0.41,0.17-0.73,0.36-0.97,0.58c-0.28,0.28-0.42,0.62-0.42,1.06
		C131.15,15.1,131.3,15.48,131.57,15.77z"/>
	<path class="st0" d="M143.21,8.29h-2.6V6.11h2.6V2.46h2.83V6.1h2.66v2.18h-2.66v9.83h-2.83V8.29z"/>
	<path class="st0" d="M153.53,4.29h-2.84V1.27h2.83L153.53,4.29L153.53,4.29z M153.53,18.12h-2.84v-12h2.83L153.53,18.12
		L153.53,18.12z"/>
	<path class="st0" d="M156.83,18.12v-12h2.66l0.17,1.74c0.42-0.58,0.97-1.07,1.63-1.47s1.39-0.6,2.21-0.6
		c1.34,0,2.37,0.39,3.11,1.16c0.74,0.78,1.12,1.89,1.12,3.32v7.85h-2.83v-7.87c0-1.52-0.61-2.29-1.84-2.29
		c-0.71,0-1.39,0.28-2.03,0.83s-1.07,1.22-1.34,1.99v7.31h-2.84V18.12z"/>
	<path class="st0" d="M173.62,4.29h-2.83V1.27h2.83V4.29z M173.62,18.12h-2.83v-12h2.83V18.12z"/>
</g>
<path id="Kia" class="st0" d="M42.68,16.2c0,0.13,0.04,0.2,0.12,0.2c0.06-0.01,0.12-0.03,0.17-0.07L64.81,2.15
	c0.19-0.13,0.38-0.23,0.6-0.29s0.44-0.1,0.67-0.09h4.8c0.74,0,1.23,0.49,1.23,1.22v9.17c0,1.1-0.25,1.76-1.23,2.34l-5.82,3.53
	c-0.06,0.04-0.13,0.06-0.2,0.07c-0.07,0-0.15-0.06-0.15-0.26V7.15c0-0.13-0.03-0.2-0.12-0.2c-0.06,0.01-0.12,0.03-0.17,0.07
	L48.46,17.39c-0.36,0.25-0.8,0.38-1.23,0.38H36.64c-0.74,0-1.23-0.49-1.23-1.23V3.3c0-0.1-0.04-0.19-0.13-0.19
	c-0.06,0.01-0.12,0.03-0.17,0.07L24.57,9.51c-0.1,0.07-0.13,0.12-0.13,0.17c0,0.04,0.01,0.09,0.09,0.16l7.53,7.52
	c0.1,0.1,0.17,0.17,0.17,0.26c0,0.07-0.12,0.13-0.25,0.13h-6.81c-0.54,0-0.94-0.07-1.23-0.36l-4.56-4.56
	c-0.03-0.04-0.09-0.07-0.15-0.07c-0.06,0-0.1,0.01-0.15,0.04l-7.63,4.59c-0.46,0.28-0.78,0.36-1.23,0.36H3.25
	C2.49,17.77,2,17.26,2,16.52v-9c0-1.12,0.25-1.76,1.23-2.34L9.1,1.67c0.04-0.03,0.1-0.04,0.16-0.04c0.09,0,0.15,0.09,0.15,0.29
	v12.05c0,0.13,0.03,0.19,0.12,0.19c0.06-0.01,0.12-0.03,0.17-0.07l19.8-11.92c0.38-0.26,0.84-0.39,1.31-0.36h10.65
	c0.74,0,1.23,0.49,1.23,1.22V16.2z"/>
</svg>
