<?xml version="1.0" encoding="utf-8"?>
<!-- Generator: Adobe Illustrator 22.0.0, SVG Export Plug-In . SVG Version: 6.00 Build 0)  -->
<svg version="1.1" id="Capa_1" xmlns="http://www.w3.org/2000/svg" xmlns:xlink="http://www.w3.org/1999/xlink" x="0px" y="0px"
	 viewBox="0 0 161.2 192.9" style="enable-background:new 0 0 161.2 192.9;" xml:space="preserve">
<style type="text/css">
	.st0{fill-rule:evenodd;clip-rule:evenodd;fill:#999999;}
</style>
<path class="st0" d="M66.9,161.5c-7,10.1-9.8,22.4,7,31.4c-31.9-1.6-40-18-41.9-31.4h-4.5C12.3,161.5,0,149.2,0,134V27.5
	C0,12.3,12.3,0,27.4,0h106.4c15.1,0,27.4,12.3,27.4,27.5V134c0,15.2-12.3,27.5-27.4,27.5H66.9L66.9,161.5z M130.9,80.7
	c0-13.8-4.9-25.4-14.6-35c-9.7-9.5-21.6-14.3-35.7-14.3c-14.1,0-26,4.7-35.8,14.3c-9.8,9.6-14.7,21.2-14.7,35
	c0,13.9,4.9,25.6,14.6,35.2c9.7,9.5,21.7,14.3,35.9,14.3c14,0,25.9-4.8,35.7-14.4C126.1,106.1,130.9,94.4,130.9,80.7L130.9,80.7z
	 M105.5,80.7c0-6.6-2.5-12.3-7.4-17.1c-4.9-4.8-10.7-7.2-17.5-7.2c-6.9,0-12.8,2.3-17.7,7.1c-4.9,4.7-7.4,10.4-7.4,17.2
	c0,6.7,2.5,12.5,7.4,17.3c4.9,4.8,10.8,7.2,17.7,7.2c6.9,0,12.8-2.4,17.6-7.2C103.1,93.2,105.5,87.4,105.5,80.7L105.5,80.7z"/>
</svg>
