<?xml version="1.0" encoding="UTF-8" standalone="no"?>
<!-- Created with Inkscape (http://www.inkscape.org/) -->

<svg
   width="141.04161mm"
   height="26.631401mm"
   viewBox="0 0 141.04161 26.631401"
   version="1.1"
   id="svg1"
   xml:space="preserve"
   inkscape:export-filename="logo_kiaplaza.svg"
   inkscape:export-xdpi="96"
   inkscape:export-ydpi="96"
   xmlns:inkscape="http://www.inkscape.org/namespaces/inkscape"
   xmlns:sodipodi="http://sodipodi.sourceforge.net/DTD/sodipodi-0.dtd"
   xmlns="http://www.w3.org/2000/svg"
   xmlns:svg="http://www.w3.org/2000/svg"><sodipodi:namedview
     id="namedview1"
     pagecolor="#ffffff"
     bordercolor="#000000"
     borderopacity="0.25"
     inkscape:showpageshadow="2"
     inkscape:pageopacity="0.0"
     inkscape:pagecheckerboard="0"
     inkscape:deskcolor="#d1d1d1"
     inkscape:document-units="mm" /><defs
     id="defs1" /><g
     inkscape:label="Capa 1"
     inkscape:groupmode="layer"
     id="layer1"
     transform="translate(-26.358601,-87.085256)"><path
       style="fill:#ffffff"
       d="m 26.433894,113.38349 c -0.06976,-0.1819 -0.09579,-5.62901 -0.05784,-12.10469 l 0.069,-11.773958 3.373437,-0.07405 3.373438,-0.07405 v 4.37353 c 0,2.405442 0.0893,4.370481 0.198437,4.366754 0.109141,-0.0037 0.496094,-0.411232 0.859896,-0.905566 0.363802,-0.494334 1.911614,-2.51038 3.439583,-4.480101 l 2.778125,-3.581311 3.373437,-0.01104 c 2.155317,-0.0071 3.373438,0.08782 3.373438,0.262752 0,0.150585 -0.537838,0.954257 -1.195195,1.785938 -3.191733,4.038144 -6.546914,8.423918 -6.660209,8.705989 -0.142488,0.354753 7.010721,10.492263 8.83619,12.522623 l 1.184918,1.31791 h -3.609533 c -2.604444,0 -3.8123,-0.10486 -4.337721,-0.37656 -1.082149,-0.5596 -2.567632,-2.30987 -4.934075,-5.81357 -1.164166,-1.72363 -2.380794,-3.44699 -2.703618,-3.82969 l -0.586951,-0.69581 -0.0084,5.35782 -0.0084,5.35781 h -3.315596 c -2.408436,0 -3.350301,-0.0905 -3.442441,-0.33073 z M 51.44818,101.54338 V 89.37255 h 3.307291 3.307292 v 12.17083 12.17084 H 54.755471 51.44818 Z m 8.731249,11.80695 c 0,-0.21031 0.789937,-2.56596 1.755415,-5.23477 0.965478,-2.66881 2.029969,-5.62629 2.365536,-6.57218 0.335567,-0.94588 1.022453,-2.850882 1.526413,-4.23333 0.503959,-1.382448 1.374233,-3.793214 1.933942,-5.357258 l 1.017652,-2.843716 3.311872,-5.55e-4 3.311871,-5.54e-4 0.593847,1.521354 c 1.601621,4.103134 8.166507,22.826149 8.045874,22.946779 -0.07597,0.076 -1.542834,0.13812 -3.259711,0.13812 -3.572286,0 -3.281682,0.19406 -4.32036,-2.88509 l -0.588676,-1.74512 h -4.317511 -4.317512 l -0.8253,2.24896 -0.825301,2.24896 -2.704025,0.0754 c -2.216463,0.0618 -2.704026,0.007 -2.704026,-0.307 z m 14.218511,-8.43351 c -0.06908,-0.1819 -0.634373,-1.81901 -1.256202,-3.63802 -0.621829,-1.81901 -1.253001,-3.462787 -1.402605,-3.652836 -0.200677,-0.254931 -0.607873,0.577166 -1.552791,3.173096 -0.704432,1.93526 -1.347187,3.72786 -1.428345,3.98357 -0.134754,0.42457 0.109028,0.46492 2.808993,0.46492 2.255843,0 2.926785,-0.0784 2.83095,-0.33073 z m 11.446072,8.06231 c 0,-0.31613 2.776619,-8.73268 3.423508,-10.37741 0.314791,-0.80037 0.997806,-2.45509 1.517813,-3.677155 0.809777,-1.90306 0.924881,-2.421392 0.802032,-3.611687 l -0.143434,-1.389744 1.499521,-0.664339 c 2.4648,-1.091994 5.57453,-1.595279 8.775558,-1.420252 4.51072,0.246639 6.19316,0.981276 6.59792,2.880984 0.18374,0.862342 0.19599,0.849061 1.27129,-1.378227 1.22397,-2.535196 2.88669,-5.180108 3.71952,-5.916678 0.54924,-0.48576 0.55965,-0.482619 0.7366,0.222407 0.2041,0.813222 -0.25992,2.596056 -0.93117,3.577605 -1.23837,1.810861 -2.19286,3.953204 -3.42191,7.680403 -1.46412,4.440083 -1.87845,6.237303 -1.91564,8.309383 -0.033,1.83763 0.36779,2.7135 1.48549,3.24649 0.84176,0.40141 1.13836,0.4113 2.85028,0.095 1.05091,-0.19416 2.32581,-0.41272 2.83311,-0.48569 0.86371,-0.12422 0.89736,-0.10227 0.52917,0.34509 -0.73497,0.893 -3.68886,2.03131 -5.31087,2.04659 -3.06561,0.0289 -4.4399,-1.78961 -4.09968,-5.42476 0.20806,-2.22301 0.83138,-6.03065 1.19172,-7.279702 0.13643,-0.472943 0.18712,-0.859896 0.11262,-0.859896 -0.0745,0 -0.63172,0.394327 -1.2383,0.876283 -1.32937,1.056255 -3.88692,2.210645 -7.452858,3.363955 -1.45521,0.47066 -3.62305,1.31746 -4.81743,1.8818 -2.335755,1.10362 -2.945919,1.75262 -4.443118,4.72588 -0.886139,1.75977 -1.57341,2.67119 -2.337195,3.09948 -0.660635,0.37044 -1.234547,0.43282 -1.234547,0.13418 z m 10.96052,-10.40624 c 6.872098,-3.083111 7.498688,-3.420654 8.635358,-4.651889 1.88878,-2.045901 1.65371,-3.553456 -0.68432,-4.388582 -1.80073,-0.643207 -6.674228,-0.482103 -8.370518,0.276704 -1.51683,0.67853 -1.76189,1.004281 -3.34802,4.45046 -1.831773,3.979887 -2.391367,6.458797 -1.458021,6.458797 0.243833,0 2.595321,-0.96547 5.225521,-2.14549 z m 40.104058,10.026 c -0.53099,-0.28297 -0.67685,-0.58663 -0.73951,-1.53955 -0.0653,-0.99267 0.16219,-1.67657 1.38906,-4.17639 0.80692,-1.64414 1.46712,-3.08021 1.46712,-3.19127 0,-0.11106 -1.13808,-0.0561 -2.52906,0.12212 -2.87012,0.36774 -3.42407,0.34119 -3.42407,-0.16414 0,-0.59449 1.60255,-1.33927 4.01703,-1.8669 2.52364,-0.55148 3.39988,-1.00128 3.84234,-1.972381 0.40877,-0.897137 -0.12322,-2.570536 -1.05272,-3.311376 -0.66953,-0.533643 -0.91565,-0.563293 -3.43321,-0.413588 -1.49159,0.0887 -2.71198,0.06179 -2.71198,-0.05979 0,-0.121581 0.20836,-0.403747 0.46302,-0.627034 1.59389,-1.397516 4.19379,-1.678241 6.10003,-0.658652 1.41905,0.759007 2.08117,1.753068 2.46708,3.703909 0.31509,1.592812 1.11469,2.570372 2.10244,2.570372 1.04685,0 0.64896,0.46273 -1.0976,1.27645 -2.04045,0.95065 -2.32335,1.29622 -4.42123,5.40067 -0.98964,1.93621 -1.13973,2.40601 -0.83106,2.60137 0.60511,0.38297 2.84063,0.28538 6.74087,-0.29426 2.00127,-0.29742 3.82881,-0.49888 4.06121,-0.44768 0.58799,0.12955 -2.87191,1.85769 -5.13372,2.56417 -2.31573,0.72333 -6.32628,0.99008 -7.27604,0.48395 z m -8.11299,-0.60861 c -0.46032,-0.36286 -1.33975,-1.46287 -1.95429,-2.44447 -0.61454,-0.98159 -1.14255,-1.81622 -1.17334,-1.85473 -0.0308,-0.0385 -1.1159,0.52378 -2.41133,1.24951 -1.29544,0.72574 -2.98485,1.46179 -3.75425,1.63568 -1.27306,0.2877 -1.46349,0.26821 -2.11667,-0.21669 -1.4396,-1.0687 -1.68151,-2.71916 -0.68188,-4.65223 0.90392,-1.74799 4.65076,-5.16905 7.63704,-6.97301 1.39917,-0.84521 5.36008,-2.600218 6.49375,-2.877258 0.47007,-0.114874 0.88878,0.0054 1.38906,0.398883 0.94637,0.744414 0.93566,1.829043 -0.0336,3.406073 -2.14839,3.495442 -3.52622,7.691502 -3.05972,9.318122 0.31417,1.09544 1.70362,2.08822 2.92259,2.08822 1.0679,0 1.12353,0.30464 0.18977,1.03913 -0.96727,0.76086 -2.39473,0.71231 -3.4471,-0.11723 z m -6.58178,-4.65007 c 1.75372,-0.66295 4.733,-2.92612 5.85768,-4.4497 0.9994,-1.35387 1.8347,-3.692852 1.45455,-4.072998 -0.73021,-0.730208 -6.7356,2.767538 -8.91659,5.193328 -1.4683,1.6331 -2.5902,3.50036 -2.34322,3.89998 0.23717,0.38375 2.15716,0.10622 3.94758,-0.57061 z m 40.66932,4.30273 c -0.55712,-0.55713 -1.39546,-1.68151 -1.86297,-2.49864 l -0.85003,-1.48568 -2.85737,1.48007 c -3.46356,1.79407 -4.86055,1.98284 -6.02892,0.81467 -0.98075,-0.98057 -0.97386,-2.8119 0.0169,-4.50256 1.86505,-3.18246 7.59895,-7.302116 12.79197,-9.190694 1.54646,-0.562411 1.69359,-0.573404 2.30579,-0.172275 1.42144,0.931363 1.38918,1.203711 -0.62446,5.271039 -2.12369,4.28963 -2.71811,6.46795 -2.14352,7.85516 0.42473,1.02538 1.67406,1.852 2.80112,1.85337 1.18482,10e-4 1.27199,0.26512 0.31987,0.96757 -1.32941,0.98081 -2.62708,0.8493 -3.86841,-0.39203 z m -6.33617,-4.27688 c 1.52974,-0.58126 4.32516,-2.54403 5.45345,-3.82908 1.55208,-1.76773 2.72122,-4.904013 1.82811,-4.904013 -0.73563,0 -3.23859,1.160795 -5.05786,2.345673 -3.09513,2.01585 -6.65224,6.05254 -6.10859,6.93218 0.23364,0.37805 2.17137,0.10633 3.88489,-0.54476 z"
       id="path1" /></g></svg>
