<?xml version="1.0" encoding="UTF-8"?><svg id="Layer_2" xmlns="http://www.w3.org/2000/svg" viewBox="0 0 152.12 51.32"><g id="Layer_1-2"><path d="M52.76,10.29h-7.81v.66c0,1.74,1.22-.33,2.21,2.69l.85,2.61-4.49,13.53-5.27-15.93c-.11-.3-.25-.74-.25-1.03,0-1.77,1.99-.41,1.99-1.88v-.66h-7.74v.66c0,1.55,1.07-.41,2.14,2.91l7.45,22.75h1.52l5.68-17.11,5.64,17.11h1.55l7.12-21.98c1.41-4.35,2.61-2.03,2.61-3.69v-.66h-6.01v.66c0,1.44,1.88.3,1.88,1.66,0,.74-.44,1.99-.66,2.69l-4.82,14.86-5.23-15.82c-.11-.37-.37-1-.37-1.41,0-1.63,2.07-.41,2.07-1.99v-.66l-.04.02Z" style="fill:#0562aa;"/><path d="M78.14,27.21h-8.84l4.38-10.81,4.46,10.81ZM79.95,31.78c.22.52.59,1.41.59,1.99,0,1.44-1.91.37-1.91,1.77v.66h8.26v-.66c0-1.69-1.14.48-2.55-2.95l-9.28-22.49c-.03-.08-.19-.66-.37-.66s-1.33.74-1.41.78c-.22.14-1.5.78-1.5,1.25,0,.37.37,1.14.52,1.47l.44,1.11-7.23,17.74c-1.69,4.13-3.16,2.17-3.16,3.76v.66h6.56v-.66c0-1.47-1.88-.37-1.88-2.03,0-.59.41-1.58.63-2.14l.92-2.39h10.2l1.18,2.8v-.02Z" style="fill:#0562aa; fill-rule:evenodd;"/><path d="M96.55,11.95h2.03c6.82,0,3.13,4.38,6.12,4.38h.7v-6.6c-.7.41-1.69.55-2.47.55h-16.54c-.77,0-1.77-.14-2.47-.55v6.6h.7c2.99,0-.7-4.38,6.12-4.38h2.03v20.95c0,3.06-2.21,1.03-2.21,2.66v.66h8.22v-.66c0-1.63-2.21.41-2.21-2.66V11.95Z" style="fill:#0c78a8;"/><path d="M107.94,36.21h18.98v-6.74h-.66c-2.77,0,.66,5.09-6.34,5.09h-6.15v-10.98h2.83c3.5,0,1.41,2.66,3.8,2.66h.63v-6.79h-.63c-2.28,0,.14,2.47-3.8,2.47h-2.83v-9.95h5.38c5.31,0,3.1,4.21,5.53,4.21h.7v-6.41c-.7.41-1.69.55-2.47.55h-14.93v.66c0,1.63,1.99-.41,1.99,2.66v19.29c0,3.06-2.03,1.03-2.03,2.66v.66-.03Z" style="fill:#0c78a8;"/><path d="M135.5,22.05v-10.22h4.71c2.36,0,4.87,1.55,4.87,4.91,0,4.05-3.02,5.32-5.9,5.32h-3.68ZM135.5,23.6h1.14c2.55,0,2.99.85,5.12,4.5l4.79,8.12h5.53v-.66c0-1.66-1.18.37-3.16-2.88l-4.27-6.96c-.85-1.41-1.47-2.33-3.24-2.5v-.08c3.87-.08,7.78-2.21,7.78-6.57,0-4.98-5.12-6.27-7.85-6.27h-11.64v.66c0,1.63,2.03-.41,2.03,2.66v19.29c0,3.06-2.07,1.03-2.07,2.66v.66h7.89v-.66c0-1.63-2.03.41-2.03-2.66v-9.29h-.02Z" style="fill:#0c78a8; fill-rule:evenodd;"/><path d="M41.9,40.64h-.29c-.01.06-.06.11-.12.11-.19,0-.51-.4-1.26-.4-1.49,0-2.21,1.53-2.21,2.72,0,1.37.8,2.72,2.3,2.72.82,0,1.31-.35,1.76-1.01l-.25-.2c-.33.39-.65.83-1.37.83-1.25,0-1.62-1.38-1.62-2.37,0-.93.24-2.39,1.45-2.39,1.27,0,.98,1.34,1.44,1.34h.19v-1.36h-.01Z" style="fill:#0562aa;"/><path d="M51.15,45.81c1.49,0,2.45-1.32,2.45-2.72s-.87-2.72-2.36-2.72-2.45,1.32-2.45,2.72.87,2.72,2.36,2.72M51.18,45.53c-1.32,0-1.53-1.49-1.53-2.48,0-1.04.25-2.42,1.57-2.42s1.53,1.49,1.53,2.48c0,1.04-.25,2.42-1.57,2.42" style="fill:#0562aa; fill-rule:evenodd;"/><path d="M61.8,42.84v-2.05h.94c.48,0,.97.31.97.99,0,.81-.61,1.06-1.18,1.06h-.74.01ZM61.8,43.15h.23c.51,0,.6.17,1.03.9l.96,1.63h1.11v-.13c0-.33-.23.08-.63-.58l-.85-1.4c-.17-.28-.3-.47-.65-.5.77-.03,1.56-.45,1.56-1.33,0-1-1.03-1.25-1.57-1.25h-2.32v.13c0,.32.41-.08.41.53v3.85c0,.61-.41.21-.41.53v.13h1.58v-.13c0-.32-.41.08-.41-.53v-1.86h-.03Z" style="fill:#0562aa; fill-rule:evenodd;"/><path d="M73.1,42.93v-2.13h.95c.39,0,.92.32.92,1.06,0,.81-.48,1.07-1.15,1.07h-.72ZM73.99,43.24c.85,0,1.79-.37,1.79-1.43,0-.99-.86-1.33-1.54-1.33h-2.32v.13c0,.32.42-.08.42.53v3.85c0,.61-.41.21-.41.53v.13h1.57v-.13c0-.32-.41.08-.41-.53v-1.77h.9Z" style="fill:#0562aa; fill-rule:evenodd;"/><path d="M84.36,45.81c1.49,0,2.45-1.32,2.45-2.72s-.87-2.72-2.36-2.72-2.45,1.32-2.45,2.72.87,2.72,2.36,2.72M84.38,45.53c-1.32,0-1.53-1.49-1.53-2.48,0-1.04.25-2.42,1.57-2.42s1.53,1.49,1.53,2.48c0,1.04-.25,2.42-1.57,2.42" style="fill:#0562aa; fill-rule:evenodd;"/><path d="M95.15,42.84v-2.05h.94c.48,0,.97.31.97.99,0,.81-.61,1.06-1.18,1.06h-.74.01ZM95.15,43.15h.23c.51,0,.6.17,1.03.9l.96,1.63h1.11v-.13c0-.33-.23.08-.63-.58l-.85-1.4c-.17-.28-.3-.47-.65-.5.77-.03,1.56-.45,1.56-1.33,0-1-1.03-1.25-1.57-1.25h-2.32v.13c0,.32.41-.08.41.53v3.85c0,.61-.41.21-.41.53v.13h1.57v-.13c0-.32-.41.08-.41-.53v-1.86h-.02Z" style="fill:#0562aa; fill-rule:evenodd;"/><path d="M108.17,43.86h-1.77l.87-2.16.9,2.16ZM108.53,44.78c.04.1.12.28.12.4,0,.29-.39.08-.39.35v.13h1.65v-.13c0-.34-.23.1-.51-.59l-1.86-4.5s-.03-.13-.08-.13-.27.14-.28.16c-.04.03-.3.16-.3.25,0,.08.08.23.1.3l.09.22-1.45,3.54c-.34.83-.63.43-.63.75v.13h1.32v-.13c0-.3-.38-.08-.38-.41,0-.12.08-.32.12-.43l.19-.48h2.04l.23.56h.01Z" style="fill:#0562aa; fill-rule:evenodd;"/><path d="M118.53,40.81h.41c1.36,0,.63.87,1.23.87h.14v-1.32c-.14.08-.34.11-.5.11h-3.31c-.15,0-.35-.03-.5-.11v1.32h.14c.6,0-.14-.87,1.23-.87h.41v4.19c0,.61-.44.21-.44.53v.13h1.65v-.13c0-.32-.44.08-.44-.53v-4.19h-.02Z" style="fill:#0562aa;"/><path d="M129.16,45.66v-.13c0-.32-.41.08-.41-.53v-3.85c0-.61.41-.21.41-.53v-.13h-1.57v.13c0,.32.41-.08.41.53v3.85c0,.61-.41.21-.41.53v.13h1.57Z" style="fill:#0562aa;"/><path d="M138.64,45.81c1.49,0,2.45-1.32,2.45-2.72s-.87-2.72-2.36-2.72-2.45,1.32-2.45,2.72.87,2.72,2.36,2.72M138.66,45.53c-1.32,0-1.53-1.49-1.53-2.48,0-1.04.25-2.42,1.57-2.42s1.53,1.49,1.53,2.48c0,1.04-.25,2.42-1.57,2.42" style="fill:#0562aa; fill-rule:evenodd;"/><path d="M148.28,41.05l3.03,4.62h.35v-4.15c0-1.03.45-.47.45-.9v-.13h-1.31v.13c0,.43.45-.13.45.9v2.66l-2.42-3.69h-1.38v.13c0,.32.42-.08.42.53v3.49c0,1.03-.46.47-.46.9v.13h1.38v-.13c0-.43-.51.13-.51-.9v-3.59h-.01Z" style="fill:#0562aa;"/><path d="M18,3.61l2.15,4.15,3.51,6.81,2.91,5.65,3.18,6.17c1.43,2.74,2.53,5.6,2.55,8.92,0,1.57-.24,3.08-.65,4.5-1,3.52-3.45,6.89-6.74,8.97-2.69,1.72-5.75,2.57-9.16,2.55-2.74-.1-5.26-.82-7.52-2.09-2.11-1.17-4.17-3.01-5.52-5.1-1.49-2.19-2.36-4.65-2.63-7.35-.13-1.49,0-3.02.3-4.42.46-2.31,1.48-4.41,2.48-6.51l1.15-2.23,4.18-8.14c.7,1.27,1.35,2.57,2.03,3.86-.14.32-.31.64-.48.96l-2.57,4.97-2.58,5.06c-1.1,2.34-1.84,4.83-1.8,7.62.3,4.35,2.8,8.4,6.73,10.63,2.92,1.72,6.93,2.28,10.35,1.26,1.86-.55,3.57-1.44,5.1-2.76,2.82-2.47,4.25-5.6,4.56-9.16.08-2.55-.6-4.82-1.52-6.96l-.45-.95-2.17-4.19-7.36-14.22-1.68-3.23c-.77-1.46-1.52-2.92-2.28-4.4v-.03L16.05.03l.02-.03c.64,1.21,1.25,2.41,1.88,3.63l.04-.02Z" style="fill:#0562aa;"/><path d="M15.23,8.58c.03.09.09.17.13.25l2.9,5.61,2.74,5.28,3.46,6.71c.94,1.87,2.07,3.67,2.61,5.69.43,1.48.68,3.2.39,4.81-.5,3.37-2.61,6.6-5.75,8.28-2.07,1.15-4.54,1.66-7.09,1.31-3.57-.45-7.02-2.81-8.69-6.17-.69-1.41-1.15-2.92-1.22-4.57-.03-3.82,1.85-6.87,3.44-10.01l2.48-4.85c.07-.12.11-.24.19-.37.72,1.3,1.37,2.62,2.06,3.94v.07l-2.32,4.47c-1.29,2.68-3.01,5.19-2.98,8.42,0,3.13,2.08,6.08,4.94,7.39,2.06,1.02,5.01,1.07,7.1.1,1.96-.8,3.85-2.71,4.58-4.69.7-1.61.71-3.79.19-5.48-.23-.89-.6-1.72-.98-2.54l-1.75-3.38-4.73-9.11-3.26-6.28-2.01-3.89c-.09-.13-.13-.3-.23-.43.03-.11.11-.2.14-.3l1.89-3.68s.02-.01.03-.01l1.76,3.41h-.02Z" style="fill:#0c78a8;"/><path d="M12.8,14.21l1.21,2.33,2.92,5.63,2.77,5.36.46.89,1.7,3.31c.71,1.24,1.06,2.66,1,4.19-.07,2.54-2.09,4.94-4.44,5.71-2.69.92-5.64.11-7.48-2.09-1.29-1.61-1.72-3.83-1.22-5.92.17-.62.37-1.23.65-1.8l3.1-6.06h.02c.69,1.33,1.39,2.64,2.05,3.98l-.04.11-1.94,3.76-.97,1.93c-.59,1.25-.55,3.06.35,4.15,1.06,1.41,2.9,1.75,4.55,1.31.6-.17,1.15-.48,1.6-.97.86-.99,1.24-2.33.91-3.67-.08-.29-.15-.58-.28-.85l-1.24-2.44-5.02-9.68-4.5-8.66-.18-.38c.52-1.03,1.03-2.06,1.57-3.08.13-.3.29-.58.44-.86h.01l1.99,3.85v-.03Z" style="fill:#0562aa;"/></g></svg>