<?xml version="1.0" encoding="utf-8"?>
<!-- Generator: Adobe Illustrator 25.0.1, SVG Export Plug-In . SVG Version: 6.00 Build 0)  -->
<svg version="1.1" id="Layer_1" xmlns="http://www.w3.org/2000/svg" xmlns:xlink="http://www.w3.org/1999/xlink" x="0px" y="0px"
	 viewBox="0 0 345.6000061 72" style="enable-background:new 0 0 345.6000061 72;" xml:space="preserve">
<style type="text/css">
	.Arched_x0020_Green{fill:url(#SVGID_1_);stroke:#FFFFFF;stroke-width:0.25;stroke-miterlimit:1;}
	.st0{fill:#C25700;}
	.st1{fill:#386097;}
	.st2{fill:#4C79AF;}
	.st3{fill:#5C7D70;}
	.st4{fill:#9D323D;}
	.st5{fill:#FFFFFF;}
</style>
<linearGradient id="SVGID_1_" gradientUnits="userSpaceOnUse" x1="-1579.1999512" y1="-336.1924438" x2="-1578.4929199" y2="-336.8995361">
	<stop  offset="0" style="stop-color:#1DAA4B"/>
	<stop  offset="0.983146" style="stop-color:#1C361D"/>
</linearGradient>
<g>
	<g>
		<path class="st5" d="M104.2696228,43.4095421c-1.2129593,3.2814255-4.8924332,4.9736481-8.2190933,3.7774887l0,0
			c-3.3160172-1.1960831-5.0366745-4.83218-3.8231812-8.1122971l11.3045731-30.6779022
			c1.212265-3.2807326,4.8883514-4.9764996,8.2136993-3.7850399l0,0c3.3167114,1.1974697,5.0355988,4.8241577,3.8278809,8.1065845
			L104.2696228,43.4095421z"/>
		<path class="st5" d="M17.2970867,63.2576714c-1.2111855,3.2858925-4.891202,4.9781914-8.2148523,3.7878914l0,0
			c-3.3184876-1.2020187-5.0373697-4.8311081-3.8279572-8.1112251L18.180954,23.8582973
			c1.2141895-3.2871284,4.8855-4.9781952,8.2131577-3.7842693l0,0c3.3242664,1.1914597,5.0420685,4.8181553,3.828495,8.1087418
			L17.2970867,63.2576714z"/>
		<g>
			<path class="st5" d="M37.2066269,63.2576714c-1.2077942,3.2858925-4.8882751,4.9781914-8.21385,3.7878914l0,0
				c-3.3218021-1.2020187-5.0414543-4.8311081-3.8271885-8.1112251l12.9247513-35.0760422
				c1.2176552-3.2871284,4.8872719-4.9781952,8.2121544-3.7842693l0,0c3.3270416,1.1914597,5.0413017,4.8181553,3.8330536,8.1087418
				L37.2066269,63.2576714z"/>
		</g>
		<g>
			<path class="st5" d="M57.1039925,63.2576714c-1.2084885,3.2858925-4.8821106,4.9781914-8.2092285,3.7878914l0,0
				c-3.3242645-1.2020187-5.0448418-4.8311081-3.8261757-8.1112251l12.92659-35.0760422
				c1.2147293-3.2871284,4.8814926-4.9781952,8.2086868-3.7842693l0,0c3.3247299,1.1914597,5.0412979,4.8181553,3.8283463,8.1087418
				L57.1039925,63.2576714z"/>
		</g>
		<g>
			<path class="st5" d="M76.9999695,63.2576714c-1.2152557,3.2858925-4.8895798,4.9781914-8.2166214,3.7878914l0,0
				c-3.3242722-1.2020187-5.0408401-4.8311081-3.8214874-8.1112251L83.5858612,8.3968315
				c1.2083359-3.2807326,4.8849564-4.9764996,8.2097626-3.7850399l0,0c3.3218842,1.1974697,5.0413818,4.8241577,3.833046,8.1065845
				L76.9999695,63.2576714z"/>
		</g>
	</g>
	<g>
		<g>
			<path class="st5" d="M337.2582092,25.1494617c1.8937988,0,3.474762,1.4986668,3.474762,3.4634228
				c0,2.0016556-1.5809631,3.4957008-3.474762,3.4957008c-1.8917847,0-3.4865417-1.4940453-3.4865417-3.4957008
				C333.7716675,26.6481285,335.3664246,25.1494617,337.2582092,25.1494617z M337.2582092,31.6022053
				c1.6063843,0,2.8443909-1.2855396,2.8443909-2.9893208c0-1.6621799-1.2380066-2.9522572-2.8443909-2.9522572
				c-1.6112366,0-2.8537903,1.2900772-2.8537903,2.9522572C334.4044189,30.3166656,335.6469727,31.6022053,337.2582092,31.6022053z
				 M335.9135742,26.5948849h1.5670776c0.9597778,0,1.414093,0.3826427,1.414093,1.1648674
				c0,0.7337017-0.4660339,1.0420647-1.0687256,1.1069431l1.1590881,1.7964745h-0.6815186l-1.0941467-1.7547894h-0.6676025
				v1.7547894h-0.6282654V26.5948849z M336.5418396,28.3961372h0.6535645c0.5587158,0,1.0664062-0.0266609,1.0664062-0.6630363
				c0-0.5389805-0.4566956-0.6306038-0.8831787-0.6306038h-0.836792V28.3961372z"/>
		</g>
		<g>
			<g>
				<path class="st5" d="M137.3136749,25.4403763l9.8994141,26.4003906l9.9443359-26.4003906h5.7197266v31.4160156h-3.9599609
					V30.7206497h-0.0878906l-9.8125,26.1357422h-3.5634766l-9.8125-26.1357422h-0.0878906v26.1357422h-3.9599609V25.4403763
					H137.3136749z"/>
				<path class="st5" d="M177.7619171,33.5800247c5.6601562,0,8.4921875,2.0390625,8.4921875,6.1162109v13.1123047
					c0,0.8505859,0.3955078,1.2753906,1.1875,1.2753906c0.3808594,0,0.7626953-0.0722656,1.1435547-0.2197266v2.9042969
					c-0.7333984,0.4101562-1.6279297,0.6162109-2.6835938,0.6162109c-2.1123047,0-3.1679688-1.1728516-3.1679688-3.5205078
					c-1.9951172,2.3476562-4.6640625,3.5205078-8.0078125,3.5205078c-2.3476562,0-4.1875-0.5507812-5.5224609-1.6503906
					s-2.0019531-2.6767578-2.0019531-4.7294922c0-2.0244141,0.6601562-3.6376953,1.9804688-4.8408203
					c1.3193359-1.2021484,4.3847656-2.1113281,9.1953125-2.7275391c1.6425781-0.2050781,2.75-0.5205078,3.3222656-0.9462891
					c0.5722656-0.4248047,0.8583984-1.0478516,0.8583984-1.8701172c0-2.4921875-1.6875-3.7392578-5.0605469-3.7392578
					c-1.8476562,0-3.2333984,0.3447266-4.1572266,1.0332031c-0.9248047,0.6904297-1.4306641,1.7822266-1.5185547,3.2783203
					h-3.7402344C168.3742218,36.1181107,171.6017609,33.5800247,177.7619171,33.5800247z M171.1613312,50.740181
					c0,1.0566406,0.3808594,1.8779297,1.1445312,2.4638672c0.7617188,0.5878906,1.8476562,0.8798828,3.2558594,0.8798828
					c2.0234375,0,3.6884766-0.4980469,4.9941406-1.4951172c1.3046875-0.9970703,1.9580078-2.1855469,1.9580078-3.5644531V45.108345
					c-0.6757812,0.4697266-1.5556641,0.7773438-2.640625,0.9238281l-3.8271484,0.5722656
					c-1.6728516,0.2353516-2.9042969,0.6816406-3.6962891,1.3417969S171.1613312,49.5380325,171.1613312,50.740181z"/>
				<path class="st5" d="M203.0607452,33.5800247c5.2216797,0,7.8320312,2.7138672,7.8320312,8.140625v15.1357422h-3.7392578
					V41.3241653c0-1.2607422-0.3964844-2.3164062-1.1884766-3.1679688
					c-0.7919922-0.8505859-1.9511719-1.2753906-3.4755859-1.2753906c-2.1416016,0-3.7919922,0.6455078-4.9501953,1.9355469
					c-1.1591797,1.2910156-1.7382812,2.9775391-1.7382812,5.0595703v12.9804688h-3.7402344V34.108345h3.5205078v3.6083984h0.0878906
					C197.3117218,34.9599075,199.775589,33.5800247,203.0607452,33.5800247z"/>
				<path class="st5" d="M226.9181671,33.5800247c3.2255859,0,5.7783203,1.09375,7.6552734,3.2783203
					c1.8779297,2.1855469,2.8154297,5.0820312,2.8154297,8.6904297c0,3.5488281-0.9453125,6.4091797-2.8378906,8.5800781
					c-1.8916016,2.1708984-4.4072266,3.2558594-7.5449219,3.2558594c-1.4082031,0-2.7871094-0.2861328-4.1367188-0.8583984
					c-1.3486328-0.5722656-2.4199219-1.4736328-3.2119141-2.7060547h-0.0878906V65.568306h-3.7392578V34.108345h3.7392578v3.0800781
					h0.0878906C220.8605499,34.7831497,223.2804718,33.5800247,226.9181671,33.5800247z M219.4376984,45.4599075
					c0,2.640625,0.6230469,4.7382812,1.8701172,6.2929688c1.2460938,1.5546875,3.0136719,2.3310547,5.3017578,2.3310547
					c2.1708984,0,3.8505859-0.7695312,5.0380859-2.3095703c1.1884766-1.5400391,1.7822266-3.703125,1.7822266-6.4902344
					c0-2.4921875-0.6376953-4.5166016-1.9140625-6.0712891s-3-2.3320312-5.1699219-2.3320312
					c-2.1123047,0-3.7919922,0.7626953-5.0380859,2.2871094C220.0607452,40.6942825,219.4376984,42.7919388,219.4376984,45.4599075z
					"/>
				<path class="st5" d="M251.0646515,33.5800247c3.4023438,0,6.0937347,1.0859375,8.0742035,3.2568359
					c1.9794922,2.1708984,2.9697266,5.0595703,2.9697266,8.6679688c0,3.4609375-0.9902344,6.3066406-2.9697266,8.5351562
					c-1.9804688,2.2294922-4.6718597,3.3447266-8.0742035,3.3447266c-3.34375,0-6.0214844-1.078125-8.0302734-3.234375
					s-3.0136719-5.0380859-3.0136719-8.6455078c0-3.6376953,0.9902344-6.5341797,2.9697266-8.6904297
					C244.9709015,34.6581497,247.6613312,33.5800247,251.0646515,33.5800247z M243.9806671,45.5048294
					c0,2.5517578,0.6601562,4.6191406,1.9804688,6.203125c1.3193359,1.5839844,3.0205078,2.3759766,5.1035156,2.3759766
					c2.0527344,0,3.7470703-0.7841797,5.082016-2.3535156c1.3349609-1.5693359,2.0019531-3.6445312,2.0019531-6.2255859
					c0-2.5527344-0.6601562-4.6269531-1.9794922-6.2265625c-1.3202972-1.5986328-3.0361176-2.3974609-5.1484222-2.3974609
					c-2.0244141,0-3.703125,0.8066406-5.0380859,2.4199219S243.9806671,42.9823685,243.9806671,45.5048294z"/>
				<path class="st5" d="M267.475769,34.108345l5.1484375,18.6123047h0.0878906l4.5761719-18.6123047h4.0917969
					l4.7958984,18.6123047h0.0439453l5.1044922-18.6123047h3.8710938l-7.2158203,22.7041016l-0.0439453,0.0439453h-3.9599609
					l-4.6640625-18.0839844h-0.0439453l-4.5761719,18.0839844h-4.0478516l-7.3037109-22.7480469H267.475769z"/>
				<path class="st5" d="M306.7199097,33.5800247c3.2255859,0,5.7480469,1.1591797,7.5673828,3.4765625
					c1.8183594,2.3173828,2.7285156,5.3535156,2.7285156,9.1074219v0.4404297h-17.0283203v0.2636719
					c0,2.2001953,0.6308594,3.953125,1.8916016,5.2578125c1.2617188,1.3056641,2.9921875,1.9580078,5.1923828,1.9580078
					c3.2558594,0,5.2207031-1.4804688,5.8964844-4.4433594h3.6953125c-0.4990234,2.5517578-1.5986328,4.4804688-3.2998047,5.7861328
					s-3.8427734,1.9580078-6.4238281,1.9580078c-3.5791016,0-6.2919922-1.1728516-8.1396484-3.5205078
					c-1.8486328-2.3466797-2.7724609-5.1914062-2.7724609-8.5361328c0-3.3720703,1.0117188-6.1738281,3.0361328-8.4033203
					C301.0870972,34.6952591,303.6398315,33.5800247,306.7199097,33.5800247z M313.0558472,43.3046341
					c-0.1181641-1.8486328-0.7851562-3.3808594-2.0019531-4.5986328c-1.2177734-1.2167969-2.75-1.8251953-4.5986328-1.8251953
					c-1.7304688,0-3.1972656,0.5791016-4.3994141,1.7373047c-1.203125,1.1591797-1.8925781,2.7216797-2.0683594,4.6865234
					H313.0558472z"/>
				<path class="st5" d="M332.8117065,33.5800247v3.9599609c-2.8164062,0-4.8916016,0.7412109-6.2265625,2.2226562
					s-2.0019531,3.7910156-2.0019531,6.9296875v10.1640625h-3.7402344V34.108345h3.5205078v4.7958984h0.0878906
					c1.7304688-3.5488281,4.3408203-5.3242188,7.8320312-5.3242188H332.8117065z"/>
			</g>
		</g>
	</g>
</g>
</svg>
