<svg width="154" height="73" viewBox="0 0 154 73" fill="none" xmlns="http://www.w3.org/2000/svg">
<path d="M130.383 0C123.051 0 116.512 9.77002 112.235 25.0472C107.958 9.77002 101.419 0 94.0878 0C81.2002 0 70.7515 32.5055 70.7515 72.5965H81.1224C81.1224 35.3686 86.9264 5.18193 94.0878 5.18193C101.249 5.18193 107.053 33.0428 107.053 67.4075H117.424C117.424 33.0428 123.228 5.18193 130.39 5.18193C137.551 5.18193 143.355 35.3616 143.355 72.5965H153.726C153.712 32.5055 143.27 0 130.383 0Z" fill="#FFBC0D"/>
<path fill-rule="evenodd" clip-rule="evenodd" d="M3.87408 18.4372L0 53.0635H8.9429L11.0072 31.7208L17.2071 50.5326H22.9405L29.0909 31.9258L31.1057 53.0635H40.3526L36.4785 18.4372H27.4367L20.1551 40.19L12.9159 18.4372H3.87408ZM44.1841 57.9203L42.3743 63.2931C43.1307 63.7102 44.0074 64.0283 45.0183 64.2475C46.0151 64.4737 47.1179 64.5868 48.3268 64.5868C50.6668 64.5868 52.6675 63.8233 54.3217 62.3104C55.976 60.7976 57.4252 58.4505 58.6624 55.2834L69.7191 27.0125H61.1933L56.386 43.449L51.4232 27.0125H42.3248L52.3988 52.6464L51.4162 54.9228C50.7587 56.4074 50.1154 57.3901 49.4791 57.8708C48.8429 58.3515 48.1289 58.5919 47.3371 58.5919C46.3049 58.5919 45.2516 58.3657 44.1841 57.9203Z" fill="url(#paint0_linear_8934_22312)"/>
<defs>
<linearGradient id="paint0_linear_8934_22312" x1="-2.4466e-08" y1="56.6491" x2="69.7064" y2="57.9127" gradientUnits="userSpaceOnUse">
<stop stop-color="#910063"/>
<stop offset="0.496" stop-color="#DB0007"/>
<stop offset="1" stop-color="#E8720A"/>
</linearGradient>
</defs>
</svg>
