<svg class="brandLogo" height="16" viewbox="0 0 119 16" width="119" xmlns="http://www.w3.org/2000/svg">
<path d="M.52 11.73 0 15.38l3.7-.01.52-3.63z" fill="#ef5938"></path>
<path d="m12.46 4.45.5-3.65h3.7l-.52 3.63z" fill="#f7971e"></path>
<path d="m6.32 9.81.52-3.63 3.7-.01-.52 3.63z" fill="#ef5938"></path>
<path d="m5.56 15.37.51-3.63 3.7-.01-.51 3.63z" fill="#ef5938"></path>
<path d="m11.69 9.81.52-3.63 3.7-.01-.52 3.63z" fill="#ef5938"></path>
<path d="m10.92 15.37.52-3.63 3.7-.01-.52 3.63z" fill="#ef5938"></path>
<path d="M22.88.8h-3.21l-2.04 14.57h9.17l.4-2.96h-5.94zm4.72 14.57h3.16l1.43-9.97h-3.16zM41.12 5.4l-3.36 6.77h-.04L36.14 5.4h-3.37l2.77 9.97h3.3l5.42-9.97zm7.33 1.85c.56 0 1 .19 1.3.56.3.37.4.82.32 1.34H46a2.4 2.4 0 0 1 .8-1.3c.2-.18.44-.32.72-.43a2.46 2.46 0 0 1 .92-.17zm-.86 8.3a6.08 6.08 0 0 0 2.4-.5 5.92 5.92 0 0 0 2.07-1.47l-1.93-1.6c-.31.36-.66.66-1.03.88a2.5 2.5 0 0 1-1.33.34 2 2 0 0 1-1.44-.52 2.1 2.1 0 0 1-.6-1.42h7.13l.14-.97c.11-.8.1-1.53-.03-2.17a4.16 4.16 0 0 0-.7-1.66 3.36 3.36 0 0 0-1.34-1.07 4.55 4.55 0 0 0-1.89-.37c-.76 0-1.5.13-2.21.37a6.2 6.2 0 0 0-1.9 1.07 6.13 6.13 0 0 0-1.41 1.66 5.88 5.88 0 0 0-.73 2.17 5 5 0 0 0 .13 2.17 4.27 4.27 0 0 0 2.55 2.73 6.1 6.1 0 0 0 2.12.37zm15.04-3.18a4.06 4.06 0 0 1-1.83.41 3.57 3.57 0 0 1-1.59-.35 3.2 3.2 0 0 1-1.19-.98 3.94 3.94 0 0 1-.66-1.48 5.12 5.12 0 0 1-.05-1.88 5.87 5.87 0 0 1 .59-1.88 5.64 5.64 0 0 1 1.1-1.5 4.85 4.85 0 0 1 1.49-.97 4.45 4.45 0 0 1 1.74-.35c.62 0 1.14.1 1.56.3.43.21.79.5 1.06.9l2.79-2.03a3.71 3.71 0 0 0-.93-1 5.08 5.08 0 0 0-1.17-.67 6.46 6.46 0 0 0-1.28-.35 7.52 7.52 0 0 0-1.28-.12c-1.15 0-2.23.18-3.26.54a8.66 8.66 0 0 0-2.73 1.53 8.65 8.65 0 0 0-2 2.42 8.98 8.98 0 0 0-.9 6.35 5.83 5.83 0 0 0 3.6 3.95 8.55 8.55 0 0 0 6.15-.08 6.9 6.9 0 0 0 2.64-1.92l-2.41-2c-.4.5-.88.89-1.44 1.16m11.3-1.46-.08.66a1.82 1.82 0 0 1-.31.83 2.2 2.2 0 0 1-.61.57 3.05 3.05 0 0 1-.81.36 3.37 3.37 0 0 1-.9.12c-.17 0-.34-.02-.51-.06a1.16 1.16 0 0 1-.45-.2 1.05 1.05 0 0 1-.29-.35.79.79 0 0 1-.06-.48c.04-.35.2-.62.45-.81.25-.2.55-.34.89-.43a4.83 4.83 0 0 1 1.03-.18l.88-.03zm-3.87 4.65a5.2 5.2 0 0 0 1.86-.35 3.51 3.51 0 0 0 1.53-1.16h.05l-.17 1.26h2.86l.7-5.1c.13-.84.17-1.59.12-2.23a3.4 3.4 0 0 0-.5-1.62 2.7 2.7 0 0 0-1.28-1 7.75 7.75 0 0 0-4.66.06 6.76 6.76 0 0 0-2.2 1.21l1.42 1.7c.38-.37.8-.67 1.25-.88a3.33 3.33 0 0 1 1.44-.32c.54 0 .98.16 1.33.48.34.33.48.77.41 1.32-.65 0-1.38.02-2.16.06a9.22 9.22 0 0 0-2.28.4 5.08 5.08 0 0 0-1.89 1.05 2.78 2.78 0 0 0-.64.86 3.88 3.88 0 0 0-.34 1.16c-.07.5-.04.96.1 1.34.14.39.36.71.65.97.3.26.66.46 1.07.6.41.12.86.19 1.33.19zm15.4-10.44a2.65 2.65 0 0 0-.5-.08 7.07 7.07 0 0 0-.53-.02c-.68 0-1.27.15-1.76.46-.5.3-.94.76-1.35 1.37h-.04l.22-1.58h-3.08l-1.4 9.9h3.09l.57-4.13c.07-.5.16-.94.28-1.35a3.19 3.19 0 0 1 .5-1.05c.22-.3.51-.52.88-.68.37-.17.85-.25 1.44-.25a4.14 4.14 0 0 1 1.29.2zm5.14 2.13c.56 0 1 .19 1.3.56.3.37.4.82.32 1.34h-4.06a2.4 2.4 0 0 1 .8-1.3c.2-.18.45-.32.72-.43a2.46 2.46 0 0 1 .92-.17zm-.86 8.3a6.08 6.08 0 0 0 2.41-.5 5.92 5.92 0 0 0 2.06-1.47l-1.92-1.6c-.32.36-.67.66-1.04.88-.37.23-.82.34-1.32.34a2 2 0 0 1-1.45-.52 2.1 2.1 0 0 1-.6-1.42H95l.15-.97c.1-.8.1-1.53-.03-2.17a4.16 4.16 0 0 0-.71-1.66 3.36 3.36 0 0 0-1.33-1.07 4.55 4.55 0 0 0-1.9-.37c-.75 0-1.5.13-2.2.37a6.2 6.2 0 0 0-1.91 1.07 6.13 6.13 0 0 0-1.4 1.66 5.88 5.88 0 0 0-.74 2.17c-.1.8-.06 1.52.14 2.17.2.64.51 1.2.94 1.66.43.46.97.82 1.61 1.07a6 6 0 0 0 2.11.37zm11.79-8.3c.55 0 .99.19 1.29.56.3.37.4.82.33 1.34h-4.06a2.4 2.4 0 0 1 .8-1.3c.2-.18.44-.32.71-.43a2.46 2.46 0 0 1 .93-.17zm-.87 8.3a6.08 6.08 0 0 0 2.41-.5 5.92 5.92 0 0 0 2.06-1.47l-1.92-1.6c-.32.36-.66.66-1.04.88-.37.23-.82.34-1.32.34a2 2 0 0 1-1.45-.52 2.1 2.1 0 0 1-.6-1.42h7.14l.14-.97c.1-.8.1-1.53-.03-2.17a4.16 4.16 0 0 0-.7-1.66A3.36 3.36 0 0 0 104 5.39a4.55 4.55 0 0 0-1.89-.37c-.76 0-1.5.13-2.21.37A6.2 6.2 0 0 0 98 6.46a6.13 6.13 0 0 0-1.4 1.66 5.88 5.88 0 0 0-.74 2.17c-.1.8-.06 1.52.14 2.17.2.64.51 1.2.94 1.66.43.46.97.82 1.61 1.07a6 6 0 0 0 2.11.37zm12.9-10.53a3.2 3.2 0 0 0-1.76.46c-.5.3-.95.76-1.36 1.37h-.04l.23-1.59h-3.08l-1.4 9.91h3.08l.57-4.14c.07-.48.17-.93.28-1.34.12-.4.29-.76.5-1.05a2.17 2.17 0 0 1 .89-.68c.37-.17.84-.25 1.43-.25a4.06 4.06 0 0 1 1.3.2l.38-2.79a2.68 2.68 0 0 0-.49-.08 7.16 7.16 0 0 0-.53-.02m3.32.4c.17 0 .34.03.49.1a1 1 0 0 1 .59.65c.04.15.05.31.03.48a1.3 1.3 0 0 1-.17.48 1.54 1.54 0 0 1-.79.65 1.44 1.44 0 0 1-.52.1 1.2 1.2 0 0 1-.49-.1 1.02 1.02 0 0 1-.6-.65 1.09 1.09 0 0 1-.02-.48c.02-.17.08-.33.17-.48a1.56 1.56 0 0 1 1.3-.75zm.2 2.55a1.96 1.96 0 0 0 .93-.76 1.52 1.52 0 0 0 .2-.56c.03-.2.02-.39-.03-.56a1.19 1.19 0 0 0-.26-.46 1.28 1.28 0 0 0-.44-.3 1.42 1.42 0 0 0-.57-.12c-.2 0-.41.04-.6.11a1.91 1.91 0 0 0-.93.77c-.1.17-.17.36-.2.56a1.21 1.21 0 0 0 .73 1.32c.17.08.36.12.57.12.2 0 .41-.04.6-.12z" fill="#f7971e"></path>
<path d="m116.91 5.98.13.01a.33.33 0 0 1 .11.05.2.2 0 0 1 .08.09.25.25 0 0 1 .01.14.32.32 0 0 1-.06.16.32.32 0 0 1-.13.09.49.49 0 0 1-.16.04h-.44l.09-.58zm-.58 1.53.1-.75h.3l.4.75h.23l-.4-.75a.83.83 0 0 0 .17-.05.51.51 0 0 0 .26-.24.57.57 0 0 0 .06-.2c.02-.16 0-.28-.07-.36-.07-.08-.2-.12-.38-.12h-.64l-.24 1.72h.2zM31.1 1.38c-.84 0-1.63.69-1.76 1.53-.14.85.43 1.53 1.26 1.53.84 0 1.62-.68 1.76-1.53.14-.84-.43-1.53-1.26-1.53" fill="#f7971e"></path>
</svg>