<svg fill="none" height="21" viewbox="0 0 159 21" width="159" xmlns="http://www.w3.org/2000/svg">
<path clip-rule="evenodd" d="m16.6 5.4.7-4.9h5l-.7 4.9h-5Z" fill="#FFD8A2" fill-rule="evenodd"></path>
<path clip-rule="evenodd" d="m15.6 12.6.7-4.9h5l-.7 4.9h-5Zm-7.1 0L9 7.7h5l-.7 4.9h-5Z" fill="#FFA019" fill-rule="evenodd"></path>
<path clip-rule="evenodd" d="m7.4 20 .7-4.9h5l-.7 4.9h-5Zm7.2 0 .7-4.9h5l-.8 4.9h-4.9ZM.7 15.1l-.7 5 5-.1.6-4.9h-5Z" fill="#F56600" fill-rule="evenodd"></path>
<path clip-rule="evenodd" d="M30.6.5h-4.3L23.6 20h12.2l.6-4h-8L30.6.5ZM36.9 20H41l2-13.3h-4.3l-2 13.3ZM55 6.7l-4.5 9-2.2-9h-4.5L47.5 20h4.4l7.3-13.3H55Zm12 5h-5.5a3.2 3.2 0 0 1 1-1.8l1-.5 1.2-.3a2 2 0 0 1 1.8.8c.4.5.5 1 .4 1.8ZM69.7 8A4 4 0 0 0 68 6.6a6 6 0 0 0-2.6-.5A8.9 8.9 0 0 0 60 8a8.2 8.2 0 0 0-2.8 5.1c-.2 1-.1 2 .2 3a5.6 5.6 0 0 0 3.4 3.6 8 8 0 0 0 8.8-2.2l-2.6-2a6 6 0 0 1-1.4 1.2c-.5.3-1 .4-1.8.4s-1.4-.2-1.9-.7a3 3 0 0 1-.8-1.9h9.5l.2-1.3c.2-1 .2-2 0-2.9a5 5 0 0 0-1-2.2Zm14 8a5.4 5.4 0 0 1-4.6 0c-.6-.2-1.1-.7-1.6-1.2a6.9 6.9 0 0 1-1-4.5A7.9 7.9 0 0 1 79 5.8a6 6 0 0 1 6.4-1.4c.5.3 1 .7 1.4 1.2l3.7-2.7a5 5 0 0 0-1.2-1.4c-.5-.4-1-.6-1.6-.9a8.6 8.6 0 0 0-3.4-.6c-1.6 0-3 .2-4.4.7a11.6 11.6 0 0 0-7.7 9.6c-.2 1.5-.2 3 .2 4.2a7.8 7.8 0 0 0 4.8 5.3 11.4 11.4 0 0 0 8.2-.1 9.2 9.2 0 0 0 3.5-2.6l-3.2-2.6a7 7 0 0 1-1.9 1.5Zm15-1c0 .3-.2.7-.4 1l-.8.8a4.5 4.5 0 0 1-2.3.6 3 3 0 0 1-.7 0l-.6-.3-.4-.5a1 1 0 0 1 0-.6c0-.5.2-.8.5-1.1l1.2-.6 1.4-.2h2.2l-.1.8Zm3.5-7c-.4-.6-1-1-1.7-1.4a10.3 10.3 0 0 0-6.2 0 9 9 0 0 0-3 1.7l2 2.3c.5-.5 1-1 1.6-1.2.6-.3 1.3-.4 2-.4s1.3.2 1.7.6c.5.5.7 1 .6 1.8h-2.9l-3 .6c-1 .3-1.9.8-2.6 1.4a5 5 0 0 0-1.3 2.7c0 .7 0 1.3.2 1.8.1.5.4 1 .8 1.3.4.4.9.6 1.5.8.5.2 1.1.3 1.7.3.9 0 1.7-.2 2.5-.5s1.5-.8 2-1.6h.1L98 20h3.8l1-6.8c.1-1.1.2-2.1.1-3 0-.8-.3-1.6-.7-2.1Zm12-1.7-.6-.1h-.8c-.9 0-1.7.2-2.3.6-.7.4-1.3 1-1.8 1.8l.2-2.1h-4l-2 13.3h4.2l.7-5.6.4-1.8c.1-.5.4-1 .7-1.4.3-.4.6-.7 1.1-1l2-.2a5.4 5.4 0 0 1 1.7.2l.5-3.7Zm9.1 5.4h-5.5a3.2 3.2 0 0 1 1-1.8l1-.5c.4-.2.8-.3 1.3-.3a2 2 0 0 1 1.7.8c.4.5.6 1 .5 1.8Zm2.9-3.6c-.5-.6-1-1.1-1.8-1.4a6 6 0 0 0-2.5-.5 9 9 0 0 0-5.5 1.9 8.2 8.2 0 0 0-2.9 5.1c-.1 1 0 2 .2 3a5.6 5.6 0 0 0 3.4 3.6 8 8 0 0 0 8.8-2.2l-2.6-2.1a6 6 0 0 1-1.4 1.2 3 3 0 0 1-1.7.4c-.8 0-1.5-.2-2-.7-.4-.5-.7-1.1-.8-1.9h9.6l.2-1.3v-2.9c-.2-.9-.6-1.6-1-2.2Zm11.6 3.6h-5.4a3.2 3.2 0 0 1 1-1.8l1-.5c.4-.2.8-.3 1.3-.3a2 2 0 0 1 1.7.8c.4.5.6 1 .4 1.8Zm4 1.5v-2.9c-.2-.9-.6-1.6-1-2.2-.5-.6-1-1.1-1.8-1.4a6 6 0 0 0-2.5-.5A9 9 0 0 0 131 8a8.2 8.2 0 0 0-2.9 5.1c-.1 1 0 2 .2 3a5.6 5.6 0 0 0 3.4 3.6 8 8 0 0 0 8.8-2.2l-2.6-2.1a6 6 0 0 1-1.4 1.2 3 3 0 0 1-1.7.4c-.8 0-1.5-.2-2-.7-.4-.5-.7-1.1-.8-1.9h9.6l.2-1.3Zm10-7c-1 0-1.7.2-2.4.6-.7.4-1.3 1-1.8 1.8l.2-2.1h-4l-2 13.3h4.2l.7-5.6.4-1.8.7-1.4a4 4 0 0 1 1.2-1l1.9-.2a5.4 5.4 0 0 1 1.7.2l.5-3.7-.6-.1h-.7Zm5.9 2.1-.2.7a2 2 0 0 1-1.8 1l-.6-.1-.5-.4a.5.5 0 0 1-.3-.5v-.7l.1-.6a2 2 0 0 1 1.8-1l.7.1.5.4.2.5v.6Zm.2-.7a1.6 1.6 0 0 0-.9-1l-.8-.2c-.2 0-.5 0-.8.2a2.5 2.5 0 0 0-1.2 1 2 2 0 0 0-.3.7 1.7 1.7 0 0 0 .4 1.4l.6.4.8.2c.2 0 .5 0 .8-.2a2.6 2.6 0 0 0 1.2-1l.3-.8v-.7Z" fill="#000" fill-rule="evenodd"></path>
<path clip-rule="evenodd" d="m156.7 7.8-.1.2-.2.2h-.8l.1-.8h.7l.2.1v.1s.1.1 0 .2Zm-.3-.6h-.9l-.3 2.3h.3l.1-1h.4l.5 1h.3l-.5-1h.2l.2-.2a.7.7 0 0 0 .3-.5l-.1-.5-.5-.1ZM41.6 1.3c-1.2 0-2.2.9-2.4 2-.2 1.2.6 2 1.7 2s2.2-.8 2.3-2c.2-1.1-.5-2-1.6-2Z" fill="#000" fill-rule="evenodd"></path>
</svg>