<svg xmlns="http://www.w3.org/2000/svg" viewBox="0 0 69.3 21" width="69" height="21"><defs><style>.cls-1{fill:#fff;}</style></defs><title>Risorsa 1</title><g id="Livello_2" data-name="Livello 2"><g id="Livello_1-2" data-name="Livello 1"><g id="Livello_2-2" data-name="Livello 2"><g id="Layer_1" data-name="Layer 1"><rect class="cls-1" x="64.3" y="0.6" width="5" height="19.8"/><path class="cls-1" d="M9.74,0A35.25,35.25,0,0,0,0,1.71V20.39H5.18V5.2a13,13,0,0,1,4.56-.77c3.35,0,4.75,1.83,4.75,4.65V20.39h5.12V9.08C19.6,3,16.76,0,9.74,0Z"/><path class="cls-1" d="M62.87.6H56.69L52,6.4,49.43,3.16A7.05,7.05,0,0,0,44,.6H40.94l7.82,9.8-8.07,10h6.13l5-6.17,2.89,3.61a7,7,0,0,0,5.43,2.56h3L55.06,10.24Z"/><path class="cls-1" d="M41.59,16.6l-3.38-2.74a7.44,7.44,0,0,1-5.88,2.74,5.89,5.89,0,0,1-5.42-3.42l15.2-2.68a10.66,10.66,0,0,0-.82-4.17A10.21,10.21,0,0,0,31.79,0C26,0,21.48,4.16,21.48,10.5c0,6.1,4.38,10.5,10.86,10.5A11.49,11.49,0,0,0,41.59,16.6ZM31.79,4.28a5,5,0,0,1,4.89,2.86l-10.2,1.8A5.26,5.26,0,0,1,31.79,4.28Z"/></g></g></g></g></svg>