<?xml version="1.0" encoding="utf-8"?>
<!-- Generator: Adobe Illustrator 24.0.0, SVG Export Plug-In . SVG Version: 6.00 Build 0)  -->
<svg version="1.1" id="Laag_1" xmlns="http://www.w3.org/2000/svg" xmlns:xlink="http://www.w3.org/1999/xlink" x="0px" y="0px"
	 viewBox="0 0 97.4 85.6" style="enable-background:new 0 0 97.4 85.6;" xml:space="preserve">
<style type="text/css">
	.st0{fill:url(#SVGID_1_);}
	.st1{fill:#FFFFFF;}
</style>
<g>
	<linearGradient id="SVGID_1_" gradientUnits="userSpaceOnUse" x1="48.7195" y1="0" x2="48.7195" y2="85.6271">
		<stop  offset="0" style="stop-color:#4C59CE"/>
		<stop  offset="0.9" style="stop-color:#0012B9"/>
	</linearGradient>
	<polygon class="st0" points="97.4,85.6 48.7,74.6 0,85.6 0,0 97.4,0 	"/>
</g>
<g>
	<g>
		<path class="st1" d="M16.5,30.6h-4.3v10.7h2.5v-3.4H17c2.3,0,3.6-1.7,3.6-3.7C20.6,32.1,19.3,30.6,16.5,30.6z M16.5,35.5h-1.8
			v-2.7h1.8c0.8,0,1.5,0.4,1.5,1.3C18.1,35,17.4,35.5,16.5,35.5z"/>
		<g>
			<polygon class="st1" points="24.5,30.6 22,30.6 22,41.2 28.6,41.2 28.6,38.9 24.5,38.9 			"/>
		</g>
		<g>
			<polygon class="st1" points="49.6,30.6 47.1,36.9 44.6,30.6 42,30.6 40.8,41.2 43.3,41.2 44.1,35.1 46.3,41.2 47.9,41.2 
				50.2,35.1 50.9,41.2 53.5,41.2 52.2,30.6 			"/>
		</g>
		<g>
			<polygon class="st1" points="55.4,41.2 62.3,41.2 62.3,38.9 58,38.9 58,37 61.5,37 61.5,34.8 58,34.8 58,32.8 62.3,32.8 
				62.3,30.6 55.4,30.6 			"/>
		</g>
		<g>
			<path class="st1" d="M69.4,32.6c1,0,2,0.5,2.6,1.2l1-2.3c-0.9-0.8-2.3-1.3-3.6-1.3c-3.2,0-5.8,2.5-5.8,5.6c0,3.1,2.6,5.6,5.8,5.6
				c1.2,0,2.6-0.5,3.6-1.3L72,38c-0.6,0.7-1.5,1.2-2.6,1.2c-1.8,0-3.3-1.5-3.3-3.3C66.1,34.1,67.6,32.6,69.4,32.6z"/>
		</g>
		<path class="st1" d="M79.5,30.3c-3.2,0-5.7,2.5-5.7,5.6s2.6,5.6,5.7,5.6c3.2,0,5.7-2.5,5.7-5.6S82.7,30.3,79.5,30.3z M79.5,39.2
			c-1.7,0-3.2-1.5-3.2-3.3s1.4-3.3,3.2-3.3c1.7,0,3.2,1.5,3.2,3.3S81.3,39.2,79.5,39.2z"/>
		<g>
			<path class="st1" d="M34.5,30.3c-2.7,0-4.4,1.7-4.4,4.1v6.9h2.5v-3.1h3.8v3.1h2.5v-6.8C38.9,31.9,37.2,30.3,34.5,30.3z
				 M32.6,35.9v-1.7c0-0.9,0.8-1.7,1.9-1.7c1.1,0,1.9,0.7,1.9,1.7v1.7H32.6z"/>
		</g>
		<g>
			<path class="st1" d="M86.9,31.5L86.9,31.5c0-0.6,0.5-1.2,1.1-1.2c0.6,0,1.1,0.5,1.1,1.1v0c0,0.6-0.5,1.1-1.1,1.1
				C87.4,32.6,86.9,32.1,86.9,31.5z M89,31.5L89,31.5c0-0.6-0.4-1-1-1c-0.6,0-1,0.5-1,1v0c0,0.6,0.4,1,1,1C88.6,32.5,89,32,89,31.5z
				 M87.5,30.9h0.6c0.3,0,0.5,0.1,0.5,0.4c0,0.2-0.1,0.3-0.3,0.4l0.3,0.4h-0.3L88,31.7h-0.2v0.4h-0.3V30.9z M88.1,31.5
				c0.1,0,0.2-0.1,0.2-0.2c0-0.1-0.1-0.2-0.2-0.2h-0.2v0.3H88.1z"/>
		</g>
		<g>
			<path class="st1" d="M8.3,25.1l2.5,4h1.4h0.2l-1.6-2.6h75.9l-2.5,4.1c0.4,0.3,0.7,0.6,1,1l4-6.4H8.3z"/>
			<path class="st1" d="M74.8,45.5H22.7l-4-6.5c-0.5,0.1-0.9,0.2-1.5,0.3l4.7,7.6h53.6l2.5-4c-0.5-0.1-0.9-0.2-1.4-0.4L74.8,45.5z"
				/>
		</g>
	</g>
	<g>
		<path class="st1" d="M28.1,53.1c0,0.7-0.6,1.2-1.5,1.2c-1,0-1.5-0.6-1.5-0.7l0.3-0.5c0.3,0.4,0.8,0.6,1.3,0.6
			c0.6,0,0.9-0.2,0.9-0.6c0-0.3-0.4-0.5-0.9-0.6c-1.1-0.2-1.4-0.6-1.4-1.1c0-0.7,0.5-1.2,1.5-1.2c0.2,0,0.8,0,1.3,0.5l-0.3,0.5
			c-0.2-0.2-0.5-0.4-1-0.4c-0.6,0-0.9,0.2-0.9,0.6c0,0.3,0.3,0.5,0.9,0.6C27.7,52.1,28.1,52.4,28.1,53.1z"/>
		<path class="st1" d="M32.2,51.5c0,0.8-0.5,1.3-1.4,1.3H30v1.4h-0.6v-4h1.2C31.7,50.2,32.2,50.8,32.2,51.5z M31.6,51.6
			c0-0.5-0.4-0.8-0.8-0.8H30v1.5h0.9C31.3,52.3,31.6,52.1,31.6,51.6z"/>
		<path class="st1" d="M35.6,53.4h-1.8l-0.4,0.9h-0.6l1.9-4.1l1.9,4.1H36L35.6,53.4z M35.3,52.8l-0.6-1.4L34,52.8H35.3z"/>
		<path class="st1" d="M38.3,51.5v2.8h-0.6v-4.1l2.8,2.9v-2.8H41v4.1L38.3,51.5z"/>
		<path class="st1" d="M43.1,51.5v2.8h-0.6v-4.1l2.8,2.9v-2.8h0.6v4.1L43.1,51.5z"/>
		<path class="st1" d="M50.6,52.2c0,1.1-0.7,2-2.1,2h-1.2v-4h1.2C49.9,50.2,50.6,51.1,50.6,52.2z M50,52.2c0-0.8-0.5-1.4-1.3-1.4
			h-0.8v2.9h0.8C49.5,53.7,50,53,50,52.2z"/>
		<path class="st1" d="M52.4,50.8V52h1.4v0.6h-1.4v1.2h1.7v0.6h-2.3v-4h2.3v0.6H52.4z"/>
		<path class="st1" d="M58.4,53.3l0.2,0.5c-0.3,0.3-0.8,0.5-1.3,0.5c-1.2,0-2.1-0.9-2.1-2.1c0-1.1,0.9-2.1,2.1-2.1
			c0.4,0,0.9,0.2,1.3,0.5l-0.2,0.5c-0.3-0.3-0.6-0.4-1-0.4c-0.8,0-1.5,0.7-1.5,1.5c0,0.8,0.7,1.5,1.5,1.5
			C57.8,53.7,58.1,53.6,58.4,53.3z"/>
		<path class="st1" d="M62.8,54.3H62l-1.6-1.8v1.8h-0.6v-4h0.6V52l1.5-1.8h0.8l-1.8,2L62.8,54.3z"/>
		<path class="st1" d="M64.5,50.8V52h1.4v0.6h-1.4v1.2h1.7v0.6h-2.3v-4h2.3v0.6H64.5z"/>
		<path class="st1" d="M68.2,51.5v2.8h-0.6v-4.1l2.8,2.9v-2.8H71v4.1L68.2,51.5z"/>
	</g>
</g>
</svg>
