<?xml version="1.0" encoding="utf-8"?>
<!-- Generator: Adobe Illustrator 25.4.1, SVG Export Plug-In . SVG Version: 6.00 Build 0)  -->
<svg version="1.1" xmlns="http://www.w3.org/2000/svg" xmlns:xlink="http://www.w3.org/1999/xlink" x="0px" y="0px"
	 viewBox="0 0 470 123.2" style="enable-background:new 0 0 470 123.2;" xml:space="preserve">
<style type="text/css">
	.st0{fill:#004D87;}
	.st1{fill:#004D88;}
	.st2{fill:#009FE3;}
	.st3{display:none;}
	.st4{display:inline;fill:#004D87;}
	.st5{font-family:'ArialMT';}
	.st6{font-size:23px;}
</style>
<g id="Ebene_1">
	<g>
		<g>
			<path class="st0" d="M30.7,23.6H43c10.6,0,20.3,3.2,20.3,15.5c0,12-8.3,16.3-18.7,16.3h-4.1v19.4h-9.8V23.6z M40.4,47.2h3.4
				c4.9,0,9.3-1.7,9.3-7.6c0-5.9-4.2-8-9.3-8h-3.4V47.2z"/>
			<path class="st0" d="M67.9,19.7h9.3v55h-9.3V19.7z"/>
			<path class="st0" d="M87,39c3.6-1.8,8.5-2.9,12.5-2.9c10.9,0,15.5,4.8,15.5,15.9v4.8c0,3.8,0.1,6.7,0.1,9.5
				c0.1,2.9,0.2,5.5,0.4,8.4h-8.2c-0.3-2-0.3-4.5-0.4-5.6h-0.1c-2.2,4.2-6.8,6.5-11.1,6.5c-6.3,0-12.5-4-12.5-11.2
				c0-5.6,2.6-8.9,6.1-10.8c3.6-1.8,8.2-2.2,12.1-2.2h5.2c0-6.1-2.6-8.1-8.1-8.1c-4,0-7.9,1.6-11.1,4.1L87,39z M98,68.4
				c2.9,0,5.1-1.3,6.5-3.4c1.5-2.1,2-4.8,2-7.8h-4c-4.2,0-10.4,0.7-10.4,6.5C92.1,67,94.6,68.4,98,68.4z"/>
			<path class="st0" d="M143.8,44.9c-2.9-1-4.9-1.6-8.4-1.6c-2.5,0-5.5,1-5.5,4.2c0,6,16.2,2.2,16.2,15.8c0,8.8-7.5,12.3-15,12.3
				c-3.6,0-7.2-0.7-10.6-1.6l0.6-8.1c2.9,1.5,6,2.5,9.2,2.5c2.4,0,6.1-1,6.1-4.6c0-7.4-16.2-2.3-16.2-16c0-8.1,6.8-11.7,14.1-11.7
				c4.4,0,7.2,0.7,10.2,1.4L143.8,44.9z"/>
			<path class="st0" d="M154.8,44.2h-6.9V37h6.9v-7.6l9.3-3.2V37h8.3v7.2h-8.3v17.6c0,3.2,0.8,6.2,4.4,6.2c1.7,0,3.3-0.4,4.2-1
				l0.3,7.8c-2,0.6-4.1,0.9-6.9,0.9c-7.3,0-11.4-4.8-11.4-12.2V44.2z"/>
			<path class="st0" d="M193.6,36.1c10.7,0,18.8,7.6,18.8,20c0,10.9-6.9,19.5-18.8,19.5c-11.8,0-18.7-8.7-18.7-19.5
				C174.9,43.7,183,36.1,193.6,36.1z M193.6,68c7.2,0,9.1-6.7,9.1-13.1c0-5.8-2.9-11.2-9.1-11.2c-6.1,0-9,5.6-9,11.2
				C184.6,61.2,186.5,68,193.6,68z"/>
			<path class="st0" d="M216.6,37h8.9v5.4h0.1c2.1-3.7,5.6-6.2,11.1-6.2c11,0,15,9.2,15,19.7c0,10.3-4,19.9-15.3,19.9
				c-4,0-7.2-1-10.5-5.2H226v19.7h-9.3V37z M226,55.8c0,5.4,2,12.2,8.2,12.2c6.1,0,7.9-7,7.9-12.2c0-5.1-1.7-12-7.7-12
				C228.4,43.7,226,50.5,226,55.8z"/>
			<path class="st0" d="M257.7,19.7h9.3v55h-9.3V19.7z"/>
			<path class="st0" d="M276.8,39c3.6-1.8,8.5-2.9,12.5-2.9c10.9,0,15.5,4.8,15.5,15.9v4.8c0,3.8,0.1,6.7,0.1,9.5
				c0.1,2.9,0.2,5.5,0.4,8.4h-8.2c-0.3-2-0.3-4.5-0.4-5.6h-0.1c-2.2,4.2-6.8,6.5-11.1,6.5c-6.3,0-12.5-4-12.5-11.2
				c0-5.6,2.6-8.9,6.1-10.8c3.6-1.8,8.2-2.2,12.1-2.2h5.2c0-6.1-2.6-8.1-8.1-8.1c-4,0-7.9,1.6-11.1,4.1L276.8,39z M287.7,68.4
				c2.9,0,5.1-1.3,6.5-3.4c1.5-2.1,2-4.8,2-7.8h-4c-4.2,0-10.4,0.7-10.4,6.5C281.8,67,284.4,68.4,287.7,68.4z"/>
			<path class="st0" d="M311.9,37h8.8v5.1h0.1c2.9-4.3,6.9-6,11.8-6c8.5,0,12.2,6.3,12.2,14.8v23.8h-9.3V54.6
				c0-4.6-0.1-10.9-6.1-10.9c-6.8,0-8.2,7.7-8.2,12.5v18.5h-9.3V37z"/>
		</g>
		<g>
			<path class="st0" d="M422.5,28.8h-12.4c-4,0-7.3,3.2-7.3,7.1c0,1.3,0.3,2.5,1,3.6c0,0,5.9,11.6,5.9,11.6l25.7,0L422.5,28.8z"/>
			<path class="st1" d="M409.8,80.3c0,0-5.9,11.6-5.9,11.6c-0.6,1.1-1,2.3-1,3.6c0,3.9,3.2,7.2,7.2,7.2h12.4l12.9-22.4H409.8z"/>
			<path class="st0" d="M442.4,63.3c0,0-4.2-7.2-4.2-7.2l-63,0v19.4l63,0l4.1-7.2c0.5-0.8,0.7-1.6,0.7-2.5
				C443.1,64.9,442.9,64,442.4,63.3"/>
			<polygon class="st2" points="369.9,46 358.5,65.8 369.9,85.5 			"/>
			<polygon class="st2" points="379.8,28.8 375.2,36.7 375.2,51.2 390.1,51.2 402.2,28.8 			"/>
			<polygon class="st2" points="390.1,80.3 375.2,80.3 375.2,94.8 379.8,102.7 402.2,102.7 			"/>
		</g>
	</g>
</g>
<g id="PL" class="st3">
	<text transform="matrix(1 0 0 1 252.6055 102.1384)" class="st4 st5 st6">Tworzywa</text>
</g>
<g id="Kunststoffe" class="st3">
	<text transform="matrix(1 0 0 1 241.0493 102.1384)" class="st4 st5 st6">Kunststoffe</text>
</g>
<g id="Plastics">
	<g>
		<path class="st0" d="M277.4,102.1V85.7h6.2c1.1,0,1.9,0.1,2.5,0.2c0.8,0.1,1.5,0.4,2,0.8c0.5,0.4,1,0.9,1.3,1.6
			c0.3,0.7,0.5,1.4,0.5,2.2c0,1.4-0.4,2.6-1.3,3.6c-0.9,1-2.5,1.5-4.8,1.5h-4.2v6.7H277.4z M279.5,93.5h4.3c1.4,0,2.4-0.3,3-0.8
			s0.9-1.3,0.9-2.2c0-0.7-0.2-1.3-0.5-1.8c-0.3-0.5-0.8-0.8-1.4-1c-0.4-0.1-1-0.1-2-0.1h-4.2V93.5z"/>
		<path class="st0" d="M292.4,102.1V85.7h2v16.5H292.4z"/>
		<path class="st0" d="M305.3,100.7c-0.7,0.6-1.5,1.1-2.2,1.3c-0.7,0.3-1.4,0.4-2.2,0.4c-1.3,0-2.3-0.3-3-1
			c-0.7-0.6-1.1-1.5-1.1-2.5c0-0.6,0.1-1.1,0.4-1.6c0.3-0.5,0.6-0.9,1-1.2c0.4-0.3,0.9-0.5,1.5-0.7c0.4-0.1,1-0.2,1.8-0.3
			c1.6-0.2,2.8-0.4,3.6-0.7c0-0.3,0-0.5,0-0.5c0-0.8-0.2-1.4-0.6-1.7c-0.5-0.5-1.3-0.7-2.3-0.7c-1,0-1.7,0.2-2.1,0.5
			c-0.5,0.3-0.8,0.9-1,1.8l-2-0.3c0.2-0.8,0.5-1.5,0.9-2c0.4-0.5,1-0.9,1.8-1.2c0.8-0.3,1.7-0.4,2.7-0.4c1,0,1.8,0.1,2.5,0.4
			s1.1,0.5,1.4,0.9c0.3,0.4,0.5,0.8,0.6,1.4c0.1,0.3,0.1,1,0.1,1.9v2.7c0,1.9,0,3.1,0.1,3.6c0.1,0.5,0.3,1,0.5,1.4h-2.1
			C305.5,101.7,305.4,101.2,305.3,100.7z M305.2,96.2c-0.7,0.3-1.8,0.6-3.3,0.8c-0.8,0.1-1.4,0.3-1.8,0.4s-0.6,0.4-0.8,0.7
			c-0.2,0.3-0.3,0.6-0.3,1c0,0.5,0.2,1,0.6,1.3c0.4,0.4,1,0.5,1.8,0.5c0.8,0,1.5-0.2,2.1-0.5c0.6-0.3,1.1-0.8,1.3-1.4
			c0.2-0.5,0.3-1.1,0.3-2V96.2z"/>
		<path class="st0" d="M309.5,98.6l2-0.3c0.1,0.8,0.4,1.4,0.9,1.8c0.5,0.4,1.2,0.6,2.2,0.6c0.9,0,1.6-0.2,2.1-0.6
			c0.4-0.4,0.7-0.8,0.7-1.3c0-0.5-0.2-0.8-0.6-1.1c-0.3-0.2-1-0.4-2.1-0.7c-1.5-0.4-2.5-0.7-3.1-1c-0.6-0.3-1-0.7-1.3-1.1
			c-0.3-0.5-0.4-1-0.4-1.6c0-0.5,0.1-1,0.4-1.5c0.2-0.5,0.6-0.8,1-1.1c0.3-0.2,0.7-0.4,1.3-0.6c0.5-0.2,1.1-0.2,1.7-0.2
			c0.9,0,1.8,0.1,2.5,0.4c0.7,0.3,1.2,0.6,1.6,1.1c0.3,0.5,0.6,1.1,0.7,1.8l-2,0.3c-0.1-0.6-0.4-1.1-0.8-1.4c-0.4-0.3-1-0.5-1.8-0.5
			c-0.9,0-1.6,0.2-2,0.5s-0.6,0.7-0.6,1.1c0,0.3,0.1,0.5,0.2,0.7c0.2,0.2,0.4,0.4,0.8,0.5c0.2,0.1,0.8,0.2,1.8,0.5
			c1.4,0.4,2.4,0.7,3,0.9c0.6,0.2,1,0.6,1.3,1.1s0.5,1,0.5,1.7c0,0.7-0.2,1.3-0.6,1.9c-0.4,0.6-1,1.1-1.7,1.4
			c-0.7,0.3-1.6,0.5-2.5,0.5c-1.5,0-2.7-0.3-3.5-1C310.3,100.8,309.8,99.8,309.5,98.6z"/>
		<path class="st0" d="M326.3,100.3l0.3,1.8c-0.6,0.1-1.1,0.2-1.5,0.2c-0.7,0-1.3-0.1-1.7-0.3s-0.7-0.5-0.9-0.9
			c-0.2-0.4-0.2-1.2-0.2-2.4v-6.9h-1.5v-1.6h1.5v-3l2-1.2v4.2h2v1.6h-2v7c0,0.6,0,0.9,0.1,1.1c0.1,0.2,0.2,0.3,0.3,0.4
			c0.2,0.1,0.4,0.1,0.7,0.1C325.6,100.4,325.9,100.4,326.3,100.3z"/>
		<path class="st0" d="M328.2,88v-2.3h2V88H328.2z M328.2,102.1V90.2h2v11.9H328.2z"/>
		<path class="st0" d="M333.4,102.1V85.7h2v9.4l4.8-4.9h2.6l-4.6,4.4l5,7.5h-2.5l-3.9-6.1l-1.4,1.4v4.7H333.4z"/>
		<path class="st0" d="M352.6,100.7c-0.7,0.6-1.5,1.1-2.2,1.3c-0.7,0.3-1.4,0.4-2.2,0.4c-1.3,0-2.3-0.3-3-1
			c-0.7-0.6-1.1-1.5-1.1-2.5c0-0.6,0.1-1.1,0.4-1.6c0.3-0.5,0.6-0.9,1-1.2c0.4-0.3,0.9-0.5,1.5-0.7c0.4-0.1,1-0.2,1.8-0.3
			c1.6-0.2,2.8-0.4,3.6-0.7c0-0.3,0-0.5,0-0.5c0-0.8-0.2-1.4-0.6-1.7c-0.5-0.5-1.3-0.7-2.3-0.7c-1,0-1.7,0.2-2.1,0.5
			c-0.5,0.3-0.8,0.9-1,1.8l-2-0.3c0.2-0.8,0.5-1.5,0.9-2c0.4-0.5,1-0.9,1.8-1.2c0.8-0.3,1.7-0.4,2.7-0.4c1,0,1.8,0.1,2.5,0.4
			s1.1,0.5,1.4,0.9c0.3,0.4,0.5,0.8,0.6,1.4c0.1,0.3,0.1,1,0.1,1.9v2.7c0,1.9,0,3.1,0.1,3.6c0.1,0.5,0.3,1,0.5,1.4H353
			C352.8,101.7,352.7,101.2,352.6,100.7z M352.5,96.2c-0.7,0.3-1.8,0.6-3.3,0.8c-0.8,0.1-1.4,0.3-1.8,0.4s-0.6,0.4-0.8,0.7
			c-0.2,0.3-0.3,0.6-0.3,1c0,0.5,0.2,1,0.6,1.3c0.4,0.4,1,0.5,1.8,0.5c0.8,0,1.5-0.2,2.1-0.5c0.6-0.3,1.1-0.8,1.3-1.4
			c0.2-0.5,0.3-1.1,0.3-2V96.2z"/>
	</g>
</g>
</svg>
