<svg aria-label="WordPress.com logo" role="presentation" viewbox="0 0 24 24" xmlns="http://www.w3.org/2000/svg">
<path d="M 12.432 1.209 C 18.752 1.209 23.892 6.329 23.892 12.629 C 23.892 21.455 14.337 26.971 6.694 22.558 C 3.147 20.51 0.962 16.725 0.962 12.629 C 0.962 6.329 6.102 1.209 12.432 1.209 Z M 12.612 13.529 L 9.512 22.479 C 11.59 23.088 13.807 23.032 15.852 22.319 C 15.824 22.271 15.8 22.221 15.782 22.169 L 12.612 13.529 Z M 3.012 8.449 C 0.747 13.519 2.927 19.472 7.932 21.879 L 3.012 8.449 Z M 21.472 7.699 C 21.522 8.029 21.542 8.379 21.542 8.759 C 21.542 9.799 21.342 10.969 20.762 12.439 L 17.612 21.499 C 22.43 18.708 24.143 12.584 21.472 7.699 Z M 12.432 2.379 C 8.832 2.379 5.662 4.219 3.812 7.009 C 4.95 7.047 6.09 7.003 7.222 6.879 C 7.782 6.849 7.842 7.659 7.292 7.729 C 7.292 7.729 6.732 7.789 6.112 7.829 L 9.862 18.939 L 12.122 12.199 L 10.522 7.809 C 9.962 7.779 9.432 7.709 9.432 7.709 C 8.882 7.679 8.942 6.839 9.502 6.869 C 9.502 6.869 11.202 6.999 12.212 6.999 C 13.292 7.009 14.962 6.879 14.962 6.879 C 15.512 6.849 15.582 7.659 15.032 7.729 C 15.032 7.729 14.472 7.789 13.852 7.829 L 17.572 18.869 L 18.602 15.439 C 19.063 14.389 19.331 13.264 19.392 12.119 C 19.377 11.115 19.083 10.135 18.542 9.289 C 18.012 8.439 17.522 7.729 17.522 6.889 C 17.522 5.939 18.242 5.059 19.262 5.059 L 19.392 5.059 C 17.49 3.322 15.007 2.362 12.432 2.369 L 12.432 2.379 Z"></path>
</svg>