<svg xmlns="http://www.w3.org/2000/svg" width="477.768" height="85.158" viewBox="0 0 477.768 85.158">
  <g id="Group_2286" data-name="Group 2286" transform="translate(20185.682 17809.314)">
    <path id="Path_2627" data-name="Path 2627" d="M1.66,5.056c5.372,0,8.59-2.93,8.59-7.515,0-3.723-2.109-5.872-6.978-6.981L1.231-9.905C-1.921-10.622-3.46-11.7-3.46-14.06c0-2.685,1.969-4.082,5.157-4.082a7.051,7.051,0,0,1,6.159,3.079l2.252-1.646a9.4,9.4,0,0,0-8.268-4.078c-4.905,0-8.267,2.395-8.267,6.835,0,3.831,2.5,5.836,7.05,6.874l2.04.465c3.295.752,4.62,1.933,4.62,4.3,0,2.864-1.933,4.726-5.515,4.726a7.954,7.954,0,0,1-6.73-3.581L-7.179.692A10.338,10.338,0,0,0,1.66,5.056m20.476,0c4.942,0,8.338-3.791,8.338-9.663s-3.4-9.663-8.338-9.663S13.8-10.48,13.8-4.607s3.4,9.663,8.338,9.663m0-2.538c-3.079,0-5.265-1.9-5.265-5.8v-2.65c0-3.9,2.186-5.8,5.265-5.8s5.265,1.9,5.265,5.8v2.65c0,3.9-2.186,5.8-5.265,5.8M40.786,4.626v-2.5H38.065V-21.86H35.206V1.66a2.8,2.8,0,0,0,3.038,2.966Zm15.54,0h2.859V-13.841H56.326V-1.063c0,2.437-2.221,3.546-4.477,3.546-2.758,0-4.227-1.682-4.227-4.976V-13.841H44.763V-1.992c0,4.475,2.431,7.048,6.227,7.048a5.133,5.133,0,0,0,5.192-3.432h.144Zm16.605,0v-2.5H69.172V-11.34h4.046v-2.5H69.172v-5.12H66.6v3.437c0,1.253-.393,1.683-1.611,1.683H63.271v2.5h3.043V1.588a2.816,2.816,0,0,0,3.039,3.039Zm6.339-22.8c1.215,0,1.752-.644,1.752-1.609v-.464c0-.965-.537-1.609-1.752-1.609s-1.752.644-1.752,1.609v.464c0,.965.537,1.609,1.752,1.609m-1.43,22.8H80.7V-13.841H77.841Zm15.928.43c4.942,0,8.338-3.791,8.338-9.663s-3.4-9.663-8.338-9.663-8.34,3.79-8.34,9.663,3.4,9.663,8.34,9.663m0-2.538c-3.081,0-5.265-1.9-5.265-5.8v-2.65c0-3.9,2.184-5.8,5.265-5.8s5.264,1.9,5.264,5.8v2.65c0,3.9-2.184,5.8-5.264,5.8M109.7,4.626V-8.189c0-2.363,2.22-3.508,4.513-3.508,2.758,0,4.19,1.682,4.19,4.976V4.626h2.859V-7.222c0-4.475-2.394-7.048-6.19-7.048a5.239,5.239,0,0,0-5.229,3.432H109.7v-3h-2.86V4.626Zm23.02.43c4.226,0,6.835-2.179,6.835-5.76,0-2.794-1.572-4.584-5.653-5.192l-1.433-.215c-2.293-.357-3.546-1.074-3.546-2.864,0-1.755,1.253-2.865,3.618-2.865A5.7,5.7,0,0,1,137.3-9.585L139.2-11.3a7.683,7.683,0,0,0-6.442-2.967c-3.762,0-6.585,1.787-6.585,5.437,0,3.438,2.538,4.834,5.94,5.335l1.469.215c2.436.358,3.224,1.468,3.224,2.9,0,1.9-1.433,3.008-3.869,3.008A6.7,6.7,0,0,1,127.455-.2l-2.039,1.647a8.579,8.579,0,0,0,7.3,3.611" transform="translate(-19847.467 -17729.213)" fill="#fff"/>
    <path id="Path_2628" data-name="Path 2628" d="M4,4.975-4.733-20.008H-8.563L-17.3,4.975h3.043l2.5-7.374H-1.655L.851,4.975ZM-2.406-5.044h-8.625l4.223-12.171h.179ZM10.731,4.975V-7.84c0-2.363,2.22-3.509,4.513-3.509,2.758,0,4.19,1.683,4.19,4.977V4.975h2.859V-6.873c0-4.476-2.395-7.048-6.19-7.048a5.239,5.239,0,0,0-5.229,3.432h-.143v-3H7.87V4.975Zm18.9-22.8c1.215,0,1.752-.644,1.752-1.609V-19.9c0-.965-.537-1.609-1.752-1.609s-1.752.644-1.752,1.609v.464c0,.965.537,1.609,1.752,1.609M28.2,4.975h2.859V-13.492H28.2Zm11.809,0V-7.84c0-2.363,2.149-3.509,4.406-3.509,2.721,0,3.976,1.683,3.976,4.977V4.975h2.859V-7.84c0-2.363,2.077-3.509,4.334-3.509,2.794,0,4.047,1.719,4.047,4.977V4.975h2.859V-6.873c0-4.476-2.252-7.048-6.011-7.048a5.541,5.541,0,0,0-5.623,3.754h-.071a5.678,5.678,0,0,0-5.654-3.754,4.972,4.972,0,0,0-4.978,3.432h-.143v-3h-2.86V4.975Zm43.423,0v-2.5H81.323V-7.695c0-3.9-2.645-6.227-7.085-6.227a7.015,7.015,0,0,0-6.55,3.611L69.4-8.7a5.157,5.157,0,0,1,4.691-2.759c2.937,0,4.37,1.433,4.37,4.049V-5.58H74.811c-5.372,0-7.874,1.929-7.874,5.4,0,3.439,2.288,5.583,6.191,5.583,2.578,0,4.548-1.18,5.336-3.433h.179c.214,1.716,1.072,3,3.182,3Zm-9.843-2c-2.221,0-3.653-1.039-3.653-2.866V-.643c0-1.792,1.468-2.794,4.728-2.794h3.8V-.392c0,1.9-2.041,3.368-4.871,3.368m19.507,2v-2.5h-2.72V-21.511H87.522V2.009a2.8,2.8,0,0,0,3.038,2.966Zm15.895,0V-6.336h10.846V-8.981H109v-8.381H120.88v-2.645H105.992V4.975Zm22.769.43a7.743,7.743,0,0,0,7.3-4.221L137.028-.283A5.352,5.352,0,0,1,131.944,2.9a5.234,5.234,0,0,1-5.48-5.586v-.859h13.282V-4.9c0-5.228-3.039-9.018-7.981-9.018-5.014,0-8.3,3.79-8.3,9.663s3.289,9.663,8.3,9.663m0-16.933c2.937,0,4.907,2.184,4.907,5.444v.394H126.464v-.251a5.253,5.253,0,0,1,5.3-5.586M151.418,5.405a7.745,7.745,0,0,0,7.3-4.221L156.682-.283A5.353,5.353,0,0,1,151.6,2.9a5.233,5.233,0,0,1-5.479-5.586v-.859H159.4V-4.9c0-5.228-3.039-9.018-7.98-9.018-5.015,0-8.3,3.79-8.3,9.663s3.289,9.663,8.3,9.663m0-16.933c2.937,0,4.905,2.184,4.905,5.444v.394H146.118v-.251a5.253,5.253,0,0,1,5.3-5.586m24.524,16.5H178.8V-21.511h-2.859V-10.49H175.8a5.4,5.4,0,0,0-5.408-3.432c-4.62,0-7.515,3.754-7.515,9.661s2.895,9.666,7.515,9.666A5.571,5.571,0,0,0,175.8,1.972h.144Zm-4.764-2.144c-3.224,0-5.229-2.22-5.229-5.515V-5.834c0-3.295,2.006-5.515,5.229-5.515,2.614,0,4.764,1.5,4.764,3.546V-.929c0,2.4-2.15,3.76-4.764,3.76" transform="translate(-20046.123 -17729.561)" fill="#fff"/>
    <path id="Path_617" data-name="Path 617" d="M71.91,34.624a14.127,14.127,0,0,0,7.8,2.336c5.362,0,8.653-3.026,8.653-7.433,0-4.035-2.071-6.37-7.273-8.388-5.734-2.018-9.185-4.991-9.185-9.875,0-5.256,4.3-9.078,10.406-9.078a13.29,13.29,0,0,1,7.114,1.7l-.956,2.123a11.435,11.435,0,0,0-6.318-1.7c-5.788,0-7.752,3.716-7.752,6.531,0,3.982,2.283,6,7.433,8.016,5.894,2.389,9.025,5.044,9.025,10.406,0,5.2-3.716,9.874-11.361,9.874-3.079,0-6.69-1.008-8.548-2.442Z" transform="translate(-20185.865 -17809.32)" fill="#aad037"/>
    <path id="Path_618" data-name="Path 618" d="M97.671,21.219c0-3.186-.053-5.681-.212-8.123H99.9l.161,4.83h.106a10.173,10.173,0,0,1,9.4-5.415c6.584,0,10.99,5.415,10.99,12.9,0,9.078-5.416,13.75-11.574,13.75a9.632,9.632,0,0,1-8.654-4.726h-.106V49.092H97.671Zm2.548,7.326a8.384,8.384,0,0,0,.212,2.018,8.611,8.611,0,0,0,8.388,6.477c5.84,0,9.185-4.726,9.185-11.521,0-5.733-3.186-10.883-8.973-10.883a8.847,8.847,0,0,0-8.441,6.742,10.348,10.348,0,0,0-.372,2.176Z" transform="translate(-20185.934 -17809.348)" fill="#aad037"/>
    <path id="Path_619" data-name="Path 619" d="M127.469,25.572c0,8.123,4.406,11.361,9.716,11.361a14.813,14.813,0,0,0,7.062-1.433l.636,1.964a16.8,16.8,0,0,1-8.016,1.647c-7.327,0-11.893-5.309-11.893-12.795,0-8.495,4.885-13.8,11.468-13.8,8.335,0,9.927,7.858,9.927,11.521a6.568,6.568,0,0,1-.106,1.539Zm16.246-2.017c.053-3.558-1.433-8.919-7.592-8.919-5.627,0-8.069,4.99-8.547,8.919Z" transform="translate(-20186.006 -17809.348)" fill="#aad037"/>
    <path id="Path_620" data-name="Path 620" d="M170.482,37.465A17.378,17.378,0,0,1,163,39.111c-7.327,0-12.212-5.362-12.212-13.006,0-8.07,5.523-13.592,13.114-13.592a13.048,13.048,0,0,1,6.69,1.592l-.9,2.071a11.962,11.962,0,0,0-6-1.486c-6.849,0-10.353,5.256-10.353,11.2,0,6.69,4.2,11.043,10.087,11.043a14.16,14.16,0,0,0,6.371-1.486Z" transform="translate(-20186.072 -17809.348)" fill="#aad037"/>
    <path id="Path_621" data-name="Path 621" d="M179.94,5.8a2.077,2.077,0,0,1-2.125,2.176A2.045,2.045,0,0,1,175.852,5.8a2.179,2.179,0,0,1,2.071-2.23A2.1,2.1,0,0,1,179.94,5.8m-3.292,7.273H179.2V38.557h-2.548Z" transform="translate(-20186.141 -17809.324)" fill="#aad037"/>
    <path id="Path_622" data-name="Path 622" d="M203.642,32.528a38.261,38.261,0,0,0,.372,6.052h-2.336l-.371-3.663H201.2a9.741,9.741,0,0,1-8.176,4.247c-5.15,0-7.486-3.61-7.486-7.008,0-5.893,5.151-9.449,15.556-9.344v-.69c0-2.5-.479-7.538-6.53-7.485a11.124,11.124,0,0,0-6.425,1.911l-.795-1.858a14.079,14.079,0,0,1,7.484-2.176c7.38,0,8.813,5.521,8.813,10.034Zm-2.547-7.592c-5.575-.159-12.9.69-12.9,6.8,0,3.663,2.441,5.309,5.1,5.309a7.619,7.619,0,0,0,7.537-5.1,4.25,4.25,0,0,0,.266-1.539Z" transform="translate(-20186.166 -17809.348)" fill="#aad037"/>
    <path id="Path_2629" data-name="Path 2629" d="M0,0H2.548V37.694H0Z" transform="translate(-19974.297 -17808.461)" fill="#aad037"/>
    <path id="Path_623" data-name="Path 623" d="M226.507,5.8a2.077,2.077,0,0,1-2.124,2.176A2.045,2.045,0,0,1,222.419,5.8a2.179,2.179,0,0,1,2.071-2.23,2.1,2.1,0,0,1,2.018,2.23m-3.292,7.273h2.548V38.557h-2.548Z" transform="translate(-20186.26 -17809.324)" fill="#aad037"/>
    <path id="Path_624" data-name="Path 624" d="M233.275,35.235a11.267,11.267,0,0,0,5.734,1.751c4.033,0,5.946-2.176,5.946-4.83,0-2.814-1.7-4.3-5.363-5.787-4.194-1.593-6.476-3.876-6.476-6.955,0-3.663,2.919-6.9,7.857-6.9A9.977,9.977,0,0,1,246.6,14.1l-.957,2.071a8.586,8.586,0,0,0-5.1-1.539c-3.238,0-4.937,2.07-4.937,4.406,0,2.655,1.805,3.823,5.256,5.256,4.141,1.593,6.582,3.663,6.582,7.538,0,4.354-3.4,7.274-8.6,7.274a12.506,12.506,0,0,1-6.476-1.752Z" transform="translate(-20186.287 -17809.348)" fill="#aad037"/>
    <path id="Path_625" data-name="Path 625" d="M257.686,7.456v5.627h7.274v2.071h-7.274V31.718c0,3.239,1.008,5.256,3.717,5.256a9.479,9.479,0,0,0,2.919-.372l.318,1.912a8.893,8.893,0,0,1-3.557.636,5.283,5.283,0,0,1-4.353-1.805c-1.168-1.327-1.593-3.5-1.593-6.105V15.154h-4.3V13.083h4.3V8.412Z" transform="translate(-20186.334 -17809.334)" fill="#aad037"/>
    <path id="Path_626" data-name="Path 626" d="M12.749.631s-23.456,47.53,25.925,69.751c0,0,25.308,8.333,46.6,7.716,0,0,9.568-.617-8.951-12.345S5.034,20.075,12.749.631" transform="translate(-20185.701 -17809.316)" fill="#e9b136"/>
    <path id="Path_627" data-name="Path 627" d="M5.245,3.512S-17.212,50,31.17,73.263c0,0,25.308,8.333,46.6,7.716,0,0,9.567-.617-8.951-12.345S-2.47,22.956,5.245,3.512" transform="translate(-20185.682 -17809.324)" fill="#43814e"/>
    <path id="Path_628" data-name="Path 628" d="M.464,21.359C-1.715,37.21,3,61.5,31.4,73.563c0,0,23.866,7.5,43.868,7.494-8.525,0-19.454-10.946-36.69-22.714C12.261,40.372,3.345,28.277.464,21.359" transform="translate(-20185.682 -17809.371)" fill="#aad037"/>
    <path id="Path_629" data-name="Path 629" d="M7.688,32.281C9.3,45.772,16.847,60.667,38.819,70.554a187.731,187.731,0,0,0,24.894,5.957c-6.628-4.285-14.673-11.02-24.969-18.05C22.928,47.663,13.4,38.988,7.688,32.281" transform="translate(-20185.703 -17809.398)" fill="#a0af36"/>
    <path id="Path_630" data-name="Path 630" d="M.177,22.582c.047-.427.1-.852.154-1.268a42.217,42.217,0,0,0,7.062,10.8A55.039,55.039,0,0,1,7.64,17.795C4.607,12.6,3.442,7.72,5.112,3.515A61.894,61.894,0,0,0,.177,22.582" transform="translate(-20185.682 -17809.324)" fill="#5cba44"/>
    <path id="Path_631" data-name="Path 631" d="M74.058,81.2c-.1,0-.2,0-.3,0,.1,0,.2,0,.3,0" transform="translate(-20185.875 -17809.525)" fill="#5cba44"/>
    <path id="Path_632" data-name="Path 632" d="M80.019,78.274a127.307,127.307,0,0,1-16.437-1.735c4.415,2.856,8.2,4.62,11.6,4.66.878,0,1.753,0,2.621-.027,0,0,3.408-.222,2.213-2.9" transform="translate(-20185.846 -17809.514)" fill="#5cba44"/>
    <path id="Path_633" data-name="Path 633" d="M281.267,38.9V0h2.6l15.122,22.971a128.4,128.4,0,0,1,7.331,12.236l.115-.059c-.4-5.251-.462-9.7-.462-15.814V0h2.655V38.9h-2.539L291.252,16.276c-2.885-4.5-5.541-8.6-7.561-12.581l-.115.057c.288,4.791.346,9,.346,15.469V38.9Z" transform="translate(-20186.412 -17809.314)" fill="#fff"/>
    <path id="Path_634" data-name="Path 634" d="M339.486,32.176c0,2.424.058,4.617.23,6.752h-2.6l-.173-4.963h-.116a10.647,10.647,0,0,1-9.465,5.6c-3.519,0-9.464-1.789-9.464-12.236v-16.1h2.77V26.809c0,6,1.847,10.331,7.33,10.331a9.159,9.159,0,0,0,8.195-5.6,9.941,9.941,0,0,0,.521-3.058V11.225h2.771Z" transform="translate(-20186.506 -17809.344)" fill="#fff"/>
    <path id="Path_635" data-name="Path 635" d="M352.661,5.092V11.21h7.906v2.25h-7.906V31.467c0,3.521,1.1,5.714,4.04,5.714a10.278,10.278,0,0,0,3.173-.4l.347,2.078a9.635,9.635,0,0,1-3.867.693,5.747,5.747,0,0,1-4.733-1.962c-1.27-1.443-1.731-3.81-1.731-6.638V13.46h-4.675V11.21h4.675V6.13Z" transform="translate(-20186.578 -17809.328)" fill="#fff"/>
    <path id="Path_636" data-name="Path 636" d="M366.684,19.536c0-2.771-.058-5.6-.23-8.311h2.539l.115,5.6h.175c1.212-3.464,4.1-6.234,7.848-6.234a7.213,7.213,0,0,1,1.155.115V13.36a4.775,4.775,0,0,0-1.328-.115c-3.81,0-6.522,3.289-7.272,7.734a12.956,12.956,0,0,0-.231,2.654v15.3h-2.771Z" transform="translate(-20186.635 -17809.342)" fill="#fff"/>
    <path id="Path_637" data-name="Path 637" d="M387.8,3.292a2.257,2.257,0,0,1-2.308,2.367,2.225,2.225,0,0,1-2.135-2.367A2.369,2.369,0,0,1,385.6.868,2.286,2.286,0,0,1,387.8,3.292M384.218,11.2h2.771V38.9h-2.771Z" transform="translate(-20186.68 -17809.316)" fill="#fff"/>
    <path id="Path_638" data-name="Path 638" d="M400.115,5.092V11.21h7.908v2.25h-7.908V31.467c0,3.521,1.1,5.714,4.04,5.714a10.294,10.294,0,0,0,3.175-.4l.346,2.078a9.633,9.633,0,0,1-3.868.693,5.747,5.747,0,0,1-4.732-1.962c-1.269-1.443-1.732-3.81-1.732-6.638V13.46h-4.673V11.21h4.673V6.13Z" transform="translate(-20186.705 -17809.328)" fill="#fff"/>
    <path id="Path_639" data-name="Path 639" d="M417.771,3.292a2.258,2.258,0,0,1-2.308,2.367,2.224,2.224,0,0,1-2.135-2.367,2.368,2.368,0,0,1,2.25-2.424,2.286,2.286,0,0,1,2.193,2.424M414.194,11.2h2.771V38.9h-2.771Z" transform="translate(-20186.756 -17809.316)" fill="#fff"/>
    <path id="Path_640" data-name="Path 640" d="M449.949,24.788c0,10.331-7.1,14.774-13.275,14.774-7.156,0-12.7-5.6-12.7-14.255,0-9.466,6.234-14.719,13.1-14.719,7.676,0,12.87,5.772,12.87,14.2m-23.2.346c0,6.926,4.445,12.12,10.1,12.12,5.771,0,10.33-5.194,10.33-12.294,0-5.079-2.828-12.063-10.157-12.063-7.1,0-10.274,6.291-10.274,12.236" transform="translate(-20186.787 -17809.342)" fill="#fff"/>
    <path id="Path_641" data-name="Path 641" d="M457.079,17.862c0-2.54-.058-4.444-.23-6.638h2.6l.175,5.021h.114a10.463,10.463,0,0,1,9.523-5.655c2.656,0,9.7,1.327,9.7,11.716V38.928h-2.77V22.537c0-5.021-1.963-9.581-7.676-9.581A8.9,8.9,0,0,0,460.2,19.3a10.665,10.665,0,0,0-.346,2.482V38.928h-2.771Z" transform="translate(-20186.871 -17809.342)" fill="#fff"/>
  </g>
</svg>
