<svg viewbox="0 0 691.85 335.97">
<path d="M0 0h691.85v335.97H0z" fill="none"></path>
<path class="cls-2" d="M323.34 229.45c15.73 0 30.2-10.12 30.2-26.06 0-16.14-12.2-27.11-30.19-27.11h-10.31c-24.18 0-44 18.5-44 45.26v57.29h-41.17v-57.14c0-31.93 32.6-57.14 71.9-57.14h28.81c29.62 0 65.44 9.61 65.44 38.84 0 29.79-32.81 38.85-65.45 38.85h-54.62v-12.79zm101.05-64.9h41.22v114.28h-41.22zm188.1 62.94h-71.24c2.86 21.66 19.9 37.89 40 37.89h53.48v13h-65.11c-39.3 0-72-25.22-72-57.14s32.63-57.14 71.93-57.14h65.11v12.68h-53.44c-20.16 0-37.25 16.36-40 38.17h71.28zM98.04 190.17c0 4.59 5.49 8.72 15.26 11.38s22.24 5.79 34.94 8.87c25.08 6.08 51.51 14.18 51.51 33 0 21.08-38 35.41-89.52 35.41-18.9 0-36.87-1.85-55.11-7.06l5.81-10.27c16.6 6.1 40.23 7.26 57.67 7.26 21.14 0 38.29-6.73 38.29-16.54 0-5.64-5.59-10.39-14.94-12.87-9.57-2.54-21.79-5.67-34.25-8.46-24.66-5.52-50.56-12.78-50.56-32.54 0-19 27.46-33.83 78.14-33.83 16 0 39.26 2.09 54.15 8l-6.58 8.21c-15.42-4.39-32.94-6-48.91-6-26.69-.02-35.9 7.44-35.9 15.44z"></path>
<circle cx="512.94" cy="210.09" fill="#fff" r="56.69" transform="matrix(.16 -.99 .99 .16 154.89 557.59)"></circle>
<path d="M388.29 85.26a56.7 56.7 0 0 1 111-16.21 101.6 101.6 0 0 0-15.46-18c-1.11.45-2.25.94-3.43 1.45a101.47 101.47 0 0 1 20 20.75 56 56 0 0 1 1.22 9.4 100 100 0 0 0-28.3-26.79q-2.37 1.19-4.81 2.53a99.47 99.47 0 0 1 33.17 27.17 58 58 0 0 1-.49 7.26 94.1 94.1 0 0 0-41.26-29.33c-2 1.31-4.09 2.71-6.14 4.19a93.33 93.33 0 0 1 46.94 28 57.35 57.35 0 0 1-1.55 6.3 89.74 89.74 0 0 0-55.07-26.63q-3.51 3.06-6.92 6.53h.9a89.19 89.19 0 0 1 60.05 23.15 53.89 53.89 0 0 1-2.6 5.92 85.82 85.82 0 0 0-54.2-19.18 87 87 0 0 0-13.7 1.08c-2.21 2.87-4.34 5.9-6.35 9.11a85.95 85.95 0 0 1 72.44 12.28 58.4 58.4 0 0 1-4 5.84 82.62 82.62 0 0 0-76-4.09c-1.59 3.51-3.05 7.17-4.35 11a82.19 82.19 0 0 1 77.25-3.27 56.68 56.68 0 0 1-98.33-38.47z" fill="#c00"></path>
</svg>