<?xml version="1.0" encoding="utf-8"?>
<!-- Generator: Adobe Illustrator 27.0.1, SVG Export Plug-In . SVG Version: 6.00 Build 0)  -->
<svg version="1.1" id="Ebene_1" xmlns="http://www.w3.org/2000/svg" xmlns:xlink="http://www.w3.org/1999/xlink" x="0px" y="0px"
	 viewBox="0 0 1280 371.4" style="enable-background:new 0 0 1280 371.4;" xml:space="preserve">
<style type="text/css">
	.st0{fill:#008B3B;}
	.st1{fill:#005095;}
	.st2{fill:#1D1D1B;}
</style>
<g>
	<g>
		<g>
			<path class="st0" d="M251.9,175c12.9,70.7-31.4,147.7-87.8,191.4c41.9-15.7,87.3-42.2,130.2-78.2C403,196.9,454.8,79.6,410,26.2
				c-7.6-9.1-17.6-15.7-29.4-20C317,30.7,239.3,106,251.9,175z"/>
		</g>
	</g>
	<g>
		<g>
			<path class="st1" d="M188.5,181c0.7-61.2,72.1-142.8,165.9-180.4c-59-5.3-144.8,29-222.5,94.2C23.1,186-28.7,303.3,16.1,356.7
				c0.3,0.4,0.7,0.7,1,1.1C74.8,362.4,187.4,284.3,188.5,181z"/>
		</g>
	</g>
</g>
<g>
	<g>
		<g>
			<path class="st2" d="M548.1,242.6c-17.5,0-30.8-3.7-42.1-15.2l14.6-14.6c7.3,7.3,17.2,9.7,27.9,9.7c13.3,0,20.4-5,20.4-14.3
				c0-4-1.1-7.4-3.6-9.7c-2.3-2.1-4.9-3.2-10.2-4l-13.9-1.9c-9.9-1.5-17.2-4.5-22.3-9.6c-5.5-5.5-8.3-13-8.3-22.7
				c0-20.6,15.2-35,40.2-35c15.9,0,27.4,3.9,37.2,13.4l-14.3,14.1c-7.3-7-16-7.9-23.6-7.9c-12,0-17.8,6.6-17.8,14.6
				c0,2.9,1,6,3.4,8.3c2.3,2.1,6,3.9,10.7,4.5l13.6,1.9c10.5,1.5,17.2,4.4,22,8.9c6.2,5.8,8.9,14.3,8.9,24.5
				C590.9,230,572.3,242.6,548.1,242.6z"/>
		</g>
	</g>
	<g>
		<g>
			<path class="st2" d="M705.4,198.2h-22.2v43.4h-22.5V126.3h44.7c23.8,0,38.1,16.4,38.1,36C743.4,181.9,729.2,198.2,705.4,198.2z
				 M704.2,146.4h-21.1V178h21.1c10.2,0,16.7-6.3,16.7-15.7C720.9,152.9,714.4,146.4,704.2,146.4z"/>
		</g>
	</g>
	<g>
		<g>
			<path class="st2" d="M811,241.6V126.3h22.5v115.3H811z"/>
		</g>
	</g>
	<g>
		<g>
			<path class="st2" d="M953,146.4v95.2h-22.5v-95.2h-30.1v-20.1h82.7v20.1H953z"/>
		</g>
	</g>
	<g>
		<g>
			<path class="st2" d="M1050,241.6V126.3h75.9v20.1h-53.4v27h45.5v20.1h-45.5v28h53.4v20.1H1050z"/>
		</g>
	</g>
	<g>
		<g>
			<path class="st2" d="M1254.3,241.6l-22.3-40.2l-22.2,40.2H1184l35.8-59.1l-33.5-56.2h25.6l20.1,37.2l20.2-37.2h25.4l-33.5,56.2
				l35.9,59.1H1254.3z"/>
		</g>
	</g>
</g>
<g>
	<g>
		<rect x="510.8" y="94" class="st2" width="769" height="3.2"/>
	</g>
</g>
<g>
	<g>
		<path class="st2" d="M525.3,66c-8.4,0-14.5-5.8-14.5-14.1V24.2h4.4v27.5c0,6.3,4,10.4,10,10.4c6.1,0,10.1-4.1,10.1-10.4V24.2h4.4
			V52C539.9,60.3,533.7,66,525.3,66z M517.1,19.7v-5.2h4.2v5.2H517.1z M529.4,19.7v-5.2h4.2v5.2H529.4z"/>
	</g>
	<g>
		<path class="st2" d="M571.3,63.5c-1.5,1.5-4.1,2.5-7,2.5c-3.1,0-5.8-0.8-8.1-3.8v3.4H552V24.2h4.2v16.2c2.3-3,5-3.7,8.1-3.7
			c2.9,0,5.5,1,7,2.5c2.9,2.9,3.5,7.7,3.5,12.2S574.2,60.6,571.3,63.5z M563.4,40.4c-6.2,0-7.2,5.4-7.2,11s1,11,7.2,11
			s7.2-5.4,7.2-11S569.7,40.4,563.4,40.4z"/>
	</g>
	<g>
		<path class="st2" d="M587.8,52.4c0,6.3,3,9.9,8.5,9.9c3.3,0,5.3-1,7.5-3.3l2.9,2.5c-2.9,2.9-5.6,4.4-10.5,4.4
			c-7.6,0-12.5-4.5-12.5-14.7c0-9.3,4.5-14.7,11.8-14.7c7.4,0,11.8,5.4,11.8,13.9v1.9H587.8z M602.1,44.5c-1.1-2.6-3.7-4.3-6.7-4.3
			c-3,0-5.6,1.7-6.7,4.3c-0.6,1.6-0.8,2.4-0.9,4.8H603C602.9,47,602.8,46.1,602.1,44.5z"/>
	</g>
	<g>
		<path class="st2" d="M633.6,42.5c-1.6-1.6-2.7-2.1-5-2.1c-4.2,0-6.9,3.3-6.9,7.7v17.6h-4.2V37h4.2v3.5c1.6-2.4,4.7-3.8,8.1-3.8
			c2.7,0,4.8,0.6,6.9,2.7L633.6,42.5z"/>
	</g>
	<g>
		<path class="st2" d="M659.3,65.7v-2.7c-2.3,2.3-4.4,3.1-8.3,3.1c-4,0-6.3-0.8-8.1-2.6c-1.4-1.4-2.2-3.6-2.2-5.8
			c0-5,3.5-8.3,9.9-8.3h8.6v-2.7c0-4.2-2.1-6.3-7.4-6.3c-3.7,0-5.5,0.9-7.2,3.3l-2.9-2.6c2.6-3.3,5.5-4.3,10.2-4.3
			c7.7,0,11.5,3.3,11.5,9.6v19.5H659.3z M659.3,52.4h-8.1c-4.3,0-6.4,1.7-6.4,5.1s2,4.9,6.6,4.9c2.5,0,4.6-0.2,6.4-1.9
			c1-0.9,1.5-2.6,1.5-5V52.4z"/>
	</g>
	<g>
		<path class="st2" d="M682.3,65.7c-5,0-7.3-3.3-7.3-7.6V24.2h4.2v33.7c0,2.8,0.9,4.2,3.9,4.2h2.3v3.6H682.3z"/>
	</g>
	<g>
		<path class="st2" d="M701.1,65.7c-5,0-7.3-3.3-7.3-7.6V24.2h4.2v33.7c0,2.8,0.9,4.2,3.9,4.2h2.3v3.6H701.1z"/>
	</g>
	<g>
		<path class="st2" d="M733.8,40.4v25.3h-4.2V40.4h-3.7v-3.2h3.7v-5.4c0-4.3,2.4-7.7,7.3-7.7h3v3.6h-2.3c-2.7,0-3.9,1.6-3.9,4.2v5.3
			h6.1v3.2H733.8z"/>
	</g>
	<g>
		<path class="st2" d="M766.6,65.7v-3.2c-2,2.3-4.9,3.6-8.1,3.6c-3.1,0-5.7-0.9-7.4-2.7c-2-2-2.9-4.7-2.9-8V37h4.2v17.7
			c0,5.1,2.7,7.6,7,7.6c4.3,0,7.2-2.6,7.2-7.6V37h4.2v28.7H766.6z M751,30.6v-5.2h4.2v5.2H751z M763.4,30.6v-5.2h4.2v5.2H763.4z"/>
	</g>
	<g>
		<path class="st2" d="M798.7,42.5c-1.6-1.6-2.7-2.1-5-2.1c-4.2,0-6.9,3.3-6.9,7.7v17.6h-4.2V37h4.2v3.5c1.6-2.4,4.7-3.8,8-3.8
			c2.7,0,4.8,0.6,6.9,2.7L798.7,42.5z"/>
	</g>
	<g>
		<path class="st2" d="M840.9,65.7v-2.7c-2.3,2.3-4.4,3.1-8.3,3.1c-4,0-6.3-0.8-8.1-2.6c-1.4-1.4-2.2-3.6-2.2-5.8
			c0-5,3.5-8.3,9.9-8.3h8.6v-2.7c0-4.2-2.1-6.3-7.4-6.3c-3.7,0-5.5,0.9-7.2,3.3l-2.9-2.6c2.6-3.3,5.5-4.3,10.2-4.3
			c7.7,0,11.5,3.3,11.5,9.6v19.5H840.9z M840.9,52.4h-8.1c-4.3,0-6.4,1.7-6.4,5.1s2,4.9,6.6,4.9c2.5,0,4.6-0.2,6.4-1.9
			c1-0.9,1.5-2.6,1.5-5V52.4z"/>
	</g>
	<g>
		<path class="st2" d="M863.9,65.7c-5,0-7.3-3.3-7.3-7.6V24.2h4.2v33.7c0,2.8,0.9,4.2,3.9,4.2h2.3v3.6H863.9z"/>
	</g>
	<g>
		<path class="st2" d="M882.7,65.7c-5,0-7.3-3.3-7.3-7.6V24.2h4.2v33.7c0,2.8,0.9,4.2,3.9,4.2h2.3v3.6H882.7z"/>
	</g>
	<g>
		<path class="st2" d="M895.5,52.4c0,6.3,3,9.9,8.5,9.9c3.3,0,5.2-1,7.5-3.3l2.9,2.5c-2.9,2.9-5.6,4.4-10.5,4.4
			c-7.6,0-12.5-4.5-12.5-14.7c0-9.3,4.5-14.7,11.8-14.7c7.4,0,11.8,5.4,11.8,13.9v1.9H895.5z M909.8,44.5c-1.1-2.6-3.7-4.3-6.7-4.3
			s-5.6,1.7-6.7,4.3c-0.6,1.6-0.8,2.4-0.9,4.8h15.2C910.5,47,910.4,46.1,909.8,44.5z"/>
	</g>
</g>
<g>
	<path class="st0" d="M522.4,311v13.5h21.6v9.5h-21.6v22.2h-10.7v-54.8h36.1v9.5H522.4z"/>
	<path class="st0" d="M574.2,356.3c-8.2,0-11.7-5.8-11.7-11.5v-43.3h10v42.7c0,2.4,1,3.6,3.5,3.6h3.8v8.5H574.2z"/>
	<path class="st0" d="M615,356.3v-3.5c-2.7,2.7-5.2,3.8-9.8,3.8c-4.5,0-7.8-1.2-10.2-3.5c-2.2-2.2-3.3-5.5-3.3-9
		c0-6.4,4.4-11.6,13.7-11.6h9.5v-2c0-4.4-2.2-6.3-7.5-6.3c-3.8,0-5.6,0.9-7.7,3.3l-6.4-6.2c3.9-4.3,7.8-5.5,14.5-5.5
		c11.2,0,17.1,4.8,17.1,14.2v26.4H615z M614.8,339.3h-7.9c-3.6,0-5.6,1.7-5.6,4.5c0,2.8,1.8,4.6,5.8,4.6c2.8,0,4.5-0.2,6.3-1.9
		c1.1-1,1.5-2.6,1.5-5.1V339.3z"/>
	<path class="st0" d="M682.3,356.3h-8.2l-8.4-25.2l-8.4,25.2h-8.2l-12.3-40.1h10.6l6.5,24.8l8.2-24.8h7.3l8.2,24.8l6.5-24.8h10.5
		L682.3,356.3z"/>
	<path class="st0" d="M706.8,309.3v-8.2h10.2v8.2H706.8z M707,356.3v-40.1h10v40.1H707z"/>
	<path class="st0" d="M746,356.3c-8.2,0-11.7-5.8-11.7-11.5v-43.3h10v42.7c0,2.4,1,3.6,3.5,3.6h3.8v8.5H746z"/>
	<path class="st0" d="M765.2,339v-9.3h23.7v9.3H765.2z"/>
	<path class="st0" d="M840.5,351c-3.6,3.6-8.8,5.2-14.5,5.2h-19.8v-54.8h19.8c5.7,0,10.8,1.6,14.5,5.2c6.2,6.2,5.5,13.7,5.5,21.9
		C846.1,336.9,846.7,344.9,840.5,351z M833.1,314.4c-1.8-2.2-4.3-3.4-8-3.4H817v35.7h8.1c3.7,0,6.2-1.2,8-3.4
		c2-2.5,2.3-6.4,2.3-14.7S835.1,316.9,833.1,314.4z"/>
	<path class="st0" d="M870.6,339.3c0,5.2,3.2,8.9,8.8,8.9c4.4,0,6.5-1.2,9.1-3.8l6.1,5.9c-4.1,4.1-8,6.3-15.2,6.3
		c-9.5,0-18.5-4.3-18.5-20.5c0-13.1,7.1-20.5,17.5-20.5c11.2,0,17.5,8.2,17.5,19.2v4.5H870.6z M884.9,328.2
		c-1.1-2.4-3.3-4.2-6.7-4.2s-5.6,1.8-6.7,4.2c-0.6,1.5-0.8,2.5-0.9,4.3h15.2C885.8,330.7,885.5,329.7,884.9,328.2z"/>
	<path class="st0" d="M925.3,371.4c-6.2,0-10.4-1.2-14.5-5.2l6.2-6.3c2.2,2.2,4.5,3.1,7.8,3.1c6,0,8.1-4.2,8.1-8.3v-4.1
		c-2.6,2.9-5.6,4-9.5,4s-7.3-1.3-9.5-3.5c-3.8-3.8-4.1-8.9-4.1-15.9c0-7,0.3-12.1,4.1-15.8c2.2-2.2,5.7-3.5,9.6-3.5
		c4.2,0,7,1.2,9.8,4.2v-3.8h9.7v38.6C942.9,364.4,936.1,371.4,925.3,371.4z M926.3,324.7c-5.9,0-6.5,5.1-6.5,10.4
		c0,5.3,0.6,10.5,6.5,10.5c5.9,0,6.6-5.2,6.6-10.5C932.9,329.8,932.2,324.7,926.3,324.7z"/>
	<path class="st0" d="M968.6,339.3c0,5.2,3.2,8.9,8.8,8.9c4.4,0,6.5-1.2,9.1-3.8l6.1,5.9c-4.1,4.1-8,6.3-15.2,6.3
		c-9.5,0-18.5-4.3-18.5-20.5c0-13.1,7.1-20.5,17.5-20.5c11.2,0,17.5,8.2,17.5,19.2v4.5H968.6z M982.9,328.2
		c-1.1-2.4-3.3-4.2-6.7-4.2s-5.6,1.8-6.7,4.2c-0.6,1.5-0.8,2.5-0.9,4.3h15.2C983.7,330.7,983.5,329.7,982.9,328.2z"/>
	<path class="st0" d="M1031.2,327.1c-1.5-1.5-2.8-2.4-5.3-2.4c-3.1,0-6.5,2.3-6.5,7.4v24.2h-10v-40.1h9.8v3.8
		c1.9-2.3,5.8-4.3,10.1-4.3c3.9,0,6.7,1,9.5,3.8L1031.2,327.1z"/>
	<path class="st0" d="M1063.3,356.7c-6.3,0-12-0.7-17.1-5.8l6.5-6.5c3.3,3.3,7.6,3.8,10.7,3.8c3.5,0,7.1-1.2,7.1-4.2
		c0-2-1.1-3.4-4.2-3.7l-6.3-0.6c-7.2-0.7-11.7-3.8-11.7-11.2c0-8.3,7.3-12.8,15.5-12.8c6.2,0,11.5,1.1,15.3,4.7l-6.2,6.2
		c-2.3-2.1-5.8-2.7-9.3-2.7c-4,0-5.7,1.8-5.7,3.8c0,1.5,0.6,3.2,4.2,3.5l6.3,0.6c7.9,0.8,11.9,5,11.9,11.8
		C1080.3,352.5,1072.8,356.7,1063.3,356.7z"/>
	<path class="st0" d="M1118.3,356.3v-24.5c0-5.3-3.4-7.1-6.5-7.1s-6.5,1.8-6.5,7.1v24.5h-10v-54.8h10v18.4c2.7-2.8,6.1-4.2,9.6-4.2
		c8.8,0,13.4,6.2,13.4,14.6v25.9H1118.3z"/>
	<path class="st0" d="M1153.4,339.3c0,5.2,3.2,8.9,8.8,8.9c4.4,0,6.5-1.2,9.1-3.8l6.1,5.9c-4.1,4.1-8,6.3-15.2,6.3
		c-9.5,0-18.5-4.3-18.5-20.5c0-13.1,7.1-20.5,17.5-20.5c11.2,0,17.5,8.2,17.5,19.2v4.5H1153.4z M1167.7,328.2
		c-1.1-2.4-3.3-4.2-6.7-4.2c-3.4,0-5.6,1.8-6.7,4.2c-0.6,1.5-0.8,2.5-0.9,4.3h15.2C1168.6,330.7,1168.3,329.7,1167.7,328.2z"/>
	<path class="st0" d="M1194.1,309.3v-8.2h10.2v8.2H1194.1z M1194.3,356.3v-40.1h10v40.1H1194.3z"/>
	<path class="st0" d="M1268.6,356.3V332c0-5.5-3.5-7.3-6.6-7.3c-3.1,0-6.7,1.8-6.7,7.1v24.5h-10V332c0-5.5-3.5-7.3-6.6-7.3
		c-3.2,0-6.7,1.8-6.7,7.3v24.2h-10v-40.1h9.8v3.7c2.6-2.7,6.3-4.2,10-4.2c4.5,0,8.1,1.6,10.6,5.1c3.4-3.5,7-5.1,12-5.1
		c4,0,7.6,1.3,9.8,3.5c3.2,3.2,4.4,7,4.4,11.4v25.6H1268.6z"/>
</g>
</svg>
