<?xml version="1.0" encoding="UTF-8"?>
<svg id="Ebene_1" xmlns="http://www.w3.org/2000/svg" version="1.1" viewBox="0 0 316.13 90.5">
  <!-- Generator: Adobe Illustrator 29.5.1, SVG Export Plug-In . SVG Version: 2.1.0 Build 141)  -->
  <defs>
    <style>
      .st0 {
        fill: #219a62;
      }

      .st1 {
        fill: #219a62;
      }

      .st2 {
        fill: #1e5faa;
      }
    </style>
  </defs>
  <g>
    <path class="st1" d="M62.21,43.22c3.2,17.46-7.76,36.48-21.7,47.28,10.36-3.88,21.56-10.43,32.15-19.32,26.86-22.54,39.67-51.51,28.6-64.7-1.88-2.24-4.35-3.87-7.25-4.94-15.72,6.05-34.92,24.66-31.8,41.69h0Z"/>
    <path class="st2" d="M46.56,44.69c.16-15.12,17.81-35.27,40.98-44.56-14.57-1.3-35.76,7.16-54.96,23.27C5.72,45.95-7.09,74.91,3.98,88.11c.08.09.17.18.25.27,14.25,1.13,42.06-18.15,42.33-43.68h0Z"/>
  </g>
  <path d="M135.37,59.92c-4.32,0-7.6-.92-10.4-3.76l3.6-3.6c1.8,1.8,4.24,2.4,6.88,2.4,3.28,0,5.04-1.24,5.04-3.52,0-1-.28-1.84-.88-2.4-.56-.52-1.2-.8-2.52-1l-3.44-.48c-2.44-.36-4.24-1.12-5.52-2.36-1.36-1.36-2.04-3.2-2.04-5.6,0-5.08,3.76-8.64,9.92-8.64,3.92,0,6.76.96,9.2,3.32l-3.52,3.48c-1.8-1.72-3.96-1.96-5.84-1.96-2.96,0-4.4,1.64-4.4,3.6,0,.72.24,1.48.84,2.04.56.52,1.48.96,2.64,1.12l3.36.48c2.6.36,4.24,1.08,5.44,2.2,1.52,1.44,2.2,3.52,2.2,6.04,0,5.52-4.6,8.64-10.56,8.64h0Z"/>
  <path d="M173.93,36.16h-5.2v7.8h5.2c2.52,0,4.12-1.56,4.12-3.88s-1.6-3.92-4.12-3.92h0ZM174.21,48.96h-5.48v10.72h-5.56v-28.48h11.04c5.88,0,9.4,4.04,9.4,8.88s-3.52,8.88-9.4,8.88h0Z"/>
  <polygon points="200.29 59.68 200.29 31.2 205.85 31.2 205.85 59.68 200.29 59.68 200.29 59.68"/>
  <polygon points="235.37 36.16 235.37 59.68 229.81 59.68 229.81 36.16 222.37 36.16 222.37 31.2 242.81 31.2 242.81 36.16 235.37 36.16 235.37 36.16"/>
  <polygon points="259.33 59.68 259.33 31.2 278.09 31.2 278.09 36.16 264.89 36.16 264.89 42.84 276.13 42.84 276.13 47.8 264.89 47.8 264.89 54.72 278.09 54.72 278.09 59.68 259.33 59.68 259.33 59.68"/>
  <polygon points="309.77 59.68 304.25 49.76 298.77 59.68 292.41 59.68 301.25 45.08 292.97 31.2 299.29 31.2 304.25 40.4 309.25 31.2 315.53 31.2 307.25 45.08 316.13 59.68 309.77 59.68 309.77 59.68"/>
  <polygon points="316.08 24.02 126.15 24.02 126.15 23.22 316.08 23.22 316.08 24.02 316.08 24.02"/>
  <path d="M130.76,4.86v-1.28h1.04v1.28h-1.04ZM127.7,4.86v-1.28h1.04v1.28h-1.04ZM129.75,16.31c-2.07,0-3.57-1.43-3.57-3.47v-6.87h1.09v6.78c0,1.56.98,2.58,2.48,2.58s2.49-1.02,2.49-2.58v-6.78h1.09v6.87c0,2.04-1.51,3.47-3.59,3.47h0Z"/>
  <path d="M139.15,9.97c-1.54,0-1.79,1.33-1.79,2.71s.24,2.71,1.79,2.71,1.77-1.33,1.77-2.71-.23-2.71-1.77-2.71h0ZM141.1,15.69c-.37.38-1.01.62-1.73.62-.78,0-1.43-.19-2-.94v.85h-1.04V5.97h1.04v3.99c.58-.73,1.22-.91,2-.91.72,0,1.35.24,1.73.62.72.72.86,1.9.86,3.01s-.14,2.29-.86,3.01h0Z"/>
  <path d="M148.71,10.99c-.27-.65-.91-1.07-1.66-1.07s-1.38.42-1.66,1.07c-.16.39-.19.6-.22,1.18h3.74c-.03-.58-.06-.79-.22-1.18h0ZM145.18,12.95c0,1.56.73,2.45,2.09,2.45.82,0,1.3-.24,1.86-.81l.71.62c-.72.72-1.38,1.09-2.59,1.09-1.87,0-3.1-1.12-3.1-3.63,0-2.29,1.11-3.63,2.91-3.63s2.91,1.33,2.91,3.43v.48h-4.78Z"/>
  <path d="M156.49,10.49c-.39-.39-.68-.52-1.23-.52-1.04,0-1.7.82-1.7,1.9v4.35h-1.04v-7.09h1.04v.86c.39-.59,1.17-.95,1.99-.95.68,0,1.2.16,1.7.66l-.76.78h0Z"/>
  <path d="M162.83,12.95h-1.99c-1.07,0-1.58.43-1.58,1.25s.5,1.21,1.63,1.21c.61,0,1.14-.04,1.59-.48.24-.23.36-.63.36-1.22v-.76h0ZM162.83,16.22v-.68c-.58.58-1.1.76-2.05.76s-1.56-.19-2-.65c-.35-.35-.53-.88-.53-1.44,0-1.24.86-2.05,2.45-2.05h2.13v-.68c0-1.04-.52-1.56-1.82-1.56-.91,0-1.37.22-1.79.81l-.71-.65c.63-.82,1.36-1.05,2.51-1.05,1.9,0,2.84.82,2.84,2.36v4.81h-1.04Z"/>
  <path d="M168.51,16.22c-1.24,0-1.8-.81-1.8-1.89V5.97h1.04v8.33c0,.69.23,1.04.95,1.04h.56v.89h-.75Z"/>
  <path d="M173.15,16.22c-1.24,0-1.8-.81-1.8-1.89V5.97h1.04v8.33c0,.69.23,1.04.95,1.04h.56v.89h-.75Z"/>
  <path d="M181.23,9.97v6.25h-1.04v-6.25h-.91v-.79h.91v-1.34c0-1.05.59-1.9,1.8-1.9h.75v.89h-.56c-.66,0-.95.39-.95,1.04v1.31h1.51v.79h-1.51Z"/>
  <path d="M188.54,7.55v-1.28h1.04v1.28h-1.04ZM185.49,7.55v-1.28h1.04v1.28h-1.04ZM189.32,16.22v-.79c-.5.58-1.21.88-2,.88s-1.4-.23-1.83-.66c-.51-.49-.72-1.17-.72-1.99v-4.52h1.04v4.36c0,1.25.66,1.89,1.73,1.89s1.77-.65,1.77-1.89v-4.36h1.04v7.09h-1.02Z"/>
  <path d="M197.25,10.49c-.39-.39-.68-.52-1.22-.52-1.04,0-1.7.82-1.7,1.9v4.35h-1.04v-7.09h1.04v.86c.39-.59,1.17-.95,1.99-.95.68,0,1.2.16,1.7.66l-.76.78h0Z"/>
  <path d="M207.68,12.95h-1.99c-1.07,0-1.58.43-1.58,1.25s.5,1.21,1.63,1.21c.6,0,1.14-.04,1.58-.48.24-.23.36-.63.36-1.22v-.76h0ZM207.68,16.22v-.68c-.58.58-1.09.76-2.05.76s-1.56-.19-2-.65c-.35-.35-.53-.88-.53-1.44,0-1.24.86-2.05,2.45-2.05h2.13v-.68c0-1.04-.52-1.56-1.81-1.56-.91,0-1.37.22-1.79.81l-.71-.65c.63-.82,1.35-1.05,2.51-1.05,1.9,0,2.84.82,2.84,2.36v4.81h-1.04Z"/>
  <path d="M213.37,16.22c-1.24,0-1.8-.81-1.8-1.89V5.97h1.04v8.33c0,.69.23,1.04.95,1.04h.56v.89h-.75Z"/>
  <path d="M218,16.22c-1.24,0-1.8-.81-1.8-1.89V5.97h1.04v8.33c0,.69.23,1.04.95,1.04h.56v.89h-.75Z"/>
  <path d="M224.69,10.99c-.27-.65-.91-1.07-1.66-1.07s-1.38.42-1.66,1.07c-.16.39-.19.6-.22,1.18h3.75c-.03-.58-.06-.79-.22-1.18h0ZM221.16,12.95c0,1.56.73,2.45,2.09,2.45.82,0,1.3-.24,1.86-.81l.71.62c-.72.72-1.38,1.09-2.59,1.09-1.87,0-3.1-1.12-3.1-3.63,0-2.29,1.11-3.63,2.91-3.63s2.91,1.33,2.91,3.43v.48h-4.78Z"/>
  <g>
    <path class="st0" d="M275.77,88.16v-5.96h-4.82v5.96h-2.78v-14.24h2.78v5.82h4.82v-5.82h2.78v14.24h-2.78Z"/>
    <path class="st0" d="M291.49,87c-.64.68-1.7,1.28-3.24,1.28s-2.58-.6-3.22-1.28c-.94-.98-1.18-2.16-1.18-4.06s.24-3.06,1.18-4.04c.64-.68,1.68-1.28,3.22-1.28s2.6.6,3.24,1.28c.94.98,1.18,2.16,1.18,4.04s-.24,3.08-1.18,4.06ZM284.95,76.04v-2.5h2.22v2.5h-2.22ZM289.47,80.42c-.3-.3-.7-.46-1.22-.46s-.9.16-1.2.46c-.54.54-.6,1.44-.6,2.52s.06,2,.6,2.54c.3.3.68.46,1.2.46s.92-.16,1.22-.46c.54-.54.6-1.46.6-2.54s-.06-1.98-.6-2.52ZM289.37,76.04v-2.5h2.22v2.5h-2.22Z"/>
    <path class="st0" d="M300.69,80.02v8.14h-2.6v-8.14h-1.08v-1.98h1.08v-1.3c0-1.48.92-2.98,3.04-2.98h1.48v2.2h-1.02c-.62,0-.9.34-.9.94v1.14h1.92v1.98h-1.92Z"/>
  </g>
  <path class="st0" d="M308.95,83.76c0,1.34.82,2.32,2.28,2.32,1.14,0,1.7-.32,2.36-.98l1.58,1.54c-1.06,1.06-2.08,1.64-3.96,1.64-2.46,0-4.82-1.12-4.82-5.34,0-3.4,1.84-5.32,4.54-5.32,2.9,0,4.54,2.12,4.54,4.98v1.16h-6.52ZM312.67,80.86c-.28-.62-.86-1.08-1.74-1.08s-1.46.46-1.74,1.08c-.16.38-.22.66-.24,1.12h3.96c-.02-.46-.08-.74-.24-1.12Z"/>
</svg>