<svg enable-background="new 0 0 283.46 76.68" viewBox="0 0 283.46 76.68" xmlns="http://www.w3.org/2000/svg"><path d="m82.88 71.02c0-.13-.05-.24-.13-.32-.09-.08-.2-.13-.34-.13-.13 0-.24.04-.35.1-.11.07-.2.15-.26.26-.07.11-.1.22-.1.33 0 .13.05.24.13.32.09.08.2.13.34.13.13 0 .24-.04.35-.1.11-.07.2-.15.26-.26.06-.1.1-.21.1-.33" fill="#302784"/><g fill="#134094"><path d="m4.33 71.34h-2.07l1.38-2.63c.08-.16.15-.31.21-.43.05-.13.09-.22.12-.3.02-.07.03-.11.03-.11h.02v.11c0 .07.01.17.01.29.01.13.02.27.04.44zm1.18 2.63-.9-6.94h-.84l-3.78 6.94h.9l1.1-2.08h2.38l.22 2.08z"/><path d="m11.38 68.54h-.95l-2.45 2.52h-.02l1.02-5h-.86l-1.65 7.91h.87l.59-2.8h.02l1.54 2.8h1l-1.74-2.86z"/><path d="m14.48 68.54h-.94l.32-1.52-.96.27-.25 1.25h-.63l-.11.54h.62l-.73 3.55c-.01.06-.02.12-.03.19-.01.06-.01.13-.01.19 0 .19.03.36.11.51.07.15.19.28.35.37s.37.14.64.14c.11 0 .2-.01.29-.03s.16-.04.21-.06l.11-.57c-.04.01-.08.02-.13.03s-.1.02-.15.02c-.13 0-.23-.02-.31-.07s-.13-.11-.16-.18c-.03-.08-.05-.17-.05-.27 0-.04 0-.09.01-.13.01-.05.01-.09.02-.14l.73-3.55h.94z"/><path d="m16.92 66.91c0-.07-.02-.14-.06-.2s-.09-.11-.15-.14c-.07-.04-.14-.06-.23-.06-.11 0-.22.03-.31.09s-.17.13-.23.22-.09.18-.09.28c0 .11.04.21.12.28s.18.11.31.11c.11 0 .22-.03.31-.08.1-.06.17-.13.23-.22.07-.08.1-.17.1-.28m-.4 1.63h-.88l-1.13 5.44h.89z"/><path d="m20.85 70.06c0 .1-.01.2-.02.3-.01.11-.03.23-.06.35l-2.69.4c.05-.23.1-.44.17-.64.07-.19.15-.37.23-.52.19-.32.41-.56.65-.72.25-.16.5-.24.77-.24.3 0 .53.08.7.25.17.18.25.45.25.82m.8.12c0-.39-.07-.71-.2-.97s-.32-.45-.57-.58-.54-.2-.89-.2c-.28 0-.54.05-.8.14s-.49.23-.71.4c-.22.18-.42.4-.6.66-.11.17-.21.36-.3.56s-.17.41-.23.63-.11.44-.15.66c-.03.22-.05.43-.05.64 0 .44.09.81.25 1.1s.39.5.69.64c.29.14.64.21 1.03.21.23 0 .45-.02.66-.05.21-.04.4-.08.57-.14s.32-.12.45-.19l-.11-.59c-.1.05-.22.1-.37.15-.14.05-.3.09-.48.13-.18.03-.36.05-.56.05-.29 0-.53-.05-.71-.15s-.32-.24-.41-.41-.14-.37-.16-.59-.01-.45.02-.69l3.52-.49c.04-.17.07-.33.09-.49.01-.14.02-.29.02-.43z"/><path d="m26.93 69.71c0-.24-.05-.45-.17-.64-.11-.19-.29-.34-.54-.45s-.58-.17-.99-.17c-.4 0-.77.04-1.11.1-.34.07-.64.16-.9.28l-1.07 5.15h.89l1-4.78c.15-.06.31-.1.49-.13.17-.03.36-.05.56-.05.23 0 .42.04.56.1.14.07.24.15.31.27.06.11.09.23.09.37 0 .05 0 .1-.01.15 0 .05-.01.1-.02.16l-.82 3.91h.89l.81-3.86c.02-.07.03-.13.03-.2-.01-.08 0-.15 0-.21"/><path d="m31.58 69.11-.87 4.18c-.12.07-.26.12-.42.16s-.33.06-.5.06c-.39 0-.68-.11-.86-.32s-.27-.52-.27-.92c0-.18.02-.37.04-.57.03-.2.07-.4.12-.6s.12-.39.19-.58.15-.36.24-.51c.19-.33.42-.59.69-.77s.57-.27.91-.27c.19 0 .34.02.46.04.12.03.21.07.27.1m.91-.3c-.09-.06-.22-.12-.37-.18-.16-.06-.33-.1-.54-.14-.2-.04-.42-.06-.65-.06-.34 0-.65.05-.93.14-.29.1-.55.23-.78.41s-.44.39-.62.64c-.12.17-.23.36-.33.56-.1.21-.18.42-.26.65-.07.23-.13.45-.16.68-.04.23-.06.45-.06.66 0 .39.07.72.21 1s.33.49.59.64.56.22.92.23c.23 0 .44-.02.63-.07.19-.04.34-.1.47-.16l-.09.37c-.05.2-.12.38-.2.55-.09.17-.2.32-.33.45s-.29.23-.48.3c-.18.07-.4.11-.64.11-.17 0-.33-.01-.49-.04s-.3-.06-.43-.1-.24-.09-.32-.14l-.36.54c.12.07.27.14.44.2s.36.1.56.13.41.05.63.05c.44 0 .83-.09 1.17-.26s.63-.41.85-.73c.23-.32.39-.71.48-1.17z"/><path d="m36.87 70.06c0 .1-.01.2-.02.3-.01.11-.03.23-.06.35l-2.69.4c.05-.23.1-.44.17-.64.07-.19.15-.37.23-.52.19-.32.41-.56.65-.72.25-.16.5-.24.77-.24.3 0 .53.08.7.25.17.18.25.45.25.82m.8.12c0-.39-.07-.71-.2-.97s-.32-.45-.57-.58-.54-.2-.89-.2c-.28 0-.54.05-.8.14s-.49.23-.71.4c-.22.18-.42.4-.6.66-.11.17-.21.36-.3.56s-.17.41-.23.63-.11.44-.15.66c-.03.22-.05.43-.05.64 0 .44.09.81.25 1.1s.39.5.69.64c.29.14.64.21 1.03.21.23 0 .45-.02.66-.05.21-.04.4-.08.57-.14s.32-.12.45-.19l-.11-.59c-.1.05-.22.1-.37.15-.14.05-.3.09-.48.13-.18.03-.36.05-.56.05-.29 0-.53-.05-.71-.15s-.32-.24-.41-.41-.14-.37-.16-.59-.01-.45.02-.69l3.52-.49c.04-.17.07-.33.09-.49.01-.14.02-.29.02-.43z"/><path d="m41.93 68.82c-.14-.12-.31-.21-.51-.28s-.43-.1-.7-.1c-.3 0-.56.05-.8.15s-.44.23-.61.39c-.17.17-.3.35-.39.56s-.13.43-.14.65c0 .22.04.41.12.55s.18.26.31.36c.13.09.26.17.4.24s.28.14.41.22.23.17.31.28.12.25.12.42c0 .15-.03.3-.09.44s-.15.27-.26.38-.24.2-.39.26c-.15.07-.32.1-.51.1-.16 0-.31-.02-.44-.04-.13-.03-.24-.07-.34-.11s-.17-.09-.23-.14l-.34.55c.1.07.21.14.35.2s.29.1.46.13.34.05.52.05c.34 0 .65-.06.92-.16s.5-.25.69-.43.33-.39.43-.62.15-.47.15-.72c0-.23-.05-.41-.13-.55-.08-.15-.19-.27-.32-.36s-.27-.18-.42-.25-.29-.14-.42-.22c-.13-.07-.24-.16-.32-.27s-.13-.24-.13-.41c0-.19.05-.36.15-.52s.23-.28.4-.38.36-.15.58-.15c.18 0 .35.03.5.08s.27.12.36.19z"/><path d="m46.24 70.06c0 .1-.01.2-.02.3-.01.11-.03.23-.06.35l-2.69.4c.05-.23.1-.44.17-.64.07-.19.15-.37.23-.52.19-.32.41-.56.65-.72.25-.16.5-.24.77-.24.3 0 .53.08.7.25.17.18.25.45.25.82m.8.12c0-.39-.07-.71-.2-.97s-.32-.45-.57-.58-.54-.2-.89-.2c-.28 0-.54.05-.8.14s-.49.23-.71.4c-.22.18-.42.4-.6.66-.11.17-.21.36-.3.56s-.17.41-.23.63-.11.44-.15.66c-.03.22-.05.43-.05.64 0 .44.09.81.25 1.1s.39.5.69.64c.29.14.64.21 1.03.21.23 0 .45-.02.66-.05.21-.04.4-.08.57-.14s.32-.12.45-.19l-.11-.59c-.1.05-.22.1-.37.15-.14.05-.3.09-.48.13-.18.03-.36.05-.56.05-.29 0-.53-.05-.71-.15s-.32-.24-.41-.41-.14-.37-.16-.59-.01-.45.02-.69l3.52-.49c.04-.17.07-.33.09-.49.01-.14.02-.29.02-.43z"/><path d="m50.1 66.06h-.87l-1.65 7.91h.88z"/><path d="m52.61 66.06h-.88l-1.65 7.91h.88z"/><path d="m56.23 68.82c-.14-.12-.31-.21-.51-.28s-.43-.1-.7-.1c-.3 0-.56.05-.8.15s-.44.23-.61.39c-.17.17-.3.35-.39.56s-.13.43-.14.65c0 .22.04.41.12.55s.18.26.31.36c.13.09.26.17.4.24s.28.14.41.22.23.17.31.28.12.25.12.42c0 .15-.03.3-.09.44s-.15.27-.26.38-.24.2-.39.26c-.15.07-.32.1-.51.1-.16 0-.31-.02-.44-.04-.13-.03-.24-.07-.34-.11s-.17-.09-.23-.14l-.34.55c.1.07.21.14.35.2s.29.1.46.13.34.05.52.05c.34 0 .65-.06.92-.16s.5-.25.69-.43.33-.39.43-.62.15-.47.15-.72c0-.23-.05-.41-.13-.55-.08-.15-.19-.27-.32-.36s-.27-.18-.42-.25-.29-.14-.42-.22c-.13-.07-.24-.16-.32-.27s-.13-.24-.13-.41c0-.19.05-.36.15-.52s.23-.28.4-.38.36-.15.58-.15c.18 0 .35.03.5.08s.27.12.36.19z"/><path d="m60.75 68.82c-.06-.06-.14-.12-.25-.18s-.25-.11-.41-.15-.33-.06-.52-.06c-.39 0-.76.1-1.1.29s-.64.48-.89.86c-.11.17-.22.35-.31.55s-.17.41-.23.63-.11.44-.15.66-.05.43-.05.64c0 .41.07.76.2 1.06s.31.54.55.7c.24.17.53.25.86.25.18 0 .35-.02.51-.05.16-.04.31-.08.43-.14.13-.06.23-.12.32-.19l-.12-.57c-.07.05-.14.09-.24.14s-.2.08-.31.11-.23.04-.35.04c-.22 0-.4-.06-.54-.16-.14-.11-.25-.26-.32-.45-.07-.2-.11-.43-.11-.71 0-.17.01-.35.04-.55.03-.19.06-.38.11-.57s.11-.38.18-.55c.07-.18.15-.34.23-.48.17-.28.36-.5.59-.65s.49-.23.79-.23c.11 0 .22.02.32.04.1.03.18.06.25.1s.13.07.17.1z"/><path d="m65.55 69.71c0-.26-.06-.49-.16-.67-.11-.19-.27-.34-.49-.44s-.49-.15-.82-.16c-.16 0-.32.02-.48.05s-.32.08-.46.13c-.15.05-.27.11-.38.17l.56-2.73h-.89l-1.64 7.92h.89l.98-4.67c.18-.1.37-.17.55-.22.19-.05.38-.08.58-.08.22 0 .4.04.53.11s.22.17.28.29.08.25.08.39c0 .05 0 .1-.01.15s-.01.1-.02.15l-.81 3.89h.89l.8-3.84c.02-.08.03-.15.03-.22-.02-.09-.01-.16-.01-.22"/><path d="m70.23 69.12-.87 4.2c-.09.05-.21.09-.36.12s-.31.05-.49.05c-.28 0-.5-.06-.68-.17-.17-.11-.3-.26-.38-.46s-.12-.44-.12-.71c0-.18.01-.37.04-.57s.07-.4.12-.6.12-.39.19-.57c.08-.18.16-.35.26-.5.19-.3.41-.53.67-.69s.55-.24.87-.25c.18 0 .33.02.45.05.14.03.23.06.3.1m.93-.3c-.1-.07-.22-.13-.38-.18-.16-.06-.34-.1-.54-.14s-.42-.06-.65-.06c-.33 0-.63.05-.9.13-.28.09-.53.21-.76.38-.23.16-.43.36-.61.59-.13.17-.25.36-.36.57s-.2.43-.27.66c-.08.23-.13.46-.18.69-.04.23-.06.46-.06.68 0 .39.07.73.22 1.03.14.29.36.52.65.68s.65.24 1.09.25c.26 0 .5-.02.72-.05.22-.04.42-.08.59-.14s.32-.12.43-.19z"/><path d="m75.34 66.06c-.04-.01-.07-.01-.11-.01s-.08 0-.11 0c-.21 0-.42.03-.62.09-.21.06-.4.16-.58.3s-.34.31-.47.53-.23.49-.3.8l-.15.77h-.63l-.11.54h.62l-1.01 4.89h.89l1.01-4.89h.96l.11-.54h-.95l.17-.86c.04-.2.11-.38.2-.51.09-.14.19-.25.3-.33s.23-.14.35-.17.23-.05.33-.05z"/><path d="m77.98 68.54h-.94l.32-1.52-.96.27-.25 1.25h-.63l-.11.54h.62l-.73 3.55c-.01.06-.02.12-.03.19-.01.06-.01.13-.01.19 0 .19.03.36.11.51.07.15.19.28.35.37s.37.14.64.14c.11 0 .2-.01.29-.03s.16-.04.21-.06l.11-.57c-.04.01-.08.02-.13.03s-.1.02-.15.02c-.13 0-.23-.02-.31-.07s-.13-.11-.16-.18c-.03-.08-.05-.17-.05-.27 0-.04 0-.09.01-.13.01-.05.01-.09.02-.14l.73-3.55h.94z"/><path d="m92.14 67.03h-.85l-1.02 4.95c-.04.21-.12.4-.22.57s-.23.31-.37.43-.3.21-.48.27c-.17.06-.35.09-.54.09-.2 0-.37-.04-.51-.11-.15-.07-.26-.18-.34-.33-.08-.14-.12-.32-.12-.53 0-.06 0-.12.01-.19s.02-.13.04-.21l1.03-4.95h-.93l-1.03 4.95c-.02.08-.03.16-.04.24s-.01.16-.01.23c0 .32.07.6.21.84s.34.43.61.56.59.2.97.21c.33 0 .64-.05.93-.16.29-.1.54-.25.76-.43.22-.19.41-.4.56-.66.15-.25.25-.53.32-.83z"/><path d="m97 69.71c0-.24-.05-.45-.17-.64-.11-.19-.29-.34-.54-.45s-.58-.17-.99-.17c-.4 0-.77.04-1.11.1-.34.07-.64.16-.9.28l-1.07 5.15h.89l1-4.78c.15-.06.31-.1.49-.13.17-.03.36-.05.56-.05.23 0 .42.04.56.1.14.07.24.15.31.27.06.11.09.23.09.37 0 .05 0 .1-.01.15 0 .05-.01.1-.02.16l-.82 3.91h.89l.81-3.86c.02-.07.03-.13.03-.2 0-.08 0-.15 0-.21"/><path d="m100.8 68.54h-.94l.32-1.52-.96.27-.25 1.25h-.63l-.11.54h.62l-.73 3.55c-.01.06-.02.12-.03.19-.01.06-.01.13-.01.19 0 .19.03.36.11.51.07.15.19.28.35.37s.37.14.64.14c.11 0 .2-.01.29-.03s.16-.04.21-.06l.11-.57c-.04.01-.08.02-.13.03s-.1.02-.15.02c-.13 0-.23-.02-.31-.07s-.13-.11-.16-.18c-.04-.07-.05-.17-.05-.27 0-.04 0-.09.01-.13.01-.05.01-.09.02-.14l.73-3.55h.94z"/><path d="m104.73 70.06c0 .1-.01.2-.02.3-.01.11-.03.23-.06.35l-2.69.4c.05-.23.1-.44.17-.64.07-.19.15-.37.23-.52.19-.32.41-.56.65-.72.25-.16.5-.24.77-.24.3 0 .53.08.7.25.16.18.25.45.25.82m.79.12c0-.39-.07-.71-.2-.97s-.32-.45-.57-.58-.54-.2-.89-.2c-.28 0-.54.05-.8.14s-.49.23-.71.4c-.22.18-.42.4-.6.66-.11.17-.21.36-.3.56s-.17.41-.23.63-.11.44-.15.66c-.03.22-.05.43-.05.64 0 .44.09.81.25 1.1s.39.5.69.64c.29.14.64.21 1.03.21.23 0 .45-.02.66-.05.21-.04.4-.08.57-.14s.32-.12.45-.19l-.11-.59c-.1.05-.22.1-.37.15-.14.05-.3.09-.48.13-.18.03-.36.05-.56.05-.29 0-.53-.05-.71-.15s-.32-.24-.41-.41-.14-.37-.16-.59-.01-.45.02-.69l3.52-.49c.04-.17.07-.33.09-.49.02-.14.02-.29.02-.43z"/><path d="m109.5 68.46c-.06-.01-.13-.01-.19-.01s-.13-.01-.19-.01c-.44 0-.83.04-1.18.11-.34.07-.63.16-.85.27l-1.07 5.15h.89l.99-4.77c.09-.05.2-.09.34-.11.13-.02.28-.03.43-.02.16.01.32.03.49.07z"/><path d="m114.08 69.71c0-.24-.05-.45-.17-.64-.11-.19-.29-.34-.54-.45s-.58-.17-.99-.17c-.4 0-.77.04-1.11.1-.34.07-.64.16-.9.28l-1.07 5.15h.89l1-4.78c.15-.06.31-.1.49-.13.17-.03.36-.05.56-.05.23 0 .42.04.56.1.14.07.24.15.31.27.06.11.09.23.09.37 0 .05 0 .1-.01.15 0 .05-.01.1-.02.16l-.82 3.91h.89l.81-3.86c.02-.07.03-.13.03-.2-.01-.08 0-.15 0-.21"/><path d="m118.68 70.06c0 .1-.01.2-.02.3-.01.11-.03.23-.06.35l-2.69.4c.05-.23.1-.44.17-.64.07-.19.15-.37.23-.52.19-.32.41-.56.65-.72.25-.16.5-.24.77-.24.3 0 .53.08.7.25.16.18.25.45.25.82m.79.12c0-.39-.07-.71-.2-.97s-.32-.45-.57-.58-.54-.2-.89-.2c-.28 0-.54.05-.8.14s-.49.23-.71.4c-.22.18-.42.4-.6.66-.11.17-.21.36-.3.56s-.17.41-.23.63-.11.44-.15.66c-.03.22-.05.43-.05.64 0 .44.09.81.25 1.1s.39.5.69.64c.29.14.64.21 1.03.21.23 0 .45-.02.66-.05.21-.04.4-.08.57-.14s.32-.12.45-.19l-.11-.59c-.1.05-.22.1-.37.15-.14.05-.3.09-.48.13-.18.03-.36.05-.56.05-.29 0-.53-.05-.71-.15s-.32-.24-.41-.41-.14-.37-.16-.59-.01-.45.02-.69l3.52-.49c.04-.17.07-.33.09-.49.02-.14.02-.29.02-.43z"/><path d="m124.74 69.71c0-.26-.06-.49-.16-.67-.11-.19-.27-.34-.49-.44s-.49-.15-.82-.16c-.16 0-.32.02-.48.05s-.32.08-.46.13c-.15.05-.27.11-.38.17l.56-2.73h-.89l-1.64 7.92h.89l.98-4.67c.18-.1.37-.17.55-.22.19-.05.38-.08.58-.08.22 0 .4.04.53.11s.22.17.28.29.08.25.08.39c0 .05 0 .1-.01.15s-.01.1-.02.15l-.81 3.89h.89l.8-3.84c.02-.08.03-.15.03-.22-.02-.09-.01-.16-.01-.22"/><path d="m133.18 69.69c0-.24-.05-.45-.14-.63-.1-.19-.25-.34-.47-.45s-.5-.17-.86-.17c-.25 0-.49.03-.72.09s-.44.14-.63.24-.35.21-.48.32c-.08-.13-.19-.24-.32-.34s-.3-.17-.49-.23c-.2-.06-.42-.08-.68-.08-.39 0-.75.04-1.08.1-.33.07-.62.16-.89.28l-1.07 5.15h.89l1-4.78c.15-.06.31-.11.48-.14.16-.03.34-.05.53-.05.35 0 .6.07.76.2s.24.31.24.55v.13c0 .04-.01.09-.02.13l-.83 3.95h.89l.92-4.44c.1-.1.21-.19.35-.27.13-.08.27-.14.42-.18.15-.05.3-.07.45-.07.22 0 .39.03.52.1.13.06.22.15.27.26s.08.23.08.37c0 .05 0 .1-.01.16 0 .05-.01.11-.02.16l-.82 3.91h.89l.81-3.91c.01-.06.02-.12.03-.19 0-.05 0-.11 0-.17"/><path d="m137.78 70.06c0 .1-.01.2-.02.3-.01.11-.03.23-.06.35l-2.69.4c.05-.23.1-.44.17-.64.07-.19.15-.37.23-.52.19-.32.41-.56.65-.72.25-.16.5-.24.77-.24.3 0 .53.08.7.25.16.18.25.45.25.82m.8.12c0-.39-.07-.71-.2-.97s-.32-.45-.57-.58-.54-.2-.89-.2c-.28 0-.54.05-.8.14s-.49.23-.71.4c-.22.18-.42.4-.6.66-.11.17-.21.36-.3.56s-.17.41-.23.63-.11.44-.15.66c-.03.22-.05.43-.05.64 0 .44.09.81.25 1.1s.39.5.69.64c.29.14.64.21 1.03.21.23 0 .45-.02.66-.05.21-.04.4-.08.57-.14s.32-.12.45-.19l-.11-.59c-.1.05-.22.1-.37.15-.14.05-.3.09-.48.13-.18.03-.36.05-.56.05-.29 0-.53-.05-.71-.15s-.32-.24-.41-.41-.14-.37-.16-.59-.01-.45.02-.69l3.52-.49c.04-.17.07-.33.09-.49.01-.14.02-.29.02-.43z"/><path d="m143.85 69.71c0-.24-.05-.45-.17-.64-.11-.19-.29-.34-.54-.45s-.58-.17-.99-.17c-.4 0-.77.04-1.11.1-.34.07-.64.16-.9.28l-1.07 5.15h.89l1-4.78c.15-.06.31-.1.49-.13.17-.03.36-.05.56-.05.23 0 .42.04.56.1.14.07.24.15.31.27.06.11.09.23.09.37 0 .05 0 .1-.01.15 0 .05-.01.1-.02.16l-.82 3.91h.88l.81-3.86c.02-.07.03-.13.03-.2.01-.08.01-.15.01-.21"/><path d="m148.23 68.82c-.14-.12-.31-.21-.51-.28s-.43-.1-.7-.1c-.3 0-.56.05-.8.15s-.44.23-.61.39c-.17.17-.3.35-.39.56s-.13.43-.14.65c0 .22.04.41.12.55s.18.26.31.36c.13.09.26.17.4.24s.28.14.41.22.23.17.31.28.12.25.12.42c0 .15-.03.3-.09.44s-.15.27-.26.38-.24.2-.39.26c-.15.07-.32.1-.51.1-.16 0-.31-.02-.44-.04-.13-.03-.24-.07-.34-.11s-.17-.09-.23-.14l-.34.55c.1.07.21.14.35.2s.29.1.46.13.34.05.52.05c.34 0 .65-.06.92-.16s.5-.25.69-.43.33-.39.43-.62.15-.47.15-.72c0-.23-.05-.41-.13-.55-.08-.15-.19-.27-.32-.36s-.27-.18-.42-.25-.29-.14-.42-.22c-.13-.07-.24-.16-.32-.27s-.13-.24-.13-.41c0-.19.05-.36.15-.52s.23-.28.4-.38.36-.15.58-.15c.18 0 .35.03.5.08s.27.12.36.19z"/><path d="m152.59 69.11-.87 4.18c-.12.07-.26.12-.42.16s-.33.06-.5.06c-.4 0-.68-.11-.86-.32s-.27-.52-.27-.92c0-.18.02-.37.04-.57.03-.2.07-.4.12-.6s.12-.39.19-.58.15-.36.24-.51c.19-.33.42-.59.69-.77s.57-.27.91-.27c.19 0 .34.02.46.04.12.03.21.07.27.1m.91-.3c-.09-.06-.22-.12-.37-.18-.16-.06-.33-.1-.54-.14-.2-.04-.42-.06-.65-.06-.34 0-.65.05-.93.14-.29.1-.55.23-.78.41s-.44.39-.62.64c-.12.17-.23.36-.33.56-.1.21-.18.42-.26.65-.07.23-.13.45-.16.68-.04.23-.06.45-.06.66 0 .39.07.72.21 1s.33.49.59.64.56.22.92.23c.23 0 .44-.02.63-.07.19-.04.34-.1.47-.16l-.09.37c-.05.2-.12.38-.2.55-.09.17-.2.32-.33.45s-.29.23-.48.3c-.18.07-.4.11-.64.11-.17 0-.33-.01-.49-.04s-.3-.06-.43-.1-.24-.09-.32-.14l-.36.54c.12.07.27.14.44.2s.36.1.56.13.41.05.63.05c.44 0 .83-.09 1.17-.26s.63-.41.85-.73c.23-.32.39-.71.48-1.17z"/><path d="m157.37 68.46c-.06-.01-.13-.01-.19-.01s-.13-.01-.19-.01c-.44 0-.83.04-1.18.11-.34.07-.63.16-.85.27l-1.07 5.15h.89l.99-4.77c.09-.05.2-.09.34-.11.13-.02.28-.03.43-.02.16.01.32.03.49.07z"/><path d="m162.14 68.54h-.89l-.98 4.74c-.13.06-.27.1-.44.13s-.35.04-.56.04c-.23 0-.42-.04-.55-.1-.13-.07-.23-.16-.29-.27s-.08-.24-.08-.38c0-.06 0-.12.01-.18.01-.07.02-.13.03-.19l.79-3.78h-.89l-.78 3.75c-.02.09-.03.17-.04.25s-.01.16-.01.23c0 .27.06.51.17.7.12.19.3.34.55.44s.57.15.96.16c.27 0 .53-.02.77-.05s.46-.08.65-.13c.2-.06.36-.12.5-.2z"/><path d="m166.34 70.25c0 .18-.01.36-.04.56s-.07.39-.12.59-.11.39-.18.57-.15.35-.25.5c-.2.33-.44.58-.72.75s-.6.26-.96.26c-.14 0-.26-.01-.36-.03s-.19-.04-.26-.07l.89-4.26c.11-.05.24-.09.37-.12s.28-.04.45-.04c.28 0 .51.05.68.15s.3.25.38.43c.08.22.12.44.12.71m.87.11c0-.4-.07-.74-.22-1.03s-.36-.51-.65-.66-.64-.23-1.06-.24c-.37 0-.69.04-.99.11-.29.07-.55.16-.75.27l-1.52 7.32h.88l.46-2.22c.06.02.14.05.23.07s.19.04.29.05c.11.01.21.02.32.02.47 0 .89-.1 1.26-.31.38-.2.7-.5.98-.88.12-.17.23-.35.32-.55.1-.2.18-.42.25-.64s.12-.44.16-.67c.02-.21.04-.43.04-.64z"/><path d="m171.69 70.25c0 .18-.01.36-.04.56s-.07.39-.12.59-.11.39-.18.57-.15.35-.25.5c-.2.33-.44.58-.72.75s-.6.26-.96.26c-.14 0-.26-.01-.36-.03s-.19-.04-.26-.07l.89-4.26c.11-.05.24-.09.37-.12s.28-.04.45-.04c.28 0 .51.05.68.15s.3.25.38.43c.08.22.12.44.12.71m.87.11c0-.4-.07-.74-.22-1.03s-.36-.51-.65-.66-.64-.23-1.06-.24c-.36 0-.69.04-.99.11-.29.07-.55.16-.75.27l-1.52 7.32h.88l.46-2.22c.06.02.14.05.23.07s.19.04.29.05c.11.01.21.02.32.02.47 0 .89-.1 1.26-.31.38-.2.7-.5.98-.88.12-.17.23-.35.32-.55.1-.2.18-.42.25-.64s.12-.44.16-.67c.02-.21.04-.43.04-.64z"/><path d="m177.13 70.06c0 .1-.01.2-.02.3-.01.11-.03.23-.06.35l-2.69.4c.05-.23.1-.44.17-.64.07-.19.15-.37.23-.52.19-.32.41-.56.65-.72.25-.16.5-.24.77-.24.3 0 .53.08.7.25.17.18.25.45.25.82m.8.12c0-.39-.07-.71-.2-.97s-.32-.45-.57-.58-.54-.2-.89-.2c-.28 0-.54.05-.8.14s-.49.23-.71.4c-.22.18-.42.4-.6.66-.11.17-.21.36-.3.56s-.17.41-.23.63-.11.44-.15.66c-.03.22-.05.43-.05.64 0 .44.09.81.25 1.1s.39.5.69.64c.29.14.64.21 1.03.21.23 0 .45-.02.66-.05.21-.04.4-.08.57-.14s.32-.12.45-.19l-.11-.59c-.1.05-.22.1-.37.15-.14.05-.3.09-.48.13-.18.03-.36.05-.56.05-.29 0-.53-.05-.71-.15s-.32-.24-.41-.41-.14-.37-.16-.59-.01-.45.02-.69l3.52-.49c.04-.17.07-.33.09-.49.01-.14.02-.29.02-.43z"/><path d="m27.47 8.22c-.59-.41-1.34-.74-2.24-1s-1.97-.39-3.2-.4c-1.26.01-2.38.19-3.36.53-.98.35-1.83.81-2.54 1.4s-1.3 1.24-1.76 1.97-.8 1.47-1.02 2.23c-.22.77-.33 1.5-.33 2.21.01.87.16 1.6.44 2.22.28.61.66 1.14 1.1 1.58.45.44.93.84 1.44 1.18.51.35.99.69 1.44 1.02s.82.69 1.1 1.09c.28.39.44.85.44 1.39-.01.73-.18 1.37-.53 1.92s-.83.99-1.43 1.3-1.3.47-2.09.48c-.51-.01-.99-.05-1.44-.15-.45-.09-.84-.21-1.19-.35-.34-.15-.62-.29-.83-.45l-2.06 3.73c.62.44 1.44.78 2.47 1.02s2.26.37 3.67.37c1.41-.01 2.65-.2 3.72-.57 1.06-.37 1.97-.87 2.71-1.48.74-.62 1.35-1.31 1.81-2.07.47-.76.8-1.54 1.01-2.32.21-.79.32-1.54.31-2.24-.01-.76-.13-1.41-.35-1.97-.23-.56-.54-1.05-.92-1.47s-.8-.79-1.26-1.12-.91-.64-1.37-.92c-.46-.29-.88-.58-1.26-.88s-.69-.62-.92-.98c-.23-.35-.35-.77-.35-1.24 0-.45.08-.88.23-1.31.16-.42.38-.8.69-1.14s.68-.6 1.13-.81c.45-.2.96-.3 1.55-.3.74.01 1.38.1 1.95.28.56.17 1.02.38 1.37.62z"/><path d="m39.96 12.38h-2.9l1.15-5.41-5.76 1.4-.8 4.01h-2.09l-.7 3.52h2.02l-2.02 9.98c-.05.24-.09.49-.13.73-.03.24-.05.48-.05.7-.01.79.16 1.49.48 2.12.32.62.82 1.12 1.5 1.48.69.37 1.58.55 2.66.56.4 0 .78-.03 1.14-.08.37-.05.69-.12.98-.2.28-.08.51-.16.67-.24l.66-3.38c-.16.07-.33.13-.53.17-.19.05-.41.07-.66.07-.47-.01-.82-.13-1.05-.36-.23-.24-.34-.56-.34-.97 0-.12.01-.25.03-.39.02-.13.04-.27.08-.41l2.02-9.77h2.9z"/><path d="m52.87 15.48-2.51 12.28c-.21.09-.47.16-.78.22-.3.06-.65.09-1.03.09-1.01-.01-1.75-.31-2.23-.93-.47-.62-.71-1.51-.7-2.66 0-.7.07-1.43.21-2.21.13-.78.33-1.54.57-2.29.24-.74.54-1.42.86-2.02.51-.91 1.1-1.61 1.77-2.08.67-.48 1.42-.72 2.24-.72.4.01.73.04 1 .1.26.08.46.15.6.22m5.86-2.06c-.46-.27-1.03-.51-1.71-.72s-1.44-.37-2.27-.49-1.7-.19-2.62-.19c-2.01.01-3.75.34-5.23 1s-2.72 1.59-3.7 2.8c-.47.57-.88 1.2-1.24 1.9-.37.69-.67 1.42-.93 2.19-.26.76-.45 1.54-.59 2.31-.13.78-.2 1.55-.2 2.29.01 1.46.31 2.71.91 3.76s1.48 1.85 2.63 2.41 2.55.84 4.21.85c1.62-.01 3.02-.14 4.22-.4s2.22-.59 3.07-1z"/><path d="m73.04 15.38-2.58 12.39c-.21.1-.47.19-.78.24-.3.05-.65.08-1.04.08-1.02-.01-1.77-.31-2.24-.93s-.7-1.51-.69-2.66c0-.51.04-1.05.12-1.63s.2-1.16.35-1.75.33-1.16.53-1.7c.2-.55.43-1.03.67-1.48.48-.88 1.08-1.56 1.77-2.04.7-.48 1.51-.72 2.45-.72.27 0 .53.02.76.05s.46.08.68.15m7.82-11.59h-5.44l-1.78 8.65c-.3-.09-.69-.16-1.16-.22-.48-.06-.99-.09-1.56-.09-1.59.01-3.05.34-4.37.99-1.32.66-2.46 1.62-3.41 2.88-.43.56-.81 1.19-1.16 1.87-.34.69-.63 1.4-.88 2.15-.24.74-.43 1.5-.56 2.26s-.2 1.49-.2 2.2c.01 1.16.19 2.18.57 3.06.37.88.9 1.62 1.59 2.2.69.59 1.51 1.04 2.45 1.34.95.3 1.99.45 3.14.45 1.62-.01 3.02-.14 4.22-.4s2.22-.59 3.07-1z"/><path d="m92.75 12.38h-2.9l1.15-5.41-5.76 1.4-.8 4.01h-2.09l-.7 3.52h2.02l-2.02 9.98c-.05.24-.09.49-.13.73-.03.24-.05.48-.05.7-.01.79.16 1.49.48 2.12.32.62.82 1.12 1.5 1.48.69.37 1.58.55 2.66.56.4 0 .78-.03 1.14-.08.37-.05.69-.12.98-.2.28-.08.51-.16.67-.24l.66-3.38c-.16.07-.33.13-.53.17-.19.05-.41.07-.66.07-.47-.01-.82-.13-1.05-.36-.21-.25-.32-.57-.32-.98 0-.12.01-.25.03-.39.02-.13.04-.27.08-.41l2.02-9.77h2.9z"/><path d="m121.47 12.38h-4.92l-4.64 10.85c-.19.45-.35.88-.48 1.3s-.24.76-.31 1.03-.11.41-.11.42h-.07c0-.01.02-.15.04-.42.03-.27.05-.62.07-1.05.02-.42.02-.86-.01-1.33l-.45-10.82h-4.47l-5.09 10.82c-.24.53-.44 1-.59 1.42s-.26.75-.33 1c-.06.24-.1.37-.1.37h-.07c0-.01.02-.13.05-.37.03-.25.07-.58.1-1s.05-.89.05-1.42v-10.8h-5.3l1.26 18.81h4.99l4.89-10.19c.2-.43.37-.84.5-1.24s.24-.72.3-.98c.07-.26.1-.39.1-.4h.07c0 .01-.02.14-.05.4s-.06.58-.08.98-.02.81-.01 1.24l.56 10.19h5.06z"/><path d="m133.44 18.1c0 .3-.02.61-.06.92-.03.32-.1.65-.19 1l-6.8 1.01c.1-.56.23-1.08.39-1.56.15-.49.33-.93.52-1.33.46-.93 1.01-1.65 1.65-2.16.65-.51 1.36-.77 2.15-.77.76 0 1.33.25 1.73.74.41.49.61 1.2.61 2.15m4.81.56c-.01-1.4-.26-2.59-.76-3.58-.5-.98-1.23-1.74-2.2-2.26s-2.14-.78-3.53-.79c-1.14.01-2.2.17-3.19.51-.98.34-1.88.81-2.69 1.43-.8.62-1.51 1.36-2.12 2.21-.53.75-.99 1.58-1.37 2.49s-.67 1.84-.87 2.8c-.2.97-.3 1.91-.3 2.84.01 1.52.31 2.81.9 3.89s1.45 1.9 2.57 2.47c1.12.58 2.48.86 4.07.87.94-.01 1.82-.07 2.66-.19.83-.12 1.6-.29 2.3-.5.69-.21 1.3-.45 1.81-.7l-.52-3.38c-.35.17-.8.33-1.33.5-.53.16-1.11.3-1.74.41s-1.29.17-1.95.17c-.92-.01-1.66-.19-2.22-.54-.55-.35-.94-.85-1.16-1.48-.23-.62-.33-1.35-.28-2.17l11.48-1.57c.16-.63.27-1.22.34-1.79.07-.58.1-1.12.1-1.64z"/><path d="m153.36 12.13c-.35-.03-.71-.06-1.05-.08s-.74-.02-1.18-.02c-1.69.01-3.22.13-4.57.38s-2.52.59-3.5 1.01l-3.7 17.76h5.44l3.18-15.39c.31-.13.66-.21 1.05-.24.4-.03.81-.02 1.24.05.44.06.87.17 1.3.34z"/><path d="m172.31 12.38h-5.58l-6.98 8.27h-.07l3.49-16.86h-5.38l-5.68 27.39h5.37l1.95-9.49h.07l3.56 9.49h6l-4.6-10.18z"/><path d="m183.86 18.1c0 .3-.02.61-.06.92-.03.32-.1.65-.19 1l-6.8 1.01c.1-.56.23-1.08.39-1.56.15-.49.33-.93.52-1.33.46-.93 1.01-1.65 1.65-2.16.65-.51 1.36-.77 2.15-.77.76 0 1.33.25 1.73.74.41.49.61 1.2.61 2.15m4.81.56c-.01-1.4-.26-2.59-.76-3.58-.5-.98-1.23-1.74-2.2-2.26s-2.14-.78-3.53-.79c-1.14.01-2.2.17-3.19.51-.98.34-1.88.81-2.69 1.43-.8.62-1.51 1.36-2.12 2.21-.53.75-.99 1.58-1.37 2.49s-.67 1.84-.87 2.8c-.2.97-.3 1.91-.3 2.84.01 1.52.31 2.81.9 3.89s1.45 1.9 2.57 2.47c1.12.58 2.48.86 4.07.87.94-.01 1.82-.07 2.66-.19.83-.12 1.6-.29 2.3-.5.69-.21 1.3-.45 1.81-.7l-.52-3.38c-.35.17-.8.33-1.33.5-.53.16-1.11.3-1.75.41-.63.11-1.29.17-1.95.17-.92-.01-1.66-.19-2.22-.54-.55-.35-.94-.85-1.16-1.48-.23-.62-.33-1.35-.28-2.17l11.48-1.57c.16-.63.27-1.22.34-1.79.08-.58.11-1.12.11-1.64z"/><path d="m23.93 38.83h-5.37l-1.95 9.41h-5.77l1.96-9.41h-5.41l-4.7 22.8h5.4l2.02-9.87h5.77l-2.02 9.87h5.36z"/><path d="m36.06 49.2c0 .28-.02.57-.06.87-.03.3-.09.62-.18.95l-6.46.96c.1-.53.22-1.03.37-1.49.14-.46.31-.88.49-1.26.44-.88.96-1.57 1.57-2.05.61-.49 1.29-.73 2.04-.73.72 0 1.26.24 1.65.7.39.47.58 1.15.58 2.05m4.57.53c-.01-1.33-.24-2.46-.72-3.4-.47-.93-1.17-1.65-2.09-2.15-.92-.49-2.03-.74-3.35-.75-1.08.01-2.09.17-3.03.49-.93.32-1.78.77-2.55 1.36-.76.59-1.44 1.29-2.01 2.1-.51.71-.94 1.5-1.3 2.36s-.64 1.75-.83 2.66c-.19.92-.29 1.82-.29 2.7.01 1.44.29 2.67.86 3.7.56 1.02 1.38 1.8 2.44 2.34 1.07.55 2.35.82 3.86.82.89-.01 1.73-.07 2.52-.18.79-.12 1.52-.28 2.18-.47.66-.2 1.24-.43 1.72-.67l-.5-3.21c-.34.16-.76.31-1.26.47-.5.15-1.05.29-1.66.39-.6.1-1.22.16-1.86.17-.88-.01-1.58-.18-2.1-.51-.52-.34-.89-.81-1.1-1.4-.22-.59-.31-1.28-.27-2.06l10.9-1.49c.15-.6.26-1.16.33-1.7.08-.56.11-1.07.11-1.57z"/><path d="m51.87 38.2c-.01-.38-.1-.72-.29-1.02s-.45-.54-.8-.71c-.34-.17-.74-.26-1.2-.26-.59.01-1.12.14-1.62.41-.49.26-.89.61-1.19 1.05s-.46.91-.47 1.42c.01.38.1.72.29 1.02s.46.55.8.72c.34.18.75.27 1.2.28.57-.01 1.1-.14 1.6-.41s.89-.62 1.2-1.06c.31-.43.47-.91.48-1.44m-1.26 5.57h-5.14l-3.71 17.86h5.17z"/><path d="m64.03 46.62-2.45 11.76c-.2.1-.45.18-.74.23s-.62.07-.98.07c-.97-.01-1.68-.3-2.13-.88-.44-.59-.66-1.43-.66-2.53 0-.49.04-1 .12-1.55s.19-1.1.33-1.66.31-1.1.5-1.61c.19-.52.41-.98.64-1.4.46-.83 1.02-1.48 1.68-1.93s1.44-.68 2.33-.68c.26 0 .5.02.72.05.21.01.43.06.64.13m7.42-11h-5.17l-1.69 8.22c-.29-.08-.66-.15-1.1-.21-.45-.06-.94-.09-1.48-.09-1.51.01-2.9.32-4.15.94s-2.34 1.54-3.24 2.73c-.41.54-.77 1.13-1.1 1.77-.33.65-.6 1.33-.83 2.04s-.41 1.42-.53 2.14c-.13.72-.19 1.42-.19 2.09.01 1.1.18 2.07.54 2.91.35.83.86 1.54 1.51 2.09.65.56 1.43.98 2.33 1.27.9.28 1.89.43 2.98.43 1.54-.01 2.87-.13 4.01-.38 1.14-.24 2.11-.56 2.92-.95z"/><path d="m82.69 49.2c0 .28-.02.57-.06.87-.03.3-.09.62-.18.95l-6.46.96c.1-.53.22-1.03.37-1.49.14-.46.31-.88.49-1.26.44-.88.96-1.57 1.57-2.05.61-.49 1.29-.73 2.04-.73.72 0 1.26.24 1.65.7.38.47.58 1.15.58 2.05m4.57.53c-.01-1.33-.24-2.46-.72-3.4-.47-.93-1.17-1.65-2.09-2.15-.92-.49-2.03-.74-3.35-.75-1.08.01-2.09.17-3.03.49-.93.32-1.78.77-2.55 1.36-.76.59-1.44 1.29-2.01 2.1-.51.71-.94 1.5-1.3 2.36s-.64 1.75-.83 2.66c-.19.92-.29 1.82-.29 2.7.01 1.44.29 2.67.86 3.7.56 1.02 1.38 1.8 2.44 2.34 1.07.55 2.35.82 3.86.82.89-.01 1.73-.07 2.52-.18.79-.12 1.52-.28 2.18-.47.66-.2 1.24-.43 1.72-.67l-.5-3.21c-.34.16-.76.31-1.26.47-.5.15-1.05.29-1.66.39-.6.1-1.22.16-1.86.17-.88-.01-1.58-.18-2.1-.51-.52-.34-.89-.81-1.1-1.4-.22-.59-.31-1.28-.27-2.06l10.9-1.49c.15-.6.26-1.16.33-1.7.08-.56.11-1.07.11-1.57z"/><path d="m106.25 47.94c.01-.9-.22-1.69-.67-2.36-.46-.67-1.18-1.2-2.18-1.57-.99-.38-2.28-.57-3.88-.57-1.02 0-1.99.06-2.92.17s-1.8.26-2.6.46c-.81.2-1.52.43-2.17.7l-3.51 16.87h5.17l3.05-14.61c.32-.1.67-.19 1.05-.26s.78-.11 1.2-.11c.54 0 .97.08 1.3.23s.57.36.73.62c.15.27.22.56.22.9 0 .12-.01.23-.02.35-.02.12-.04.24-.08.38l-2.54 12.49h5.14l2.55-12.26c.05-.25.09-.49.12-.72.02-.24.04-.47.04-.71"/><path d="m125.5 47.78c0-.87-.18-1.62-.56-2.28-.37-.65-.93-1.15-1.69-1.51s-1.71-.55-2.86-.55c-.51 0-1.01.05-1.51.14-.49.09-.96.2-1.39.34-.44.14-.83.29-1.18.45l1.82-8.75h-5.17l-5.4 26.01h5.17l3.02-14.48c.38-.18.76-.33 1.14-.42s.77-.14 1.18-.14c.54.01.97.09 1.29.25s.55.39.7.66c.14.28.21.59.2.94 0 .12-.02.23-.04.35s-.04.23-.06.35l-2.58 12.49h5.17l2.59-12.39c.05-.25.09-.5.12-.74.03-.25.04-.49.04-.72"/><path d="m139.46 49.2c0 .28-.02.57-.06.87-.03.3-.09.62-.18.95l-6.46.96c.1-.53.22-1.03.37-1.49.14-.46.31-.88.49-1.26.44-.88.96-1.57 1.57-2.05.61-.49 1.29-.73 2.04-.73.72 0 1.26.24 1.65.7.38.47.58 1.15.58 2.05m4.57.53c-.01-1.33-.24-2.46-.72-3.4-.47-.93-1.17-1.65-2.09-2.15-.92-.49-2.03-.74-3.35-.75-1.08.01-2.09.17-3.03.49-.93.32-1.78.77-2.55 1.36-.76.59-1.44 1.29-2.01 2.1-.51.71-.94 1.5-1.3 2.36s-.64 1.75-.83 2.66c-.19.92-.29 1.82-.29 2.7.01 1.44.29 2.67.86 3.7.56 1.02 1.38 1.8 2.44 2.34 1.07.55 2.35.82 3.86.82.89-.01 1.73-.07 2.52-.18.79-.12 1.52-.28 2.18-.47.66-.2 1.24-.43 1.72-.67l-.5-3.21c-.34.16-.76.31-1.26.47-.5.15-1.05.29-1.66.39-.6.1-1.22.16-1.86.17-.88-.01-1.58-.18-2.1-.51-.52-.34-.89-.81-1.1-1.4-.22-.59-.31-1.28-.27-2.06l10.9-1.49c.15-.6.26-1.16.33-1.7.08-.56.11-1.07.11-1.57z"/><path d="m155.26 38.2c-.01-.38-.1-.72-.29-1.02s-.45-.54-.8-.71c-.34-.17-.74-.26-1.2-.26-.59.01-1.12.14-1.62.41-.49.26-.89.61-1.19 1.05s-.46.91-.47 1.42c.01.38.1.72.29 1.02s.46.55.8.72c.34.18.75.27 1.2.28.57-.01 1.1-.14 1.6-.41s.89-.62 1.2-1.06c.32-.43.47-.91.48-1.44m-1.26 5.57h-5.14l-3.71 17.86h5.17z"/><path d="m182.31 47.94c0-.89-.2-1.67-.6-2.35-.4-.67-1-1.2-1.8-1.58s-1.8-.57-3-.58c-.98.01-1.89.09-2.71.26s-1.54.38-2.15.65c-.62.27-1.14.56-1.54.88-.28-.34-.67-.64-1.17-.91s-1.08-.48-1.75-.64-1.4-.24-2.19-.24c-1.49 0-2.84.12-4.08.34-1.24.23-2.39.56-3.44.99l-3.51 16.87h5.17l3.02-14.61c.33-.12.67-.21 1.03-.27s.74-.09 1.15-.09c.78.01 1.36.16 1.76.47.39.3.59.73.59 1.29 0 .1-.01.2-.02.3s-.03.21-.04.33l-2.62 12.59h5.17l2.92-14.05c.32-.27.7-.49 1.13-.66s.88-.26 1.35-.27c.76.01 1.31.17 1.65.49s.51.74.5 1.26c0 .12-.01.23-.02.33s-.03.22-.04.33l-2.62 12.56h5.17l2.55-12.39c.05-.22.08-.43.11-.65.02-.22.03-.43.03-.65"/></g><path d="m82.88 71.02c0-.13-.05-.24-.13-.32-.09-.08-.2-.13-.34-.13-.13 0-.24.04-.35.1-.11.07-.2.15-.26.26-.07.11-.1.22-.1.33 0 .13.05.24.13.32.09.08.2.13.34.13.13 0 .24-.04.35-.1.11-.07.2-.15.26-.26.06-.1.1-.21.1-.33" fill="#302784"/><path clip-rule="evenodd" d="m211.28 45.8-11.97-9.03 4.87-22.93c1.63-7.65 9.2-13.89 16.85-13.89h13.89c-7.65 0-15.22 6.24-16.85 13.89l-4.87 22.93z" fill="#feda00" fill-rule="evenodd"/><path d="m211.28 45.8-11.97-9.03 4.87-22.93c1.63-7.65 9.2-13.89 16.85-13.89h13.89c-7.65 0-15.22 6.24-16.85 13.89l-4.87 22.93z" fill="none" stroke="#134094" stroke-linejoin="round" stroke-miterlimit="22.9256" stroke-width=".4593"/><path clip-rule="evenodd" d="m218.07 13.84c1.63-7.65 9.2-13.89 16.85-13.89l-7.83 36.82-15.81 9.03z" fill="#f3920f" fill-rule="evenodd"/><path d="m218.07 13.84c1.63-7.65 9.2-13.89 16.85-13.89l-7.83 36.82-15.81 9.03z" fill="none" stroke="#134094" stroke-linejoin="round" stroke-miterlimit="22.9256" stroke-width=".4593"/><path clip-rule="evenodd" d="m270.69 27.74 11.97 9.03-4.87 22.93c-1.63 7.65-9.19 13.89-16.85 13.89h-13.89c7.65 0 15.22-6.24 16.85-13.89l4.87-22.93z" fill="#feda00" fill-rule="evenodd"/><path d="m270.69 27.74 11.97 9.03-4.87 22.93c-1.63 7.65-9.19 13.89-16.85 13.89h-13.89c7.65 0 15.22-6.24 16.85-13.89l4.87-22.93z" fill="none" stroke="#134094" stroke-linejoin="round" stroke-miterlimit="22.9256" stroke-width=".4593"/><path clip-rule="evenodd" d="m263.9 59.69c-1.63 7.65-9.19 13.89-16.85 13.89l7.83-36.82 15.81-9.03z" fill="#f3920f" fill-rule="evenodd"/><path d="m263.9 59.69c-1.63 7.65-9.19 13.89-16.85 13.89l7.83-36.82 15.81-9.03z" fill="none" stroke="#134094" stroke-linejoin="round" stroke-miterlimit="22.9256" stroke-width=".4593"/><path clip-rule="evenodd" d="m247.05 73.59c-7.65 0-12.57-6.24-10.94-13.89l9.75-45.85c1.63-7.65-3.29-13.89-10.94-13.89h-13.89c7.65 0 12.57 6.24 10.94 13.89l-9.75 45.85c-1.63 7.65 3.29 13.89 10.94 13.89z" fill="#e3000f" fill-rule="evenodd"/><path d="m247.05 73.59c-7.65 0-12.57-6.24-10.94-13.89l9.75-45.85c1.63-7.65-3.29-13.89-10.94-13.89h-13.89c7.65 0 12.57 6.24 10.94 13.89l-9.75 45.85c-1.63 7.65 3.29 13.89 10.94 13.89z" fill="none" stroke="#134094" stroke-linejoin="round" stroke-miterlimit="22.9256" stroke-width=".4593"/><path clip-rule="evenodd" d="m260.95 73.59c-7.65 0-12.57-6.24-10.94-13.89l9.75-45.85c1.63-7.65-3.29-13.89-10.94-13.89h-13.89c7.65 0 12.57 6.24 10.94 13.89l-9.75 45.85c-1.63 7.65 3.29 13.89 10.94 13.89z" fill="#134094" fill-rule="evenodd"/><path d="m260.95 73.59c-7.65 0-12.57-6.24-10.94-13.89l9.75-45.85c1.63-7.65-3.29-13.89-10.94-13.89h-13.89c7.65 0 12.57 6.24 10.94 13.89l-9.75 45.85c-1.63 7.65 3.29 13.89 10.94 13.89z" fill="none" stroke="#134094" stroke-linejoin="round" stroke-miterlimit="22.9256" stroke-width=".4593"/></svg>