<?xml version="1.0" encoding="UTF-8"?>
<svg id="Layer_1" xmlns="http://www.w3.org/2000/svg" version="1.1" viewBox="0 0 341.8 72">
  <!-- Generator: Adobe Illustrator 29.0.0, SVG Export Plug-In . SVG Version: 2.1.0 Build 186)  -->
  <defs>
    <style>
      .st0 {
        fill: #fff;
      }
    </style>
  </defs>
  <polygon class="st0" points="276 10.2 254.1 61.4 262.5 61.4 262.7 61 266.6 51.4 267.9 48.1 279.5 48.1 282.4 41.4 270.8 41.4 278.9 22.1 278.9 22.1 278.9 22.1 292.8 55 292.8 55 295.5 61.4 304.3 61.4 282.4 10.2 276 10.2"/>
  <path class="st0" d="M314.7,10.2l-11.1,25.8h3.4l3.1-7.2h11.3l3.1,7.2h3.5l-11.1-25.8h-2.2ZM311.3,26l4.5-10.6,4.5,10.6h-9Z"/>
  <rect class="st0" x="333.5" y="10.2" width="3.4" height="25.8"/>
  <polygon class="st0" points="178 17.2 180.9 10.2 148.6 10.2 148.6 61.4 178 61.4 180.9 54.5 157.2 54.5 157.2 37.9 173.7 37.9 176.7 30.9 157.2 30.9 157.2 17.2 178 17.2"/>
  <path class="st0" d="M103,50.2l-18.5-40h-8.9v51.3h7.8V28.3c0-1.2-.2-4.1-.2-4.5.1.6,1.2,3.3,1.8,4.5l14.8,33.1h5.6l14.8-33.1c.5-1.3,1.9-4.6,1.9-4.6,0,0-.4,3.3-.4,4.6v33.1h8.2V10.2h-8.6l-18.2,40Z"/>
  <path class="st0" d="M222.4,42.8h9.8v10.7c-3,1.7-7.1,2.6-11.6,2.6-10.9,0-19-7.9-19-20.1s8.1-19.9,19.4-19.9,13.3,2.8,17.4,6.6v-8.4c-4.3-3.2-11.3-5.2-17.9-5.2-14.9,0-27.7,10.1-27.7,26.6s12.5,27.1,27.2,27.1,17.7-3.9,20.6-5.1v-21.8h-15.4l-2.9,6.8Z"/>
  <path class="st0" d="M32.3,9.1c-15.6,0-27.5,11.3-27.5,26.8s11.9,26.9,27.5,26.9,27.3-11.3,27.3-26.9-11.8-26.8-27.3-26.8ZM32.3,55.9c-10.9,0-18.7-8.3-18.7-20s7.8-19.9,18.7-19.9,18.5,8.2,18.5,19.9-7.8,20-18.5,20Z"/>
</svg>