<?xml version="1.0" encoding="UTF-8"?><svg id="a" xmlns="http://www.w3.org/2000/svg" viewBox="0 0 252 72"><defs><style>.b{fill:#fff;stroke-width:0px;}</style></defs><path class="b" d="M68.0964,13.8872h-15.5044v49.7065h15.5044c19.1727,0,27.2086-11.1236,27.2086-24.9127,0-13.6571-8.036-24.7939-27.2086-24.7939ZM67.9777,57.2189h-7.4421V20.2689h7.4421c12.7862,0,19.2783,6.6948,19.2783,18.4122,0,11.7966-6.492,18.5378-19.2783,18.5378Z"/><polygon class="b" points="179.7078 57.2189 202.7639 57.2189 200.0476 63.5901 171.7719 63.5901 171.7719 13.8992 202.7639 13.8992 200.062 20.2689 179.7078 20.2689 179.7078 34.1469 198.588 34.1469 195.8415 40.6246 179.7078 40.6246 179.7078 57.2189"/><path class="b" d="M154.6683,39.2731v16.5779c-2.1491,2.5176-4.7588,4.6206-7.7211,6.1867-3.6533,1.9346-7.8132,3.0242-12.2193,3.0242-14.4605,0-26.1875-11.7429-26.1875-26.2033,0-14.4749,11.727-26.2019,26.1875-26.2019,6.0485,0,11.6363,2.0569,16.0727,5.5101v8.841c-3.5007-4.7875-9.0727-7.8737-15.3357-7.8737-10.5913,0-19.2034,8.841-19.2034,19.7245,0,10.8677,8.6121,19.7101,19.2034,19.7101,4.2981,0,8.2738-1.4581,11.4823-3.9138v-9.1188h-9.7003l2.6701-6.263h14.7513Z"/><polygon class="b" points="12.258 57.2189 35.3142 57.2189 32.5979 63.5901 4.3222 63.5901 4.3222 13.8992 35.3142 13.8992 32.6123 20.2689 12.258 20.2689 12.258 34.1469 31.1383 34.1469 28.3917 40.6246 12.258 40.6246 12.258 57.2189"/><polygon class="b" points="247.6778 6.9381 244.2929 7.5785 244.2929 34.1321 247.6778 34.1321 247.6778 6.9381"/><path class="b" d="M225.379,12.3965l4.7607,11.1965h-9.5185l4.7578-11.1965ZM223.9298,7.5753l-11.3333,26.581h3.5359l3.2626-7.6159h11.9679l3.264,7.6159h3.7188l-11.6988-27.2012-2.7171.6203Z"/></svg>