<?xml version="1.0" encoding="UTF-8"?><svg id="_レイヤー_2" xmlns="http://www.w3.org/2000/svg" viewBox="0 0 185.21 30"><defs><style>.cls-1{fill:#005daa;stroke-width:0px;}</style></defs><g id="_レイヤー_2-2"><path class="cls-1" d="m57.64.19c-2.43,9.89-4.85,19.75-7.28,29.62h7.65s2.44-9.9,3.64-14.75c.18-.74.36-1.47.55-2.21.02-.09.12-.15.18-.23.07.06.14.12.2.18.03.04.05.1.07.15,1.92,4.52,3.83,9.04,5.75,13.57.34.8.69,1.6,1.05,2.38.23.5.62.82,1.19.86.22.02.44.04.66.04,2,0,3.99,0,5.99,0h.34c2.43-9.88,4.85-19.74,7.28-29.63h-.42c-2.26,0-4.52,0-6.78,0-.36,0-.49.1-.58.46-1.34,5.53-2.69,11.06-4.04,16.58-.03.1-.11.19-.16.29-.07-.08-.18-.15-.22-.25-2.34-5.38-4.69-10.76-6.99-16.16-.29-.68-.71-.92-1.37-.91-.19,0-.37,0-.56,0-1.92,0-3.84,0-5.75,0h-.38Z"/><path class="cls-1" d="m105.99,29.81c2.43-9.88,4.85-19.74,7.28-29.63h-.32c-1.97,0-3.95,0-5.92,0-.27,0-.35.1-.41.33-1.37,5.58-2.75,11.15-4.12,16.73-.17.69-.34,1.39-.52,2.08-.02.09-.08.16-.13.24-.07-.07-.14-.15-.2-.22-.01-.02-.01-.04-.02-.06-2.62-6.06-5.25-12.12-7.85-18.19-.29-.67-.7-.93-1.38-.9-.13,0-.26,0-.4,0-1.58,0-3.15.01-4.73,0-.36,0-.5.09-.59.45-2.23,9.14-4.48,18.28-6.73,27.42-.14.58-.28,1.16-.42,1.77,2.14,0,4.23,0,6.33,0,.08,0,.2-.11.22-.2.11-.35.18-.7.27-1.05,1.43-5.85,2.85-11.69,4.29-17.54.03-.11.12-.2.19-.3.08.09.19.17.24.27.88,2.01,1.76,4.03,2.64,6.04,1.67,3.85,3.37,7.69,5.01,11.55.38.88.94,1.24,1.9,1.24.92,0,1.79,0,2.68,0h2.7Z"/><path class="cls-1" d="m117.69,12.34c0-.09,0-.13.01-.16.58-2.3,1.16-4.59,1.72-6.89.07-.3.18-.4.5-.4,4.96.01,9.93,0,14.89.01.25,0,.37-.06.42-.32.19-.86.41-1.71.61-2.57.15-.62.29-1.23.44-1.86h-21.05c-2.43,9.9-4.86,19.78-7.29,29.68h21.01c.4-1.65.81-3.3,1.23-5h-15.56c.02-.1.02-.16.04-.23.57-2.35,1.16-4.71,1.72-7.06.07-.28.17-.36.46-.36,4.31,0,8.62,0,12.93,0h.42c.4-1.63.78-3.23,1.18-4.86h-13.68Z"/><path class="cls-1" d="m159.73.32c-.23.9-.45,1.78-.67,2.67-.12.49-.27.98-.37,1.47-.06.29-.17.38-.47.38-3.73-.01-7.45-.01-11.18,0-.88,0-1.76.05-2.61.34-1.56.52-2.42,1.67-2.81,3.2-.79,3.11-1.55,6.22-2.32,9.34-.3,1.24-.63,2.47-.88,3.72-.11.54-.1,1.13,0,1.67.22,1.2,1.1,1.75,2.22,1.95.49.09.99.12,1.48.12,3.68,0,7.36,0,11.05,0h.46c-.35,1.5-.7,2.95-1.05,4.42-.37.03-.73.07-1.09.08-4.51.12-9.01.26-13.52.33-1.42.02-2.76-.38-3.89-1.32-1-.84-1.52-1.95-1.73-3.21-.26-1.57.02-3.09.39-4.6,1.05-4.28,2.07-8.56,3.12-12.84.53-2.18,1.54-4.09,3.22-5.61,1.55-1.39,3.37-2.24,5.44-2.35,2.29-.11,4.58-.06,6.87-.03,2.45.04,4.89.14,7.34.21.32,0,.64.04.98.07"/><path class="cls-1" d="m185.16,4.91c-.17-1.36-.69-2.53-1.79-3.39-1.18-.93-2.57-1.29-4.02-1.31-3.37-.04-6.73-.03-10.1-.01-1.35,0-2.65.29-3.89.84-3.02,1.33-4.81,3.69-5.6,6.83-.49,1.94-2.79,11.38-3.24,13.25-.34,1.37-.66,2.75-.46,4.18.2,1.43.81,2.6,2.02,3.43,1.11.76,2.38,1.06,3.7,1.09,1.72.04,3.44.01,5.17.01h0c1.67,0,3.33.02,5,0,1.53-.03,2.99-.38,4.36-1.08,2.76-1.41,4.42-3.7,5.16-6.66.55-2.18,2.8-11.41,3.17-12.93.34-1.39.71-2.78.53-4.24m-9.02,16.22c-.3,1.17-.82,2.22-1.85,2.93-.86.6-1.85.77-2.87.8-1.09.03-5.8-.03-7.07-.05-.35,0-.72-.1-1.05-.22-1.1-.4-1.64-1.37-1.4-2.68.24-1.33.57-2.65.88-3.97.19-.8,1.88-7.75,2.31-9.49.24-.97.63-1.87,1.44-2.52.71-.57,1.56-.83,2.44-.84,2.69-.04,5.37-.03,8.06,0,.46,0,.93.16,1.36.32.66.26.99.8,1.05,1.5.08.92-.19,1.78-.4,2.65-.34,1.38-2.42,9.71-2.9,11.58"/><polygon class="cls-1" points="31.29 .19 55.29 .19 53.34 8.02 39.25 8.02 38.44 11.32 49.95 11.32 48.2 18.51 36.69 18.51 35.91 21.56 49.91 21.56 47.92 29.81 24.01 29.81 31.29 .19"/><path class="cls-1" d="m18.12,10.22l-4.74,19.59H3.55l3.28-13.81c1.64-6.18,4.87-5.78,10.72-5.78h.57Z"/><polygon class="cls-1" points="26.91 8.02 0 8.02 1.89 .15 28.88 .15 26.91 8.02"/></g></svg>