<?xml version="1.0" encoding="UTF-8"?>
<svg id="Layer_1" data-name="Layer 1" xmlns="http://www.w3.org/2000/svg" viewBox="0 0 312.23 106.86">
  <defs>
    <style>
      .cls-1 {
        fill: #231f20;
        stroke-width: 0px;
      }
    </style>
  </defs>
  <path class="cls-1" d="M305.03,52.23h-18.06c-1.75-4.43-3.71-7.89-13.83-7.89-6.99,0-9.97,2.88-9.97,5.77,0,3.16,2.49,5.82,10.2,7.53l16.36,4.36c10.71,2.86,15.9,11.36,15.9,20.34,0,4.99-1.08,11.03-5.82,15.97-3.54,3.69-8.9,8.56-26.67,8.56-24.44,0-32.47-15.45-32.47-24.78h19.03c1.87,6.82,6.55,9.41,15.81,9.41,6.42,0,11.93-2.29,11.93-7.2s-3.99-6.43-9.15-7.84l-12.93-3.49c-6.23-1.9-11.44-3.42-15.12-6.53-9.63-8.16-8.93-22.89,1.54-30.55,5.8-4.24,11.74-6.45,21.17-6.45,11.08,0,17.41,3.16,22.39,6.6,4.42,3.04,9.67,10.38,9.67,16.2M0,0c.15.65,37.8,105.98,37.8,105.98h22.47L94.88,18.33h214.92l1.63-18.33H78.36l-28.72,72.67L23.78,0H0M185.88,68.09l28.06,37.89h17.56V31.04h-20.26v40.75l-25.45-40.75h-19.4v74.93h19.5v-37.89ZM312.23,102.08c0-2.18-1.74-3.97-3.97-3.97s-3.99,1.81-3.99,3.99,1.74,3.97,3.97,3.97,3.99-1.82,3.99-3.99ZM311.77,102.08c0,1.96-1.52,3.55-3.53,3.55s-3.51-1.57-3.51-3.53,1.52-3.55,3.53-3.55,3.51,1.57,3.51,3.53ZM310.15,101.26c0-.88-.65-1.4-1.66-1.4h-1.88v4.24h.94v-1.36h.74l.9,1.36h1.09l-1.04-1.52c.54-.2.91-.63.91-1.32ZM309.2,101.31c0,.36-.25.62-.72.62h-.94v-1.24h.91c.46,0,.75.21.75.63ZM78.79,105.98h21.55l4.02-11.72h28.53l4.13,11.72h21.22l-27.16-74.93h-22.83l-29.47,74.93ZM110.38,80.7l8.35-24.91,8.24,24.91h-16.59Z"/>
</svg>