<?xml version="1.0" encoding="utf-8"?>
<!-- Generator: Adobe Illustrator 28.2.0, SVG Export Plug-In . SVG Version: 6.00 Build 0)  -->
<svg version="1.1" id="Capa_1" xmlns="http://www.w3.org/2000/svg" xmlns:xlink="http://www.w3.org/1999/xlink" x="0px" y="0px"
	 viewBox="0 0 70.65 47.35" style="enable-background:new 0 0 70.65 47.35;" xml:space="preserve">
<style type="text/css">
	.st0{fill:#020203;}
	.st1{fill:#E52421;}
	.st2{fill:#FFFFFF;}
	.st3{fill:#A1A0A0;}
	.st4{fill:none;}
	.st5{fill-rule:evenodd;clip-rule:evenodd;fill:#FFFFFF;}
</style>
<path d="M34.83,45.23c-4.63-0.12-9.2-0.62-13.65-1.96c-4.36-1.31-8.44-3.15-12.01-6.03c-2.81-2.27-5.08-4.95-6.3-8.4
	c-1.46-4.15-1.16-8.2,0.83-12.11c1.48-2.89,3.68-5.16,6.24-7.09c3.6-2.71,7.66-4.5,11.98-5.69c7.62-2.1,15.33-2.4,23.09-0.87
	C49.4,3.93,53.6,5.34,57.5,7.52c3.22,1.8,6.02,4.12,8.19,7.14c4.09,5.71,3.99,12.88-0.25,18.49c-2.41,3.2-5.51,5.54-9.03,7.35
	c-4.49,2.3-9.27,3.68-14.28,4.25C39.7,45.04,37.28,45.31,34.83,45.23z M60.34,13.5c-0.1,0.25-0.18,0.43-0.25,0.62
	c-0.52,1.4-1.38,2.57-2.47,3.58c-2.11,1.96-4.59,3.3-7.31,4.13c-1.95,0.59-3.95,0.98-5.94,1.45c-0.66,0.16-0.67,0.14-0.68,0.8
	c-0.01,2.83-0.22,5.64-0.77,8.42c-0.72,3.58-1.9,6.95-4.29,9.8c-0.07,0.08-0.11,0.19-0.19,0.33c0.24,0,0.42,0.02,0.59,0
	c1.01-0.11,2.03-0.2,3.04-0.37c4.63-0.76,9-2.23,12.94-4.83c3.19-2.11,5.85-4.72,7.48-8.23c1.9-4.11,2.07-8.27,0.11-12.42
	C62.05,15.59,61.27,14.54,60.34,13.5z M32.28,42.71c-0.64-0.9-1.28-1.66-1.77-2.51c-1.67-2.88-2.58-6.01-3.03-9.29
	c-0.32-2.33-0.56-4.67-0.51-7.02c0.01-0.35-0.12-0.52-0.47-0.56c-0.42-0.05-0.85-0.13-1.27-0.21c-3.37-0.65-6.63-1.61-9.58-3.43
	c-2.35-1.45-4.33-3.24-5.23-5.97c-0.02-0.05-0.07-0.08-0.12-0.14c-0.08,0.07-0.15,0.13-0.21,0.19c-2.33,2.63-3.47,5.71-3.4,9.21
	c0.08,4.33,1.86,7.96,4.8,11.03c3,3.14,6.73,5.16,10.75,6.68c2.48,0.94,5.08,1.34,7.68,1.74C30.68,42.55,31.46,42.62,32.28,42.71z
	 M35.44,4.91c-2.73,0.05-5.12,0.12-7.48,0.55c-2.5,0.46-5,0.91-7.34,1.98c-1.28,0.59-2.53,1.22-3.5,2.29
	c-1.21,1.35-1.22,2.82-0.02,4.17c0.86,0.97,1.97,1.59,3.13,2.13c2.12,1,4.39,1.49,6.67,1.93c0.57,0.11,0.58,0.11,0.7-0.47
	c0.4-1.99,0.87-3.96,1.67-5.83c0.69-1.61,1.5-3.15,2.78-4.39c1.63-1.59,3.31-1.97,5.07-1.08c0.61,0.31,1.16,0.76,1.65,1.24
	c1.28,1.26,2.07,2.83,2.73,4.47c0.73,1.82,1.22,3.7,1.56,5.63c0.06,0.34,0.17,0.53,0.58,0.46c2.5-0.45,4.94-1.06,7.23-2.18
	c1.06-0.51,2.04-1.13,2.81-2.05c1.07-1.28,1.04-2.78-0.09-4.01c-0.21-0.23-0.45-0.43-0.69-0.62c-1.63-1.25-3.46-2.1-5.42-2.65
	C43.43,5.34,39.29,4.96,35.44,4.91z M35.51,23.99c-1.69-0.06-3.21-0.12-4.73-0.18c-0.53-0.02-0.61,0.04-0.58,0.56
	c0.16,2.7,0.57,5.35,1.57,7.87c0.47,1.19,1.04,2.32,2,3.21c0.91,0.85,1.91,0.95,2.87,0.16c0.49-0.4,0.94-0.91,1.28-1.45
	c0.76-1.19,1.24-2.51,1.63-3.86c0.55-1.93,0.64-3.93,0.87-5.91c0.06-0.56,0.01-0.61-0.56-0.59C38.35,23.87,36.85,23.93,35.51,23.99z
	 M34.93,18.52C34.93,18.52,34.93,18.51,34.93,18.52c1.52-0.01,3.04-0.01,4.56,0c0.33,0,0.52-0.1,0.42-0.47
	c-0.34-1.25-0.64-2.52-1.03-3.76c-0.38-1.18-0.98-2.24-1.88-3.12c-0.92-0.9-2.09-1-3.08-0.19c-0.46,0.38-0.87,0.85-1.18,1.36
	c-1.08,1.77-1.63,3.73-2,5.74c-0.06,0.32,0.09,0.44,0.38,0.44C32.39,18.52,33.66,18.52,34.93,18.52z"/>
</svg>
