<svg width="140" height="40" viewBox="0 0 140 40" fill="none" xmlns="http://www.w3.org/2000/svg">
<path d="M137.164 20.2503C136.475 19.16 135.557 18.2992 134.639 17.5531C134.983 17.381 135.27 17.1514 135.614 16.8645C137.106 15.4872 137.852 13.1343 136.532 11.5848C132.917 7.39557 126.891 6.87909 123.333 8.77287C121.841 9.57629 120.693 10.4945 119.89 11.6422C119.374 10.4945 118.283 9.74845 116.906 9.69106C116.389 9.69106 115.471 9.74845 114.783 9.80584C113.061 9.978 111.856 11.1831 111.684 12.9621C111.397 12.3883 110.938 11.9292 110.364 11.6422C109.905 11.4127 109.159 11.1257 108.183 10.7814L107.322 10.4371C107.322 10.4371 107.322 10.4371 107.38 10.4371C105.543 9.69106 103.822 10.2649 102.731 11.9292C102.215 12.6752 101.354 14.1673 100.608 16.2906C100.895 12.4457 100.952 9.63368 100.952 9.40413C100.952 9.46152 100.952 9.46152 100.952 9.5189C101.124 6.8217 100.149 5.15747 97.5664 3.83756C89.1304 -0.523876 81.1536 -0.581263 76.5052 0.796032C71.6847 2.23072 68.0693 6.19044 67.2659 10.9536C63.2488 8.65809 59.576 8.88764 56.9935 10.1502C57.0509 9.57629 56.9362 9.00242 56.5344 8.42854C55.7884 7.33818 54.4685 7.2808 53.952 7.2808C52.4599 7.22341 51.14 7.22341 50.5088 7.22341C50.4514 7.22341 50.3366 7.22341 50.2218 7.22341C49.5332 7.16602 47.8116 7.10864 46.8934 8.83026C46.8934 8.83026 46.8934 8.83025 46.8934 8.88764C46.1473 10.3223 45.2291 11.9292 44.5979 13.1343L41.3268 8.88764L41.2694 8.83026L41.212 8.77287C40.2938 7.68251 39.0887 7.45296 37.5392 8.08422C36.4489 8.54332 34.842 9.17458 33.8091 9.74845C33.4074 9.978 32.3744 10.4945 32.0875 11.6422C32.0301 11.9292 31.9727 12.2161 32.0301 12.4457C31.1119 11.9866 30.0789 11.6996 28.9885 11.5275C27.2669 11.2979 25.6027 11.4701 24.0532 11.9292C24.0532 11.1257 23.6515 8.77287 23.3072 7.96945C23.3072 7.96945 23.3072 7.91206 23.2498 7.85467C22.5612 6.24783 21.2413 5.55918 19.4049 5.9035C12.9775 6.99386 10.6246 7.10863 3.50857 7.16602C0.926142 7.16602 0.294881 8.77287 0.180107 9.46151C-0.0494426 10.4945 -0.0494428 14.9707 0.122719 15.9463C0.52443 18.6435 2.99209 18.5861 3.79551 18.5861C5.00064 18.5861 5.86145 18.5287 6.5501 18.4713C6.66487 18.4713 6.77965 18.4713 6.89442 18.4713C7.0092 20.7094 7.64046 25.7021 8.84559 30.58V30.6374C9.59163 33.7937 12.1167 33.5068 12.8627 33.3346C13.7809 33.1625 16.8798 32.2443 18.0276 31.8426C19.1179 31.4409 19.8066 30.4653 19.8066 29.2601C19.8066 29.1454 19.8066 29.088 19.8066 28.9732C20.4378 29.6045 21.1839 30.1783 21.9873 30.6374C24.3976 32.0147 27.4391 32.4164 29.9641 31.6704C31.6857 31.1539 33.1204 30.4653 34.2682 29.5471C34.4977 30.0062 34.7847 30.3505 35.0142 30.6374C35.5307 31.2113 38.0557 34.1381 40.6382 34.4824C41.5564 34.5972 42.0155 34.425 42.5893 34.1954H42.6467C44.5405 33.392 47.1803 30.1209 50.5662 24.497C50.6809 24.2674 50.8531 24.0379 50.9679 23.8083C50.7957 24.2674 50.6809 24.6692 50.6236 25.0709C50.4514 26.6203 51.1974 27.4811 51.8287 27.9976L52.0582 28.1698C53.3781 29.3749 56.1327 31.9 61.1828 32.1295C61.6419 32.1295 63.3061 32.1869 65.1425 31.4982C65.1425 32.7034 65.8886 33.6216 66.1755 33.9659C66.1755 33.9659 66.1755 33.9659 66.2329 34.0233C66.5198 34.3676 69.2744 37.3517 71.5699 38.3847C74.6115 39.7046 76.0461 39.4751 78.4564 37.237C79.5468 36.204 81.6127 33.679 84.0804 29.5471C83.9656 30.8096 83.7934 32.646 83.736 33.1051C83.5639 34.5398 83.4491 36.0318 84.4247 37.1796C85.3429 38.2126 86.6628 38.3273 87.581 38.3847C87.6384 38.3847 87.6384 38.3847 87.6958 38.3847C87.8679 38.3847 92.1146 38.1552 93.664 37.9256C96.3612 37.5813 97.0499 36.7205 97.6238 34.7693L97.7385 34.3102C98.542 31.8426 99.1732 28.9732 99.6323 26.0464C100.149 28.1698 101.469 30.0062 103.362 31.1539C106.232 32.9329 109.905 32.8181 113.233 30.867C114.668 30.0062 115.816 28.9158 116.734 27.7107C116.849 27.8828 116.906 27.9976 117.021 28.1124L117.078 28.2272C118.168 29.834 121.726 32.9903 127.293 33.4494C129.244 33.6216 132.917 33.4494 135.557 31.0391C136.245 30.4079 137.852 28.6863 138.369 26.1038C138.484 23.751 138.197 21.7998 137.164 20.2503Z" fill="white"/>
<path d="M91.0813 13.6508C91.0813 13.6508 88.3841 15.4872 88.3267 15.5446C88.0972 15.7167 87.8102 15.9463 87.7528 16.7497C87.7528 17.094 87.6381 19.6191 87.6381 19.906C87.6381 20.2503 87.4659 21.1685 86.3755 20.2503C86.3755 20.2503 84.5391 18.6435 84.3096 18.4139C84.2522 18.3565 83.6209 17.6679 82.6454 18.0696L79.776 19.2173C79.776 19.2173 78.0544 19.906 78.6856 18.3565C79.3169 16.8645 79.7186 15.6019 79.8334 15.2002C79.9482 14.7985 79.9482 14.1673 79.6038 13.7655C79.4317 13.5934 78.0544 11.757 77.7674 11.2979C77.7674 11.2979 76.6197 9.97798 78.5135 10.0354C78.5135 10.0354 81.7272 10.0928 81.7846 10.0928C81.8419 10.0928 82.4158 10.1501 82.8749 9.4615C83.3914 8.65808 84.9408 6.70691 84.5965 7.10862C84.8835 6.7643 85.5147 5.90349 85.9164 7.33817C85.9164 7.33817 86.4903 9.17456 86.7772 9.97799C86.9494 10.4945 87.0642 10.8388 88.0398 11.1831L90.9665 12.2161C90.9665 12.3309 92.3438 12.79 91.0813 13.6508ZM96.5905 5.50178C89.0727 1.59944 81.6124 1.19773 76.964 2.57502C68.4133 5.15745 65.7735 16.0037 73.6929 21.3407C74.152 21.685 73.8651 22.3163 73.2912 23.4066C72.5452 24.7839 71.1679 27.4237 68.7576 29.3175C67.2656 30.4653 66.3474 30.9244 67.5525 32.359C67.5525 32.359 70.2497 35.3432 72.2009 36.2614C74.6111 37.2943 75.185 37.1222 76.964 35.458C78.0544 34.425 80.2925 31.5556 82.9897 27.022C84.367 24.6691 86.2034 24.6118 85.9738 28.5141C85.9738 28.5141 85.6295 32.2443 85.5147 33.0477C85.2278 35.2858 85.4573 36.0318 87.4659 36.0892C87.4659 36.0892 91.7699 35.8597 93.262 35.6301C95.3853 35.3432 95.2706 34.9989 95.7871 33.3346C98.7138 24.497 98.9434 9.34673 98.9434 9.34673C99.0007 7.28078 98.3695 6.41997 96.5905 5.50178Z" fill="#004EBC"/>
<path d="M25.2578 24.8413C24.1675 24.497 23.364 22.718 23.7657 20.8816C24.1675 18.9878 25.4874 17.6679 26.6925 18.0696C27.7829 18.4139 28.5863 20.2503 28.1846 22.1441C27.7829 24.1526 26.5203 25.243 25.2578 24.8413ZM34.7267 17.2662C33.3494 14.9707 31.1687 13.536 28.5289 13.1917C25.2004 12.7326 21.9867 14.0525 20.093 16.7497C18.7157 18.7009 18.3139 21.0537 18.8878 23.4066C20.2651 29.0306 25.7743 30.58 29.2175 29.5471C33.1199 28.3993 35.3006 26.1038 35.8745 22.6032C36.1614 20.8242 35.7023 18.9304 34.7267 17.2662Z" fill="#FF7000"/>
<path d="M104.224 12.9621C103.879 13.4212 101.412 17.2087 101.125 23.0049C101.01 25.5873 102.1 27.8828 104.166 29.0879C106.404 30.4652 109.331 30.3504 112.028 28.801C117.71 25.4151 118.341 16.9218 118.226 13.1342C118.169 12.2734 117.652 11.6996 116.791 11.6996C116.447 11.6996 115.758 11.6996 114.898 11.7569C114.094 11.8143 113.578 12.3882 113.52 13.3638V13.5933C113.463 17.1513 113.233 20.3077 111.684 22.2588C110.651 23.5213 109.446 24.0378 108.642 23.6935C107.954 23.4066 107.495 22.431 107.609 21.4554C107.896 19.0451 108.929 17.094 109.561 15.8888L109.848 15.3723C110.249 14.5689 110.02 13.6507 109.388 13.3064C108.987 13.1342 108.183 12.7899 107.437 12.5604L106.576 12.216C105.945 11.9865 105.027 11.8143 104.224 12.9621Z" fill="#66BC29"/>
<path d="M124.194 10.4946C121.727 11.8145 120.464 13.5935 120.177 16.1759C119.833 19.6192 124.539 22.0294 125.629 22.6607C126.949 23.4067 127.006 24.2101 126.662 24.7266C126.088 25.53 124.596 25.3005 123.448 24.8414C122.243 24.3249 121.612 23.751 120.579 22.6033C120.005 21.9146 118.169 23.8658 117.882 25.3005C117.767 25.9318 117.997 26.2187 118.398 26.7926C119.374 28.2272 122.53 30.8097 127.121 31.154C128.384 31.2688 131.712 31.3262 133.893 29.2602C134.811 28.3994 135.787 27.0221 136.131 25.3579C136.361 24.2101 136.361 22.7181 135.442 21.3408C134.18 19.447 132.114 18.1271 129.818 17.0367C126.433 15.4299 127.121 14.5117 127.867 14.0526C128.556 13.6509 130.966 13.9378 132.86 15.7168C133.836 16.635 135.787 13.823 134.983 12.8474C131.999 9.40421 126.892 9.05989 124.194 10.4946Z" fill="#F01446"/>
<path d="M54.7553 10.724C52.8615 16.8071 44.8273 30.7522 41.7283 32.0721C41.2692 32.2442 41.2118 32.3016 40.7528 32.2442C39.0885 32.0147 37.0226 29.834 36.3339 29.0306C36.047 28.6862 35.4157 27.8828 35.9322 27.4237C37.8834 25.8169 40.2937 23.3492 40.4658 21.9145C40.4658 21.5702 40.4084 21.2833 40.2937 21.1111C40.1215 20.8816 35.014 13.9377 34.4975 13.1917C33.6367 11.9291 33.6367 11.6422 34.6123 11.1257C35.5879 10.6666 37.08 9.97797 38.1703 9.57626C39.2607 9.17455 39.4328 9.46148 39.7198 9.80581L44.2534 15.7741C44.5977 16.0036 44.8846 15.9462 45.1142 15.6593C45.6881 14.9707 48.1557 10.3223 48.5574 9.63365C49.0165 8.83022 49.7626 9.05977 50.5086 9.05977C51.312 9.05977 52.5745 9.05977 53.8371 9.11716C55.0422 9.17455 55.157 9.51887 54.7553 10.724Z" fill="#66BC29"/>
<path d="M57.0513 12.2161C54.9854 13.536 54.0098 15.2002 53.9524 17.4383C53.895 20.4799 57.9122 22.4884 58.9451 22.8901C60.1503 23.4066 60.3224 24.0953 60.0929 24.5544C59.7485 25.3004 59.0599 25.4152 58.1991 25.243C56.6496 24.8987 55.4445 23.5214 54.2394 22.8327C53.5507 22.431 52.5177 23.8083 52.403 25.0135C52.3456 25.5873 52.5177 25.8743 52.9195 26.276C54.0672 27.3089 56.4201 29.6618 61.0685 29.8914C62.1588 29.9488 65.0282 29.7192 66.8646 27.768C67.6106 26.9646 68.3566 25.9316 68.5288 24.4396C68.6436 23.4066 68.414 22.2015 67.668 20.9963C67.0367 20.0208 65.8316 18.9878 63.823 18.127C60.4946 16.6923 61.5276 15.2576 62.331 15.0281C63.0196 14.7985 64.1674 14.9707 66.1759 16.1758C67.2663 16.8645 68.6436 14.2246 67.7828 13.5934C63.3639 10.3223 59.2894 10.724 57.0513 12.2161Z" fill="#F01446"/>
<path d="M3.33671 8.8875C10.5675 8.83011 13.0352 8.65795 19.5199 7.56759C21.012 7.33804 21.1268 8.08408 21.3563 8.54318C21.5859 8.94489 21.9302 11.0682 21.9302 11.5847C21.9302 12.1012 22.1597 12.9046 21.2989 13.1342C18.5443 13.9376 17.8557 14.1671 16.0193 14.741C15.1585 15.0279 15.2159 15.3723 15.2733 16.0035C15.388 19.6763 16.5932 24.5542 17.454 27.3088C17.7983 28.4566 17.9705 29.26 17.1671 29.6043C16.0767 30.006 13.0926 30.8668 12.2891 31.039C10.9118 31.3259 10.6823 30.293 10.5675 29.7191C9.30499 24.8986 8.73112 19.9059 8.61634 18.0121C8.55895 17.0365 8.27202 16.1757 7.41121 16.1757C6.49301 16.1757 5.51743 16.2905 3.56626 16.3478C2.53329 16.3478 1.95941 16.2905 1.84464 15.3723C1.72986 14.4541 1.72987 10.2648 1.90203 9.63354C2.0168 9.00228 2.76284 8.8875 3.33671 8.8875Z" fill="#F01446"/>
<path d="M137.508 10.9535H137.68C137.852 10.9535 138.025 10.8961 138.025 10.724C138.025 10.6092 137.91 10.4944 137.68 10.4944C137.623 10.4944 137.565 10.4944 137.508 10.4944V10.9535ZM137.508 11.7569H137.279V10.3223C137.393 10.3223 137.508 10.2649 137.68 10.2649C137.91 10.2649 138.025 10.3223 138.139 10.3796C138.197 10.437 138.254 10.5518 138.254 10.6666C138.254 10.8387 138.139 10.9535 137.967 11.0109C138.082 11.0109 138.197 11.1257 138.197 11.3552C138.254 11.5848 138.254 11.6422 138.311 11.6996H138.082C138.025 11.6422 138.025 11.5274 137.967 11.3552C137.91 11.1831 137.852 11.1257 137.68 11.1257H137.508V11.7569ZM137.738 9.92055C137.164 9.92055 136.705 10.3796 136.705 11.0109C136.705 11.6422 137.164 12.1013 137.738 12.1013C138.311 12.1013 138.771 11.6422 138.771 11.0109C138.771 10.437 138.311 9.92055 137.738 9.92055ZM137.738 9.74838C138.426 9.74838 139 10.3223 139 11.0109C139 11.7569 138.426 12.2734 137.738 12.2734C137.049 12.2734 136.475 11.6996 136.475 11.0109C136.475 10.3223 137.049 9.74838 137.738 9.74838Z" fill="white"/>
</svg>
